<mxfile host="Electron" modified="2024-07-08T10:01:03.232Z" agent="Mozilla/5.0 (Windows NT 10.0; Win64; x64) AppleWebKit/537.36 (KHTML, like Gecko) draw.io/24.5.1 Chrome/124.0.6367.207 Electron/30.0.6 Safari/537.36" etag="RMzy-XiYpUWqCOs79snN" version="24.5.1" type="device">
  <diagram name="第 1 页" id="4W-yy3hXio1PYK0izE2a">
    <mxGraphModel dx="803" dy="814" grid="1" gridSize="10" guides="1" tooltips="1" connect="1" arrows="1" fold="1" page="1" pageScale="1" pageWidth="827" pageHeight="1169" math="0" shadow="0">
      <root>
        <mxCell id="0" />
        <mxCell id="1" parent="0" />
        <mxCell id="wiwpykqce4NtUT54EgSS-1" value="&lt;b&gt;出现的问题&lt;/b&gt;" style="ellipse;whiteSpace=wrap;html=1;" vertex="1" parent="1">
          <mxGeometry x="30" y="90" width="160" height="80" as="geometry" />
        </mxCell>
        <mxCell id="wiwpykqce4NtUT54EgSS-2" value="" style="shape=image;verticalLabelPosition=bottom;labelBackgroundColor=default;verticalAlign=top;aspect=fixed;imageAspect=0;image=data:image/png,iVBORw0KGgoAAAANSUhEUgAAA94AAAHJCAYAAABzIeEhAAAgAElEQVR4Aey922tcR7Y/3v+DX0TeDIFhYDDnPARi8jSGQBIYwgkkzYk6NlE8FlYiYjlxjMgIGyHGQmhiIsRPxrIsMor9dRysAQXLdDiScEaSnTONDD4ixhlsQcZBOCE0OA0Cj2D9qL13Va2qXVX72jdpPZgtd/euWrXWZ93qsqoAUAH6RzwgDBAGCAOEAcIAYYAwQBggDBAGCAOEAcJAfTBQIMbWh7HEV+IrYYAwQBggDBAGCAOEAcIAYYAwQBggDDAMUOJNK/6044EwQBggDBAGCAOEAcIAYYAwQBggDBAG6ogBSrzryFya3aLZLcIAYYAwQBggDBAGCAOEAcIAYYAwQBigxJsSb5rZIgwQBggDhAHCAGGAMEAYIAwQBggDhIE6YoAS7zoyl2a2aGaLMEAYIAwQBggDhAHCAGGAMEAYIAwQBijxpsSbZrYIA4QBwgBhgDBAGCAMEAYIA4QBwgBhoI4YoMS7jsylmS2a2SIMEAYIA4QBwgBhgDBAGCAMEAYIA4QBSrwp8aaZLcIAYYAwQBggDBAGCAOEAcIAYYAwQBioIwYo8a4jc2lmi2a2CAOEAcIAYYAwQBggDBAGCAOEAcIAYYASb0q8aWaLMEAYIAwQBggDhAHCAGGAMEAYIAwQBuqIAUq868hcmtmimS3CAGGAMEAYIAwQBggDhAHCAGGAMEAYoMSbEm+a2SIMEAYIA4QBwgBhgDBAGCAMEAYIA4SBOmKAEu86MpdmtmhmizBAGCAMEAYIA4QBwgBhgDBAGCAMEAYo8abEu7kzW1tlWFucgAXv35dQJXnUXR5b/7oIl8a64N3Xn4MDLz4H75z4CBb+RcawKQ7x5y8D7E/Awj/KsEX4rzv+myJnkivJlTBAGCAMEAYIA7seA5R4kxI0Vwn+NQSvFQpQ8P71wGoz5fHrElQ3LslEaPESPKwuQfXXnZKULsHaJy9Ah+A353sBhm75Y3x49VXYy77veA6Gbq02FxvNxEKj+r7VE2C/AIXXh2CzUf1SP4RtwgBhgDBAGCAMEAYIAw3FQMbEuwyXXpfB+2uXyw0lnlYudkBC2OzE++cv4frYG/DK7/bIBMiQmHb87gV4d+RTeLjVvjxf+2SfOsZn98GBF/d5ibafeF+CoQ6pz4X/OAZrZJDra9Mo8fb5+88BOBDoXUf/BK38G/VuDi68GOhnRxcstLEtIt8d+BHCfX3tq1GP2teHk96Q7AgD7Y8BSrzJMDfX8TUr8f53GRZGDviru4ZE21+BR0mo95sDcKldt2T/cwBeEePcBx/P40myVdj6NzNml2D0P9CYaQW2/rpBibfH47WR3wSTQr+B0Tvt71jrEhzdOQb/Gejwf45cqj82yTfWnceEe9L1utgK0t266y7JjXQ3LQYo8SYD1VwD1YzEe+NTePd5lGAGweze5w/AuwPHYHRE/vv46AHY/yz/bfsm3puXD8jV7hP2FcWte0PwATv7/XYPLGyQYU1rWGO/14qJ97+X4LvFIRg9+gL89q0GbH/fmoCP+U6LlwfgIdlkg01ehYV+vivnBbjwT9LN2DrWqngi3BtwTrhue1y3qr4RXaRvLYIBSrxbRBC71tg2OvHeGIF3RCLNEuo9cKBvAFb/5T7PvLVxES6cKMG1Nl3xXh3kkwcFoCMhLRTctWLi3WCaqrOvikmhd2aXKDgw+aSfR+AdvmPl7REqQmniUZt9RrhvITvcZtjZtfEiyYn84w7AACXeO0CIbW2EG5l4/3oRhvBKd8cLMPqP3RHo48SbF1Jra9zsFL1tcJIbS+YNpWkOLrwcTArRuWVrUPXw4gvB5MQe+HjRPUkYS8Y7RX/adhyEe8IpTTwQBggDuxEDlHi3rePeIQrbsMR7Fdb+jIuL7dtVVbsp8W5RfWlokhuTB42kic4tW5NtGZCg2gtU8DAGv2LivJm+n3C/M+TYTAxR34QhwkBbYqD5ife/V6HKrmyqLgUFnhxOE/22mkdFV9xeTldGbbFxxFIGOW5v/HmMJ+iX0eDzNOPKCOZPNWNbjDavPa2dRiXeSnGxArz217n6KuwWl0GA7ViYcGCfv49lkgCzdU+88XgT0CWTixhj5zzI+PR01CsmF9Enu16O61IW/cQy0/Wonkkupl/v18XDetKk9Jvm3LJqN/2igBFyVPo0/zY3m8n7wjLPqA9bi13iCsBXLsa3W3JMcX2SmTdcR3F7efvfSDlifmbRRawTadvBbSTRK44NSIN7t2y4jOhJfCIMEAYIA62NgYYk3mtjz8GBF/1/H8wF1ZQ3J2D0bf8qI1lB+hl45cQQfFfVmMZ++997RfDBf7/35RJc+j/HVuHNT+GDoN8DL34krkaq/t8IDBna6/jdSzA0+6X7/Nw/PhJjOdD3qX/v7q9fwqUTL6AK2bYiXEvwcP4jePcP4bGwMe19/lUYunwRNp1JQRmu90l+jv8j4FX1S7g2+BL8lhcp4ucBO/bCm4MjYZ6KIEDjNVTAxp/Cs/vgnYi2TLL2Cna9/Iw4x6ncV2xNvJfg+gk5ztf+v5hVfP85BO9wmf/hGKwGvJTVYwtQt2uyqnOOq8megf1v98ClW7iaeJj3ABb5bk7A+FGMMX97LsPs6KKpTbUdWSCO4Uzy1dPLMclbk/zsRjzAM5YtL1T38hsw/ndfNzfnSlJnUF+83ajv+e/4M5JGo94vweqIqh/mLfdL8N1sD7xpuF7O088o+4D0yqZHip3JOcmt3vvUw0nIDjC5MP1lV+IZEkFFBs8jXe3YK2Xn6VUJrm+acJvis7jnlrfKsHq5B97BdHH7VtgDv/1DCS44j4youpCLzTRizG47FZkjjHBM259LcO1tXp/hVbj2cwSfNy/CJZcf8GR/Cca5jXzRIU9WZC/CX43Ozzknmo262gjfr/A4B51mt2BYr530bftC3PofcXGvjCFC7vTb+k6kE3+Jv4QBwkBOGGhI4o1X21hhp61bPXBATxBFIFWAwvNvwPWgonL16y7Yj78L/b0PPli0JN+hpG4Vvrv4KkqQeUCjPjv+cAzWDMGpFxyFAuU5uPQWrzbL2zEk3hsj8MHv9d/x32vP59+Aa9aK0urd6Sx52Lo3oBUM09pjPGPnme9oq80hEC3BwsBzoQkOPtEhns++ChfumdvSZQ0bQ/CmLmt8TVVIRjLAwMVnCh09sBqiV/6WB64Pzz8nEnx55Q7aqlkoQJJVI95u1PPhbMmNaYTb/b0j8NA6uWKQb5S+FPbAm5f1lTC1HSE7RIf4bPCiMKgh+dl4/uuXcOFtlKCZ2mV0nf8SvsMV1VFfnKdKxXXD9/x3/BlJYwhTq7A6iI8Z+PoRSrx/noCPY+jo3rcH4DubffD4FU+P9vd+Cg//3iPwqkxI2fhu/XwOLr0eJY/ALjzfBQtaAqfIwChLblMMts1KU1g/uQzZM8655epihK8QtO6BNy/akkBVF3KxmQaMZfYtJj6inTpR95szX+n0q4xXnuwvwpDgm0We/xyC15QilFz+4ef+/gnrZLWuqw3z/ZyXOeh0LP9aKEDInnAatGcc3GM9ob/ddoT4Q/whDBAG2gkDjU+8B3v8RKzjOXhnbAQWFidgYX4otALdcfRT2LxzLEi698CBP34E19hvFz+FSyOvqgFGRwkWTIGwFhxduvpSkFQ+A6+dGAjam4Drl4/BO1rA3fHWiL+arTlN0BLvhfO86M0zsD9YRdj/rBbM6MknW4U+8RFcmmfj8cfPru7ZK4Ihlii/BJeMybcWRF4eEYnt3tdLcGEWtflHLYnueMlRlVtPTp6B1waH4LrH8wlYmP1I5VHHG3BdC94Z8JVA668TsnDSs/uClbN9sDdm4g34upXCnhiBDU6wn5NX7vxzAA4I3qLPddmm/P/DyxxXflDKVrc+GJO8Y/h6V1sV7nhryHJtkirfj/8aTFx4mOGYNehAYZ92/7G6yhd3xVuR32XTSjoz8Ppk0x747X+r2JM7SvbBm2/JyZCCIbFWkj7D97pBjaRR0/vrX5cCvd8Dv/19sNr/Ow1PeuG9Zw/A0OVPff1cnIBrY6rNYfapasSLrkcF2PvyGzAq2hpRdi689jq65g3rhbFtl3NFyRRb2Ub2jdmYKPobv+KNdNVRVE1ig61sYz4GfkOZbNB1gPNL1amhPGymhrFcfItB5nKnjruoGktolQnqZ1+Ad0ekDbrGVmuDRLrjrZfgNWEPNV/FaUB+ju30+OBi4Ks9fzAC44pv2QPvzpknvxVdbaTvZ+PIQ6d//hTeRRPHHb9/Fca5j2W8mB2AjwPfHS/xjod73ebR/7ku05OwQBggDLQ3BhqeeHurbM/3wKq+nZytgPwVJzDPwF4vUNgHH39tcOpaMmu8IkkJjvZAR0cBOn4fXu3xQbwE353H/e+BD742rOqigKTw4gvwCmvzrQH7Vm7N+Xur6YaxezRsfgof46rbr5uSMzWI7OjYA4WO58w88raND4jEnPG+w3KH86aYlGBbUl+1JP1zcO3ob8QKnWkFBgdaB15+ATqCVU8lScGrvYqMwqvaMvAsgKk/xQChgjUFdB/w1tclQXOhEO5DaYMHnjGfasC7B1755JIlIavA5ry6e8N8zlyVr68vFsxqOuDiD5aLK0DEvzPqFNNTMdnEJhos+smw949jnn6IlXUW7BsSa5lcmb/X5RNJo4KpF+AVVjX7+a7wFmmBwzJcQ7tW9r49ZN6RsDEC7/4HX/EzJ0IMax0iqfFX/I01H1hbWNfZO1kT747n4IPLl6AqxqU6JxWrjgkobOMy0aT2j+WIzy3LnSnh3zNs7H39GCxYr/vTJoGM9k3VqVxspoKxnHyLbnPwxKOrqNqvE/ABTg6ZPzJNRP97Dq716js/7Il3x+9LcOmOwfd6dGoTTC+a71/HutpQ3w/56PTaJ8jfWSdLKwDVL+G7GFvN4+Ie6wr9HbYLxBPiCWGAMNCuGGhC4m1blWAgQrPBQfC6/xN5/lRnMk7KCqaASwmO2CqyeZVWtrsE14+i7eCmoBMHpYxGNolgCnKCIEpJUiJ+69GxMYRWI0zBvRpEsnuobasNfFzVuTdQMmAItHCAV9gHQ/8wTDjwoFAJ8t6A69okgh5o7R+86DwDCIqMDEkxTqYdK2NsrBgP+D5gJbH7L9NkRloDhq6EKRQgcqze5BJa4TSOR5fvC3LlnssAPZWxdfSIOgZc9vyJ5ZIp8VZWgPbAm1dtq+I+T9VE1JxYK2MwJOZ8DPyJx2KcHFAw5do9EtCIilcxfV5zFF1SxhNa9b4EoyiZjsSDoutZE+8lqBp2oHCe+U98Xrhglx22cSYbiPCnth9XjzAdbnxv/RyjMJhiI0w6oOtUDjYzhLEcfIvGV3zUxnU8Zu0TlExH4JftVhHXt3k+1uAPGB0/L1knEIXM8VnlwktwzXD2H+sqm6QbvWPDSL6+Hye46XWaJe98oq1gnojXZCZ4Y/w8Pu7d7dh4SJ8T3wgDhAHCQKtjoPGJd0Qgh2eYC4WIYjJ/75IrmaaESguOXMGLEBQO4grhxFLZal4oAE7wRBvC6eJgwrKCLn4rlQUnkOEJBS2IRCu74f55m5iOQihRxwGea9XUb38VFk7YgxE10IqQHxu7IiND4q0FisZdCKwdPHmgJbRKYheBPzsPOS/RE2PFdtwhJF9VFuHxqPKNlIfCP0sQrR0ByJJ4s0kcsYIdC3taoG9IrBX5GL7XZYIxFifxdq2oAuBg2DTRheQd4OyDYFKwUCjBAk7SFTx0qd+FcMDaxdWNsybeGp3G/tiuIjTxY+N1vRNvdG658PZIdIJnGYvExUX4WMjEpAOqTuHdMLINnX+qnoYmNxW9i1k3AuPD5FuUcWK9cdlRTGc8H6MkpQUTv3Re2P4/B5f+S/oCk13Buhq1oyM/35+XTquJ94Hzeh0NG18sn+eOe0s/Co7oN3YdJ94QbwgDhIHGY6Dhifd/OlawGQCUINyUTGOnopzdNSRtSnB0wLJ9Wmf6JRhC2/ZCwQQOSqOCJxxoxSwO5inBrR65Qh1axVSDSPN2ZX1MFVj7M1rJVwJutsovg6dwIhhuC8tID0aUQCu0IhhuKzrxrgCeGAhPRPht4mCyQxmfhqkcE28cKOp9uozZ6qCURcef9R0dqnxDAT/Gv/c3OtvrCKKxXEKYRm3i34WTWnXSRZe9bcyYT43fav4bxyob2yL6KbwrkjYtkUZ8kWPD8lG3a+PCfjacynZ83CoTGTliU++HJfnsajRWZVpMnGh6It7BNq4ONMmJxRgTHUYZIDvCrnbaHEEyNCWSWGbxrxK020x9wjAn34LHinyHc/JN8YFx8Ktj3sQvxF9ME/7buz6QVUeXvsNkV7A9aZjvz1GnFdvV8RJccN2igvlj+DtX3BvaF/pL34liocSTGLpMeCG8EAYaioGGJ97hYF41DDipKwzIastGA6ok1lGJt+F7I9jUIC20lRYHpZZzbZxWJai2FWsz0aCMS9/Cp9JnCnZ4//ip8FWhBa+Y/Abe7D8GoyPufx+/Jc+96YkUDrRiJWbKWC0y2poAucpo2IXAVg7FKnw40VLG7joraZKF9TN1wiKEE+t72kSAIgumC0nl28jEew4uRATaGHP8b4X/hmQv6nveDn9ijBntiYKpiGQEJTiF/3gJPo7A/uhIF7wpznnjSsYYgwUw0mXCBLYnOSW5Wz9/CauzAzA6UvKv1jNcjeYl3wZZeDyuA01cdsrOlCS6+O9VeHjnU7g0dgw+PnoADryoX0XJE0BTIplUp3yfpOBS11MFYxa7FZK3SofdZuCdEGF7JngJFVDqV8TGTzyb4fezCtV7F+HaxWMweuJVr0Cm8ao6S1XvSF1FPFL4ncX356bTbIJFFi/lE1Z7X/evhTTWbkDjwXJKjXtbe/R5QwNlRZbEe+I9YYAwkAEDrZ142wJDPuCo4Cfqe96O8lSDo1AAnSAoVQKJqLEoNLgCI5W+VIm3EqDhvnjwmuCpjStJoOU5s1gywoFoeKu8smpp2v6MjyRE7VJQ5KBOCqnON50cvDacGEraLpafKenwx4Dl4sIM/l0I+xCvL5VP2kSDhhf226R64qZRX42MSIqwLMTKd3z8S14mlVuALdy/opcu7Jm/q/7fEHygVc/nyYLxaZBFND7Nfesyt/0f716JdfSH3Z+s3b9uHIuQnUkH0slGwaUum1h2S+eVSkdYv4Lf47PTJnuGbJRCo02e6Pe+XOLo8RJ8d7kkKqG7ee7ri9QFOe5IXUW0JRqLi/9YpwQu0ui0Pw7rdWKscvzYBGxaihliHUiMe8QX3A79LbFFvCBeEAYIA+2IAUq8Qw5ODY5CqxLYqevBmNZWokBCedcVGKn0mYIdExAVWpTVG9wXum4puBrtQNRzTN0qnSTQ8uh0BVCYJ3gVQzsXioMa45l7pYiVdo0U7iPR3+nk4I3ZiaGk7WL5mZIO3zBjubgwg38XTgzi9aXjT8GeITmI+l5vz01jhsS7Y29w5V1w5VgU9l98Dsb/wR1fUrkF7zmxwNuOfqoVy1mS8Qzsf/0NbwXfu2Lw1pewWV2C7y4284w3PnvrOrfMx6tVLGe3MvzuOXjnxDEYDa7rW9tYgmp1ItEZbxf+MdYUXCo2MyHGhF1RMRLyLcHvIu2ZaC/5pJU/vig91iqWs+T12X3w2tEuGB3xrzRcvVeGavVLuPC6TGhNfI3U1bRjcfkNrFOZdJrjsALAJoDQlWzKRMSzB2D077bq76yNpLhH/SL+YGzS38QjwgBhgDDQnhigxDvk2PDWa7yVNBAwdupJEu845505LZsj8KaYqc9nq7lyVk1JfnAQpp5ZTaPUSQItr31XAMX54T1txYZwMGvahs7kpsrUeWZS6dOl1Lhfwyq8ox12dZsI3PSAvqW3mqfDSlRBLyXBUbBp5n8kxmJjqgJKscSIoyNufVDxEKdWgtce3o0RYU+s/Ss3DbAr7S5arxSLxesENs5Kkwn/qLhUHB1Ub4R4A67903bbAsalafJJlY0pQTSNw24z0ybeqh0y04HsnFYk0kSjIk/TzR4mOYC7GJ1Sub/jBRi9ZUsqo/kaqauIPmUsUXbApeMYv5l02mB//r0E3y0OGHaW7IOhWxZ8JsS9Sc70mUEWCDvEH+IPYYAw0C4Y2EWJdxesxjHUSmEWQ9Ec7NSjAmX82yTnGfHqbug9Ndj5+O9xlE09j6wWZFMr08ZOGCy8TBJoeUriCqC0Ph5efEEkrGJlO2ZQg98tFNxXGMVVXjzWqMJBuE0c0IffU+VrDs6xzKOSDv+3mFZXm/h34RVvNXGIi5XVAbkqptcEYHxJFHCzCu2ovTCNCZMiZTdExHlwDY9Ypl6FclFnoACx6hvo18tF2RNL/0otCW03iEpjTF5ju5WSJr1f9n9ZXMp9btl/F2Mt6vdROqDqVHabqWMsJ9/C5Itsv7sav6/XiuzjJpkK5vWJCtVXCDtrxJ7KV5NdcdsTbMdiYpPT4fIbyviy6LRKn45pdrTjXXR9YOH5j+A7Th96JsO9u0+dBvo/8YswQBggDLQXBnZR4h0VvPmCw9v8CqGkV1shiwpKlSQ+Xv9MgXB15PDKkBrsxAnOAJ8ZLITpUKpsR600oIDCpOxJAi3vfVcApfeFxxHwXibU4XEp9Cn3T0ffv668q9MR/F8Jek1YMb6HC5SZqjqr8jUFsyptUUmHj2ssF1eb+HfhpFYtIBbGpsn4XVRuCTAm3s4dAHqbOCGzFDFLgil2bl3cYpDtGALW23hXVqHVTbbDJcqeGPGk3ligTqrpvFPlZ5KFh616JN74ur+Ic8seDcqun4jEVqnsrSeSjAeqTuVhM9XbGCJsD7cXs6+KiUOjb1Gul4s5OaiMPd47ykRX6CYEfKuHYeIZY1ApemnYHaZdYxi2Jyo+Fbqi/JBTx/PTadXWqvR636GJ30KIl9o1l3Fwj/lLf1MBJ8IAYYAwsOMwsIsS7wJ0RG7FuwSjaAbbWPwnUVCqFgXreGsIHkYpkbJt1BTQqUFkIcb90Wuf7JMBn8n54+vLWPCwYQgwougOvncnboZ2nQGU/nvMTxZgoyTWNC6NZmXLMzsv+tYAfPer3keC/+NkorAH3rwcfc+rso3TmKyr8nUlyX5Q2MjEuwLKZEMMrOg8NyZ7/0DX5xXcZ38V/hXySLwrgCeeWPIbqaMarkRwjlYrC4XfwMd/t2w9Dd7f+nsX/Kc4UpI+8cY651xpV3StAEZZMNoS2bh4+oInNN2rqEF7Cq2uVUt2HhndsmBKfrTEOxebqdCXk2/BE4sROxcE5rRjNP85cBGc1bZ/vQgfo6r84WQR2xP30SMlUc67qnmmxDtHnbbpuvgc8ys86ZMY96LdeHolcUC/J14QBggDhIF2wMCuSrwLLDk6/6UlMFmChX6UoHa8Add/NoA4aVCqzIgXYH//BFRtzvXfajGhDuO5cDUxY2eFXQlk9esu2C+C+z1gvhdaW3l7vgdWq4axC7pXYXO+CxWWkr/FSUDUCoenIEoAG1GBmvWPkpt3B3vgQDA24ySJoJfTp/LXO2fNCuMsli2Y4O9VoHrvUxh9/VW49C/5GaNfOYda2Acff207D1kB2BiCN9HqqlkWqnxbLfFWrsVhvHdgpfr3HoS9YLu5KaBWJjAKsH/Qkjwo/PPbM2IsKaZ0HR28aNdRhqmtMlwf+AjWDPi68DLaVt/xkn0SyzCWtCveyuTG88dgzVRl+dcv4cJb8v54D/smWWg6VmC3AGSZnPJ4hOxLjHPLvuPE55D3wLuzZeOst2rfGO/DyY++4p2LzVQwxvrN7lvk7h3TThjV7uDgQr4X0PFXywSg5l88DIT4pR492j+iFs/k/bJK39KW+Zg32aok/kBJ5G3Y5Dqn8N/gN3LR6TIsXI2oWn7vI+GDCh06HWlwb5cz5z09iUeEAcIAYaB9MbCLEu99sD9Yzfbu4Vz0q/xWq3OwNvsRvPN7HJTaEtR0q0EPL78EHSL5LUDH71+F8dmL8N0mq8i7BNWNS3D9cg+89qwfwHgBEUtojAGvmpjtfz6YLHj2AAxdnhBtPrwzAuN/fE7t15jIB+C9c0xNkjqeg3fGRsCvGizpvHaxBG8G9wJnDbQ8wxEVQPFASzzVrcZ+8OheJVUMFAs+335G7gDgcnl2n18t+eIILCxOwMLiCFwYOQYfvP0c7BdyMQX1ejK/Bw788SO4FlSRZvL17h8ePAB7eV8FR3Kprc6ZeKyMJ+YVXzgAdrWJf2dMasFf9cZ4Lriw1/EGjI5EV9JWdmUUCrD39WNw7c6crx+bX8LCxRIcYJMWHW/Au29LPTHSmBhTFdD793X0Ejxk+hn8Yzp14cRL4N9jrAfZ8fRok92JPMKxsA9GP+mSWEy51Ry0JKPjDz2Sd9UyfDd/LLAt++DNt56T/dmSG20ihLV33atizdoagYXNhA4PTZbF2ubt6Tre3cLkvQ/evSjtW3XjIlzo8+1bx1svwWtCt0w6WgebqWAsD9+C7JpxJ4yL5+pOLTYJ4NkgrD/Iv+z/5JizCryeyL/yZ+QHNr+E6xy/z78Eb74oddFkV+LYE27Pck28WU0BvNOLTVB7fjeJTge4Yb5wZAgWPB3g9oDFDVyvfB7s/0SbpEiFe5ec6TuOFXoSFggDhIF2xcAuSrx7YNW0yiQCNh5APAPvuLYMJ13xDoLI7y6+qiRefsLI+1SfHb/vggXTarvXlhpEDv1dT/zUtng/e98egoemlTCR0FaArVB6yU2IJ6Y298CQuEpJGoAkgZanNEoAa0lmEI3sHTUwLEC8s8aSRna9y9oYT35MY7N9ZgrqKwBsNdGUzBv5uAcODDh2PbRB4s0Kia198oIyqcNxpjxZReQ7q/GKp/16EYbQMQ+lHcFHv3JwJMZSYIphYvXP6kSVmYYAGx09hhVvH2MP595QJ7EE/RhXz8A7V+dy2ta9Cmt/Rrt1jP35RyEeXo6eBGE6pictkhcWHdB0VDpEnEDHO4Ms3v3XSJRZ0lUAACAASURBVGhVVdIR8NKboHRv99VXvHOxmTrGMvqWrcUuoU/xdu9ge8Z203yqFvoyYqAA+3s/hYdRk3Vbl6J10dvNMQeXWvE6MYHFrDqt+toQ9hCPfb5imWTAvaAft0d/C7tA/DHu/iH+kI4QBtoDA7sr8WYG++eLMPq6YcWTrbK9XIJL/+fYKszeT5V4B2DYnIDR/94rAizdkXf87gX44PKX7m2uxsRsCVb5KgQKBrz2n43TJgLr5gSMH33BMUnwDOx/uweuWfgUmRTpTlMPYPXvTf/HZyENxeJiG5+fL8G1wVfRijZOjNDf3mr4AFz/pxsbm4vHxG4AXbZsFeq3f4iBL6N8kXxC/IhKOvx3sVxMK1OcZ/h3xtVk1H/177bx7oHf/vcxsTKKV7LCVdzR2H79Ei4Fq5g6/zp+L3kXSWMaTAXj2lz8CN592WwffH3aB+8MjsB3zqMYFdi6N2S4csjHlGJnstgTJAs2GfLd5WBXQMgG+McpmIyxLKxnvL12bTZFv94QyU+hJ/gc62rsc8uoTau93gMH+oYCOUTpgJpA+fi3jY/dWR3DZpowZqU1yrfkdM8z058TFtutjAnzy3IFo0MX2W4Uf9eDia9Idk0rrqbSkF6nV+Hh1RK8Euzw0m0S+3/H717yjipx+ymeWXFv0iX6jBJOwgBhgDDQ9hjImHirDk44nVYBhik4CmjbYlvMvS3FE7DAtgUbt3XXaXxbS8C2nPpbmtm2Zrb9zV2ISfLWEexssW3NrD32j21lj9umYZwhGv2t8VsRq+aSTkObeeECb61NvC3TTNcW25J7i/POf656WwuT8zDUFtvy2Uh85cXnmO1sbX4Jqw5dikyU9X7yxLHedsz/h2ToHR1IgwVkZxLpuRmnkfr171XFtrCjIs5iW1H8wLJgON5KRhfenRKrqJqFnmz2ug42M0/fgu1ZmskJnWdYZosT3nEhBQMO2kP4+hXbxSR+KhlOQv3qY8rh/1l0Oum7eeG+EXyhPloPqyQTkglhYOdiYNcm3u0LakcQmUNw0g58kfeiFiDVtsxdwqfWkKWK13h3KO9cg9saMmkUf9G55dhF1epBm4pB146P2PJJkrxG2Btpz5IVVYtNq94/vsXivzJU8dfbpf8HKzGtgvt66BK1mVrvSD/afqWSZE/6nwcGKPFuO2NYhyCynXigFH5KUFStnca4k2jFWy5ZheyILdp5GDVqozWcIz63HL+oWj1or4PNzCvxxvYsp907UfiXiX4BnEc/dpIdauBYWgf39dAlajNKv+h7wghhgDDgwgAl3g10yC5BxP+uDkFkG/EA34uavKgaGYP4OMuDV6uwOoDuWM5jG20bYbWxvM5DXnm2gc8tJyyqlruM62Azc0q8sT1ryO6djSFUAf43MHonT5lTW6xI4zVx60KzcU/y2N02mORP8icMtCIGKPHOPcirN9DrEES2Cw+UysEU1DTLoKz99Rgs/CvqvPOSVvl8HwX57aJnOdG5Ja5ii8JKG9rMnBJv+JVfT7UEqetnbH4K45cvQTWq/sbGiFL5vMN1vWROGGiWjWpmv62D+3rrFbXfTJxR34Q/wkB7YoAS77YLMHZR4v3PCbg0fwkesuJd+p2pf76UrWhU28m9dQwML5a29/lX4QN277lyZ/kEsLvelTvp2b3CIyQvcpLNwnAdbGZeiXcedojT0rEXXjl6DC7N+wXVvPvnme2cH4LRP2pX5T37Klz7V7PkQf2SLSAMEAYIA4SB3YkBSrzzCHwa2kYdgsiG0p9A0fBVS+iKpI63qCBQMw02T7xN1+uEP3sG3rn4JU2StKqO7Qq66mAzebLr2aUeWG0mHxVa0DWIyGZivez4fRcs/JzADjdzbNQ3FaQiDBAGCAOEgR2EAUq8206YdQgiW5UHocT7GXht5GLEPecUUNY7Kd/a+NS76/23HY4gv2MvvDk4BKubJI96y4Paj8JYHWymkuw2OfGGJVi73APvPO+4f77A7hJ/A8bn58h+tqq/I7oouSAMEAYIAzseAzs78YZV8LbbeWcNm33OMCo4jP+9PEOW4VxgOyj3v1flveQp7hCmhCQ+ptLyimFR3h0/AQtMTrHvpK8/fWnHRe/tLNnkbzNb1LdsLUGVbS9fnIAF799F+G5zKfH964T/nYV/kifJkzBAGCAMtAYGdnji3RpMJrCTHAgDhAHCAGGAMEAYIAwQBggDhAHCwO7FACXe7bDySzTu+K0nZIR3rxEm2ZPsCQOEAcIAYYAwQBggDOx8DFDiTUktJbWEAcIAYYAwQBggDBAGCAOEAcIAYYAwUEcMUOJdR+bSzNXOn7kiGZOMCQOEAcIAYYAwQBggDBAGCAOEgSgMUOJNiTfNbBEGCAOEAcIAYYAwQBggDBAGCAOEAcJAHTFAiXcdmRs160Hf08wYYYAwQBggDBAGCAOEAcIAYYAwQBjY+RigxJsSb5rZIgwQBggDhAHCAGGAMEAYIAwQBggDhIE6YoAS7zoyl2audv7MFcmYZEwYIAwQBggDhAHCAGGAMEAYIAxEYYASb0q8aWaLMEAYIAwQBggDhAHCAGGAMEAYIAwQBuqIAUq868jcqFkP+p5mxggDhAHCAGGAMEAYIAwQBggDhAHCwM7HACXelHjTzBZhgDBAGCAMEAYIA4QBwgBhgDBAGCAM1BEDlHjXkbk0c7XzZ65IxiRjwgBhgDBAGCAMEAYIA4QBwgBhIAoDlHhT4k0zW4QBwgBhgDBAGCAMEAYIA4QBwgBhgDBQRwxQ4l1H5kbNetD3NDNGGCAMEAYIA4QBwgBhgDBAGCAMEAZ2PgYo8abEm2a2CAOEAcIAYYAwQBggDBAGCAOEAcIAYaCOGKDEu47MpZmrnT9zRTImGRMGCAOEAcIAYYAwQBggDBAGCANRGKDEmxJvmtkiDBAGCAOEAcIAYYAwQBggDBAGCAOEgTpigBLvOjI3ataDvqeZMcIAYYAwQBggDBAGCAOEAcIAYYAwsPMxsDsT7+3bUHuy4v17up1CyFv+u7WtFO9Sot+8mbSngdxqt5tHw26X//ZtePz9VVirsH/zUE2jf3Xg4dMs9qAO9DTN+TZaRxrdX4SsWg4HWX1VxHibhrM609VycqzzeHeqHGlcFGMSBggDOw0D+SfeLFD4cS4IrIMA+/sytFSS+tMkDBSLUCz2Qfmn5KBev8DeLULxwiwlcG0UUDy+0efL7U+T8LgV6RZBdryJAVdw+bQWTDIECSWfaKrFnHQQ7z9Nrh9WI/njJAweCnQng/5Z208t01mY8ugpwtTdHMebmp7m0WDVke0FKJ85CKVDPTCzHg+fceRk7a8pvGtBHGT0VXFkEPpNbRZm+jqhdLgfFlP4x1B7DZdlBjnWCefN54lvU2p3R+H4oU7oOjPdmj4wB6zshjG2Cp6aQgde+Gqxidum8CMHnSG6Gxtz5Zd4P5mH8lgPdJVwYK3+XTozDdVWAEnGYIYS78aCNC+j0FpBvoGHd4f9iYHiMKxH6okruFyA8p9U3fMmioLkslg6CMdHzsLaLwYavH7l+wM3FvKZXNqahanDPk2l/iEoL1+F5RsTDhpstNXjcxcv69Ff67Zp1RFhM/OdcLT2F4n/evCwBXEg+J5ukjiV7RR2qAi56X9D5ZlBjoLf+eI8lRzqwDMRu6RcdGiVcbjo2A1jdI1/p3/H5VuangXhP05NtkZuUQed3eny3I3jyyXxrt4agl6UcJcOH4HewdMwNT0MY4NHoLe7s7VWGoVzTRfMcMVvqxXvrTKs3xiFmVs380mk2tDACCPdqiveIuDNL/H2dPH9I9DL/nE9FAl4L1z53rR6mX/iXfum37cBh0fhfotsL5cGP0Og3oZ6IMcdTl6tOrK9AMtjvdD7fj989YMJM+G2XP3w76z9NYWvLYiDjL6K81l5RvmC2hxcYX67fwi+raaTq9Jfw2WZQY51wnlz+SFlWLt3FgbfPwInz1/esYnKbhhjq+CpGXQ8unbEiyXYpODTW6f9uIJ2n+7auL4ZGMzaZ+bEmwVOpSCQL50chuUfVswAqM7D8tdXW8PYZwxm2jHx5jS35wqGDByyAL61gnzDmOqQeIfkzc5YV4bhJJ8oO3oWNkKBcf6J9/p0MPnWkg4yQ6Ae4p1Brm30m0brSKP7c9uPFsRBRl9lGu/O9wUtKMc2sgEmzNBn7W3Xd5L8uM/wYhseM7VkXEGY2Um4y3Ms2RLv70ehO0i6u8cvt0yhpEgGZQxmeODSTivenOZQIraLAgJusIu7aMXbJu/ardPBhNkRmP1BdxB1SLxbui4CBercZjZaRxrdHx+n+dmCOMjoq0zj3Pm+oAXluIv8rAlz9JnuY+n/aTFR/dqv1XPuTgVgfdiLY3qvlc0LfqR3xJcWxECGxFsG58UPx+FRHttHeaEEVhAqZhGoVMqbIJjhBawwPTxwySXx5oUiniTbvimKXzFexSiAxWm2JWJp+OjxxlbZXRQKi0ef1z9+JyY/kvChrkG+kOMKpKqUz4wDn73N8Yy3Vd5CB0wFxaRuW99PaMw4/uLqTBK5GrEb2JJ4srAE6kKmyXTTSE8cfon+kmFI8ioFnV6f8r3cdATrssM+5dFfqvEb6bPgII7s9N/w9m1j599H2W+hpxHHohB2ogqZcl3MRbdz8NlCfnF9Puad0U9Y5Ch4JPGeWleRvE0xQh7tpmlD8DIKV4h+Zz9peIblY8N/3P7r+TtMpy2OqWf/cdvGdMblZ0a9FJg29YfpScI3/J6p3bj8COIkrxBqYB/j2DIxprh2BtEj3n2SzDd7uoXGbYxHkKyM3yM6sK5KXc/XnuE+6O/6TJClT7x/GIdeb7X7IEzdzSb46voEjPUFW1H5+dNiEUqH++Dc0jzUTMDjSYpj9ZIHGKFgPzKYWYGNG6fhuFKBuQil9wZg8ccKWNs10Sk+04KBX67CTL825kO9cOWeZas+a2f7JqzPhekqFjuh69QQLD7Q35V9KsW1OI8dvFMVTrbDjF3twQSqTq2dRw6K7PHjB36/jL5ReyGtX67ClZEecWRB0HqoC67cMwA/MR/8NkxB/v3PDkbXH3gyA8MB1mc0emoPJsPYLR2Egc+uJt8BwjHd0MS7E6bWdR7nlXjLdoRMOfbYU98elodct2/CtxNHBJbiOGQAFd9g0811Vb8Edj6cgEdCz3VezsFMUFRu7FZgJ3X78+N0GEOHemDshsX2BX09rozCwGHdhtjfU+xWbR6+GpLv8mruJh3xbYHGIzRe9R1mOweUmh/MPvWenYHHhslZ9V2Vd7V7o+JIRPeF2ZAfSDp+bxw1vwiobp96z07Do237GFV7qNIJmjyVmie6jU1qH7W2FTq2V2BjaSiMAeY7+057vkr+Xo7NqIuYTlefgdxT+WytXWY7//KexCCji/nY5U2Nvxxrsf2EHKuH65j67PNKe5f3DRVZyCng1aOlsC9mfC+H/LBlPKJtaSe5Hkq5Be9qvFO/t+GgE7pG1IK2dn3Txm3jmSs+sejW8bE0unUTFoeCYpy6nxB8qwB8Pwpdnk85AYtBPQL7GANebi/A2md9oULAJtnx88S2XXLi+yGVz1w+6xd8fMfzQzrGktlS1ufjylkYtsTSVzT/5dGo4ap6ZxROKnFvJ5z8YhZqge1+vDykxcWsQv4EbNQcGE9q87B8TX9X571bkzaYvLcWYL1yFdY3bTmIJZYP7KPiE/W+nszD4vkwTpg/8zEdHrOCve2bsPZZr4hFPLvLYnwuB1ZP4rwW95YOwvBcvn6fY5GeYXk1iyepE+/H13v9hKU0DOuGgCregFbg/ucSmKXDPTB8fhimpk/DICoEZQq6xOogDhg0xbEqlWZsVFpXYP1Clz82Fgh0n4Cx6WE4NxJUbC/1w3DgEEKJg9a/2q50bOeuT8JAyZ9YUNpmDqRkWdmozcHMSR6kdELXh/1wbnoYpsZOQLcwlF0wdRcnB7LPyGArJu1Ty5dhjJ8P9hweSrw3Z+AvRwNniWQpkgM2Nj2oYrII2mMTLYwfflG+Ls9ghQKRVHzwFU4xiny897jjtvAdKlBdOuHjgRUG4+8xJ/fNQHDUAstDGurSqUljsqHiAhmDBibeYkzFflh+gmjwxicDwbgBg3lMsh0j/nBAlYtcJ+Dbaz1Cd1mf8eiXeuLUzWKPui1fYKcHvvpR52Hwf/6b0mn4lq8OIPvz1R1uCwLbd74fjotkuhN6v5gzbBXDdrMTuoNClsxG8YTSZDOlPZyBb8e4LfH1leuZUUc8TEge8d9ymct3zkLZs52dcHxkKGzHp2fhKdIf9r58V7vib1PahfAxpnTjh9osTAX2iQVPPt+GYPjDgx7fSmf6YdCzaaZdIBb5svFged4ah+NBGx7msX9Kax+99gz2iduL0kFRzHSK4Yf7g1I/LIviaFJ+Rl3EdKLxhK/bxLxnPiyBz0btXrkx7NnOUp/vx8YGfXvv0XZ0GNa5rnC8sHdj+wk51kT6HBvnE7Dm1baRdl/EB0xWpSNw5XsHXviYxFPaSV23uI5hjKkyuQ3r0zxe4Xo3DB4OmB3BcnXpG5p8dPLMGp/kr1vCRzliTDH5eWZGTMxZbQrjN/Yzh7pgcIzFG0MoWdViKJHYm/xkGb760LefRaMf5ZOupuNcZnxI2pPbUomRTujuD+LD6dNoYq4LZnRchnSSYwi/V4Tj1+bhUVDPyddZaTeZzpbOzJjrN6WxeUIvzDwSOhH5u2yxPPeXrECtjxM/D+A+1jTmkPwOBfZxTMaFRRZHPChD+RTzwQG/Nb8//I2pCDK2vdx/qTSZ/H58fmXlN70fl9epE++1icDgIIMXt1P+O3nOtAv+shQ+o1G9dVokNgNfa9ca8aBDcyy8bfbkihNKkJGxUZ1YBarf9AfBaxeM6RXAa/Mw6ylLMHacOEQaARkMlEqdMHBNm9VCgWbXZ3qwvSID5aP+qjseJ1sJ/3Y8cL4Wx8h5ES8R0RVI0n78wx7oHp2GR3yrEJ902S7DbOCEQoHy9k1YHvNXlnVjxWeEjUnq0wV4LAJHRlM2PkijiIN86TyPz4UxCCBn3pXvf+ABtgEnv8zAmLfK2QlmA6rzN/g/x3SdV7xrD8ZFENv9uY41RosMBNPhJTw+jr+QLnp6k5Nc3++B44d6YeYuclocn079lPhmunnycznD7+kZ0s2SovMSO7YzZjwwVHRa2J9OMPa3vQJrYvIvnNQLu1nqg1ltda324CwMeIlaOMgSMviwB44zO4Krk/MVDetd95JHenIg9KrUCaWjp+Fb5Zo6HPzIVSluv8S72I6jBLk0FJ68Sjf+m7B8JphsCNHIdvFInWCBpD5GTq/xKeR5BI5/6OOnynEnnunsowymTYn3KJz87Gp4cq92Fc4FuywUmxXoAMeBVbfFeMJ9Ct4XU/hs0S7Dfdhu1u76yTjj/+AS0mHPl/uyi+cnJFaN+mXVZ2a35Ls6BgRWGc5LvTDDV664bXlyVU7sOHfB6PZR2lu9T4E3wTtNJuJzLWEMaKpu3lQmu8QYsL55v5XjTh6f1Em3tvgkfyeM/a9hRXObJ7bq9/YxSj9TOjWurdKuwMYX/tnh4lF884bsIySbgPddh/3YRuxo4njgu0K1CXshU/479BS0p7ClzFb85ewkbOgT6dsL8FVwvWhp/LKCB2lfWEyrYQj7IQ/znTBwXY2RGL1+Ihr2U5AyJnTxJ8l3WWP59c96Yaai5R1QgdqdoWCXRXjMQn7MB7MJRLwTANmH0iFmQ/rUCfvthSAZL0LRYD+E7U3o95PwjH6r2+b6/D9l4i0dhTmQjkPsPFwJVh/Mwb/fxiO+gqUbL56khByI7JsHGCEahbPSnBjIQPq4rVhDjTsDw1ZZZEDDAJaOTZ+F5r8V25beH1e3rj44G0xAhINp/i42cl2GZIrzwhpsxaX9sGE1Airw9H+DYl2266Kq08FqEp45ljg6eT1s4MTYOG0Z+SCMooaZR3PBKqnB2EnHhJOG2/DtuB8IKgkVpxOvkieZmOKYzjHxZkcQ2A4C79/YCXSlmLqFTOW1lEs6vEgd5O1y/IV0kfEsL7nGXuHW6Uuvm2JVRtdZNi62ddlbpdMctLA/jpUCFLSo+ixtlJ6ccF6LZF+zA0IGRfvxIJuOxEpIbO2yANqbDCiCHpyG+kOTm8YkC9noROP/cSJYidZ2LSCdFYFN6sS7GFph5DJJZx/V1XR9khh4Uo/GwPsTvsRgfzgOrLot8Kn7x4w+W7RbhK4L4d0PALfh27FgUnsMJwjSHsXyEyh5Tuxr0bt6oiWwWnRMqIoJ2YPh1UWDnHx5yfHpfXJ5Sj+kyUT4jCFYc+CBtyPGoPlArN+JeSZWhe3xiUyCkkxqST8bShgZL+/6hbWKWsxhHaOwAdiXI18gEnlVdnxxQLXDFeBXZI5dGPYSMXVStgK8CJj+HpeF6SloT2FLXfZAXLulx9FYJ0MLPtj+WGyb8HFFGP4G77ZMGxMieVj1Jc5v+IRJEaz5RXUGhvnuTWVCPWjfqk9lmH3ft1P6mLH89GOJTN7ye8tuPI7p0A6K9H7fhDP6LA6G6veb5iXefDawqDkSXdmEYdC263CHE3Igklk8wAgF+6JNre9YNKHgwKSsOv3i/zK4H/hanc0XSsDHpCVeIohyjFVRakMSwHlhDbYEnZJ/gi4UjJidiOSJbeUPQBorGVxIx8pmB9f0mVqNpqx8EEZP56OYFNASJGQoFccvEgkNk5hegSW0FR9/b/rbIn8pBywbiSfJT/69DOS8rZtB0sP/7hqZBO98lIkG7zP5fjq8cDrkk+MvpItQgdzkGnJWsn8zD/n3kpdJdRPw+X9tG59ItnS8CfsTTkQxnYIvJyfgMZeVwBXaus6/C54iyNL6FTLQgy/0vlVHkA3Q8SbeYVtCUVtyLHY8iXcZrWjGP7wiFcgq5fgFLzWeSBrZeUE5QaCPUfmdPkYkTz0Q899Lax9x4Kv5Kp0G/P/t27Dxt+AomGG8HAdW3Rbj0foUvNc+x32zv8X7mn0Un5vqSvjyVfAg2k3mJ3ASmVif4+C8aNc97OfiTRKwcUv9sOJO8E7jvUgmw6uRJsya+ctoSG8D66pbpqM6AS54Qqzv6rCNUdCpTOoEdsVrU+op1g1hx5W4iv+WHecIJlgVu8q/70y0e0bQnsKWmuTtfcaKey0H911rsaXUVXWyQbaFcHHDtDgisYt5hifRksWEWB4Z/o5lq7iMEi6ibc3D7Ek/8VbHjBJrBQtoHCLG0/SY2zqbnovx2G2Pze9LWSI6eH/0NBzlqz+fUibeK7B8xjQzHZ9gARIbQAUgpOIrTokD2BBYcKDxACMU7FvALWiyGj1/fNZ2Bc0mPljGgd/hY1KMozQO5qQX9WV8X6VZNxScV+6npF1fsfLfk7OLpe4j0Pu++V9XMLuoBEM/TIgCSuy8y8nzk5ZCGdn5IJxaCDOW7eRidU1znmKGvxO6LWPtfc8/N1pkE0vK1lskLyx79rdDfmH5SJkoeuG1KZ1h7/lprxDJWmUGyud5PYVOGJgrq1vOFFrk++nwEh6jXWdylKsSGIVpCPOQ/8bFy+A3VtnIpEDVTzmu0Mqsxf6E6LszFJxXlwktX2UpsnO9Nuzx+hiaHRMysAaeKHAI6YidR3a94vy140m+y880GrboIWymG7+URWl61uFo7WMMyQbRJINXLdEUv8lgH6Owsr0A95fGvVofDA/cxvJJNtPqJceBVbctfQr/mNZnW9rFvJV4wMeBKgCx/QTDXAw5WvXZ/q6VNiFnH+/iGF7siXmpH2FbHuiQlXcrYvcVk3npvX64sjxvLexpH4N93EI+Rp7VWbfEKrS6ndybJPPiiXACYx6jjFnZmV2b7eT1chQ7ISbkUF/8M6+oGucB0n++Eoxre2g4EXxFn5tp53aUPSVWjPq7vQKPKpNw5Xw/nHz/CKr/E8TrSmyJJ8nQ2BA90bpkoyeDzVP6x2OP/7ewVZoP1HnObWEoR+A0/DQHi38bhrHBIyBjOs7L8Kp1pPyMOoTGZdHzdH4Py1fSLHxDbPuE6ON8oacjjojmV8rEuwLr08F5uUgnbCYiEqBCsBaHwAEcChBlf1alsoA7Lk3WdgXNkgap6JZx4Hf4mBTjaDNshj6M7/u/4zQbjTWmwfh3FO3ye6HU2ior/jxEw0/hCu+lfr1Ke3Y+uOQrZrXxdnO+msAwjrcdCT4bjFlo3DaHlkx+Ekf8Pc5z0+qRnVe1O/wcpXaeS5G7/f0wHZwe95PjL+zgEvQl+C4TUUaPS67x6OW8dGyDtPTttc9XZbAt5CvhpsDLYn9CtBr6FGMN4cyERZVPdhlI2Yn2Q3bVziP7O7xdu4zFu+wMYTCmAcexE/H7ROO396/y3D5G9Xd8XMEzUp6yXWwHbX8r9tHRNq76ztryE4qgGOgp+20NHAdKP1j/LX0K3oewofHDlvha2sW8dfYRy08wWiS/rYmsQbd8OuzvOmlD/OP8Dds6nU/8/xKfVnpdvGPV7fWbBEpHYPiL8M0a9jHYxy3kY+SZpN2KJ483MdpHPBR9sh1RwVEwvOtM+GtDNXHzGCWdNr1TPleSEpm0ix0twZZgPmaeGPH/i2rrjklOPEb+t5l2jhP2lOMQfXG+oUJm3lgOdUHv+71+weIRXnRU9Qly0tAWp0TJzUaPfE/hq8Vuh8bCx5TyGc1Hn6d2XcWFzJhv7YSu944ERSzZTRK+v9XpjuzXqENIvhY9F+1a+KfyGMn4ySx8xY8a6s9v1PP6HIP0RPJIib8oHqZOvMWMUvEgmM4yRHXMz78UI1eppAIrTokD2BEEWJUqCtwRNFnbdQrJMg78Dh+TknjfhPIpX8ntW3YCoBjfVw2Mbiii5OR/H0U7P8tahOH/WYAau0PU9Y8XZsNjZ+fEN2fRqiwbcxdMrfOiKtn5IIyXCTNsBtubQZez1nxrmr6VDdaDs2XFfljcjBhrknsfUbvhSuOaMbBg2JeXzRmyuat/TAAAIABJREFUNlAVXFP1YE8mrvc1OjQZ2vBk15k6yzUWfVH4jtqNwI9RSFvIz34bawA4ZSf5a7KR4rOjo7Du0jHvO647fpt2Gcg+7Tpi55H9Hd6uHU/yXV4p2tf7UGHLQI7pxi/7d9tQ+xhtuPY+j5RnBvtoa1ucT+yEk9NX4bFmUyVftZVjVHTU6gssfQreR/hHa+JraRfz1kU3/53bTzDMxZCj1Vfa341DGyvGGdtfC9sk8anEOOJ7vHJlS5D860Y3ls/CMLqizauTgNqxj8E+bs53844sSXtddIvRzifAxRZ/vsKsrYIH4zSPUcqlmxXPjLKdWlV9nlgXg0T6/udsYgvJgmM7qKnAb/0RiTqSgeCn4TMz7dyOsqfkt6K/bGcAr5k0Ogn3laK0Dv/F6cZjUeiKwoWFHqaDwQ7HLDGhi1eu7wQfI2yVzSeKmgSlXpiqLIB6v7ZtzDEWAax2J5CxRR7C9qbw+y4+0XdYtxr3d+rEW271KYJu3GMJU2zXtRS64MpvAaLZCWDGSeUIzTxHtmk/R4ENX6hdTrPxGWXA7MbRN/JFKBpmdzGvhbExJJbcwCjG2kgn5iH/O4p26dTczpe3F/FE1R+LqDhQVj64+MP4yItS+WPgW6UM+PxlMqgcLZN0LIfUf/NV0qI5oMDtiokv41YqiX2jvFHVY3PhkYj3Y+NGypnjz6Qz9ZYr5pv57yh823WTt8dXZfxEm/NPJuL8d95T2B/buTqfb/wMIw/2vHfF5IzLRkm+435dMuC/s+uInUf2dzgdnB/RW/NYW/7Kt2VHRsrxi7G7VqCEXBw7H0zYF++hQFz5XQb7aGlbBGKWwNIlE84Lo21gdFv6FKt4RYNNxOO1vW/7HL3roptjVDwtfqLuiTfe2YJo9+jiW4yL7voNYgze+3b9EL8TAbsNY1zX/Oej61yPVBtj569dv8M0oBU1NJGj2CmdL0L2CXXLa0ceBfOOunE/qe9EC/q0jVHs0nTZAJ1u/n9Ov+dvg4lWRff45Cuzy3yFPEJPeNvoaaNdyMCWeEfZRYEfVXZWXRc0ReHCht0MNk/0rWJa8iDG52K8Lj8paVfjkija5Xu6DY2Un6BLkwMfM8eZPhESJV/+Pj0zbQFPhLEMvE6feLMtnl9z486uUJkT9yjGIl6c3WF3BNq3PIiq5ngLMBuwKDYQLojl9S8KZhkKJ9jAzQ264ToTMSZRtdTQrlMQUQbMEdzzraz6PcK4P1QFObRCi5xjusQ4mnaeeKhXccQwkHgM6G+jAcvIB2ObqE/g7TOHyieGjE5aVpg0J65pxy0NevFPE+Frgjit+HoQZUsc71e2ozsGjmMxo2vEVPT7vJ24Tx7sqw4uoJfz3UhL8BsHviPlyvlmfUbjO3Kij9sbFgz+EFTQ1m0W71/YnyIYV8TZ78SKplYtVuzMcFRW5v1oT6cMgt/aeWnnkf2daDyG30XXj5WOwNRdtVKunPBNNn6xYuVIGoWvSV3V3J4UpbaPAitq24JvRvskExXXGW+rL7D0CVl9tq1dhFMxLsPkscnWmH9vx6powxoA298VfTl2+Um7im/v4Hpge/IV3CLg7dSCVjQprKyyIr7h3/p/m8chxhDir/n3SrsWntVVt4Ix8h1ELLl//E2/V/vChl/bGMX2dOV+e5tM9M+5zz8Cs0vj0Fssgt6/P4HcCVO3ZvxbHEI81tsM/99Gu5SDxTdz2SiTAbJ9vqhQVHZTOibZBLaicGGhBx0RyCsmlDyQ47J+limWl2My1jTivt5wi0qk/LicdDlwfttsZAa/b+UR75OeDU/WMyXegKrQsjMGpf5RWNtUtzd6Qt++DY/uTsDY2LSszqsk7l0wthyumOg8j4pmlrsmrkINn8HdLsNXrvu2beBm15kE10QVDXflwS+XYSzYzuOdqTAmPTajEGXAHIk3m+Xk4zl6GpZ/0vrA9y3qdwcGSiVmeyNWzc1KGoN2lCh0j88Yk8bag0mYVe5GvwlrXxvuoWUTBdPBGUW04u3tNsjAh0ijKIqp9cLYOKsKbF95lgGWGbvgnbsb1+401uRmMHj4SqNu05axJ/NQHg3ubNdnRUV70nHYEm9l50YoyY/zfvRYMJbcSV82fEfLNYrWGPiOcpjCdhyE4TP+fbChompcPsL+WLZVY/ul3Cnrj+P+54H8TTaK9bG9AGufTcJ93l/wdMvAb9vOSzuP7O9wvtvxZHwX+xX9rlOWhKQZvwhc2A4t/Q7fClRvnQ6ubPSP9Vi3/Go89TAu5Kkmxxj/eCIlvn20B8Zixbt0GvRjKXK103wFUKQvcIxHTrab7Z7TZzva5bwy4gGS+gk7Vnk/9ok0+7uCNnbO0nAXPNsSPRBsr006ISvb1u729e4N5nU5GDY1jD2YgfIDbXKKYfSXyeD6zvqveMvJsDroFtc3ob+nYWyc8cGy4OKq+YG2Y3s2wHSLCqsjcGPOGIiLo2d97Ly0ylcPV8Fk/cmhE971YnpiLrDHx2R4ChxYk3aLLRUroj1w5QG3u/5T6iTjm7bSGqmTdn3wx2Ohh40tVUyo0h6HZ+bfZInl5Yp3aWzGmVvo8VWk/KLiCIc8Uvk9A8bM/MqL79ROHP5mS7yZULcXYPnsEVEYx0tIvaIOQeVIXmGXOauQMUGrGyxx7/YLw0xND8FwX1C8rdgJOrj5wBjIeUGe0uE+GGPFA873w/FD/vb3ryb8ICq0yuYAN9RmYUok153Qdeq0dwfyuZEery+2rd7arhPkUQbMlXhXQKere9Cni4/X43upD8qbZuCL2V5vgoS9OwTDZ8Pn/zhv1WcM2pnDWx6QweuhLhgcC+6PZjI57MtTlWVgtEsH4fiIvG967FRQEbx0BK5oVzRl4UOkUcSztAyvlq1sPm8WYFkkwBi7w8Cw4lcX1oIkJz643FSd8Ca0eKV4USmd4boL/vJNeLKK01b+k499ld+8j+Apdm90wsDXuC3pTD1c2Qp6hPRZax+NNzLp0/QuCb7jyFXFs05nDHxHOUx8l73HL8cWN2F/euHcBd+Glfr64RyzX2MnZCXaUi9c+d4wkbk1B1dOSvvY9WHw7jSrvtoV2EQtwEK7XkL2EMnJzks7j+zvcD5LPOl4tL6rJd+KXUs5/tpdlMCUDsKAZ5+4r2F+ZgLOBVjPPfFOZR/tiTcOaouHevwCStxvlvpgasJ+nVikLxD4NNkv1T4l8tnOdn2smPGQ1E/YsSrsgFWf7e8K2k4OwZQ3Adwp/JbUuyKUTp6F+9oZYdEv0jXlM83+cX/o+8IumLpxNjjepMkkGIeUg4yBPN8xOgNV1KcYQ8h228ct6LTyrAKKbgnfn4NuCdpRIsV01LGAYB9jBZ5+f1beoqLEHadhkMeqtgUVvguO9c9iA0FbYOfQYlCxmO4Ymot2Xw4WW4omFdiNF75tGwaBnwsDoRsyvPYidTIKFxZ6At4kjwm5z8jhqekUjynixPJyYaUIwjeL3GIYzkVdJxbSr2A8Dh2KlEdKvyf0V8cr/d84wdYIfmVPvLmC3Z2EczxhCoIXGbSzBHYIyuum+6tXYGNpCE4eCpJk9C4D/JU7pne4Uq7A/S/4FUn8/U7oOjMBG7UKWIP9KGPzS7jKNlv9PD42DY+2He06gRxlwCISb9Z2bR4WxZVQfLzsyQKAs7DmvLZqBdantQmSU5OKU7YDLgbtwdjZqvZfUHEXgQHm5MYmYUOZZV6BtQv+hIb4XSD/cFVzLvP0fIh2amyWdjpYKSiCacu+wiNTNVlO/+EeGLsxr86WOvGBxseC9MooDASTFSpvfF1aNK1yiPbdzlCOARVaU7bfyffVvjHmTBNp6hhkPzF1JiW+Y8lV8MZEYwx8RzlM1j7aimvbMurxRLE/K7Ax1x+6BqrUdxoWfzTRGnzmrWrrts+XDwvCZyp4IsV/x2oPEW/svLTzyP4Op1/iKXbizWjCgdPRAVjGk4opxs94X70zGvY1h3pgbIkdd7KPEWM59LciTz5m8zOZfXQk3mwl9MEEDGs2ovTegLcC6pZJhC+IHE9Knx3Zrq04UVI/EUOOVn22v6vwtDYPX53hV0ZyuyhjhBBGkI5Zv2NVqXXfeagHzrFdYjbe/TBp9hMNq2oucV4X3cJ8E0eS7DvRGG8VOeH3+d+G6vi+n+uE7sFRWNN3FPL3gNd9KULJmJzLIwPGxFy0I3mmYyGSdtsZb9b2L5fhnFiwCjB5qBdmWAxtw7sNV4JWuz74tNttOx9bYpsn+rbzibcd+Uwdy5v8cif0np2EjZp9zJHys8mBjzlKHin9XiSfeP/0bEgynlviLQS7fRtqTxZgY/0q3P/Rr/isVgS0K9PTJyvweGPWf69mWOmxgYL1+dM8rH9fhlrSmWZbm+zzLUSPVjVWjNf1fr2+Ezyeg0esOmcS2rZkFe64ckkz1qc1n3frG36Vc2dfYjyzsPHTSnwZivdS8CFP2Qg6AvqTYDeCDs7HpLqURmYt847gZ5PlGiGbEL9E4m0pqsbbMzlXNuYf58DTlyQ2zONVGe5XAl4leZfT087PlON/6vkon2dO21Qn3nC9jmUfI2jwxvL9PDx+ksBnsjZz8AWpfXbEmEK6xX4v7EJCP5GmL8M7xqB6awUefe/TkxeOGDaStsneYfZjjcVASW7SMIzTyPsEvzPqljhzq63YJ2g3K12h9xn+W4RnIdoy8MXHT/Nsm20sedo8Wx/Wz42xPC+CFy76KdphNuenebjP4thW8q0p/Z4YVwZ8URv2HDYub/JPvEmgDZkxiStg+l12JSEeEg/jYEBs4bUVVeO20ZR48+/oSfaTMNCSGDAm3iSreLIK7r0usqrguB4P8S8e/4hP+fNJHA3ohERHi0gW+ctil/GUEu9dJvA4CQT9hhJNwkBSDMjtZ9aiatzWUOJNjptjgZ5tgwVKvJPaxOD3qF6D8wgO6ULb6MJOiA+YPns1okqOeiyEScJkHTBAiXcdmLoTjBKNIWWQQXjalYZaVJJmtwpEbUmjxHtXYoRsanvbVEq8bfJbgMXzQ1C+W4bQdvvqnLyFgxV/tZ6ftrVNn5PdSIeBx/8zBOduzMIj3R9v34T7N3ghYL2wbLq+SEbEtyQYoMSbEiUKggkDhIE0GGDbJ1nFeVHgqit877SpXUq8CW8mXNBnLY0LSrxtwbXc7cMKvXa9F9xoI+xiEYqlI/FsI+lAS+tAkuSi2b8V+spu8jkcYFK5GaYTeqdnoUaYI8w1GAOUeDeY4c02RtS/LXigzwkbCTEgKpSyK0dOm+/TNdkXSrzJ0ZtwQZ+1NC5EIG+7KmgXy6+6PgnnBo+Eb2c43APDn01rt5kktLO7mK/kkzNg5ZdZKJ8/gSbGg0rv3jVyo+C+GSZDv4TXlrbjraBTlHiTkpCSEAYIA2kxsH07vL0ybVv0HuGQMEAYaHcMkE0kDLcghp8muf2nBelvhYSRaMhnQoYSb1IwchKEAcIAYYAwQBggDBAGCAOEAcIAYYAwUEcMUOJdR+bS7FA+s0PER+IjYYAwQBggDBAGCAOEAcIAYYAw0M4YoMSbEm+a2SIMEAYIA4QBwgBhgDBAGCAMEAYIA4SBOmKAEu86MredZ2SIdppRJAwQBggDhAHCAGGAMEAYIAwQBggD+WCAEm9KvGlmizBAGCAMEAYIA4QBwgBhgDBAGCAMEAbqiIG6J95Pn6xA7clKe1f+feqPoVa7TWCsIxjbejZtK8DIVj4zYm3Ji+2bsLF+FdYqV2FtvVyf+zG3b3v2pNE2ZUfYsWbpbrN0o0lYcepus3jRDNnvpLG2IpYaINPc7d5OwkQD+O+0JdQ/xeOEgbbEQJ0T71mYKvp3503dbfGEZHsBymcOQulQD8ysqwm28/5OnJQL56y+n8Z4cocXK9kX/bb5BEcbG5H1C8EdkRdm29IQpMEofqd2Zxh6SwEPPJ0fhvUM8nz8dT90lTrh+Oez8BS305Q7sNvIjiFe1e6OwvFDndB1Zhoeo8+x3Brxd9N0oylYcfu5pvGiCfLfUWNtQSzVX3fzt3upMOGIzerPA7c+7+j+U8SVT2vBAkSw4MYmyL1/Ma7yEu/G+O2O5nsTbDXxs7F6Tok3B7lwrEUoasmTK/EW352ahOrdYSiypKOULelgSnD/s4NBW6fh24hVVPHbP002NcDezcqbKqDg2Gv3p9CdTug9cxYWK1dh8Ytp2Eg9rgUo/4kn8Zouib76oPxTo4xl/gFoI3RFYLLYSF6FZSLo0Oxq3XnQFKyEx4/H2TRepNZF93jw2PS/d9RYWxBLOr/z/3/+di8VJgTvw7FZ/mNOj/edRsujuR4/Bi0WYXDpZowFBey3uf9Gz0M9MPzFDDx6YuKxfHfgxkKMvkxt0Gc7DYM7dTztmXhvlWH9xijM3IpjDGIq4/YCLI/1Qu/7/fDVD+qKtUiuDYnt01unfePEgsofxqGXJd6G3yUGUHUaBoPdAsfnynZDJJzSQZi6q9KduM8mBGc7hcZUAcUO4ff9z4NJoqFpqOY0psffnIaT7x+B4evl9l7x3r4Nj+5Owsznl3PjTVydqd07C4PvH4GT5xvfN6axabohbGPjJh6eVudh+W+noXzP7Heaxouc9BLLNerveow1ir9RNKX+vglYSk1rbrJukcTbEZs1n0dmPW97urbnYOYwSppj+XaZPHsLUEH8Gvr70Akob+p8k+9S4q3zhv7f9vqk2eS2TLy5Q2+UgroSb+Cr3Czx5s45j8Q71qr3bVi/kH/Ss9NA3ojxcEzquyUa0Xdz+7gJ5VO+g26IPnIda+gqboYAlNuHnGxCc2WdLgBomm40HCsyeLQdrWoaLzTH3wgc5T/WaP7WbVwNx1I6Xct3/BnsngVv+WOiFfi0A2m4Nwpd3iJSHwx4CXQPfPVj1DilfoZiAVb/ZXkYTvLjaB9OwCMFI453ld9F0UDf52sDiJ/14Ccl3jGU2pl4rw9DqViEk9cXAH6Z9I3U2GV1lS5GH0bhVmdgODBUIUPG2hTBQBfMfE8KYuRhWt4nfG/3BhQNdpgC841bxQTIEIBS4g1N042GY0XqAiXelTrIPZq/dfMBDcdSK/jzDHbP4j+bZgss9NQNL23d3234drzT28l5fG4Wls/4E+u91xw7L73xSv00xqtQgdqt0168XCwe1GLW6HdJVq1gE4iGPHCYX+KNCjHURHGEBIabV7uMUQGdG2+bciuM4cXPWJGHlFXJnYl34JB9WoLx5niW8f7nXf5W9sPDsK6c9Zar3aUzM9ZtrKJgBRu/kEtrKI8oIGeiC+NJGbeD9hxkrWAngfPkmFRWvNEYnm476Mb9ID2oxR03fj/B3xIbWY4oJHCYiB+pq5InCIBTjQ/TKHCZwI7p/E+ReAu9iGEL0+LV+J7AXkI8iPdWwIRZo27ofMr6f6T7QtfqjZUQzVIXEiXeCHOC9lDbYfuRCt8x2oWAlzZa4vYbS+5o7NE2IZq/Cq5x20lsaUYsKTRY+C10XNgYJN+0dOP3niTUYfyuoCmB3UM2wIYbxpdYmLDwLA5fvd8Yx4L4m7X9uO9jOpLKI24fjt95GEuCe97WkxkYRqvc4jjl4VG474xjpH5aY/Ptq3Au2IKu/ibGu5y+lE+hc2n9qofxhHqVktbYWKf27cdwW5g32RPv2jyUx3qCWSx+JqQTes9Ow6PtaMNdezAJY33+7Jo4C1I6CAOfXYWqouSyLfG7QIG9/2tbOR9XzsKw3m6xCKXDfXBlfcUgLNm+HjQ5E++tBVivXIX1TaaQN2GDXaW0kePZc7TqrRS4EEFlD8z+oDmV7ZuwPncajh/i8uDPTug6NQSLD0zjl05RNYi4bTuPnIZC0OqvUlbvjMJJhbZOOPnFLNQCeT9eHtJoZ5WZJ2CjhmmRfyeRtShEF9rqJNsDkOebxm7FM7RKQLF9E9Y+6w3pBB6jwq/tFdhYGoKBw5oeMLz2nYZFZYvXTVgc8uVZck3wfB9sFSuegMUqHlsFHldGw30d6oGxG/MJrgCTWDDpo4Khn67ClRHdRrAihAdhAMkd80ThJzagGpbwO/zvVOPLaMd43/wp6Mc2SvxtWK2vlWH5sz7o4lvxxG874fjIWVj7RZUh78f1tNstKTvP1v1yFWb6Newd6oUr98x2wu/ThdlxpbCe4IWGV/65ghUs6zg7DRjtpw6adW0z2IHkOJaQCisKjXjnEbez2hONm4/Zm6BLaieCfnOhmbd1o8+f2GX+c/smfDtxRPBSl0vSfpWxhniWwCYIndf4ynUE8dfD5vYCrBl0idnSssX3ee9lxJJRFwXt9fF9rM/ajzMGHShC0StmpcdRmh3JaPfix29+v05M6BgR/9fslfi8AqqNW4GNGwPa7RosFp2Bx0osqfEAtcdiOOFfxx07F0VyeiQUf6WSh8CJVkwU0aaOFY9B5U/twQQMivjK3p4Rr1CB6tIJ3ybwc91bl2HM80udMPa/rngoTvIsaVXtS5x38Zhj/p3Sryo4rc3DV0PSP+r5gY2P9HlMGSGM7xaeZUu8a7MwdZQ7w07oHjwNU9NDMPyhHwiVzvSLAmEmsD7+ZgC6PefZCV0f9sO56WGYGpPBZ+kUCwa48KTCmgJ9paCZMGKd0N0ftDt9GiUbpq3Zsn2dVrvB47TV9ylXvfmMo9wKVBq7rCZLtTmYOcmNBObrCegWxrgLpu6Gg2pubFSDiMdm55FTYYQ8+uDKjWHoLrJkYgimFJkU4fi1eXh0o88L/Ep9TG4SS0zmxpV90XZMWfOzS0XHmSX+m1J0RXk+bs674sQElE91+knl2DBMne+H4yihPm7arsVXRUsHodfToeA9Lq9SPyyj5Fk4RlY9X+gHlhOqin9mBuFjBe5/zicEuL4OwzmUFHdfmEW/V9vkY/WfEgsmfZQYkg611N0Lw+eHYWp6GMZQstT9+VxoIkzwUw+qhbwNySukHF9GO6byxeeZoJ8nB8pTo31zBv4SsqO+XEQiXuozFKRxyUcPSvFvpezOXZ+EgZI/ITk2bejTVDmeFTsaDXbiML3kcj3fDye7me1Rgz3BC02W/HOJFUwj+1vSqdtkj+csseYTFaWDwqYMejQUoftMP5z0+K7x23P0KbFiChIEJrkv1J5o3HzMqexEWnybaA4+k75tAr69JqsYM52WcknHKzFWNH5fVxLahAT8Bez/DnXBILPBzI+ISXiz74NMWNJxi/4vaK+D74MKyBiKJdpovEEM5vlNJY5CtGW0e7JvHGfY4je/XzsmEF0hvNrtgMTvWShfYDZJxhbcDjAedE9r11KG+pD9S/9q9//iN9oEvuRJQnkInKi2E/sWOVb99hrEn2WeJHMbZG8Pty3/LsNXH/rvyoUeFG+6JiNA6rW0HZKvXh8siQ984fA3OAaN8a5DZpJ+1F8GvypxOgPfjvF42ueL0RclpY1+H4r5jDLcoXzKkHjfhOUzASCPnoZvtRWZ2oNxGRQVixAC6w/jcNxTwC4Y06uT/zIDY15FxU4Y/ia8esyVwqrcP03CX85OwoZ+bcH2AnwVXFNUChkQZLy0O8ftBg8peT0Boq96/zgR8E5PHlekkTg6oK2UVgDYisZ4EDCzQF4LqiP5GhUI23ggnAozXFrgs70Ca57DZCugnVAqdcLAdfUsEeM/O0dfNCXLiWUtHYvtzBJfFe/6LJwQ2owD5503hpOjsI6xx+4hZck4G4MpWb47Cic/u4ommQJc1a7CuaCyqFLZPmoGWlQkVWeoxfmqUh/Mais/tQdngyIqpkkpF86jHOYClM8OGFeaHl8PVtsMExyCn3rQLrAUxm+68WW0YzbM88/5pIq2I0fgaLsMs0GgU9Jxw9qozcMsx85R/biJSy7xEm9P365pOx1QEmLSATERWOqFGcPuodqDeeVaQ5ss+edWO+6yNwzjwWRF6dR4aDdM9dbpYFKX2Y28sOLmN6DAM+TvAjzwMaexE+nw7aZZ+Lb3e+D4oV6YuYv8bTCpl7ZfMVZdhxmfUtiEaP5K/xfGxApsfBHYm6N8AjvgTUYsCV3mOo+fwl7VwfeJGKoTTn4ud4xxenAMFk48M9o90Xey+M2OCRdOY8RmLHYIxaErsM5jC8POL86n0FP41yKYd7zJVXGZnFa8W238mDaFPARO7Imy0NWQL5H8Of5hD3SPTsMjflzAMjEfGjPHrIgt+2EZxzB3/VpGRScfo2KBCgifH2on+l0rzZx2/MzoVwVOP+yB4yyWxjcdJeUppov+3tUJN8dw+sRbKKhhq3MALuGwQ4m3nEEzBXaMODGjqKzY+caZK4U1YHMohnJeRVECabz0oMlu8FzOIt/vRLD74Vm4EhS+6LqgzeI+OBsEm47kCRmkLm2lMZKvrkBY4aU2duFUimCUN/pe2bnA22RHFoKVLXWWlE0maH3xd6ACNlkLbL0/rlXWZO3xvvRJDXs/DK+cd6Yg31M2ftVcMbw1zTWGR9eO+Am7ogdSf8ITSBVglfa9iQrlTJaccFCCBcQvMeGg4YIbC/MzhsO0yUjMfuuFVhA/9aBdYEVPplKOL5Mdc2PC41dE4l1bHvBlpe1qUHhdk6sYIfwj+SnvsNUwvI1Y+Z20dUZ9gwoI3Ok6Ivh/EM7dwSsWdl4I3dBkyT+32nGHvXn6v0GRHjZpYzmC8kis4OaEFYWHpvFKXdB9CJcNH3NyO5ES3xE0C4woK9x4bOn7FWPV5O7xIoVNiEy8hS6Hj9f4ffIjRKq9yYYlzCvD30Jf8vZ9K7A86k/mGneCBXKXMZiWSAleNTZ+c2LCilVpr3S9kvi1XKcqfIwtiTbIDN8oYyqUy2WqTBhnlAdvU9stxO0Ge4qxOhLvYqgWkHl8uF38N48Bivq4xWS+605vaf9CNn37Jty/wXe4mnYgON614sI+tqx+VeC0aMFVCpown+lvu+x2A29SJ94iMAsZAcRQZPQUgyk+NyQhHNAiUQnPAHKlCCk3f9f2ZMUuloN7t0MGLoZxd43V1mden6Pg21s5NazixJJ0RuekAAAgAElEQVQJNuBaUB3NVzuPnMoinIoa8Mh3ZLtmmaYwyi5Zi/NZYXpEEJZQ1px3xVOTlkJ3coyKLrjwsX0bNv7WK89g4t86tsOvX/ADMmWVXOiTffucmKhINPYUsgnG8bQ2I7ad6TwR/NSDdoElLZlKOb5YOiPslWHnDpaJ6W9n4n0bvh1jK2FFcJ7X9yZ2gh0TekBk6jP4LE6gNvA1WuHEbXG6NTsp2tS2WEpdRvY/aM8mS/65WedZOzadick3gYl8sOIao/+d1AUdz/xdPubEdkKMJV/9FfIsaokZx0KGfsVYdR3mbRueLpsQlXgLXbbqiMSNxJz8zKmDgg8algxj4LL2nsJehX2N/zuJcUkT1iGJKeV7YZM6w7sJMU1iIllNPAWvXLZe9KHZPfF58vgtDSbsdgAlo2wnGR63+NvCP/E95jX6W9RICevFozn/SIaCF8GTdPKQN9TYxoHGGpKZxJC+mKJgMWrMAivqTjnexv3Pg6trrbZf8rp0+Aj0vh/8C47++HFrEbpHTWfu5bsKzqNoNn4fU6cdflXglC1eGPtAWKHvaRU7IQZSJt4I2NOzDqZLg6AEIsKodUI3V079+R4vmNMHZW0bO1cKp4Jur8CjyiRcYecO3z+Czjf7ga5+DjGWcQ8ZvMYqn1zBMc2eS5lEGl9LUB3NV4s8o0Angg9b0BLVboRRTixruWKs8kry0LYqzJ2Q/uS8U6qaK3yJGOP2AtxfGoepsROewxJne4PzUKGVSTEDrTlJFgB4uwNUXte+6Q+2uh+UDlHXOe4grUGMCe8Rsgl4UPvhKpT/3xAM9x+BXt4PH1toR0zyFe9045PyLqWxY4p8Tbzxdx94AYfRdpRh9n3fHkWtZIsEydiOuW/7OxFYZOMy2oi4/FLpsekG/9xux210Sr5ZJw7YGCx2Jx1W1DHp+u//X+qC4u8QTviYk9qJetEsMKJNwvLxZek3aqxJbYI78V4R1x4pQb9m43idE6nv2bDE+WR9WjAof2/DOMebxJSiJ2IiIJwYyrZZG6b34+qxhbYM8VsUJlTaOQ8sdOBFBKtdNI2ft+t6yp0eqm3meDkIM/fQ+5nkgW1VtsTbvDUe0Ylskc5rseigrOSjd8UYbZNIktc8ycbPUvcJmKksWPIF+a6Ccwe9Ov3y/1xGRVBlh8YStCvsn4YfgVPrJF64Ldk/fUe8cGMgZeIdV0ksBlMEdTwJdj3VBIIJlCuFVUGVogp+kYve94PCTiO8gIxu4Cy0xjLubibnBsLNiaBYUC98tan3GVcmtqA6Bl+tK1A6Ldr/6xV8MOOZStYVAL5ijGc0+Uq4zfE4nADHZNKAmmGjdm8UTvIiUWz105stPgFesatTwSyz5hjYe2LmHdUrEM6TVyTVHQxKdrFTVP/WdUOTp8KHCNxphbhY8Rs22XbSK67XH9Qq0FZUkI6H+GnBknCgicYXQbsYp902ROo2t3UG+bkm+/R2xfiM7ZjlY38nxng43cqKd1x+qfTYdIN/brXjVnsTg34mu1yxoo5Jl4//f8mfvBNvIctE+I6mWbRrwZX4PkW/XL4hHU5pE3ASGeav5L1qyyyxhViFz4YlMw4Q3y0YlO9F9S/HpeiJUT9Rv8J2md43fWZ610Kb6NvCWwUravxmxYSgNwEdsWKzuGMN9yuOpOFjXnzSQV/1FTyJ8p0WegRO7O8LXQzpqkVOTp7q45UTV3H0x3hkEE3ynPzbPLDrAcW/yGvNLHxJNAY+pvj8sPE0HU55//SU9o14YeJF5sTbVqDK78yiAOu8UEM/LG4i5cSKiv7W74XkSqE4Iq6gqFBK9+gk3EfVoD2arAbSQmss494gcAnjrDozn9c3oXzKd4RumeygxDu1rJm8+KyonLnmjtbsVNwy5pgMBZkcl7YkQhTO64ST01fhMS+KErxncwyezMU5Pb79lK9kaKvgrGbC17Kw0DrSLeEYlc9cV4bofHA7TFGb4OgAlL/XtzXbdc7KT4sOpBufpN2tM3Y6fd3TeYL+z+1NKFhiv+H1BNRtoKY2nTgQGEP9Ou1WjPFwupXEO4GNQTTZZMk/N9px730bnfJz5wpPrlhReWuSkTsx9N/nY05qJ9LhO5rmKFxl6dc21rQ2wc1fic1uVmhMsWeGGEMkAtmwZMYB4rsFg/I92X94MoG1I22UoicihuK2H/WJdM/8vmwzld0TfSeP32yYkPwwjcPOoyj8msdv6sPwmdg+LmsG8DPQoR1xgidp5IEnCZuUeFenxQ1EcRLvonFxQuJKwaqCRwOfve+zvKu3md2vpsOpTgf9363Xu5c/KRNvuToaKsKAlUw4HW1F6xd+v6rjjBBuR/ubK4VRuaMMoDGgZADIYtwbBCDBT1PiXQFxBkdb7dTBb3NWnK/WoFD0r8lTk4/en23lSf7Oznv/NxajnFrWvrz4irGfaPM+ZCIu6YuWbyTvLPgSga1lq6dNVj5tsrqql4DwFXulqFpAexSvomRo/Z7zDV8/xPkV5QDtcrfyU2BQ04GU4xP9uLaUiT4T4p7xjNsbY+ItVxmiJnv4uX3lXKFVJj7/7dix811gntOtJN4VWJ8OzppH2BjRjmP3guC9WH3kuAmeVr5LzDkTB15kUK+HkRIreEzmvyVd5iQK+U3bmC12AupEsx0jgQwy9GuWb3qbgJMoE38FNl26HNIZKbNUWAq1Z8OwZq/Ee1G6KOlT4h1u64sR/gqd28U8E7Jx8cqmfxniN9GvFf8a/zw+2XkUiV/bxIXgv6k//pk8kuYl2oKXMhEXdiCjPKJjJGQ7Qr7Ezh9BX8R4eSxUNMUO+F2RoIcn97F+KljF71v/tuDc+nsuI9Mzu19Nh1MTLfRZXAzupt+lTrzF2a/QtQASaPhMMjb6bLWR3xVousM3SgBcKYyOkgeMlkSGz1i24xnvSOPMt08X7ZVKAVU1V4pv4UrG+jaqwPjxFWE2I6rKU8rcKDvhwHMOPlLLOqCXOxHmbH4IrmizjN04LuQUOCatkxaWgFoEDsYASCbWoTPeukzGLsPj4By3US/E2W/zFX1R47N/73KYPCCwTLAJvIbxZOWnDUspx5fNjkXgnskoAqNCp9gKgqU6N4jCiqZgx06DwFaaQI3TrSXe4iiDy8YgvWC4sclSFHiy6JzgjcHeiElGa6Aor5YKVRBPiRW7DnAZSF2wrcTbeCHb5jqj6USdaLZjJBhThn7NY+XjS24TcGBv4q/ApuuGAA2bjO+ZsGRoT8oSr2Tm7PtA+obS2GWoWegQVc21Fcpsdi99/GbGBNcf25NjRtMJ564e3pbUyeTJIDqSNjQNj4ObFIw3iWSUBzA987boW2y8qOlShHAsYOePgkULRnA8rta84TzET4m7YmjyNQuvs7yL6fP/Fr4jpV9Nh9MwHfH4T+/tNj6lTrw9QxGcSw3fmVkB9R7VsMGsftMf3M3cBWPLhoIL2yuwcWM8dD84E5CY2Q4pfgXkykAPXHmgArp2Zxjd7apv6bEbr8jgxGrQZP/VO+Nw7vwoLGr3JycCnC3pEP2j+6KPnoZl7Z5uwHdmszuB9UBfrBAdhHMV7aqgHyfc97ILGuSYxdgi6bbz3m/DYpTFakxSWXMa+Yz2QRg+42/FDm0hc40LfRdtqM1jFCvepdPqvZlsIuQ6v7/c5GyDMYjA+DSMjbOjBvZr0MQWT8M93h6ftxdg7bPJhFU8LbLxeCNXt45/Ma8WVXlyFaaCe5hNEzlWfjqwlGp8gn9FSGPHBMYRFpTPBEYNqyTsna1ZwQevf3x3Kvt+uwxfBfd4l05Nhu96t/XrDErNWFTotiTesL0AX/0pONtpsjGs38qsck2fVZZZ7I04ZlGE7vHLUFWup1qBjWtId/QVby/Z6gqKDYbvtE+vC3K7s20Hg5UXQo522aTCt2iX2zz1Gce3pe3XPNb0NgEggr/o6JFRlxgvfroKMzfmVFuUEUuK3uj8dtgr/z27vP3v7fb16TqPZzph4No81BQdqAAIn90JoaQzo91LG7+ZMaFiMsxPO4+i8WvnX7gfEx18kuEEDJ9hu33sOwwyyQOtzBf/NAGPsCxx3MaS8zQTqTou8f/FBLhlMgz/Fl/TGlp0y8Jrx7vch1omaI1yzOhX0+HUhB/6zCgfDVO77TfpE29WFOouN/xFKJYOwsDYMExND8FwHzNQzNhPwLmg0EZ4hXQBlkeD4IcVlOr2i0lNTQ/DuZEe8Ks6m2eJxcw2e6//tN/n2Ul4zISJnK+kaRjGTrEq6V0wdWHAD7i0lZy6bjUX25CKULSsxMcCXqQTrwDUZCDvFbIaZPwZhqnz/XD8UBAwl/qgHCrOxniHEvdiJ3Sd8t9l8ihFytNhYCLptjtWny8Wo5xa1pJWjKViMep8lnxPl1e0obaMUZzxZkUAe2D4PNKhUh9MTViuExOGi08eBLI1TUbx327NwZWTwVZhJt8P++Ecw8b0MIwNdgUTYfqElH3MTtkEfYqgHeFpaqzP0+/uC8PwF4t9sPLThaWU48tmxyL4gwLc4qFev2DemQEo40mxzUk5qVU6CMe9wnPDwPnknbkzTZRxuVqe9qDUgkXcji3xZr9RChoiHDEbc5jhS8WQVZYZ7Q0bn3dfPcOQ0J3TMODR0AVTN87CgIcvgx9JiRVd7/X/iy2bxU7oPTMEU9On4eRn8uYPKy8E7x2yqQPNdowgXKfs1zbWtDaB8TqKv0+/PysLVWJdmj4Ng/w2BcM250xYErJDPOOfueyV9xuHvL3vLb4vaB/TXTrM/QePd3yf0H1h1rgins3upYvfbJjQ9Uj9v51H0fh180/txyA/BXPR8Vtu8tDt2dFhKH8R1GnJOfHmx5iKcRNb5NPUXZNZeG1/l++MUvsyy0qRZwa/mg6nMWjidoGe6uTnLuNHpsSbgbx6ZxRO8oQuCKJZEDS2VHaem/YUxFvVHoBeVNGZF3ZgTmTshmEW1xPQCqxPH5FBF+sX35/8y2U45yX/QTLiBWa9MHPnptz6qQWHdU28YR6uBKt7pdEZoxNUDIYNhJFOPFD82jwsnu9V+ePJphOOj5yFNe16NqXv2hxc6efJGU/UD8Lw3DzULNullfdNtEfSbXesftt2owypZI0MJNrCZd5Chn5rGlvwWbShto+x9mAChr1kQeK19N4AlB+sQHRggbbDFS3b1DDd3qq2CRv+5Jf9ug8bHxyyYf1u34Rvz7OJGzk2NiF08rOrUGVn5oLP9Yk5Kz+jsJRyfJnsGOav4W8W4Ko2LnxFIvxyFa6c0Wwa4w2b0Dw/DRv67hRDP7oe2rFj57tow5V4s76fzEN5TJcrk3EnHB+b8SdBAxqtsmTfZ7I3bFdU2H+UDvfBlfUVa1VzMcaUWBHvm2TAJhOGVPspr66yb7uXbUbIJmea7RjR9D1Fv1a5p7QJHo8i+Ov9hq1q6z4s8H/dg6Owhie9hAwzYkm0o/Etyl5F+tQI++rFYGdh+D0VcyyOYnpwbon5bY0m9P9Mdi9F/GbFBKJJ6gKn264T0fiN5l+4P95v8ORH0opFiJP8Ve+kl8fjbwz2rG/I2/lpH6udP5FjsybRGg80+YhknR31Ed9l4bXtXX5eO95qfGi8Kf1qOpy6eRaiTfCN3tttvMmceHOGPX2yABvrc/DoyQroVcj5b6zP7dtQ896fhY2fVqBWi1lVeUtWKzX1+bS2Ao++T0lT3krhjTEFb7LQIfjq86CmVcy2yoP1ubUCjzdm4f6PDaY55XhTy1ok3vYtZE4+paTX1KanQ9/Pw+MnMfGfpW8PG2W4XwmwIar81skJPF2B2o9zHp4S4TDtGFOOL5Mdc9Ea6L9Xbdmlh4xPT8pwf53hoA10j/M5K71Z7I1CQwrd4e/nqAvMHvmVtVPQ48IR/64ONJtsUuizPPvNYBNi8ZfFBz/Owdr3ZU8WphjBOj4Pz3WSHZdhzk+PJz/OwfrGAtQS+pBMds/DBIv/EsZvOY8/JMu82heJt+W4kKWf1PLgOsYwGDcWttBQN540qj9e0C7LTlFGa7v51Ubxl/ppysp7bol32ys4AbApAGw2bsRW87jbrAgnuxInzcYp9V+nCSHSZ9JnwgBhwIEBfrwhy444st8p7fcP49BbLIKxYKxDZsTvlPwmnjbEFlLiTUBrCNBa0xDK7U1pi6q15rjI6JJcCAOEAcIAYYAwkAkDrEjXYXaEpvk74jKNo03jXL/47EGY+Z5wvBvlv1PHTIl3mxqknQrIRo5LVA1nhavqvdWacLaLJ3goaGikXlNfhDfCAGEgMwZQNXHvRgny4Q334dWNq7BWmYcq8b7hvM+sPyQzq8wo8SZwWMGxIxWPXWHUfQR6RTGzLpi6q12dRpjYXZggeZO8CQOEAcIAYSC4hrHrvSPQzYsG226BIbwQXggDhIEUGKDEOwXTdmRCulv4IKo1F6HUd9qrHE7ypNURwgBhgDBAGCAMEAZE9XDvCsxR9y0wuyVuonFSgkkYyA0DlHgTmHIDU9sELdu3k1feJ5zsPpyQzEnmhAHCAGFg92HgKcUIbRPPkX7uPv1sc5lT4t3mAiTjSDP0hAHCAGGAMEAYIAwQBggDhAHCAGGgtTFAiTcl3jRbRhggDBAGCAOEAcIAYYAwQBggDBAGCAN1xAAl3nVkLs06tfasE8mH5EMYIAwQBggDhAHCAGGAMEAYIAw0AgOUeFPiTTNbhAHCAGGAMEAYIAwQBggDhAHCAGGAMFBHDFDiXUfmNmLmhPqgGTrCAGGAMEAYIAwQBggDhAHCAGGAMNDaGKDEeycm3k9XoPZkBWq12zRrZZNvdR7WK1dhrXIV1n+ke7ythnorwNJWHQxZPdu2yd3yefXOOExND8PU13Pw1PSbFqJVyGr7tq/nT1Z2dpX+7dvw+HtfV9cq81DdrgMWmcyz2E2LLJ5uTMMMw9X/uwyPTbjayZ+1os7sZH5nGVsW7GfpN827jbIHWfBrsQfCdqcZN71D8SxhYEdgIH3ivb0A5TMHoXSoB2bWKcFrJYMq7qH80+TuC/aiDNP2CqxNH4FSsQhF/u/CrKfMtbujcPxQJ3SdmSa+BXxcvxDwKeBRnjivZ9uJ6WT27FQnFItdMHU3PBHTUrRyjP80CQMehvug/FOdklHeV7OeP07C4CGkq8VgrHXwP5nsplUWK7B+oQuKxU4YuLGwI4IGRbdqszDT1wmlw/2wqGGwJXWmWThu8X6zYL+hfrOB9iATfq32YIfa6RbHt2KziNad54faTKbpE29hWIpQrENQToqS3kBncaI7ne+CN6UjMPzFNKxVpuHK/8x7hkg4Wh7ct5ky10N2gid10PF6tp2KF7VZmDpahOLRYVivqfrXcrQybAobvEMT761ZmDrsJ92l/iEoL1+F5RsTsPYLHnt+/kfYhjQTli5Z8EmdUh+UN1VcpcJpK9mlu8NiAlOfWGhJnWkl3rUQLVmwL+Rcb7/ZYHsgxpXG97nsQQvJve3tD/GSkug2xED6xHt7AZbHeqH3/X746gda8W6oAdsqw/qNUZi5ddOodFmcaEPH0XCFmYOZIJAfXArzrnbvLAy+fwROnr8M1YbT1poBeergY/s2VDdmYHZsEu5beJm6bUt7uWB3cxIGSkXomrgKNdRPS9K6w4O72jf9flJ3eBTu69vL6+B/MtnNKFnwSZ0/TcBjfSwIZ7lgGCrwtDoPy387DeV7DrsS4Udi0VKbgyuDR6C3fwi+rap9NVVntm/Do7uTMPM52XJPjhGyzoL9RvnNRtuDTPiNsgd10PlY+kr9GmNm4p1qu4kf9eVH+sSbFLhpCswdgr7CwJUlixPlbezI5y+7YGtuznrJsZZ4V4sIPIZh3UJT6rYt7eWF2dq9SZiaPgtraOtsS9IqeLwzV7zXp9nW//xWtKPwkcluxpHF5mW4Mj0Miw/qPVG98P+z9/6vmhTX1vj52/wTBDk/zGBALkcyXAlKMiK8OjIMzBAMwiCMZqIS5jqfRLl+wDiGCSaXBL/cvAwTCMIlgSAkxsELQQgDARHqpbp7Va3avau6+/lyzvOcs354qOpdu3bt2rWquldXdz/h7v/pnxR4/Y/1CwhgunYemYrXVDnsL147NjG/sRO/ytMLm2h/x2xgLGpjvRb2j6mvx70eIGYr4XfOenBMcZuapyqvr5GKjWKzDQyIeO/h4ocTwj6fRLcB5kmbOhkuvlkErC2++Eix3j/i7eFo5Thsc31JMT6lxHuL3xfwxngt8rFTYyHiHUS8i7Ue69c+XzOgD4vPRSuuwWu1t1PrgciTt95LJlycFAaOj3jTVx4ffrNgwLnezK/3fhO/6D38vlnlsb7ua5YTuxLDV0Cr9vFFzJk+JwAU/fV9wAlhJ0+iM/xPfY0nxKX63kk0xdqPV2pvUydDfAF26dh6vq8i2xL20ryhr+EDa4svdlKsFxJvwkN1bjkx++Yh5vwEBpy6CR+NsiVxSHFcBR+Ercl/JUgxPmHiTWP2cINfv18S8+YYpvWh/fX32cSbxihhdNtjwTGexNUWiffU2kNzyB0/7scGsTIa/6XEm/1acn1C/R35EB/5X/dahPxKWJto0/MDY7HomoHaXnTN5vnHtibx618fog+Lz0XWn5nrwez2TmI9sH3ScXGjyZsDkvnzSnE5/risQbzfDa8PX4W2j7OVFzAfh89/+Xx46jx/mfZceOrlW+133f7xdvjZDy+UX5+O7Z1/PFz/dPzV4fDwbvjop0+HJ4p2YpvnwjM/fLn/II+zOBWL68MPwi+uDI83Hh4G9Kvoz7e/Db+/kb+KbU9kD/9yM1x/OtvoHpU8/3h4/qdvN/8G5+Ff3gyvXnp83N/vXAjv/iUCI8c7fY17iH93TI/UFf4Off7TTx/vH9v8/o3whROHfvLld6Cvf7qMwEz7X4L74d9vhVuV/l77eS1WOQbd2Pzj7XDrORPr7zwVfvY/Bh+4CON4pXwmLV7cikUptmd9jmP783fDw/hucGcz20NdYMxiBeU8tsAcygqftoK9OD9fDM8UX44+DOf//fnwm7/fC/B97sVO8jfFl+d9nlOxf4Xtb38b7v/0KYP/c+HZGNvGzbOv7r0Unv83i4EL4fovPyje0UY8V00LX735s+L6A3++/uzGeN04PAzn/+3p8Op/VfrSInsP3wu3nh3iwh+LS3XqN0TSGNKaAj+LOHz7cfjs53bNPReeuPRSdb2FnXqaSaO7zqUPHZm1wBmTpWtxq9+dv978Pxww2pj/9b6Wa6Kr97/182C37vDcSGNbzrkUxy52OW5JznOVxryIR23tSW3W171u7ViKFazZ5I+NT4HFYfyTjPuU8mMfwz8/CHev2+uMNTG84lqQfI/jVF0P31uwrq041qF2zfZm+ILxNsS8wImdhw8/CL/5sV0j+uu4a853VuwYh3By60ExHrZf8fgk1gPPD8lEuoWBvcLAlon3y+Hu8Fcqz/zwSnj9zRfD5SfzRfKTb77r/mfuw/95KTwLAn3+8fDU5Re7/9i9fvmoI9YjAvPgVvhR/Bpxd4I9F54c9F/94YVMxCtflM2L663w++vZt2gLJCifWG6E3//nhaGdvj325avfPR+eHHx44vvPhVfj/7dezyed85duujcbcr3DcPidJ8KzXayuhGvPPdERkd6PVU+iw8Xd/7wUnuh8uxB+8ffKBR90zr8Yfr9gN2Ke/7lNq3/5+rXw+ptXwrXv5xsPfqxyDF69038EKxKT629eC6Oxpvdz02OH6QIMWIlpvhjL4+z8Ddvw0a0OY+cfDxbPT159Ljzb2c/2cBEBjDFWUNanuV/AHMqzT9vAHv7qqI/H+Sd/UMby/HPh2pUhVonw5HGEj5wmf91Y5zkV6yAuhzdu9H/lFW9iRCz8+LnwDJHpZ/7zrrOofhz+9B8g6uWcx1/FPfmTdxdcpLb7lXz14rDG+hMC9yMS7Qvh2o/jfDBrpdeXGunBV7TjGHz3xfD7+BVwnJhTnXWJ9630N1lYb69f7terbo585/nwkfnYVvIBvrjpZi608xpzLsxdixN2PbK3xvyf128aoxSXHIvzTz414OJauE43/578j/ecseX1jfIrE+/G2pPwVF/3Dn+yAlaOg3jTvOV5l27kVa4ZmuNJNuNNf8yN0fnJ+bp9WmOa6+G58Pyv5v4tXT6v9NdGhIW4NhDOM/bb12znr98eram5rjlvxq+Q47rsO1jX8rm6fj7kuZDngNuHtB7nvtpzaByvVdaDNB6pDfLrRNYDaj+tEZI156PilM8PisXOxGK7xPv8uXDeXvgFvtj/QfiNvTj7+la4NpDuJ19y7rB+++vw+V9pR/Pbu+Hd7/cnlPPPvhQ++6dZiB5+EN7t/p93+JsgQyjT4vr9C+GZ7z4ffsNfaB/u7qYTy/cuhGe+81S49Uf6IjbuAP/1lfBMRzaeCNft18b/cStc776mfS5c+x3VjRPhzy8lsv7sfzi7e//8IHzOJJIIS+3ElfylE2sId8Mvhjg95RKZewG74k/8lC7mpibrUv9TnM4Fr78P//JK91XpeJId35jJJ9fz58+F5//T7ATSydDtQ+MisTs5//Lp/qZKEbf4OPx74dZwAXH+0ivhc/NXU19/+uIwhhGH9QvQ2njN2vHeAva+/t1zww6zg1meNxHX3sVHCxsp1nWCl+ZeXCfs3GXyeP5a+AzzbGjz4acv9r6ffzq8+xdaD8K98PAvLw9PHzwRbv3ZrActnxtlyVcbhzXXn9SPwyfCj/5rfIMhY8u54E4xZszR+vqdH4z/virVqY+Lv370cUxx6Nb2/qmI4sLn7zfS/D3/ym33xmqhv0rMuzp5LRhdaKc1xsF1Yy2u9nvN+T+3v2O9X4e7Lz8f7hp8R72v7gxrlXuTNJOVUWwo3hjL2rqU4tFaexKeGIMrYMUSuhWJd4rhVH2at0++crt8Gu3b34aPrvdPiJ2/emv+P1yQzdF6FuPOa2p8CqV2LRLnlj3P8HrofeWfxjXFgGSzx9qd17SmOGubek8AACAASURBVOe3hBNz3kxyfuIGPn372/DVP5Y9VYc++Oeiza8H1fZObD3YzLnMw4dkiq0wcHwY2C7xPnw8vP5HZ3H91+1wvSOph6F8pPm/w2c/GR6Jnvm3Kw8/en64AH+uvsPy8Ha4PpD5a78rL9LT4lrzNV7kgJAdHgb/IuW/w+9f6XfLXcIX7oWv/+sHPam7eovuGOcLJPv3Ra1JAJ99X8hfcyJMPnzvlfHj5t++G17vYtTYEcdJM6VL/f84fPRSH6fWBU0mI8+Fj4obKfnkynfrOVZf/OdRH2evj42LxGgjjbOJW/obk/N1jP3pP54YnoSoX4DWxmsW8d449vKNGH9HOV4o5nnjX+w0FqoU6zrBA469mxXdmP71lfBUt04chXf/ym1l372/hYt1000k3hFMuGVb8/LJV0O811t/Pgg/G27oFDuXxs8v8JRNvODmshRjYO7j8Pl/Pp1uSLj/GZ3q1MelNg9iXFMcDus3Nerzd16su7HntkzM+/K8FpTkctW1uD7/v/m/uMnzYvi9uekGX9MYOcQEOiul5oZTspHOoY87N5fyulzGpow/xrK2LiUcVNce/j91YDC3AfuHq2BlijhP4WOifhrTGon9+s1wuVt77Dko9y+NxTAn11sLeG6NY9m1VV0P6z7BR4zF9FgvvWarzxu0eXjj7Y3sNCV7x7Qe1NpL2Ik3vY57PeD1X/mN4ApzROn0OqIYbSZG2yXecafKXRzyhUFxIkjk71y4/n8dwj6y9d/h99eH3W53Mc5B+uwnw2Pk18tdmLS42otaaitfgFROwukiyBKE3H5IJ02KSboIXkJ28wm6iJ3nryGQ4Z+3wrXuYmJ8sZZOJrYO2R1NuqX+pzidS4/xj2zG9hIO7I2ZfLH9/K/MkwPwExdchxRnlCV//QubNM5FDGZiLI3v2DYwVhuvecR7w9hr+JvHJPd9q8T70s3KrlIe74JAJN/rr0R88+mL/tMLwMLCFGNYxiHH5/wq60/qxxgzeQyY3Jj1xeA54rd7zN55CiDZS3Wc+THExJ8H/VqW4uDd2EJM0zw/DK/+gdZAlM9MU1tubCvYSG2bWHGbKe5lDPx+zxzjZHNiLNmPNfLfPLyVbl4Xc6Ozmc+v47I8HohvbV1K8TisrD2xrYSncb9h/3AVrGAdL9bi7HvEc7Lv4aNZP49p7emv+ITYu9/rry1aMUzzKmSbK60F3J+l6+EMHCFWk2O99JqtccP6i/eG1/LOP11/vW2G74gx+lCuwcDE5tcDv72Z43zM6wFipBR4UCos7C4Gtku8qyfNfGFQnAh4seL3EquLcz452p1sC7p0EWF8SourIeRcP9WtXUD8Ge9PnwtPfu8oPOX9/h3vLz8d7g59S+SgerLzgQOfi9hRjJK/pq8hXhxgZ77YCcwnk9oOIscD+cX+p/FtXMh1/ajggz4wV70YwgXXxoh3xliV7EefZ1yA1sZrFvE+IewBa/7Fjo/PDh8pHiW5AXZiOm3bv5jKTyA87s+1OP/wLYmFc4v947zva8bGKutPmj+Nm369D34cGHM/++W14XWHJ8Lrfyyf6uF+5Dr1camvH3PGLGLi1+EXz/akpY75BnaGtcyPOepVYrLiWhxj5Pc7j/Gq87+IP63Tc+UP//p2uPv/xW9+EK6HJ8biKznjtTCvn+MyxC+PZW2MUjxqa8/Mda+9dlSwgnV8dA4b++/ab9bPHxE9/2TlfP29/nsyMb7NcU/jmXGyyloQsdDGe+x3BfPJhxwbiy3YnhzrarwzpqyNhBNbNz4xlT7aeS48dfXl8NHnlRvmC/rgjnctNmusB4hZ2V4e5yYu0vlvfEPKjo2O67hVbBSb04iB3SLeOFl6pMldmOefiGonB39xLcFeq5sAkfzuLzbdj4CkC6W8EE/adfucT9D2BAh/mnbxATW+2MdOuPu+YBkLtBHTZjue7ylO9Yv+3n7tJD9jvFttTJwM/f7MaDP2tWEbGKuNV+uCyveJxiT1dzvYg+/lxQe1741zEY/6WE/b9mOfYpLmVKvv9fYZy1N531ffP89W8pkuTj2ZV7eKj4S5c+E8PkY59YpOqlOPS8svPw4WD7X5a/Xax+22KrFfcT7EuPv9rrRjcZ/imtd3fyzbfS7qfPvr8NFLeIUlYry/sdt/fPO54Zsix0C8CbOFf8U8H/e7PX6IQwUrGMdG2037zfp5TNvn6n5dqa/b6ENMs83WzY46zvJ5vb7Wzm/DjhNiVeuLj33uX2WcqvNmqBu/Gv9y/heYGO/z//5c+NkflhNw9MGPTyU2wMGsc0WJYb+9SjvHsR7YNnSsR82Fgb3EwG4R78+u9Y9KHtYfIS1PKHgv2T6SzCeMPl87sfiLa1m/Vjf5kvx+LvzmAf5PuJ7i/zi//tXwgZzWjoIzseDzaidR3LF9PNz6n76fePe79n566qfxZbH/KU5T41s7yc846aUTrUMsJi6O/XHObZbfIygxcmLEO8V0GfZSXyewB6z5FzsmBoyPFGtnHAa9ads59nwxm3D33fgxxfo8e9iVzXllpdGPpq/rrT+pHxNjUL2oTzF+OvziD/1X/uOF7ehjUQvHJWHDIT3TYxZjOT8utbUlyttt+dgIK86H2J7f79zOqvO/1cdWWfpuxHefD3f/bIlK9ovnRm8vr5/jsox1xHe188hghzB4t/IR0PbaUcEK1nEHg4gZ/HftN+vnNq99+OvQrxONdWTW/3pnm02cVHE2hfdhXg0EsjWuiA+niNXqY50xZW348ybjrPPj6w/CRz9/jv5W1vlYJK9TTh59cMe7duNjjfXAby/Pu+Y4N+YFj4vyBifOuCtGitFpw8BuEe9/4L+QMylsB/zj8NHV/q70FGnEO972/St/cS2BPnliSX433iv0FpR0UnC+7u7pDzL4bE+AiNWUv3j3qo8ZTqhzY06xWeo/dtYPJ9pK73jbd8HzSa964YELLu+piYmToR83xOcw1N8HvBfiX5b1f2NV3jWPY4Lx8i8YeLd8vHvl+0RjsCr2UpxaN0Fy36u+13CaYr154p3JVct3ilHNxwVyfwzXXH/SY5AT8z/F0mDLyumr/tW/UrN1nBikvjqkJ5UVH4k0sU5tLFwPjS+pLe8d3tqF9qrzoUqI8hxYdf5jXV6WThG51lqYfa6uk7QurXoe6fqTxtpgk+wfroKVtD7V1o/cR3dtQn0HwyH8Nty91F83NMfU4LE9fmuuBRwvF+9xjrXG3MxB4zvm0upjneNtbUyeo9iXb++GX+BfZvipO9ap5NEHd7xrsVljPfDby3FoYqdxPdDGUXscVVfxEQb2HwO7RbzpL6+8/4v0AIfd2sPGFybz15nHH23zF9dyYKdPLPkry62vE4/8jx8CGh4RrX5Z2jkJwefawj/pL77YGk98f73RP7L4/RvjL507bRd9WOz/b8Nvhv+Fbo1v+iry6NH3GRceuODaGPG+F/70H8OX9mO83K8Mf0z/AT++AE1fWq/EOGHYeV9zcixpzizCXroJchiq7/Wnv2Va5+/E6uQYOPYvpOIcrIx3wp3z93xTmF2xvOZrGrtV1p/4tzTd3wwehtb8T1/MtvhxSM/DP+Jd73PhqTed/zFPHx8br4Xd3CafvH8OSHE4rN8sSDu1Cy+si7VlkohUsLHqfKgS7/Xnv+3XvGP0r3LzAq8MOWtGfMf+7v/piWVrVw5jufJ5JM4lB4PoH+wfroKV9D2QyodHcQ6LO8AeUcV5oPI0CW4+H363tqaX1wDoUytday2YxHtjPZyxpmEsVh/rjKm1iHf0FWPjnaMbfUEf3PGunSvWWA9q7a17PdDCkMqWzzvFTDHbNwzsGPG+Fx7+4Up4onucavifZkt0/vlBuP9n+njQv94Nr/N/LBd/PxW/kJ3vsJ6/dDN8ZezVFlceyGnycy8U/4n80a/H7x18+3H4/JevhN+bj8al/2M9fCJc9+r979vhs+KvlO6Fz94cvtB+5U33a9DT/uIja4+Ha1f7x92r5KtxIowxWur/N59lYtD9D7cZj5D+B/ic89dtuBgd7wyn8Wqd1BsXiV1f8Ldxdpfk78PNCfcxXvoLpw63Y+Kdd8MfD6/eI+zG2Kb+9hfKdodqeixXxR4wcBgOva9g/+N2uD7Mq+49SO/itoWNtNNQf7pheu7VxzuRO8/36Ne3vw73f3qz/Putlr8TZVVf11x/vvrV8CXyyvx/+AfMF+ejaRU8R8z0T1+cC8/fsf8Nni+gD//PjfAFz79vPw73f0LvFNt5wOQgvqtp/2s4/od68nf9myLVmHdjVcfGymvxtub/BLbS2lXo5R3vZ37+QXk++efb6ZwX56ZdM3hHt/Uk2PrnkbnEexorz//KnDPTU0+HofurzQKn+ZxeXZumnsb6+la4Ntz0fvKVW6PrgjgmD/9yM7z7qX3Ev3GRu+Za0Mb7msR77WuGvG7MJd6ff3QzfG6vx+Jfq/5q+GvVhTfm2vHZ/HpQbW/N64Gv//BKePXHL4Xf/MVcCxTzv4Ez6ZXroeKheOwZBnaOeIfwcfjTfzw1XDgehsPvPBEuX78WXn/zWrh++YlObhf+QI9YHp5/PDzzwyud/uvXnw5P4KND370WPnP+c7G6uNJAziE/cZeBP4Rz/skfhOtv9n6/+sMLgx8OKTMf0Dn/bxfCtR/HelfCte/3X0K3F1bpr7/ixe9zL/a6L98MXw0+z/GXbRzOfqfeORms4H8mBoch9/dauH4JX34/DP6jsvWTa7p43QbxHnbDejLDPr8Ynv+3eBPkifD6L18Oz9eI97e/DnfxeN3hufDEpThm10LExfnDeIPhRni1qzu+iJ4zlitj72G+aRU/3FT6FS+Wb4Zf3OhvCPi7DA4e0rzJT4Ecnj/qMX39qXDrj7nO9NxrjPe/3gs/e3a4ARV9//5z4dVhvmGdOFy4o5IwlPow09c11p+43n1GZDevG1fCtadz/0ZrXvSxQrxjP/IcG9/AyrvicX3FejNg+bvXwt2fD9+eaBHvl6715O/84+H5bn3O61X3nvlLt9J61Iprq6yNjwY2VlyLW3Mtx9OJ2dT8d/DU6jfK0s0lmps4pz35k2vhR5U1I9ZPO7qH8WvS8Xz4Ynj2p+8WF2h8Dlj1PNLCYBq/OVhhYj3Ei2N+/t+e7s+nP34uPPOdGWtTeiomjtdTXd1Xrz4f+D30rz56fvgngPI64/XYRreuHzo3f/OagHEq0jXWghSv6k3OFubbfq0/1suJd9+fc+HJy/35Lp/z4jnlXPjRRwtuavBNPzc+rdisdm3WGg/G5mgNba0H9KRZ82/2VlwzCizKRrHeKTbtNULxOb747CDx7jv/1b2XBlIzXPgPFxnxBPzun50PJv3j7fCzq+XXM7u74fHC8Mdvhs8d0h2B1lpcAcTWBRl0urTb1X6ePiCSfY8E8/ovPwgPnQuM0NV7sbug6Hwe+hrz559+MXxkPlrTXay/afpK//05y196pPT8K+V/mxd9mrN4L/b/Xvj6Dy+Ha/8OYsFxejq8+l8fhIduu62T6zBptkS8Y8w//+V4bCMef/bZx00S1MXz4XvhZ8+Z/p5/PFx7L/a13q9ZYxljtSr2/vF2uGX9OjwXnrn+ZrcbOmd+VPHy4Ga4nP5Opr/Yev2zvLhN267HpZ9vcVebbtLxvHnyB+HWPbOL5mIq+1Ptx5x1YsX1p2/z4/D5f10Jzxax6ufE+acbXwBuEO+S0D8RfvS7MhZf/c7B8tNXuidyWpgrxuwft8Or6ebAMIfjevvzd/11bmH8i7ZGdaew4c/Xbk2trMWtfq89/0f+z8Ddt78Nv/9xvDmX18dIWJ796dvh67gjPMjtjVnMjbtXyvXm/Jsl8d7IeaSBwWL8VsLKx+FPP7fz+1x44uqN7nxe2HfiG28wPYUb712s8l95Yq7HXe0fOeeh7gb+dX/HFnWr6YprwVR/qq/eOH0f+/Zx+Gyta4blxPuLX9LGB2H4WL9qjtiscH5sj4e/vkxfD3wQfoYnNF+6VbnOmbE2oF9KRa6Fgb3DwBrE+3gWh28efhy++vzd8Ke/fxwePnQItwXdN/HrpHfDnz77IHz1z48DviA+PhFt0f9v/zs8/Oevw+efvRs+/9+Zfg/9+OafH4cv/jzU+9eEj//KX2Jd3M9EvOuPAq8Ss0X+h3shju/Dv78XPvs8fl12xvja8T7u425sgS/yN30oq/YxoGEs/5XxvHjM5vR1VeyRXw9nfcV3ApvwtfNnwOkUnlFnaYoxufde+CJ+yXxb7czxa831J86fRevdHJ9qOohbXCvnrK2VGxDfPIxrXR/7rWC65v8c+arzoWabY3Zc61XE1N/f68+BC+dmt75Ofd1/nfNILU4V+UpYiTH/3w/CZ3++u3xud+M1rD+N2OE6oz8Pbei6Yc21YJXz72SdYxzrzpch/l/8+e3513AV7Ez2bU69zp/Vrs3c9jt7zvVAy5chJju3VrZ8VtnekTsXrxrHnRjHnSfeAs9MgrNwQqVHz+wHmxba0fj049PeLdvOGCr2iutxY6C9C6TxOO7xUHvCnDAgDAgDwoAwsD8YEPE+k0QzPza26kfVNMlpktO70s+8Zz9mRXpnEmvq/2maKyLewvNpwrP6IjwLA8KAMCAMHCcGRLzPIBn64s7w1eP4wbmTfCx3b2L/bnj36svho89/O3p14ZsHb4fX8ZEvxXMnHuM5zgX0rLUl4q0LlLOGefVXmBcGhAFhQBjYFAZEvPeG/K0J+j9eC+efPApPDV9r7b7E/Uf9ncW8iZQ/ZBQ/bvTk947CU987Ck/yx7C+84Nw98GaY3RWsKh+7u0NipWI979+HT6793a4P+f3+bIvHc+bv5qXipMwIAwIA8KAMCAMnDwGRLzPCglIX/vuv5R+V/8huYD8fBy++OjlcO25/u/s+Mvz3d8//f9vu/8DqwXu5Bc4jcFmx2Al4p2+fM1f567k3b8K2mwfhAnFUxgQBoQBYUAYEAZOAgMi3meFeMd+fvvfo0elTwJ0e9+m4rjgpoUW9r3H+7pr5PAV34fd17XzPzG4x3r1RXNrXbypvjAkDAgDwoAwsKMYEPHe0YE58xfrGhctmsKAMCAMCAPCgDAgDAgDwoAwcEowIOJ9SgZSRF07q8KAMCAMCAPCgDAgDAgDwoAwIAzsJgZEvEW8dRdNGBAGhAFhQBgQBoQBYUAYEAaEAWFgixgQ8d5icHW3aTfvNmlcNC7CgDAgDAgDwoAwIAwIA8KAMHCcGBDxFvHWnS1hQBgQBoQBYUAYEAaEAWFAGBAGhIEtYkDEe4vBPc47KGpLd+yEAWFAGBAGhAFhQBgQBoQBYUAY2E0MiHiLeOvOljAgDAgDwoAwIAwIA8KAMCAMCAPCwBYxIOK9xeDqbtNu3m3SuGhchAFhQBgQBoQBYUAYEAaEAWHgODEg4i3irTtbwoAwIAwIA8KAMCAMCAPCgDAgDAgDW8SAiPcWg3ucd1DUlu7YCQPCgDAgDAgDwoAwIAwIA8KAMLCbGBDxFvHWnS1hQBgQBoQBYUAYEAaEAWFAGBAGhIEtYkDEe4vB1d2m3bzbpHHRuAgDwoAwIAwIA8KAMCAMCAPCwHFiQMRbxFt3toQBYUAYEAaEAWFAGBAGhAFhQBgQBraIARHvLQb3OO+gqC3dsRMGhAFhQBgQBoQBYUAYEAaEAWFgNzEg4i3irTtbwoAwIAwIA8KAMCAMCAPCgDAgDAgDW8SAiPcWg6u7Tbt5t0njonERBoQBYUAYEAaEAWFAGBAGhIHjxICIt4i37mwJA8KAMCAMCAPCgDAgDAgDwoAwIAxsEQMi3lsM7nHeQVFbumMnDAgDwoAwIAwIA8KAMCAMCAPCwG5iQMRbxHuv72x9+f7FcHR0FI6Orob7Wx7L+6/Fdo7C0Qs3w5dbbksL5m4umBoXjYswIAwIA8KAMCAMCAPCwCoYEPGeJFDvhBsdsRtIV5HfPtlbZVDXrdOT2YvhzoOJSfXgZrjE8agQ0kyO+xjeuD9h1x2TD8OdF8akN9ve/lgcB/H+5PJBODjg3yPhrb+V8RrrDPqX3wgh3A1vPcb1nXynV9pcFzOqr3gKA8KAMCAMCAPCgDAgDAgDdQyIeLskjwPWIt6RSM4gqJNtcHsnm89Edka/LPF2YzEQZiLoy4k32TDkPvu758T70ws94R6R4p5IX/k046In3hfCJ3Nw1dkdk3ctijmeioViIQwIA8KAMCAMCAPCgDCwbQyIeE+Sl0y8L73/YXosOxO+o8DybQ/Ytu3nfq1CvJ1YgJy/cDHtjot4m4Xtb1fCowcHgcl1a5xFvE38Juew9Ft4UpnwIQwIA8KAMCAMCAPCwPYxIOI9edHuE+8AQnk0JpvpkWTs8r72TiLsAHUmuHHX/Gq4T/YSMfVk4V7IdS05pp3hoe3xTYGxTv/OsiPvbNg2CJTJv4vhxmvDu9aVHelLr12tE+9kB4/zU5ujskFnaCfHIu5457GK72KP+86xc9oqsFDaOnrtnZDGNfUxx8xrC2PdTodHw0c73RTnwq97QcS7Hpt2rFVP8REGhAFhQBgQBoQBYUAYOBkMiHgbUjMGYiZgTK4SCSser85ErP/gF8jdUYjEDbZzXSoHST86CqsR7+ynbTv7XfGvI5KVsqJ/BqSJFF8Md+7jfW8izQE2uZz6F2N//+rwcTQbi8FOasOUj4j3xXApvgNOcYz5FMvky1gn6uUY3Qt8U8Xa645BvNk3yCbxZGK4cLc7YkjE28Rwacyln9YirElKhSlhQBgQBoQBYUAYEAa2iwER78mL8DqhLYkd7aYyCUvkzCGSiYyDoPakMJHFVJcJJLVDpDiR+WSTSe3w/nPFHk+yvIPMBLoCwmQv6uY+JBILUh3jkXS5Lzm2qc/hXt5ZTn3Jtu0XxbO/RJ6pLfjCerktsktfRU+xpPgWZDyNb66PdjiWs/IrvIPdE+/xR9PcR9VXsD/L78l5U8GM6on0CgPCgDAgDAgDwoAwIAycQQyIeE8OeiaHdvczE7hIMjIJs3o4jvqZABpiS2Qx2fVk7qPmdR/7th3Sj53hRG57olT1z4tT8q+3n+oOxBQEtiOlSZeIN4g5fLGpQ3DrxJs/rkZj0fWPjpPNgRiSD33cKZYmNuiP9WEtolohxiNyTY+ia8dbpH4tzHlzWTJdAAkDwoAwIAwIA8KAMLBVDIh4TwIsEzHsaiYCxjuii4k3E8Xy8eatEe+CtPMj19mXRJ6LvlWITiLTltjHY8TNlp0w8TZkmneyLfHGeIPkpHG35H0SQ5X4xXqTj5q/Ea7EvxcT8d7qQogxVtrA6jo4V13hVxgQBoQBYUAYEAbOOAZEvCcBAAJJjzLzR7wSCaNdVUvuqI0qsR3tvFbIeEGeB1JL/liyWCMSiUQOu8wg+1X/qA/JpiXedPPh0gvDx9YQi6TrEW/0o3bRT7FN8e51s7/55kHx9EHXfr0+v2NuiTe/l1/YND6keHgxmpSNiXVpb1yuHe8aTiQvsaN4KB7CgDAgDAgDwoAwIAzsCgZEvCeJkUe8+ZHxTMgzCSRy2dl/J9wAASWCnYkdEcPig2C57axLMtqVzkTakNgHN8MN+hu0AnhNMmz74EzaVD+3yTGIj7mD0I93lqM96oshs1++fzXceZDbzP1jgs3jwHKK5xB39iv5RDcKui/Ld2NFdSm+TNDzo+ZZd+4NjyL+A/Ye3H4kHBzU/mtbxNuLmWR5bigWioUwIAwIA8KAMCAMCAO7jwER7xWJd7EDmj7MRUTSvq8M4l2QPX7cO+d9YpjL8c74ERPDRILHeokUVnWItI50MqkeTeikyzocA99u7h8TZ+s323T0BqKeCTW1xTGeGXf2qSDZdhzjMW4SpP6TbBJP/qKAd7ofvX23fAxpeBRdj5r7cRthcsX4y47iKwwIA8KAMCAMCAPCgDCwTQyIeE9eqGcimQgs6vDuNcgYk75E2koSWZL2gbQRiStIIO8KD397lcmmtZt9zeScCCm1kcqT33miZfuRDNs2sl7exS510u50Ir31x+Y7cHMcETOu28U77y53vi8m3r3fyTe0k26aUL9ie8anOCapbopZ9mmEDWBkSQqSHd/ppp8l4yDprNPlH7sSHtj2Kh9v2+aiItsGS3ZMdFzeXFI8FA9hQBgQBoQBYUAYOAMYEPHelUEmUlwSb13Ei8gJA8KAMCAMCAPCgDAgDAgDwoAwsM8YEPEW8dYdtl3BgPwQFoUBYUAYEAaEAWFAGBAGhIFTiQER710Btna8T+UE2+e7cvJdd5WFAWFAGBAGhAFhQBgQBoSBzWBAxFvEW4R3VzAgP4RFYUAYEAaEAWFAGBAGhAFh4FRiQMRbwD6VwNaduc3cmVMcFUdhQBgQBoQBYUAYEAaEAWFgfQyIeIt4i3gLA8KAMCAMCAPCgDAgDAgDwoAwIAxsEQMi3lsMru4MrX9nSDFUDIUBYUAYEAaEAWFAGBAGhAFhYN8xIOIt4q07W8KAMCAMCAPCgDAgDAgDwoAwIAwIA1vEgIj3FoO773dl5L/uLAoDwoAwIAwIA8KAMCAMCAPCgDCwPgZEvEW8dWdLGBAGhAFhQBgQBoQBYUAYEAaEAWFgixgQ8d5icHVnaP07Q4qhYigMCAPCgDAgDAgDwoAwIAwIA/uOARFvEW/d2RIGhAFhQBgQBoQBYUAYEAaEAWFAGNgiBkS8txjcfb8rI/91Z1EYEAaEAWFAGBAGhAFhQBgQBoSB9TEg4i3irTtbJ4qBu+Gtxw7CwWNXwoMT9WP9xeSTywfh4OBC+ORE+jGO48n6s348dYJTDIUBYUAYEAaEAWFAGDg9GBDxPhGSsARA74QbR0fhyP1dDfd33v8lfe11v3z/Yjg6uhjuPJioe//qEBdPN8ft0vsfppsL91+rxfIo3Lhv2ntwM1wa4j4q21jcx4SxusD+7Up49OAgXPnU+FmTb8THln9l2ckS3dKXGMPj9+eNcOXgIDx6+27CW20sGSAAdAAAIABJREFUH9x+JBwcxBsV/a9Wp+9D1huNfRzjYfxhq3YTZ5athJlxPGt9OT55H9+Dy29Mxvf4fDJzMcVvHfkuxn6d/qjufuNR46fxEwaEAWFgUxgQ8d7IhdI2AZkJpE++PdK5TX+2a7sn3ZEcz+jXhol3jC+T9LBrxPvTCx1RG5GvmnwT2G6RelN2/ESXsTgmK8fuzxCPGonGog3SncaxUs/639d7JLz1N+r3qK5PTmfZYryYsYXvJ5p2ODf9Z59PS34XY39aYqt+nPKbVrQ2aqw11sKAMLCDGBDx3sFBKS9uM/FmUpgJqiGLO9+f9okx92vLxPuFm+FLxIoI9lFFvhM73jWCXZOjf2ukPdnzHx+3ZZbclThuj/v6uvtCvAc/za5tF0t+3cAlX+O6Xcy5XhxrS1Bn2uIxsGPLZSeVd/u6BrZPqh9T7e5i7Kd8Vvm21zfZF8aEAWFAGDgNGBDx3vkLN594824sE/IIytHj1K+9M77rlXaLsbvstEOElIlnnRx/GO68UD7KbX0LYazTk11H3j3m3SDgqQ+ejtMfjg0TbPaJ5ZX+54mffR73c+4CSYRxINB4ZDjvnA469Ghy1LnyaU0e2ya7A/GC3fJR3WGH1JK3bl60Hp0el9WIdy/Pj0vXHoXuCWPWSzvCwxy1dspy6m+hfyF80uw/xmmIA8U4xx8690JPiuBj3n21vsVY9/VtfAc/J4h3jXyVMR6PQYfNob/wf56t3McQfLtl39G/XC/7ZmJpsUU3isq45XjmOTbYd28e4HUCGo9P+9cx0HfYme27wUqPMTPPzNj1bRidA6cvZn6X+EUc/dijH0oRJ6XCgjAgDAgDwsD+YUDEe0+JdybXTDozERw9lk7kOxPnkiSjTiKRFeKZ63PbmejCDtJkjwkuv7Pekd2a79yGmWCbIt7Jjnl6oNL/tNBRebFTvghTdMFOF/Q9ITEX70RYkg+xLVdOdpn4DLqZmAwkiXXgf6drfGiUZeKFcRp8KGzDr3IX3evvJ7fzB+cicWKi0hMp9m3cViJ11D4IGNvCO9I5JvTeNI1JX5f9vhveuk3vGxvC24+RE187Xg6p7HwnvzHeRb+dekWbg++zbGFcE544tj3GivjYPqR36iMJphiByFIcgdf+5pHBCtcln9zYx48SFvqZ8Ftf7XHZNhH4FHPgtCf1CS/uGI+xV4xTJaaMb4zv6GkFikHSkWx8I1kxUUyEAWFAGBAG9gADIt47P0h1QhuJrbsT7e7agsCSPdLLRJ7IJxFLtx16DzvVJ4IfEqEdPgJXsccXlD6px8W5SZN99I3Lcz8z8XeeBuAbAOx7xMWkv/lmAbfB/ZnO4wKfyEps27vAd8hOZ9+VV+wG7Nqa9kbzYEwmcl/8sp7oZrsj8oE2bN9c/3ksvbzdGRz71PtjCOSwm5t3/cf10M/S/7oe9N0xQ59tCkLa7bBbHwcimEgg9b+L1aA/2EikMLUx+DpBvH2SN6OfXTtlGzEGfrxxY4j6OIx3QYY7m3ZM0e+BUDvkfdT3qm3YiulM3wdbGStUl8amxAnaKfti50bCTBoz37avhzaUKj7CgDAgDAgDwsA+YUDEu7jw2UXwZgKJHWSkTIbdR7iZVIKkJ7JakvYQcjuJRFaI55gc57rwrUwHYkz2Urkhu2PbjTFJfdkA8TZ+dJOY/C1j3fBpMZ5qRKe8cO/8GYhAjWyU8ppdhwh5PldJXb4pULYH4gXi3WjfEJ+euKDejNgyaU1kbNyeT3YGPdQbbI1J4Lifvb3xI9ZpwW/ZohiP/RoTy06HyF1qo8PAFol3a9xTHwZ/400D8nHcr2Esrc0ajg0u3D4PPky15Y5nV3eB79Zvbjv1e4y73u8SZz3GD0JJ4g3WK+2lOKT4m3qSa5dHGBAGhAFhQBjYCwyIeO88UDOpBSFOu8u047yceFuyOm6ntuM7Jse5biLUBenPbeW6/Jh7/lu0XJ7rVC881yHe2O1PNminH5jYAeJdXKjXCIsrrxECEG/nb8nQ77R76ZPhGukp5SXxKMew9K2rl4iMTyp628O7vJ2uJaulzdhe6Q/sGr0W2RnKMokb6uI9cJB3xG2kjzYprbVn5LWYFLurpk6OcRmbWbaGPvgxw1MSQ/y7x7tNHKvxzjcwUhxdvMYYjW36ssYTAc4YJNLbjVvE9Lgdt9+V+JbxNJgANpASrvs2GMOEi1b8gC+le3FRledhOb6SKx7CgDAgDAgDIt47fzGTSS2IN+9O53eL82PPR97uLfpJRLPYxSWSmdohGeuOybHnY3ty5ZsHPQGH/bHthp2Kf93CVilL7YJ48wfXihsZcx41b/iGeE+mYxLQL8wleepkNcLiymt2Qbzp0d+Rj33biSgV5fWykrw02gfxGYhrWc+Jqds/G59xe75do+cQtXRirBCvWJ5IFBGrWY+ad33xYl/GtfYUQCkv6yS/zcfRyjo5vmN5xZ4bIxPHFBPnZo2Nozue0a/BJt/QsHUHLPpj65D8dXxvtZ3G3fG5mC853hifPu6RgHOsKrGfsAWbSsdxVkwUE2FAGBAGhIFdw4CI985f2PikNhPUvFPLMhDZHnDvhBsg40RIM2kv331OxJseP89kPvvD/7WdCK1DXm+8/6G/U0G+JH9rNwbccaKbDUd517zc/Wc59ZOIN+/sc0xYnvwr/Mjt55gtXeTGBKYfs/5CfO0d7+LivvetIy2JOIz97YmBRw6x8+mXWTJUtWMJTZWI9b65dgYbOT7jOFp/+rhaPXuc49G3y+Qol0Vbo3KX5JV18GEx+5g+SHuSuzEZfE3EtOK7JfezbKE/zti69Qd8Eo76eI/rj+I02Bvd2LG4aJB5FxNpTOh1gEW+m7F2/InjbufPqH/FGmHGH2WdXzlWtf70mK3YgC2l/vlFcVFchAFhQBgQBnYMAyLeOzYg4wutTHRLcpdJ31EinVl39Mg3iHexw8uPe+d8bofbyOXZNj0OTiQ6l/d1kr2qDpHjkQ614Y0VEXXbbjxObQ910w0CJt7hXnBvWox8oRjE+lxu7I3HsXbxXCFPo4+AObt5iIdL+Aa78ZHXRNRArvgxc0ugLLljv1tl2AVm8mJtR1tef+FrJiIdwcFXzUf9G+wWfRvbnUe88QQAkbUY11Gbd8Nbl/NX1jv/LpfvOONvuDjeSZYIKvo6M05048QleCMS28emJLXjNse2Bh3CSsbwEO9UBntl//t4lzLcaCj8GXw+KP5yy8OK1xfgcdCn+GDM8l+5Rd0lvvOYZAykmyHDfLPEO7WRxhg4z3j+5HJpu4x/K/bor9KMR8VCsRAGhAFhQBjYTwyIeIO87GyaybQlkfmr4Uch79R6ZHlMXhMB7d7FjsS31k6Wg8hmkmrtlro9EW6RavY7T6BsPxJd20bWy4uO165fL/V7RJTZxlCXiXXxzjr8zrEejc1sPA0X3cVFe+yjJQx9v/sL9v49USYEY3m2+8ntR0IkI/hxvdQO2q/s8nWxbpVhJ5CJUBcDImnwIRG4ciwTcRv02E/uX0/YbHxyfx8MsZ9NvKP+0DfEKKbcPvc/6SBmPNaJVILID34aXdvXkqwjLjZ2JXlL+Kc2o28FyU2+TdiaGFsQaPQ9/Yc89SvFe8qfofzKp0NsgAuy1fWt08vkNfU39cmpP/SjiIHxp+l7sp0xYXHQ9dP6ivmKvhQ3FWg+p3Iay6nYs0/Ka/dGGBAGhAFhQBjYWwyIeAu8A3gz8VydRIIwKB2ThOOOyZiIzvEpkSdnXrTK5tiWznFjYH57mxjb2TYS8W75txp+cQPFkuVdxt7suDlzcpf7Jd9a+FaZ8CEMCAPCwFnEgIi3LmZEvE8lBlYgLt5uIWLTKoOO0v28A7uhsZ1NIOcQ7zk6Dt7KR7j34KJmQ7E/ixcv6vMe4NuZoxo3jZswIAycZQyIeOvEIOJ9KjGwAvE+lXHQCe64TnAbJd6TWIyPmdPj2lF/IOvFY+aTdoSP48KH2hHWhAFhQBgQBs46BkS8dWEm4n0qMSDifdYX9+Pu//ES7/wONt47j+k+PWJ+3OOj9nTBKwwIA8KAMCAMnCwGRLxPJek6WVBpUiv+woAwIAwIA8KAMCAMCAPCgDAgDGQMiHiLeO/ne6kaN42bMCAMCAPCgDAgDAgDwoAwIAzsCQZEvPdkoHS3KN8tUiwUC2FAGBAGhAFhQBgQBoQBYUAY2CcMiHiLeOsumTAgDAgDwoAwIAwIA8KAMCAMCAPCwBYxIOK9xeDu0x0Y+ao7hsKAMCAMCAPCgDAgDAgDwoAwIAxsBwMi3iLeurMlDAgDwoAwIAwIA8KAMCAMCAPCgDCwRQyIeG8xuLpbtJ27RYqr4ioMCAPCgDAgDAgDwoAwIAwIA/uEARFvEW/d2RIGhAFhQBgQBoQBYUAYEAaEAWFAGNgiBkS8txjcfboDI191x1AYEAaEAWFAGBAGhAFhQBgQBoSB7WBAxPuEiff9147C0dFROHrtHd1h2uBYIK6X3v9Qcd1gXLUQb2chVlwVV2FAGBAGhAFhQBgQBk43BkS8N0lKHtwMlyKJdn8Xw50HFkzvhBtJ92q4v0lfjtvW/aup3zfu237eC4Fis30yTHF94Wb48rhjsWZ7n1w+CAcHj4S3/ubEMdm+G956LOrR7/Ibi24yxHYevX3XrfPg9iOF7ZqeThCtMVKZ8CEMCAPCgDAgDAgDwoAw0GNAxDsRmQ1MCiKXPvk+CkeGCJ6enVkiu87u/ZfvXxyIuXcDYgOxN+O4t3H99MJAeNvEuyPGBdF+I1yJJPyxK+GBiYVd7JhUu4T60wslIR98cnUn2rJt63jzWFdMFVNhQBgQBoQBYUAYEAZ2HwMi3pskDkS8i11fkp/mx8pBdo+O7O79h+HOC8OTAObGgxYJXiT6XexHH4u7zW3i7catI8iteoP9bpe7J+rzyPSwu14QffZbeXc8Nrm2yJb7ZIbirrknDAgDwoAwIAwIA/uCARHvTV7QEsEuiHfXBu0IJ2JKhLTYJWZdn7DmHeRIcsnO0VHwHuXO+tHe1XC/4WupG/Vn7lJXHzfP/WHfMlEf+ljEgPr02jsh+UQ6o/qTcY0LU/YlPZVANruJm/rR97top9DNPnK/Vp383U503LGeJNCVBXZRPRHvVcdJ9Sr42+RaKlu60SAMCAPCgDAgDAgDpwwDIt6bHNAGmY0X64k8Hh2Fnphn4sYfVyuIXnoHvPwAW7Z1MVzCbjLpMvGv2hv0sy75Q7ZAUKfJJZFaJqiGyAZzowD2y6cByJcXLuZ35we7fp+w0051XT8Gol/0EXXvhUD+erFNcaDxtq8QLCZnf7sSHj04CFc+vRfCIgKdSVD/CPmF8MksTM8n3svsZn8Wx2CW37KvuAoDwoAwIAwIA8KAMCAM7B8GRLw3ebFPRCyTWQJFInRTxLvcYc4kO5PDLKMdbmo/EXlPFu4FJq7wlW1CVpLk3H5tsme7WTfJhsfMUzv82HnyE30n8pxuVCCWmeAnElyMI9VNxDvXKUgyjUmyRbIUR94pT37ndlLdwg/4O5UaErwK8e7qHISD2Y+DmzaN3/0H3oYPt822OdVPldfmjeTChjAgDAgDwoAwIAwIA6cbAyLehnCsBfhEHkGsDXiI0PXENhO3TPBMnehfsgtSyrvnmeAWJHkgnInk2sfFk034Sr4kYjn4MvLb8RFxTLrwNRPenpxSO8WOc96FHsXG+sMkGDYKHWoDxDv5hf6iD6QLG0kXfeh17Q2EtbCCeIV7oSO5/FG0hcQ7fSyNbZB938828S7qDKR+3vvgiKvSIoaT46F4KV7CgDAgDAgDwoAwIAycZgyIeG/ygnhEZsvJMybBRPpAEKM/ifhlMto/jp2JYLY1l3izHpN5ENGKL9GfiX6VE8QQ7dQXtE/tgDSbdES8OTYYr2SXY4T4UBuom/Shk8dmRKgruiM9+LJG6j7GPZt49+S5+0uxxbvSC4h3uBdcP9fod4mZPBaSKxbCgDAgDAgDwoAwIAwIA6cRAyLemyQPTYKaCWl+1LlFEEFUmfhm0riceOe6HZBHvpIv2PlFbBIRBUlvLwZMUO+8NhBjEGB+vzvJPHvkT0Mvx6FvZ7SrjrrVPlA76HfSLWPG/drMf4MTceb/4y7ytXe2Ubf1FXMvrpAtI96rvnd+GhdN9QkYUiosCAPCgDAgDAgDwoAwMBcDIt4gl5tIR2R2ACLJ4861+/70QBAzkczEOxE+elzc0/MeNS92z0FCmfySP9lmxcf01fCJCUbEFR8ny33mx+S5nWjznXDD8zHJau3mmxpV4s2Pp4NgxzFPvtK78kk2RbwzaV/vHW/Trxk73v072DVSbuy52F5GvLXjPSem0pl74pGesCIMCAPCgDAgDAgDZw0DIt4uKVlxIhiCXXyte3icmgnoJFHGI9jpq96ZCGaSnAm6a8+Q7LZPmUi29abik4lwb4d9jHVtOT0unkg2+ZJkaLdWH/Gp1E2EmtpLMb4Z0i520oO9vt10AwTEnccbsk3gySHePdHG7vY80ox3v7svpY/8qtmI/9ltCL3e8dbfeYzwg7mo9KxdNKi/wrwwIAwIA8KAMLAaBkS8N3lByUQMhA7piDzGAfMJYiJ4sW4kdMluJoLzibdpZ2TT7jqXXzz3ifM02LJ/5d+g5YlKfUeMaEe/Fpu+vke8mdyTbRv3FMtMvke71XOJN43fyMY6uJpJvLt3u4vH0suvkK9GvOPY9qQ82wfhnx73PL7SVSyEAWFAGBAGhAFhQBgQBoQBYEDEex2CtHbdBkFc2/YEyCvkEsBQOhG/bY+P7GuXWRgQBoQBYUAYEAaEAWFAGDg1GBDxPkkw0+7rRndMiz5Fcs+7wfyxtmFHvdAX4dRNB2FAGBAGhAFhQBgQBoQBYUAYEAY2iQER75MgnUS4V32Uez4IaFc9PdKNx6zzo+vz7WkCKlbCgDAgDAgDwoAwIAwIA8KAMCAMLMGAiPeJE2+zG70Ff4p3xkG+7bvPW2h3CRClq4VLGBAGhAFhQBgQBoQBYUAYEAZOKwZEvEU4T817E6d1kqpfOgEJA8KAMCAMCAPCgDAgDAgD+40BEW8RbxFvYUAYEAaEAWFAGBAGhAFhQBgQBoSBLWJAxHuLwdVdqf2+K6Xx0/gJA8KAMCAMCAPCgDAgDAgDwsAmMCDiLeKtO1vCgDAgDAgDwoAwIAwIA8KAMCAMCANbxICI9xaDu4k7I7KhO2zCgDAgDAgDwoAwIAwIA8KAMCAM7DcGRLxFvHVnSxgQBoQBYUAYEAaEAWFAGBAGhAFhYIsYEPHeYnB1V2q/70pp/DR+woAwIAwIA8KAMCAMCAPCgDCwCQyIeIt4686WMCAMCAPCgDAgDAgDwoAwIAwIA8LAFjEg4r3F4G7izohs6A6bMCAMCAPCgDAgDAgDwoAwIAwIA/uNARFvEe95d7buXw1HR0fh6IWb4UvFbF7MFKeNxOmTywfh4OBC+GTP4tn7HX1/JLz1t3thP/txN7z12EE4eOxKeLBn8dfFyX5fnGj8NH7CgDAgDAgDpw0DIt6bvph8cDNcigTV+732zkaIyHZB+GG488KYYN9/DX26GO48OL6F4Mv3L/qxLOJ7vD5tOv77SciODwPrxicT4EiCj4dEPrj9SCLcwMu6/YCd401FvI833sc3r9QvxVoYEAaEAWFAGDheDIh4i3jTzYCBdHs72ye04y3ifbwLwi4uwCsT1r9dCY96RDvKt7yD2/m85TaOZ6xEvI8nzprnirMwIAwIA8KAMHDaMSDivUXifeP+vk2gBvHedJxWsvdOuIGd7r14emDe+K9MLFeK4TyfdmnhWyk+A+l+9PZdurF0fH0X8T6+WO8SVuWLxl0YEAaEAWFAGBAGahgQ8d40eaFHzX3iTeT26ChkHSKVR1fDffhF9vD4eq4TgV3aizqX3v+QyAbZjWQVO9cDgU22nHb4ne6880y+dT6S/Sopzjqdb4UP1l5rsmY7R0y8yV7Z93shPSLfvZtu6lO92NcUC8Q+pkbniMeGYm/brU04Tz4ilkQa+zLziPSnF/pHpuNu7vD+cLZLO5TY8e30DsLB5TcIF/TOcbLH71G/Ea6g3pCOSOxQ78qnsDX4OfJpGNPUzqA3058iPhSb3Odon/odBn8W7Tgv6e/QFuLD7diYR52hvOhHwpixFd9lp7h2fbTHQ93+cXYasxSbN/r3sg8OAo9ZgaWDgxDHrYzhvRDMGF35tIzrSD/1w7GlsnF8FRPFRBgQBoQBYUAYOLMYEPHeNPiJwLpErmuPCODwsbJMbPP7ylmG96v7NNslOyC9Q5qJYF2nJ/JDe+R3Lx/aHPlHRHlEStlP0gvZh0svOO9sz/5gW7ZTEG8iwOXH37J+H7N8XPQxxS7HPhKMWvwT+eaYze7DmKCMCBmRt0SOmBAR0RvVBQElwsfkzSViZK/TTQSOdovhE5Nl8in5mdonQhgxPyKPA9Ele4kYGn/KPlaI4OBf70dvm/vaJIyL+9t/LI1j5d7UaPYj4mCIAeshzkyMR7HrMVQj3vE99jwevW4ZQ2887oXeXlm3NibNeG56TZW9M3uBIpyNzxeKiWIiDAgDwsD+YkDEe9MXdUzGEqGzhLncSb1xPxPCRJjZDpO6BzfDneER9rSb6+7+gvhm20dHRCzZfqpPu+fcZkFCHbusS2Q89YWIdyKtgXaj2a/meFBfks/95MskGf5xjCGj+tymF4sko5gRwe/7luOV+7p8MRiRIpAvIqVpR9fuJo9IGXZQDfENIFZZ3rdLJLKLfYXYpvqkP7Q9JriW+I5JdjxpWOLo+4Pd9Ox3X4/8sLYKEj41Huv3dzR+lR13q+f1I8eFCPBojPs+2fgFFzc+yU54Shjzx8i9OdCco1PxVrkumIQBYUAYEAaEAWHgbGJAxHvTF5GJsPHur0O8icSl3VcisJlIMvFjkDKJHLeVSTbpGbKaiHtqNxPJcueYd38HEksEO+/AR/88G9mHgqAmG7U+cn9jPtspd7zvhUBxhz+pf6nf9fpJd4hFjr8X26Mwan8NHFlCBgJlCW2nx7ujsc0RyawTyX7XORPWUbtkz7bdnSBsWxVCOCJ1Nb1OPuEPSGzxd2KW2Pd9Tj5bP1tjM+imuqxr7VT6MSLA8NmMVRnvqXFanXjbvpTt5jlV4KnStzSWpi+6YMhxVCwUC2FAGBAGhAFhQBiYgwERb77Q3kTeIYDVgSDdSL5BGKN+Jn7YrbWAJhJpdtZ7Ig8ym/UK0ss7zmsRb7ST/bMklglz4cMmiTf3pyPa6Df7B5l9D55230898c6EziVklmzynLAkdS5ZG/S6v/LCe9GU4rFo1x+Q2IJ4m3e4O78ygcfNCEtA3Xm4gf56O9cFqR1iWPZvIN5pxznPn9Fj+ZU4jwi/HZ+iXbx/b9PhSYKuDYphGvfGDYKkQ75LpsfChQFhQBgQBoQBYUAYcDEg4r1pYBCZZiI9vuinnWEQ50SAmXgzceQL3DqJLNuq6VH7qV1P1rc5uhGQSHN5w+DEdrzjOCafrob7yKe+xX7Mj8Wov5vGCdkrCVnexbbE0SNzIJkgr80dSkOuRu1GnyrkrcOUJakVQph8AKk07Zb4zJh2/akQb9697whosSO7gCxuoL9rEe/C7yEWNq72eMDOIuLttUMYHJH9VLYglqlOHtPaWEuuGAkDwoAwIAwIA8LAWcOAiPemLxZnEu9M7C6GO/dvhksD+U47wmSneOzbe8eb31eO/XlwM9xIXzbPZJPfr84ktdz9TbvVxde7+UYAduDJLpNbEN7i6+pZN/Uv+pl0azcX7IKU7fiPeqP8Yrj0Qv+IeNEeEe/JWHD806PqvT/3X0MM8o2Ksh3rd/t4RDgrZHAR8TY7xHFhs/VH7XZzoU60RkRvIIT2BgHIe74ZYB8N9+Ph+zN+x7tfpGGz/4L3yIcKWR0v8Mv7m/vV92M14l3rF+T5yYRxPPt2R/Gq4IZvUoz7P4xFre4gx5fZq/U3vY7KnnunXPH31w7FRXERBoQBYUAY2AcMiHhv+gKPCRt2slM6EDbWGUhdJryZhGZZ+Z5x2klnO6kNSzhBRksb6b3yKsEe9AdSnW8UgHQycXZsMxknwlsQ1I0Tb75BEH0iX7txXhaLWvyTXY5/0d9li99cAtXp2Z3LgRhlMjgQyfgoN3ac08fHiMyBiDsEHbufBZn1iNlAbsu/NBs+0mX87Mlp2X7XDvk4isMwN2vyzuZjj4RHvT5Qn4t+RJuxL+yfdwOh0d8c636cVyXeINQFqU0x5VhhTPMH5jBGB9x3z+cuhk79Yfy5L32cvXbzX6Ltw0lNPi5bfxQvxUsYEAaEAWFAGDgeDIh4Dxf3GwMckzFDhnvCxuSPiGFRj+SJnILcZmLe+8z2oEP1ifTGXeKCTLpkMe/iduS8Rbxj7Aq/+/YLct3FN/tYlKW+2T7VwJ/t+Dvexh+zU82Pms+LhSXytn85VkW/FmJqRCwrBKrTY8IY2xl0M4HKO7if3H6E/u+bCVUf31G77Pdgl9/Lzm0M45N2lQeyjfe2rY+DXZDvZJNId8RyzZ+aHH3nGwzjeWx8iz56/i3qb4nPlYk3jV8RkxRXbsf04/Ibo6/CIx6jGw1d/EG+8zveo/FMYwCd+M53xtMDxofy2pEWBoQBYUAYEAaEAWFgEQZEvE89YGaQ1dMUgyaZPwuxOEai5BJEJotbzo9uOmy5veOaJ11cvQ+dnZL+HVcc1c6ii4HxTSvhTTERBoQBYUAYEAY2iQER71N/cXYWyCYWhbwDXbwXn8b4LMTi7BDv/lHzK+G07cS6TzYkDAPrSjd5IpQt4UkYEAaEAWFAGBAGto0BEe9Tf0F7Fsgm9bF7vL/26DrpjR5DPy2LzRkh3qdhtzv2wTz2jsfxvcfAt30ykP3TsgaoH8KyMCAMCAPCgDCwixgQ8RbxPgWPIxKhtl94L8aX9ES81x/3E3nUPL/r7L/LvGcnmiGG6R3vAz1ivovbOqXCAAAgAElEQVQnSvm0Z/OqWPflu/ArDAgDwoAwsBsYEPHWCXp9AqYYKobCgDAgDAgDwoAwIAwIA8KAMCAMVDEg4i1wVMGhu2O7cXdM46BxEAaEAWFAGBAGhAFhQBgQBvYbAyLeIt4i3sKAMCAMCAPCgDAgDAgDwoAwIAwIA1vEgIj3FoOru1L7fVdK46fxEwaEAWFAGBAGhAFhQBgQBoSBTWBAxFvEW3e2hAFhQBgQBoQBYUAYEAaEAWFAGBAGtogBEe8tBncTd0ZkQ3fYhAFhQBgQBoQBYUAYEAaEAWFAGNhvDIh4i3jrzpYwIAwIA8KAMCAMCAPCgDAgDAgDwsAWMSDivcXg6q7Uft+V0vhp/IQBYUAYEAaEAWFg3zFwcHDQkSmk+96fffMfcUe6b/7L382tgSLeIt66s3XKMRAXevzmLJ5LdOfYO+06iFdMT3tfp/qHWEzpbar8uNtbxW/42MIHdJbaX7Veq51t2JzTXis+rfpzyo67T/Bpbrtz9WD3uFP5t7mL7uMeu9heHD9OT8KHTbV5ElhstYkyxNjrJ8qQejqS7fccWzJ+It6nnHQtAUOv+2G488JRODo6Cjfu7/dE+PL9i10/jo6uhvs7Ps68eCO/fOza47Vk0V+iu2k/99XeScQMWEHbrWOUcXwhQ30uW5pnG5xfamep/nG2tdQ31m/5Gcta5WzH5letZ+3w8TZssn0vv802o+1t2vf6A9mcdk/SP/jZSuVf+9zait0ulAGDSHfBp3V8OO5+zMF/yyeUIV2n71wXfsGuPWZd5XdnDot4r0HI7r/WE9RIUsvfxXDnwe4McnXC3b86JtgPboZL6M9r7xzfDh61e+n9D5123wk3Fvq1L8QbiyaPkyfj8lXyS2wu0V3FF6/OSbTp+bGq7KT8t+2ue7zv/V/V/23Xs+Oyqfa2YXcbNqf6u26b69af8m/V8l31a9X+qN4eXNvRdS3wh/Q0jN8qfVmlzpJY1exDjnSJzTm61q49nmNDOsc7p0W8aYFaCr69Jt4D6R7vbJ/Ujndu9+iFm+FLOy5Vf+sTZh+Id22RrMmXYpT1l9hcosttrJM/iTbX8dfWPSn/bbvrHtt+zT227c6tt67eSbW71O9t+bkNu9uwORWvddtct/6Uf6uW76pfq/ZH9erXHIrN8cRmlTm1Sp0l47lt+zVfbLv2uFZP8uPBqhdnEW9L8BYcJ+LtEcUFdryB2bpsBSK7bZ8yUR4/MZBiveCx8Wxvdx81X7JIRl2rP1cWx87W5fGEHU65vJaHPuzzsa1TK4OcU1u3dmzr2GPUY3nMQ450qjzqQQd1bDpll21YXdhGam23jj1brL+0nOvOycNnTr16KOcyyGIa5faYdWv5Vl3PHsuQn2obekjhC45jOscG6nFqbXhlLdtoe0pnTjstHfYLeatvjz29qAM5pzV51KnZtWXQs3Y9OeuwHZZzPeRjyjpcFzpcDn2U4Rg6NTnb5bytDzteCttc1pJNlbGdmGd95GNa02vp2DpsHza9+p7M2mId2GL7yCNlHWuLj2GX63l1oWfLWI4820ceZUgh31QKu5yy7Tly6HA95FGGFPK5KepxynVZHvOtMlsedbk+150qY13PLpdvM4+2kXptoY9cNlfGdTiP+pxyOfK1ck/uyWDntKQi3msQ5EQGa8SbyC3v4mZCeBT4sepkD49UW7tsr9MpCWW2G4kr7SBHXbI1amdor3+nOz/Szb5FwGf7eLR+TJCzTvSt9MHaG02i6uPmZCc9/p79TI/5Ux9LfxGnXKfwheI6eq+dyvp2YCveLct+FfYWYCouMqM4OPVZj/Oxrj1eIluq6/ka27c+tI5tGWzW5ChvpbEu16/lYaNVzmVz9D0dyGJq7U0de3XYns1P2Yvl/Juqb8vnHls/uB6XcR468I+PkZ9Kbd2oz21wHrZYtm59tGdtoi2kXA4Zp7XyJf55NqZkU+XsYy1vfWSbnEf9ubKob3Xtccsmyjw7tTJrPx57MtRvlaHdKR3owSanU+2zrpe3bUcdlnHelrE9q4eyKLdlfMz5ln3Ys+nc+lYPdjw5y5C3KepPpbEe6kKXjzkfy2vHkCP1bLVkKFuaTrU3txx6SOGHPY5yyGJa+82pz7agv0Tm6cI3tufpLS23+ps8hs9IrW2Wcz7q2eOazNrEMerb1JbPPY56sIU6py0V8XZIztxBTgTWED6un4koPlaWyd9Ri0Qassx2EtE05LuuMxDlob3k90C4Ya9OvDPBhC6nTDqzDxfDpeEjbaw7IrZF/KkdjikRctSv9SHHlG8UgCzn2LPPgcg17McxzH3BjQakgz3yi29s8PhP5ecsMJ4OyziP9ubKov4SXdjndKr+VDlseXoom0pbdb0ylnHea8crnyuL9qzu1LFXx/MLsil7KEeKekhrcpTPTWt2PLmV2eO5bUY9r66V8THn59S3+l4dT8f2YUqnVu7JWYY80jntsi7nUdeTocxLW/pe2VyZbSvW8+pGvZocNmrlnpxlnPdseeXQq/nl1fFkS+pzm5z37LKM81zP5mt6npxlnI827bFtxx5bfXsM/SVy1kXeprA7laIe63myWB7ltgzHNoU9yHEMO3y8Tt7at8dsO5bZchzbFPUgx3FMPRmXc97TZRnnUW+uDPpIYz2vbiyvybku8ieR1vzz5CzjPPz2ZCizKXRtavXicdSBHpezjPOsc5ryIt4F8Vv2zH+V/DFppF3RSM7uO1/aZjtM/O6/P7zrnAge7zBnkgoSWRDFROrvhWyf6lfIZghjcsp2s3+5ff5qOOvCr5D8PwpMjL2JlOtnX7MMBDr2KZdHO57OWDbuW+eDF4vkM7eT+9z3zR4vw09se84i4+mwjPOI6VxZzQevPmzb1NNlGedRd64M+lOpZw91Ypn3Q3lMuZzlKFtVhnrwDynksM/tI886rby12Tq2ZWi/ZX9umWe7Zt/q2uO5ba5i37Zlj63NWO792EfPBpdbm7asVe7ZZhl8q9lAuU3hA9tqyVDmpZ4N6Nl2cYxypHNsRN2aXk0+Zd+rxzLO12xFHfygg3RO/ajr6dXkNV20yamna2XxGD+uy3lbB2We3Mpg28phYypFPaSefq0syr0fbKCeTVE+laIe61lZPIYMKfRxbFMuj2X2h/JNpGzbs4fyWBbzrINjm0IHdW2K8qkUdlmPZdYujlk/5rmOV4ZypJ6OlfFxrR7rbDNfa9+Ts4zz8M+Tocym0LUp68WyqXLoQw/HpzEV8d468b4XeEcVu7+ZwGYyWCOlmUBix9WkA8nOekwW7wUmvqldj2x2scj+WHI52tV1bGQfMknmR7JrfUyTKxFePCGQyW2zbqqX+z72xfZtIMrNfphY4ykBurGRfF8BS7VFhuWcR1ss47xX3pLFsrn1YcemU/WnymHP00PZVNqq2yrz7Fp9exzrzJXBPvSRQl6zxeVTeWuzdWzLNtE+/PNs1+xbXXsMm3NSr25NVpPbdliP81YPx5vQqdnw5Cyr5ef6xvXn1oEeUs/GnDLoxLRmw8rtMWzU5FPlXj2WcX7KltePufU9Pc9eTQbfbOrZ9WSoVytbImddzqONpSlsIPXq18pqcrYBHaRcNpX36rCM89FW7RhypGjXHkO+qXTKvi2vHUOOFP7ZY8jnpl59lnG+ZbOmZ+X2GDZr8rnl0NtWWvPPk7OM8/DNk6HMptC1KfQgrx2z3Oqi7LSlIt4rkCWAIO0kFzvc/q5n0jWPkHs7zLCPNBPINgnMekx6N0i8LdlMZBck2d95XkS8+QmB2F5qIxPqLi5ElnEzo0+z3jgeu0e8Y1/sYmOPrY4t946tzNroYjhg3+rGYytjfZv3dK2MjznPtljOedap5Vv6XhnLOB/t22Mr88qtjufnkno13Tl2bd2lx3P6MscP1mEfOA8dT4ayqdSrW5PNlbMe5+GLldlj6HE6pVMr9+Qs43xsb+rY6nj6Vsb98PItfa9srszz1avr6Vk/a/Wm6nr1WMZ5a8s7XiKD7lQbUa/28+qyjPNoz7Nl9aDjya0sHvMPdZek1qatWyv35FaGY6TWduvYq8Mym+fjaBfHNkWbkOOY67BsnXxsg39si9uHjlcOPaTQscdR7smgb1OrG49ZxnnUnZJxuc3zMezFtCaHzlQ59Gwa661al221bHAZ52N979jKuB2bh65NoQc52uJj6EyVsd5pyIt4N05YUwOcyPQU8XZIYtp5pke7azu6YwLpn2SretR+ateTdbGw5JR2nG0/HRu+D2TDkncn/mzjDh7N57ZTu3SDwSHobOe+27c5O97UhuPrFEbmlsfFCL9anVY5ymIa6+OY85BBh9uxZThmHS8PPbbpydgPzw5kqIvjqRT6nHp1uDzmWadV5umxLOZtfWsf+jW5ZwN15qbsA9fx5JB57aIspmynlec6yHv6XhlknHp1azKvnieL9aPcswN5rR7qeuUsQ962ATmnrMNy5FGO45h6Mltuj2t1IEdq6+EY5bUUepx6ulwe86xjy2x51IWOzbOdWhnqcmrrzamLOtYOH8c89Ngmy1nf6qDM2rB6XD4nD7vwA8fWLsrZJnQ5RfkcWc0mbMxNPTuxLvuAvLUJOVKvHLZsWesY9mIKvZYMbUAfupAjRbln05ZBZ9XUs2dl8RiyVn5b/qNNzwduE3q1WNTKWc55z3YsZ/vQ55TLp/KoN6XXKoeNmNb0oOOVowz1cezpsoz1WnWtHnStLT4+zXkR7zXI1DzinYlsJNapDv0tVpblneMIuvE73uN3pO+/lolhJpr8tXQivdRm3klm3UhEs794R5vtJuLOO9NkN+tmv5btePMOff5AG3yJcfHayDFs7XhTLBKRJ9kRxT8R+VbMc1327zQvGOqbf9NLcdn9uHgn+zhuNbnGdPfH9CyM0b7j0/Pfk52FsdzFPnpj4cl20Xf5dHrW6LOEORHvTRBvvPdLKYjYiBB6hI5lZIPfqc527OPmmeBmQmp1+mP41C9WmWDjUe2eVGd51s8EE7qcZjLuk+LFxLsg9dH3TKY739OON/XzhYvhUhe7rJvjkWNUj2Nvi/tS1x3s8bglIn96FkKd1DSWpwED8YReO6mjrFZ+GvqvPuzvPD4t+OR+aK7tHh41Prs3Jmdl3Qb2zkp/Yz9FvLdIvDPxK3eVmdA1ya15LJvtgfjm+kx6L4Y7928ORHRMKBPADYGtE+9+UWK/+/YzoYXN7COXEXE3fUK9Ucq+OaS28CWWJxLcJt7FTYBI1KM/1BYT7+hT7k8m+TnmuV9ZpgV8NJZrzDHZEp6EAWFAGBAGhAFhQBgQBk4DBkS8TxEpyCQxk8/TAFL1QYutMCAMCAPCgDAgDAgDwoAwIAzsMwZEvEW8qx9j2Gdgy3ctzMKAMCAMCAPCgDAgDAgDwoAwsCsYEPEW8RbxPkUY2JWFRX7oJCcMCAPCgDAgDAgDwoAwIAxkDIh4nyLSpUfNM7D3ZZLv24clVvW3VQ9lMd3EuMHeJmxtysY2fYLtfYwffN9UnLdhBz5uKr7r+gh/1rWzav2l7UN/nfjBxqo+q97+nRt5zDT+9fFDbNaZXxzrk8yjL9aHmtzq7cLxJn3dpK1diI186OexiPcpIt4Cdf3ktMuxiYvrLvsH39hPzqO8lc45gSy1OdVeq/y4y+b0f12f9jV+m/R73Ri26u+Snyftyyrtr1IH4xHrrlMfdvY59fqPuNiU+2nLPDusv4t59GEXfdsVn/ZxXDl27D/no86+jb/1n/u5NL9JW0vblv52OIWIt4j3XpC+07wA7MvCum0/N2l/FVur1NklXG7S/03aQoxqNmty1NuVdF0/163PcdikLbY7N79K+6vUmevPWdCrxc+Tz5Wdhbidlj56Y8p9mypn3V3M77v/HNNV+lKrU5Nze8pvhyBvK64i3iLeIt4njIF9WVi37ecm7a9ia5U621qYV7G7Sf83aQt9qdmsyVFvV9J1/Vy3Psdhk7bY7tz8Ku2vUmeuP6ddD7FDyv1dR8Z2lN/ti3dvnHnMpspZdxfz++4/x3SVvtTq1OTcnvK7PXft+Ih4nzDpsgOi4/2aQJsYLyysMcXP2oUcuii3cnvs6Vkb0KmlbBN5qwu5Z7tVxna8uihnG56eLfd0YMumc+tCz9afOkY9zyeURRvIe3pzy60vsMnylgxl1geW2zK27eVtXVsfx6xn7XAZ9K2Od8z1Yrk9Rh2W1+zX5C27tgztoF2kkCOFHCnknKKslbI+8jX9VjnKOGU7LI95LkO+Jkd5LWXbVgdlUY78kna8Op6M7bMP0K3JUB5TtoFjrtfKQx8p664jYzvr5qMf1hfIILfHc9ps1UFZtIN8TD27c8u5rq2z9Bi2uF7MQ84p69Tk0OFy5D270OcyTwYbrXSqHsrZBsuQj6mnM6ec63Ge6yIfyzkPfZYhH1PWx7GtA33IkULOKcqmUq6DPNeJsniMMhxbnVY56yp/8hxDxFvEu1gENSmPf1JiweTY8+LK+aiz7rFng9uu5W270LNye1zTgxzpknqsy/kpWyj3Us8O9LiM8yifk9bqRbktW3oc27d14JMnZxnnvTpT5agzlXp2Yp0ot2V8zHm04clQ5qVRn+vU8qjL5S1ZLLO69nhpfWvTs+fJ0I5NoWtT1kOZbds7tjKuC5tzZdCfk3o24Ysts8ct+56ulfEx59G+te/psIzztq53DH2krBNl9sflyHt1UbZuyrY5D7vwj4+Rn5t6dmNdaxsytmvrto5tGeyxnPNT5VYX+kv88+pw/Vb5nPatLXtsbbSOvTJPNtXG3PIp27Y82rWyeMyyWh4+LSlHnamUbbJulNsyPuY86nkylCk9/mt8G3MRbxFvEe8TxoC3SHqyOHmj3JYtPYYduxhMHdt2PH3PP+hN1a+Ve3KWcX5uW9Dj1LMTyz25J2NbXr5Wx5OzjPOeXchqep6cZZz3bE2Vo85U6tmJdTw5yziPNjwZyry0pe+VzZXZtmI9r27UWyJnXc6jPU+GMptC16bQgxzHMWUZ56HDMs575S0ZyuakXjuxnif3ZK02WJ/zc+xbfa+Op9Pyx5ahPlIu92RcjvxcPejPTT27VmaP59pmvZoNT84yzrM95L1yK7PHqIu0Ve6VsYzzsOelU3qtci7jvNeOlU3pe+Us4zxsz5VBP6ZeHU9u9ezxnDpT7bJNzqOeJ0NZLa3V8eQs4zxsezKUKRXxFuk7YdKnSbgDk9A8ehXHxC6c8RgypDx2kCG1ZVFuf6wzJ+/ZRj3Yjsc1vZqcbSDPKWzbFDqeXU8G/Vpaq+PJPVnNLuS1Op6cZZyHLS+t6XlylnEedlkW894PunNTtsl1PDnLvLa5nG3V8i39ufbn2Ijt1/Racs8H9MWr58mgb1Po2hR6kOM4pizjPHRYFvPeD7pIuQ5kS9JafU/uyVptsT7nYx17bGVT5Va/5YdXFu3bH+t57XM58nP1oD839examT2ea5v1ajY8Ocs4z/aQ98qtzB6jLtJWeSzzfnPqQiemrTamyrku59l+LT+l75WzjPNoY64M+jH16qA8luEHGVKvnpXZY9SNKezaFDpeXU8G/Vpaq+PJWRbz3q/WjuQ7cM2vQTj5QdAYnO0x4EUUWGAZ52O5PWZZqwy2V00929w27M7Vgz7STdar2UJbXlqr48k9mWeTZbU6npxlnGd7Nl/T8+Qs4zxssozzKF8lrdnx5Czj/CrtxjotG60ybq+mZ+X2GDaWylv1arZQh1Po2hQ6kOM4pizjPHRYxnmUe+lcPa9ulNXqe3JPVrMLeazj1ZuSTZW3fEfbrdTanzqu2bL1anpL5Z5dK7PHS9uI+jUbnpxlnPfa9cqtzB5bO63yVlmrX0vamGMn+jHli21zrl1bj9vhPPTmyqDf8sOzNVXP1rHHU/Wnylv2uC7na3U8Ocs4z/aU311eoUfNteOspw5OGAPewskym+djXlyXyGu6bM/ma3VYHvN8zDZqcujUyj05yzgfbcVjK0MbrZTrcB42UdeWQT6V1up5ciubOrY+si9eXZZxHnZYxnnY9WQoq6Vcp5ZH3SXlqNNK2Z7V88rmyqIt1o15Pua2WF7LQ79VHsu4HHVqKXRtyvooizLO145Zh/OwOVcG/TmpZ9PzryabaiPan9OG1fGOPdlU+7XyKVu2fK4d6MX6c22gjk25Pueh58lQNjet2fDkVrbk2OpG/zwZ+90q98qsbOrY+mD1bTn7hnys49VDeSu19VrHrTK0YXWi3JNBf6o81uVfqx70WjpTZewr5+GnlbG9Wp7r1PKou6QcdZTuDhEX8T5h0qXJsDuT4STGIi6g+KF9HNvFFccohz5SlOOYU9RBymVTedTh1NZBWZRzno8hjynXZznyXO7ZaJWzvtWbOq61vwmbsB1T+DFXxu1zfSuHPdhHCjnq4niVcthA3SXpVLvRFnS4HZaxfKptW69W1+qxXVvm2YAO+882kGc9yLjOnHLWZxtenu3FfKsu61pbKKvZ4HLowIYts+XQq6Wt+lyG+p4MZa10yi/Y9WygDDb42Oa9+jUZ1406U8eeHa6DvNWLcitbeuzZhozTVe16NubKYpueLvuCck+GspguKYcu17c2PB3IbAo7LIeMUy5HvtYuyqfSOfZtG14dK+Nj5NkXyDi15Xwc81GXZbYuH9s810N+SofL0X6Uof7cFHagj2O2NSVjXdhRuls8Q8RbxHvx4qBJvFuTWOOh8RAGhAFhYD0MnOUL1rPc97Myb07rGHv98mRnZZzVz/XOA8cRPxFvEW8Rb2FAGBAGhAFh4ExiIF6kn+UL9bPc9+O4yD7pNs4CvtFHpCcdc7W/++T3JMdIxFsXW2fyYuskJ53a1qIsDAgDwoAwIAwIA8KAMCAMnC0MiHiLeIt4CwPCgDAgDAgDwoAwIAwIA8KAMCAMbBEDIt5bDK7uYp2tu1irjrcej9ptnGh8dnt8Vp13qqdxFQaEAWFAGBAGhIHjxICIt4i37mztCAYiwTvOya+2lp1sND7L4iV8KV7CgDAgDAgDwoAwIAxkDIh47wjpEigzKBWLMhbYcd0G8YPtXYl5zZ+afI7fqBvTJfpzdPdFBzGw/tbkVu+sHs+Nz1y9deNYa6cmn9Me6sZ0if4cXemUa7nioXgIA8KAMHC2MSDiLeI962JLC8XJLxRzL4yXjtW27K7jh/UpHlvZOvan6q7b1pT94y5vxe+09XXTsZ0Tn1Z8N+UP+8H5aH8T7VubLb+X6LbsqOzkzysaA42BMCAMCAPHhwERbxFvEe89wcC2Lna3ZXfpQr5tP5bYX6K7tJ81/ak2p8prdqfkm7K7KTtT/m6rvOZ/Tb4tP2p2t+3HEvtLdGv9kfz4LvQUa8VaGBAGhIHdwICI956QLk2Y3ZgwJzkO27rY3ZbdpbHath9L7C/RXdrPmv5Um1PlNbtT8k3Z3ZSdKX+3VV7zvybflh81u9v2Y4n9Jbq1/kiuc5owIAwIA8LAWcOAiLeIt3a89wQDUxe7sbylUyvnOtCBDMe8MLLMy6Mu12nlYYNT1q/Jazq19mvyaIfbQJ7tr5uHTc8HLkOe24OMU5RbmT2Oep4M9VGOFLoot8esZ3WgG1OUIeUyrxx6rRQ2WIdlyC+1z/WQt23EY5RZ+zW5tTFHj+sgz/WQR1lMIYspyznPOjW9mty2AVtsX3ldPAsDwoAwIAwIA9MYEPHeE9IlME+D+bTHaOrCGP339FjG+ViHjzm/xJ6tZ49hq5VO1amVe/K5Mtt/+OfVR9nS1Nqyx7BXk88pj3W5Puen6tu6UZ/rc75ly9Oztlr1UealbJvzsO/JPDstmbUB3Si3ZfYYfqAOp1bXHrNuKz9Vr1buyefKoj9LdFv+q0znMGFAGBAGhIGzjgERbxHv6i7JWZ8cu9Z/7wI4+ujJWcZ59IllyCOFDlJPzjLOt+qgrJZ6dli3Vu7J58qi/SW67M8q+diW117ND26jVm9O3ZaOZ5dlnIc/c2W1dr36sG1TT5dlnEddT4ayWlqr48nnymJbnm7Nh5Z8yk6t3JPPldX89+q3fFeZLraFAWFAGBAGhIF7QcRbxFvEe08wULvY9eQs4zwWPZbFPI6RQi+mU7KpcrbVynt2WL9WHuXej+vGfKv+XF2rN/cY/i31g+3X/G/ZnFPfs8syzsPeXBl8i/r2B1tT6VRbU+VT9lHu2YllnnyujG3HOl496EylU3Vr5WjXpra9Vv25ulZPx7rQFgaEAWFAGBAGMgZEvPeEdAm0GbRnNRarXhh79VhWyyPOXO7JpspRZyr17HCdWnlNznVjvqbnyT2ZtTf32Nqyx7BTk88pn6obbdR0PDnLON/yxdNrtQtbU6lnl2Wchy1PhrJaWqvjyefKvLa8up6elU3Vq5XX5HPte/U9mbWnY52zhAFhQBgQBoSBEgMi3iLe2vHeEwy0Lna5jPNY8FjG+Vi+yjHXiXk+9mzCj1ZqbVjdWrknnyvzfI11vfrWn7nHbKtl2+pZ+61yLrP1cFzT8eQs43y0FY+tDHKvrSld1GmlbIPztl3YsDqQt1KuU8ujPpe3ZLHM6tpj1J9Kp+rVyj35XFnNf64f83w81Q+VlxdhiofiIQwIA8LA2cGAiPeekC5NyrMzKe1Y48KWU6sTj1HuldXKUSemrINj2KrpoQ5S6KHenBR1OOV6LEeey2MecqRcDhmnXG7r87HVW/UYbU/ZZj2vLVuOY05tPS5DnnUg45TLY96W4bimV5PX6ll979irC1lMUceToWwqRV3o4bhln3WQR/2YQoaUy+bkUY9Trsdy5Lk85iFHyuWQccrltj4f27ytp+Oze97S2GvshQFhQBgYY0DEW8Q7XbBqgowniGIyHZN4wa44TcdJMVKMhAFhQBgQBoQBYUAYOLsYEPEW8RZpEgZWxkBrlyyeWLjc5nXiObsnHo29xl4YEAaEAWFAGBAGzhoGRLxFulYmXWdtsqi/OkEIA8KAMCAMCAPCgDAgDAgDwkXeAn8AACAASURBVMAqGBDxFvEW8RYGhAFhQBgQBoQBYUAYEAaEAWFAGNgiBkS8txjcVe6EqI7uoAkDwoAwIAwIA8KAMCAMCAPCgDBwujAg4i3irTtbwoAwIAwIA8KAMCAMCAPCgDAgDAgDW8SAiPcWg6u7VKfrLpXGU+MpDAgDwoAwIAwIA8KAMCAMCAOrYEDEW8Rbd7aEAWFAGBAGhAFhQBgQBoQBYUAYEAa2iAER7y0Gd5U7IaqjO2jCgDAgDAgDwoAwIAwIA8KAMCAMnC4MiHiLeOvOljAgDAgDwoAwIAwIA8KAMCAMCAPCwBYxIOK9xeDqLtXpukul8dR4CgPCgDAgDAgDwoAwIAwIA8LAKhgQ8Rbx1p0tYUAYEAaEAWFAGBAGhAFhQBgQBoSBLWJAxHuLwV3lTkizzv2r4ejoKBy9cDN8uU9+n4Cv91876mJ16f0PtYCsGv+/XQmPHhyER2/fXT+Gm7S1an9Qb/Dl4OAgHFx+Y/2+we5xpqehD8cZL27r0wshjv2VT3fobr31yZkvn1w+CAcHF8In3JdN5p02m+ejTba9TVs2ttts68zafiNcietp/D12JTw4s3ForSl3w1uPnVB8Njq3T7AfJ46rcd+3vi6feJ9bmEbZOC6n4tyxpdifTuL94Ga4FAmq93vtnT240P4w3HlhTLBBJo+OLoY7DwD440m/fP/iEM+r4f6WwLjaRH0n3IjjXIzrINuTmxT9wj1ctODiZRYp7C92NkKMvTHd5Ml6k7Y8X2fLhgvELRDuB7cf2S4xSn2s9GGI8U4RyuTzsE5N+kgX8DwXViKclflxAkRsEhvWJ2e+zLnA63RWJT5OmyFUYmjHdZePbWx32ddwL6w1huv2bXJ+etcbuuied+3SjtPkGrHO2Lpz2xtLI3Px0O7HvFiYdtbp27HWHfd9zrq83ZgM58zWut+N4/RN29iX1a4nx3HZbp/3FT+93yLexzpp54BlIN0eaTzBHe/dJN5EsAvifS/gJsU+7Hj7C/ewkE3szHUn69aCuw6+Vz1Zr9Pmtuu6FxJz5uUcnf4EuHXiW+vDnhCMDu/VGx/DRURRjrkwfeFQnOxr+D2ROE1gY4ZP/jphcNn1+ZHw1t+MfNV5VYvhqvZOot6M2Ba4OQkfuc1NjyHbnsqvFKse26tdsG8Ip1P92onyKXIysUas04dV5/FKeDjNYzo1hsff9/68UHuSYjifdjex6+fP/qZPv/mjebz9MTz1xPvG/e0HcbMn7QbxXmfhXbPuvhHvzY7JdjHUvKDuTnyNC+nhhLoVsrfqyXpNrG117LYZr+Parar1YV8ukpqYHi4UCuJ9L4RVsFirc0Jx6uZ57SbZDJ+a60Sac8OFoY1fKl+4ltViuKq9k6g3I7ZbXXMW93nDY7ik/ZViJeI9Dz/TpK25RiwZR6u76jxeCQ8L1xjr604fT4/hPCxsKEbduD4SHvVeYejGrifb9acp+v70ZFvz+LjG7mwS7+JRdHp0GjvK9tHlQr9/hL0k9ESWY92jo1DstJLdWA+7sf2j8NS+0w6/010nv7TzO7RfPnodJ3nW6Xwjn46OyIfKoldv2y4guZ30qL/ZjQa4s028FsB+OHb43fbCf9THI+c0HqO2HbtWJ9nuH+kvxqvQze0U412JIfpt0/YFtV3oB2KSLuCH8tGFtq2Xx6m+CGedzkc6Wfc+4nF470bA4Fd6PNjcXSVbIUz5NtinOmX7xvYQ71LnkfDWp+U76mV535d8w2K+/6Ud40t3svPi08eW7ywfHDh6Q5+7dyWHWGYfh8dQU4zRhyGeNXnCSu9D779pe+T33Hi80b+3aL4FUMbIvk/d2/bvrA/tjvBMdQgX5VzKuPpF9z408Nqnqb10MWnjZsbSxZWzs0D+lP029kYxpvmWfBpkZBN97G1Hm2ZszPi257fpM9c1bZZ9MTGMsRl8TlgdjRn1z6yJc/vC61Bqh30mu9W5ZWOLG2RxvrDPQ//b7Zj4xVcgHPvRbxs/nsf9mJpxJF9aY5hil+JPOJvRBz9Otl9YW+pjGPtQ2mKMDPYeuxI+6V7BKeeNrZfmZjHnLoRPTH/6GBpfKW59XKPPRofXWoPzYiwMtrpYezJea015vklo18Yck/QOfOrfsB53Y2rWZmA84SzjJmOq0d9Y3+1zC6PWHuPB6Ucxbr1uN4+qsblr5gdh2PQX8zH3dYzJNCdaa2OKn60/xNPFkdUd9z23PehSrPsyxMPp46x1wvqA496XOHc8nOa5gHnqt5/1+jjYuZjL0a6XNuKSMM7rg2fj7MjOJvGOEzuRK5DkTKL442VjcmiJt0PkLPmmthIZBUGOKQjlKsS7adsnspdewPvaRFjhAxY9k+Y4sE0zUWb7QrHmONANgILssg6Ib62trpzsQ9+M+XgcqF/J9sVwKb5rz+3zTRUer4n4tRav0cJtYl9ehA0nCT6hdSeU8aLa17Mn8WGBnHOSoQUzn/Sc9ruLHG5/vAjbE/8s3xa1Hxd19mHw0xBC+JH7EzEc/eW6df/jRUCuW4uF/55UOY5Du7fp427ehcEgK06GQ1yyH8M8dOq7bca740U/hhNzwtSq8ej9GOG55ldqb/C/w/0QU4vPos/O+MS6hU4+LmIX9QZ/ihsfwFrRrtfOIGOsoW4R02XYgE9pTAeb7Hu+iCOsou3C777tZCutJ4PvrPu3K+EtfGTOaRMxZT+6tWw0ppVxS23zGPMF/4y+FDjx2nHGJM5pzC3jaz8n7Bx9I1yZbMcZU8S/GHv0j/pmfHDfnf/0Cr0iUBtD2C6JbDcmo/Eb49ddDxAnmhtj7JTjV57Pel9LjGBMzM2NoY1CdxQbr49kj2M96nP0s9ZvnAuHcjMP4odEy3NIr5d9HdtNbU2uB55fA5647uB7bpPiPsSpWLe6+TX2qx9n9NdfC6MOj/OoThUP4/ZSHIo5NOhx/9z54syrrq/kfySot+sf7Zu3Ng7t8LinPpZtlfimMXCwNTrfze1jIt2tdYLbLvM8lzsfitjXdet98+Zxaaded4yJNCbkV+8zX0PNtX+69E498bakiXeqM7m7Gu4T2UofLqsRqwc3w53hEfZkwyV4A5lLtolkh3shk9mjkP0i0mjIXNYHSSTSz7rUXt6JJV2X4LY/2DZu204Esj/hS7aFmx69rS/fv5k+3Hb/tdKfXAd9j3WoTY5/oBgmOelO+Mc3ZfKTA1793E6Os43L9PFo4e5OplTPOQmVC2BlwfQuSgYZn3BLW9QuTiDmROWeoKd8tr7Y41jf+ja3fefCrevTIC8uYmwb1m8c25jP9SXtAtHJtLM5PjGVca9cFHgn51ofvDhYWVd3eDQtjWvvWxEnxAHpzHiMCCT3PbXnjDXawY4F60I2OoGXF0t8IdLFdojTqF9DTKzczsMqzq3d4bjYPU04mPAR/XbHqSSHvX+lvYzzUt7pUrya8YAPtl9R7skwHsUYzd1V6deXJX0p58m4neo4oV8c28rY2zbiscVTrZ1eTheT3B58wAU7Yubq0NqLeW/HEHLewe3aqKwvXTvARkUn+ZhvSs06P6R63vlnaItJV9Iv+5lIG2JT6+MQs3Kejfvkj1PpozvXH3uk+xeP1PcO+4gd8JCPE2bsHBmOSz9jn9nXenws7lI7Q//tujWnv/48tuNQxqhr18Up96O34fvgrB+V2Nj6dnxSDCoYmrueeHY7mTPP/DbHfR/ZnNnH2edKr8/FvB5uVDX6UMVUYdsZ/6Lc4oWPa3Gx86VvYzw32Nbpz59p4h2YWA+7mkygMtkrSWCekETGzK5oT/iHekSEM8GO4Mr1c7uZzKWd8AH82Z8xoS/teja8tnjnv9bHfhKM2rYTstpH64s9njnJ0lixn7lPmSBHe9QGiPds/+oxSTdZmLjbOKxwPFq4rQ2zyGb85dh1C+to4R0vhr5etlPYthcU8GvCn36RN7uqji17whv55tTp/DPtV+Pn1R9k6eIKfaJ0rv+eL338+pOLbaP3syRTKd5dn+jinfzpT9B0Aqv1wbVhTqZRB49/Jrz4/sK3JfGojYUd62i7k9HFNscOjxemtKKXL0J7rOdj56IPMXXjhAtr3DAZzx3EI11AwycPZ7Gtrh0at679SqytT47NWmxxUV3gravvtz3eMRvmv9MmbBdxtb4WcbVt+mvLor7APjDT7Uzmdjxs5bHCOByEK7f7V0/mXPT1/sU1DO008GDiUetb4ecQ63KH1cTKHUPsBgOnjbGLcRvaATbQr2I8Kb4+GTB+sX6XN2tMJ2vEq6jf1+3meVqP2n1EXzDGRVwLcst+D/5gzpq5GW08ert/NDzFptNBnFv9Mba9eWRi8lb3KgywxX7G/Mw1wthMj6+zHP2t+jS0PZR344A60Y7Bdh9zGwt7zP2ZGRszHumcw750/WLbOd/jGmOV5Rb/o+NarKttjfs6arsWa9PHUb2hzU5OcwE4z+l4vk3V6ePpxKfo59hubpNiWtSBfEZcunoGD64t2Dy96akn3iUhHQ9kJpTxkWLeTeUd6VKewUjEbxbxZtIYfcn11yPe1i69R55IotdWnWTmPvYxy3GqxCIR2ylfHFLsTb5kzz7qzfZzn+YTb67f921EqFPbpe5Iz/N7BVltAcYYzFo0h8XeXpSUdftFL11YTPnaPIEwSaSLJzzabU/Ynq3iROT45tWJPhvb1ZOOV3+QlXFa0X/HF4yZ79Nw0sH7gXxRUcTCrFOmv+OLh0Hf6g3jy77EfDf+XRyGC7+uHp+UV49H1xb6N0q5DYyjvfgc2ubYVHDK/epjYmx5498Ys36uwEbrAmEow8XRwnYKv9E3O3aOzT62JoaxvqM7ujmAdgZd3NAo5oFnx5MNvsKGTXubBusRC4hXItAz+uL4O3+cynnR++m0STFEX2IfZrdjxm72HCjiCNzx3Pcx6OLAxAn9QJrXfDMudp6ZvmA9a6f9nM1txD6YOQL8pScJ+huz/Y2HsW6rjwVmgaWELdM/uwYlPfY55vv4d2M+6HQ+pPgMdtOxM06w7c2Zrv+lb2W82F5lB9Mdm9ImxjulDZ8KnHZ6ztrbahO2MdbrxMZpZ+xfGSPGpIsXmtc51mYcu3YrawJhNrc11E99d24S1cbf9LHon8Vp9UkR4//gY2eLfMr+9jHr17KpfvKcqMfa2u6PZ8SF50DDV9/+Un92W/9sE++0i5rJXSbATLxLApaBkYkf18vlw+BXiBzvuOf6REwTae7tjMhvssuPqkddz0bF12Sj1sdK23ZRSnamfPF8G+IEm8kWkfw0Vuxn7tN84j3lX/1mxMkQb3+hHWEMFyCjk1+/mHYXK90JwbvAM/HHOCw6gZhF3ZxkfHJAC73n2zrtxz549QcZX7y5J+1Z/oM88k2IIZZefxBXjBWTEdse6Y52Tp0+dHio2ejkcXwiljD+Pa4SwSDcrBOPqQuAEre9D/miKMbOufjjWHC+69f4gjm14Y1/rF+Jk0u03AsEMycXtuPeJLA+OTbdcYn9aeLBzMsUvyHOuFFGdorxcPwY4THZrKwjTvm8vgxxNmMwf5wGf1Js0WcbkzXbSfb79pbNgTx+kSzxupTndOmvG7saBpzYY370dsobIrW5gTp+Sut4as+PKbBaYAzEjcZ5SR/LeJu5mfwZY7OrF9e9GDu03cURayWPR6U/nX3TpjdnWA9PHPHcs352NrBWWxxzX0zb1g6OrU8Gs/24Omuvq2djYY8b/lk/4J/bTm+nn+/2/XtuwyG/sDu0x/OKSWjCAPQn03FfR1id2ccSt2V//HmWz13pxsqIsDvfVEg3u8p1ZNyGN49n+jV3Djt6Yz/mtrm/emeYeJcE8P77+OAYEbtE9sp3syNhHr3jfUT14uR9cDPceP/D0IEqEUl8dbsHTCJypm6WE/Es3gmHnIgnk3RqLxP6rJtldZJpJ8OI9I8WqGy/eETe8SXb8t/xzuXoJ+3gF7Eqx/DL5BPJ8ag5PV0w5V9+x7sc0zQuKda5nSKmyY95C8No4ab65UXmhL3u5GVO1iB5l9/od3CIYNkxHh3POoGMT0TRDk6W6YRXsYWTT/flW1z8oP+VOvbisBYj+FBc5A02k1+VEwHqJr2ZvuQYDnFpxLtvAydD56JniANilB4lHPVhwEXt4qXTx1fe0d5wsXL5SvdV8hyj9cZzKSkrYxD7UY9Dji3mAS4UzCOiC/EDu70vef7YY+iBPGwUG3bsHLz160T2D/6MY2jjc7c/DyEuKTUYddpEXzM+8hiVMrQ5L53XFx8Ltm51nNBPju3QR959r2HOttMf5/mD+PdyImmVdRj6fgos27Eay30/zFii7xPpCDscq4m6uR9jH6s73q79YZxp/Xf7OIxdmneDf50u1R31qdKPTg8kOK3TvS/9awnlXKvizPrlzaPOh3JtHeGm8NMZTzd2ONeOcZnHJ9/cwZx1+4K5kWKRiV4Z87IfsR3XXuzP3NhU+pb60JWX45HKcI2TXgvJa1Dvl4lN8mkYa3xcsoh/tsHteLgeYbU2/raPE30q263508vtHLB13TiM+uvN43a7uZ0xJkZx6dob62Ubc9vaf71TT7ztx9XwOHkmd9gB9YljIlvmUfL0CDuTc6OTyBiRz7E/JRmPIGTfOv2B6GV5JqSZJOZd+9RGIogRqLl/ya84EZJvJcm0kyG3PW4n2Uu2xjoF2SVfkq9d7IZ+eXZeuBgudTqln6Px6Yh2JsTFTrhnF2PGsUp6lbagy2MP2Wgxm14kmgvU6GQyvkjJY9Uvaji5JvmwwMf/eixPoBO+zTyBjE66wwmm2MGp2erk/ce+Rr7V6tgTGMgaP5411I0+FPEY5NzWWv6PfKGYdmU46f+/9s4lRY4d+tO5Ni/B4C3kwAvw0AZTcOc9MeaC6YlNg0dNXw8Md2xPTMF/DYbrZajR4xwdHUmRke/Mqm9gojJSj/P4FKmfFBH+Hj6/b9/K6n8ssx0uR6P2Bz6kXM/iVRYXXr560f73SbHt9EKhdkJzVDxkIcPmokyMbMyVze4Zu8K3nfwtjKlka/JB4mziL1z4tkYxHU4eR2NtMHGYxX3ST/I9fWds9mUHbebrxHiHsmHcxCvHp3D3+yE8fLHCzk20Bn3OROmUVR9rY0vNuexQ7fbFXxul3/rsdcx3yVPD3Pyt5rJwZ5/1XtVPiU8j2kvemmvdmjHw83V7LS5tj8ZIk0MVGYYdiXGxpWEhtquidPc1SIRS04a0Pz06jlK5wThJ50uulJNSzt79M/NxEiN/HVUe1O/ISOynvc5lX/vfntheulY29Q1nzfmBn8XOPoa+rPju7JI477pGSDnhv7PLtOtt8p+ljZgHzU0Vzq0v3o8TxMZd/368b/nO417OFYaMv3n87r6eyDVonOPil/VfYxx9FI7afnLfYtssZqNFDMm/qbv4Wyk29Mdkg4mH+CnHNn59/VxuNI6Nz8fGZRI/sfE5HZ+n8FZh1YreRlzqTqkVpyIoW0FmRW0VkmNx/OGxCuBYVkVrM8CNcIzCsIi6ap9pO9azArAIyb7d2m/zncbC+9QOztq3xKAem/ZW2ZLb7kSzEa/Nd/G8tuvtrH6l2C8J77WxmsREbVI7a56aGDS5bOM4urjoj4a7baj9sZN2+h8d2+b4AlvqNBNTaW/h2P04l7LuR1JXgcX++APgy8zamkxSk0+zOr7tFG/xsTw7GG0Y1S/n2gmu/ACaur6PUVuxX1+uyb37IStt6G1iox/K0p6W6RZe6g9760POTc5/9sN+L+ftufEENbZzRDyS/67+6BZaE6d20lDyuPgjb5iVmM7Km3jqeJrkLMfITFYnvjQT01jmFGx4mwZt6gTP+NQtLJm42jEkeRcOhC+NyQo/fF++rS4u3hbzeb0vblzLnTvduPDMmTz62EY7NIYy6V3Zj/Am17rI3ah9P4YGY8Bf9yVH9no+yqHGzsRT66hf5lpmy3n7B9cgm9epTbbNItoalsT/QfsSL2Hw4WfJnSk79LHY7m1KZU3dHAuXz44Xe50TBsp1pcSw9UeuOZ4zJ1RjXAZjN9vU+2mvtX1/2Qc9P+RM7Nrh78Amm+e8kFXacNdSWy7HfuSHjWdhz4v4pdh0vnl/bI7KdybnyovjX2PX8FrHf/t9btfzpWMrtdH7rn1LH4NYpzY6H8cxW+5f8t0ex2Oglsk5tDGs31X/sv9tTGK5E8VlEr/a/8imp3nuaQpvGQC3clQhJ7vrTxOm5ziAbs/nNRfJW+Kv/JC5H/uTxHUyUTtJ2yuvLekHz0wQLtn33fSV8mSE0srYJv9uIMeHxvlSbKRJ2TnG1z55cmW7yar7/tCYXqVemlAfyO9Kv28xh1eJ9cp4PRXbLnWNuPd47X09GY3ZdG6XOL2ludOFbCEuk0e1Do8/wvsSF3KE98nBvfcfinPan36E7kXsHSO6dozddau8h188V+XwjoXhKv925GBdG4cvvtz1xPRSbIwmmSfJ2+FjZ++J8pXtXeL4ItfbG8zhUkz47vCx0cTuUteIGx5fTTwmdu57PUnl3WJk+i1x59b0/dTLEJcTjWXDLsLbBONsAwjhjfC+BGd318fhgqsdq3GX361Up4mqe7777uJz+gt+G7c7b59J6d1eV/edKN8Et5E3t6CZF/fcexm4ztwtlzfBGfzszc9e1xMWsfaOL+PitHMlhPclLnIIbwb6JTjbs4/8Y2Wex5LnFv0LyfZsd81FWvt2E9k1dYdligiT5wbj8ZBnpYZtn8F/+jnmhyw/TuGfOSamx8T0snX3mijf0vgrC3r1OnPeW8yvzvTgulp9d4udt5QnbHlWc65V1xPDMnODy17vr34du7HrAcL7xhICoFwQYAAGYAAGYAAGYAAGYAAGYOBpMYDwRng/q5VRLmBP6wJGPsknDMAADMAADMAADMDAPTCA8EZ4I7xhAAZgAAZgAAZgAAZgAAZgAAbOyADC+4zBvYeVF2xkhRAGYAAGYAAGYAAGYAAGYAAGzssAwhvhzcoWDMDAwQyUN7Of6iVxB9tx3h8KfoiJLwzAAAzAAAzAAAwcxwDCm4kuouvaDJS3bfKmzeMuZqt+DI6J9bAuwntV3K89xuif6zwMwAAMwAAMwMCVGUB4XzkBTFovILZuPcflv6hBeF+AhWNifUzdW2cQ+5iMwAAMwAAMwAAMwMBZGUB4A9hZAWNhYYWYRNBdjsFjYn1MXa4zl8sxsSbWMAADMAADMAADN8gAwvsGk4JYXSFWn0Teym3Km03YmH925/vPlxfNd5vN6/BjH99VLH4KD6WP2r7v/0X4/NvEXuv+Cj/eWxtduVBvt/4h9tpnnks76uP7T+7HwNlh6xZf2/43ofoQ7a39/3F91XKujy4W3kfbx1Jd03eTlxpv8fvll++t3+XW9Xi+9W/PHDf9mvxxvo038SAeMAADMAADMAADV2QA4X3F4COwEQmJASNwLRNZjLUiLJ/zwnchjipEfZ1eMGaRb8pp3ZEItXYZYepFdedbEaRartTVz79C+P0QPv+sPnVx6Noc9z+MVVc39xN9ryL9V+hiEa8Tw7p9HKP9Lzeb0Ajtcm7j/IzlojCvfZf4DBYfLBv8XfkgFsQCBmAABmAABmDgHhhAeCO8Wfm6NgMjQTc6l+z0wnXHhba004jAMBGWIbetZSd1gy8nO87dbvzY1ixqi3AfiVSbj2EcvFgX4W0XA7KA7wTwsL1RDF0sok3Dul54+8+17U7Mj8T4NDe1nXv4YcFG8gUDMAADMAADMAADLQMIbzvJ529E+DUYGAi6bpfX2JW+W7sjOmi7uTXbtKvnZVd2WDdeQCbC19s0q5/Oy856Eecb+dxeoGZxaGMwE7trxXPbp+xYp1vEJRYxTkN/XN9LCwnlO93dnpVt4uNsa/LFd/ygwwAMwAAMwAAMwMC9MIDwZiKL2L42AwNB1wrL9oI6E6PDi86gbRXO5rlyeQ45HUVAD+tGW5zY7D4Xe0v9pm3TpxegUk7Ph/65aymTj7LD7e2ReA123Cc+5ZiW59iT/2vrur69uLZseaHtP0vZiY3D/EodjlzHYAAGYAAGYAAGYOCmGUB4A+hNA/osxMZAaC2J6yVR3sVr0LYKZ7ubOxoHw7pGeGt9Jz6lrVR/vJPd2ZnqyO53fT56na+T/sst8c1z1SOfRufW1vWLDjMxHf3zonxWdmiPLCZwHLNDXIgLDMAADMAADMDAbTOA8BaRwBEBfi0GRkJrdC7ZN7h9esnuSTvNc9az+qWuPvMt5byA9OJTynXPgq+5GBYRLaI+2bBLvB8nvLtnr6P9xcedor3zfWaLPFcvu/S1jy6+k5zxY7qGH8rACQzAAAzAAAzAwG0ygPBWkXCbCWLgPIO8DHc+i4BzLyxb2gkfsjIVcWV3WW4rT+Mg9mlEbqm7aZ6/ntXbhE3TVs5bFrX2rd3lWWkR1r8fwkPz32z5hYV5HOot6TOxW2yVvoygbsRuF/9SL94Wv6tuJ7zrs+DLfSC8h7xyPWYBFAZgAAZgAAZg4IkygPB+oollUntfgl0Eanx2uQrKwTPOA3G7mOup8I7xMQIzPXttRHccF1rXletsmAnfVnzr89lWzOpbvOv/E94I1jQ+RXzXMjZGeut8Z9dAeLv+pB0b/7zQsLbuxHfZMR890y7XnE7wF2Y17vfF8CKH4jNHJlMwAAMwAAMwAAPPlAGE9zNNPJNkRM1OBhCA/DByfYQBGIABGIABGIABGDgJAwhvQDoJSDtFHHG+vzgjvO8vZ4wzcgYDMAADMAADMAADN8kAwhswbxJMhPwN7MgjvBkbXB9hAAZgAAZgAAZgAAZOwgDCG5BOAhJC+RpC2T17bZ4nbl+IdqBtCG/GBtdHGIABGIABGIABGICBkzCA8Aakk4CE8D5Q3MIf/MEADMAADMAADMAADMDAk2cA4Q3kTx5yFgVYFIABGIABGIABGIABGIABGLgmAwhvhDfCGwZgAAZgAAZgAAZgAAZgAAZg4IwMILzPGNxrCkcn0gAAIABJREFUrqjQNyt6MAADMAADMAADMAADMAADMHAbDCC8Ed6sbMEADMAADMAADMAADMAADMAADJyRAYT3GYPL6tJtrC6RB/IAAzAAAzAAAzAAAzAAAzBwTQYQ3ghvVrZgAAZgAAZgAAZgAAZgAAZgAAbOyADC+4zBveaKCn2zogcDMAADMAADMAADMAADMAADt8EAwhvhzcoWDMAADMAADMAADMAADMAADMDAGRlAeJ8xuJdfXfo3fHu7DdvtNnx4vMTKztfwYZv7e/fPv/sP1D9/h3el/qntffx4hF1PiokzcPDzddhsNuHh5xnaJvb7j6MSsx/vN2GzeR1+EMODY3j5azZjiJjDAAzAAAzAwHNhAOF9xUnqf/+8SSI5CmX/71ghu/349QKTz1sV3tWu7du/w39XzPG+F5I/X17cvqi9A+EtcYwLBPLv3hYKdgrp3w/h5WYTXn75nsb6zvJ3NA72HTeUZ9IGAzAAAzAAAzBw6wwgvK84GV0S3kmI7y2e2fGWAXefO96fwoMIxVcP4c8V2ZQ43t2xiNHNIH5RmIpIvQu/dixw5MWFF+Hzb35o7yKfjOcLLAYzFhgLMAADMAADt8sAwvuKk6EqvP8Kj2qH2a3d2vO3CFG19dgd+lPfan6XF50itF6+irveCKr9c5gXLu5KXOu4H43vshDz/tNAsHwPn19twmiBYf+4jfrmHHGEARiAARiAARiAgVMygPBenPieF7ax8P4VZLd264R3LV9vTW8F60QIm2ep5ZZ2L5Rrn6Xt0W7741/NLfEfHif9TWLa2v8mfHvsn/GuZeyiQ93Jr7eOm3Mfvwatl+xuv8sDxtna+GL7kpzX8jFmMV4aI719vfbj43nIIE23Cqed2rmArLcTm93xuEvud3jNbcj+tuv5LddzMZfbKM8PT3Zis22jW7vH7ebyboEhtW3POT+HIjTnrMZPcrjiKDvkszsN1Nfig5QrdrSxHT1f7eqNFlRKH6Nb4ocxiuOr2G1zmcv2NuTzp87LithOrgOHjA3qEG8YgAEYgAEYgIF7ZwDhfcXJoYpFK7CtSLbi155vngl/E779kYFYxaIKwUk9/T5U8SiiXI+m/2prFf1argjTpcGgorWxvbYlCwi1HyuGjY0D0bt9+0Zf0pafbTfl1QcTm7eDZ+u13V8hTGKm/kpZW07OHcqTEcoxjrtFlBFYIh6tKJVz5hng2q4VtsJOPo5vXy7iUdpXMVrrdva6Mo1wTzGqgtSKx1ROFxEGCxA/Hya3Vg/K7szFp/CgfUVfisgXP2N9FcU1Zo3Y1rLFn6a9/lwX39R+bTvl6It5zMBxIWOsj+eYmfPkpeZd7OFITGAABmAABmAABmBgmQGE987J+XIAjwGsiswqQDtxJ/ZFkaciMtpkhKS+Ubw/V/uwQrb6pN9b4aiCUkR9bbfuOP+qu8y7hLe2tw32pW9WjB8lvLu3uC8Lb3snQbVBfLV3HNRzjRjXWNV+6kJGje0+bHRCqgguK0pje1lItUIt9eMFnAhvFYZilxPRwpccR0LP2+JEtYjT1lbXj6+T2nwRXsbbpdXGXEdvFfd1xMbR0ds4KrPiXJeHYoPalNqQXXiz+BF+BS+q/efMQ7tA0AnjzsZevA8XCJQNY9MwfifIS2ejsMVxnzFPWXiBARiAARiAgefFAML7ipNIFb1+F1iF3TKMKhpVkFeBLEJw1IeI3LC0211sSmXNbdm1brSt7290Aak2GCEb424EubRby9qFgipwq/AfnZN4me8WYpNsVd/EtuqTXSSIZTXeK/MzisX4nBOciUknkAqnU6HmhWf53ArGHJ/URrMzK3GLx17oJQFpyztBN7Op7acVnEmsv3oIP+Jb3LXtXEYFfPFh1X+R5f0v8crit95mXfuyPpu4pFvJzcKG8zXnb5ybvAAhdfs4juqqfbr40NvVCfihTbIoU4X32fJSYjtmubefcsQEBmAABmAABmAABn4FhPcVJ5GdyDRC1Iu+RZG8KC6NCLUCP9WZfGfKtcJbxKlcPKpIFaE/GlSdnxJz4+9Rwlv9F7uMX/rdxNYF4e19OpvwVoFpBKI8S+yeCZ6JKXnmV4X2LuG98P89Z6EnAi4LSG035s4Jv2zTyPZ4TtopwrCI7FgntZnsLGI1tVvLJ5ZKX/n5ZxG1kmd7dMJeGNPjQAi7uEfBv07k7iG8NY8uPrrYIIK5fG/O61hyuUzxHpTzbJw1LxpXmwP+1pwRn8ELAeEDPmAABmAABp43AwjvK06QRoK0ntsGEaNWdFsxqEJwl7hMPlbhmW9njzvKI4E6GBAqTq1N7Y61tctfVKpPTrgP2q1l99jxVv/F9pFf1f/GVrVBbKvl/OKHxvvEO94zISW3FFvR68WVxrqIM79bbOtK2Xl/Ej+z82yFsYyVkfAeCEHpT48qrKNwFRGdRayK3tnOrxHJ6qPYk44DYb34/bj8yYX3zJ/Gthz33He7WJFjZ22dLzB4NnbnueT7mLwM/NB88x3iEwZgAAZgAAZgAAaUAYT3FWEYi0wj/PSla/WcikazW1wF4qCc88/3WT87UR1vIxdBa/syolOF6K5nvFXc2me8jTi2z2ibsrrwYM4NbzUXO9VX07Z+N4mNti3C29TdyrlfIWi5bRjZoHlRG0TE7jrOhVQUMEMx5XbBY7l2l7q+9bo+Py12LPcnoin1+/5TbteLRye821uspZ/BUUT8z4fw0u+Ev39I/z3WaKFAbBotRNTv+p345rvuFvocBx+fHG9ZFJi1WYTwMC61bpeTNWyk2NY21Ac5/+X19L+a86xcLi+DXK/xlTL6Q6x5JibEBAZgAAZgAAaeLAMI7yvCXUWv3d1tRV4WdFYMyovY3oR3b8vfC+Ky9iH15nX0xW5yq7m2a55vlu/ccVl4juxv7VGRbUW+6yPZp8LftGnszBPY0XdrhXcb/y4m0Saxwdoq5/blSQTV74l4cSI3iyv334eVMo1oHe4QF8FoRK/cou4FqIi2+PKzbofZ2aTPhdt2y6JBWzf3n/6fcitaY3uvXoSXfkHh5+u27+KTtNmJZF2AsC9sk7gWoW125r1QrTvORvh2vsb21glvWShonyuPdWv7P963t9bPxXqxP966bnywgs37o3aeOi/7Mk75JzuBsPzxt1xrOMICDMAADMDAmAGE9xUnhVUUO+FtbwGX3WAr8so53XFW4dmLy9pHFbq9SDZCVcWu2e0tMdL+Uploc9/ffKC5PqJQNT6p8I592d3ltOts6qrANefUf4F89N3EVu3L+avnc9yifer/wIY+pmLL0rEIuImQyrFsd2ZVXBVBKP/3cyO6YwyLSH355VPaSZZy9pnr1L4IdCuEU75F6LXCMNVZEqPmmWYRyJYJEbftd70oljrZ3/p8tK2Xv6siVuqo4DW2JP+nPpb2ZYffLgAs+erbS2W9PRJH8WHX94N4l/Ensehy3Xzv6xfGTCxsDCVm++ZF6nFcGt98Bx8wAAMwAAMwAAOVAYR3mbQCRYWCWIxiMRLzo3LnPafCexe3Kry/s9u2K1Z8DyMwAAMwAAMwAAMwAANnZgDhfeYAI2LPK0TPEt/Hv4LfwdbdbrkD4UrcILzvkKcrsXKWsYEvTEpgAAZgAAZgAAZg4CAGEN6AcxA4T3pS724zb57z7m5rv6wQRHhfNt5PmnOufVz7YAAGYAAGYAAGYOBiDCC8ge1isN2NiDHPnlfR7Z4BvxI3CG+E992MoyuNEeLDGIEBGIABGIABGLhFBhDeTA4R3jAAAzAAAzAAAzAAAzAAAzAAA2dkAOF9xuDe4koLNrECCAMwAAMwAAMwAAMwAAMwAAOXZQDhjfBmZQsGYAAGYAAGYAAGYAAGYAAGYOCMDCC8zxhcVpEuu4pEvIk3DMAADMAADMAADMAADMDALTKA8EZ4s7IFAzAAAzAAAzAAAzAAAzAAAzBwRgYQ3mcM7i2utGATK4AwAAMwAAMwAAMwAAMwAAMwcFkGEN4Ib1a2YAAGYAAGYAAGYAAGYAAGYAAGzsgAwvuMwWUV6bKrSMSbeMMADMAADMAADMAADMAADNwiAwhvhDcrWzAAAzAAAzAAAzAAAzAAAzAAA2dkAOF9yuA+/hW2223Ybt+Eb39YabruStO/4dvbmItt2L79O/y3mOev4UPK2za8++dfLjgSq98P4eVmE15++X58TE7Zlth36LHYstlswub9p+N9O9SOY+o9BR+O8f+Yuj9fh5j7h5/P7Br9XP0+hhXq3uf1kbyRNxiAgRtl4FkI78ePRYAVcZXFcTz3V3g8MDH//fOmF9g3KLyznWP/PzzewcSzxHR/W+9HeP94v0lCIAnBKAbl305R+Ck8nEoYj8bBKcXyKdsa2br6XI7ZOQT3ny8vwmbzOvxYbcuh42/iQ4nxTQvKnTYW32QM6PGQuE7GxxUE6OXYyEyla8qrh/DHsngFv6+7+Hro+KIeeYMBGIABGDgPA89ceEdBuv/udBWzri7C+7QrbBrPbXj6wtsLi+/h86sswpeEVJrQ+wm2nWwf8/fNiOUTXvx2Cr9j+spCbylfJ/khm/lwJ8IqicLpotJoUUHGgh8jO3I14/cqcboQG2m8l3j568JV/N6Ro2OuT9Q97e8t8SSeMAADMHB2Bp6X8La3HBtRt/34da9A36fwPnx3/yRi4ZDBbHL0/IR3mbCmyfKL8Pn3ZAI7E2GHxNvXmQkXX+6ePp8zXuFXGO40njo+Mx/uRVgtMj0S3r9COITFWZ0rxekibCTWEN5X+8069Vinvb3mZuR9Mk+AIziCgZth4PkK79Deivw/6dbxfEt2K/JMuY//uz433Ny2Xna+VSjGz6ZeLDsU9/XZYr39vStXy6Tnj7WPdbfK10WCifC27ZmFiVqvfe65u22/szde+KvN4pc8O631TV9N+dKelmviXHe+rX3SxzRvsa8/f4d3pi2xJ/9QV3vb879CsPFJ9W0ca467entc5NKEfHqLsp9EF2Giu1nl+24H0derP8irb3s1wiXbKLfBjxYCil2zW4NNWyHssq20b+q0/Y93PtsyL8Lnn+0z6u33/m6C9fa37ThbFkXlr5BjvxDH4rM+buCeRW77Fh9KPDX27ryykhnIbbgcdnavjccnvTPDvgvA29neBZDbtuXrhLn02/Fs6hguar3oW+Xq/w0e39D+VHj7uLlcljHsfdm4eNpFgbasa6+LcR2TQW0qizeaS5un6l9zC3kQrl6Ez/83P79u+VF7tY8T+W3i/ae0Lf22+TZ+mutiG6v2mfv8nfW9Lr40j4n48eJzY/prWRnbRBniAgMwAAMwcE4GEN5RTCURWMVXI5JVsA3EtAq5Xni/kxd7aZlWwPaCzj6HbcVdtevd2/hcuS0nts8HSRWots22fC0jwrb2WWNRRWZngxXfnVDN9oowVUF9jPDWnLhYNI8NLNhbYliFevVX7IyDzsal9bnE0trR+NPGd9cAzpNMN0k3E8ZWKBdhYieYadLb18/13ORVJsudsBnYbCa1dSI96D+1afsfCAQnllbZtlf/UWxaG4qd/hn40mb1J/od7bV15/ZHYVHrzmIxfiFdm8fS7xfzcjcVRiYX5ZyKxsjF0IdfwYo3YW7Y5+ARhlROmTo0HtnujueBX21/xt9QYur5bHwe5GcUl1KniV0sV+zZbMzYKGUbUSdjReNScpbiZ3iRukewUW2yfBU/Ddc5n8budJ0o5TRmk/ic2m+JT1wk0L5l4cDbaHMsZUwMO0b82Br41OV3UCbFp+1bxgZH4gIDMAADMHBpBp6v8LYC0e+yGhGl4mt0rhF6bndUxWgVdVXEmnOmXSvGqwA0Zc3L4FTAehvcREPt94LdtBXc7v+j7v5Xsa7tWHtVeJaFh2anu9aNO9rfytvC1W7bjq2ncWvjWUXyrxBiv7acqV/j1grvWt/EU22o57R+51u8ONU2czn/+bALWCdUXA7zpHxpIpsnqZ3A6CamC6LN9xk/i6Awk+p4gRpP/p3vaSJtbPa2+M+mPxW2a/vvJu3FlnK+iUtpU/sY+R3PTey3AmMWixwfIypSH7tEwURwyu3rRnxJXjofRnHw55L/L8LLKB41r9m2Jk4+LivjIQKyta34rv1VttpyMW+jOHgRNmawi/uIMc1tvzjix+GUc99u+Vzjmfkb1e9slDiXPPU5cGPb9x3rl3M1lhPWJn0c7LcKb8f6yEbx08S/2hvjNWDEsuv5k/LNoshg3Np++ftmbrW89ESX/spvImOAMQADV2fgeQnvTnzGHVMjEFWMi5AcCysVoV70dvXzxa4Tm1pOdpjlolj7q/8F1kAUxoGjbYit0kZ7rLb63WHjd9NeLVfFqrFrGMPih9rk/ao2dbFIF4HqY12csD7O25MfVG1XBbmxWQV2tqPGRGJQ+xfhXcvUeDS73tpP9U1s2ffoJ75d/W7S2feZJvR+EjqYnI7L9e0lG2YT6B32ZHEhtzuXtgdtJb+NzZ1tgzrJLtf/NH6j+uVcO+lv/V9r/8iWnLsslnwf2c5e8NV27G6nscn52wutUjaV82044RbLvHoIP+Ib2DX2Y3uzLyJyd+czlp/lwuday1oxnq4F2Ra5ZVmPk3JVqA4WD0b5j30M4yR+ioiciNdkoxOJi/2YxSfjn2djZtNIkPpYduNmMO6XGMu8H+D3rJ+yeFJzY1g+hJFXr8PDKzduZjFfMb6Fa45tXogH8YABGICB8zPwvIV3J56qWEsCTHc9RaDlhFRR5kSvCs/2vIpCEYCTchH4ruxwN9eK0rYvP2iqra0PvlzTdxTXYmuaLNa4NOLTiPAk0hf8kv56/2JMq/BdJ7wX7NGcmjJ6zudPYlL7v0Xh3U6MJxeFyYSzrTsQJym/y212E+hOuLRiKZX3ZUYT5VRGhMnAtlGdaK9r2wsRYU0EamP/ME4H2j+wRfoe21QEmzy/a8VkEwuXD+ev+LVWvFlb4t8pHikOJfapfRFese/D45H6Ev+6o+1D8ij5F59L3zY2E0atXzkmrq2V/EjO8liRNpy4bmwo38nCxZ79NHZLuz7Hcn4kbhtWBuNmVCe2N+njYL9n/Qg/kxzuxUiJbV0kKpzI+Y6xvEDUjHmNpTDGUZjnCAswAAMwcFkGnpfwbsTkONAqVN/+HfSW66lwc6J3Ijw7sanl/E6uEYtqay8K0yDRNpwNbpKh/tidfVemba/u8A53vF0smgGrNnm/aqy7WCRbqo+7hXeNkYjkaIO2q/bVck2btqzGpPYvba6O2yiWe57LE1EnSrSNJQFQ4xpjkNrpJrtZyCSRliarIizauk0epe+VgmJov5/kD9vKtnVC8BT9xzZGfZZzVrQebv9czAyFoPgluYqiQcSbj5cpmwWTydvAh5S/WRvpfOQrsiTtZK5iHJLwMtwcE49UV3yyPgz/HonG9cLbxiX54Psd5T/aMYnTUID6NpMfbkzu2c+QjYlNox1vWRiZjpuZIJ70cbDfs37WCO9hXPtrUmZxIKZnY2DIWd/u8HpH3avfgkleYBUGYOCpM4Dw9j+2usv9JsgL0qoALQNiJjD1fCuGVRQOxHSzs6z17YvYelGYoNSybV8e2HUCsvYRRaraq8K0fdFYG4+v4YOKXdOOqWuf8a72VLvrOff2d83FjniYclVkG+G9NQsBw7LVbhHe6Tly2dFX/3L+Hz/KTnntQ+t5nlZ8HgqdUq+dFO+4IKeJtQirWja1//5TJ7A8K93nVYKiiBA3kc52m9ueJ22JUGtvfS62T+p44TSLkdjQ7H51E/bj7Pe21Bg6cTbgINsnCy5zwSkx0jdZdz6UeE2ElQq99JZ36U8Wah7SW8lrjE4Rj57BGpfKZTzXxiB+N49D34Ys3OQ3q1cf9uNH2vUc+c9SThZ0dPFmJadaXwSrWewQjmY+aF+FI2FiOG6kfTcmpQ/flvfTf1a7O+7GrOzM4eQ6pf3IWDHlept2j6+uPWmXIwIbBmAABmDgSgwgvAeBr8LT33JdJnRWvCVxVkTkRAxreyq87a3idYdZb+O25cxt2I24m/TlJxuNqBUhKcciKNU+eWbd+qeis4pTtdO1E/ue9ae2q90Dv2N72l+Mdd/nh8cqdqsddZGk1h+Vs31W4W/7UTubnXFbL/5dhLeNU5OzwsmALZ+f+DlNou3Ls1K9MrG0b15O54sw8ZNqU6ebvJcJbHyhlp90j+zRcysFRTcpLgKweQP4rK10Pr/sq7NtVqe0X8uXmNgYlrrRhiYe5XytK+LPiMV97O9sMblP34nQ/R4+v38IKp4l7yaPOY4uR6P2Bz6knM3iVYTYy1cvzAvVys7vqxfhpWPsqHyK6LO5KL7amCtjRWjX7/YR3iV3yQeJs4n/TMSPYqqLAIYDqW9ypDvQ9tws7pN+ku8NG3UXvnnT+rD/4l/qczJuhC2Xg7XCW4Wz9VHyuvNctM/lsMSnvnxOrm1tzuJ1cM7B4LpX4tuN78ZGywN/13FHLIgFDMAADFyDAYT3SBwZcWiFmE1QKzAPEN6xXyvciojt+6vis/lObbQCsh9ErZ1OQH782ghl234V43a3eSRmB/0P/LK75K1NUcRWH6twLr6on9n21I5rP55Te1W4G1vtYwMpzt7m2r+NQcx3a2u2oZapfdRzfQ4sN6O/s/DOt1Pqy6S8YFROBxNQ/U5EZDuh1Ymwn4ibeiO7ZGevmdjGOp2gkIl08SFOfH2ZmTiRCf3Itlkd33byo8RFnvmMNozql3N1gh/zdYT9Q1uEgWyTxq/0rTkeCYTSnpZxojjlaehD7lPEe6xvfZTz9pxy0dlxRDxSLlx9Z4tnTXZv86JEyaPdDV7iVGI6K2/iqXmY5KxbcJj4UgVkyXOxQdsXeyf9ZP8dG1p2wLG01xwlxn6st+wljiS/2oeUsczYBYd4Xto316UuxqWMtK/2uRwOc9S3X9mU75xvxf4mzuWcjpfOltZXzx6fiQ8MwAAMwMAlGXgWwnvfgFaxJbcUA+W+MaT8tZjJk946ib2WHWv7LZPsblK/tv5CuQWBeik+k5hDDCzf0pby5IXfQl5V4NXn+O+H9+pXw8ZEFM85PeO4sfHl72V2iQ/xgQEYgAEY2IMBhHcXrLr72e2+dmXrJGo+QaIMsbksA+0O4mX73jvXx4iuHeMx72C6XbMddfa2f1d7NyD+T+7TLp/3/v5wEdmI1737vfLYsGzsK7zPOG5un5cr5+3eOMNeRAEMwAAM3AwDCG+B0d2+rM/xyvccbwZaJoZPZeJ5uOBqGYi7/E5gj25LZQw/rTFsheu953Yv4X2qcfNUriP40V4PiQfxgAEYgIFbZQDhLRO2Rnhzi/mtAotdp7uYzp4tj89LNs9Ryhg54VH7PtVt2EWE6bOeO54rhqPTcXT5WNbnoM/N6cV8Wym8Tz5uTjimLxYrbH5aC2jkk3zCAAw8IwYQ3s8o2UyM7llsYDv8wgAMwAAMwAAMwAAMwMC9MoDwRniz0gYDMAADMAADMAADMAADMAADMHBGBhDeZwzuva7GYDcriTAAAzAAAzAAAzAAAzAAAzBwOgYQ3ghvVrZgAAZgAAZgAAZgAAZgAAZgAAbOyADC+4zBZYXodCtExJJYwgAMwAAMwAAMwAAMwAAM3CsDCG+ENytbMAADMAADMAADMAADMAADMAADZ2QA4X3G4N7ragx2s5IIAzAAAzAAAzAAAzAAAzAAA6djAOGN8GZlCwZgAAZgAAZgAAZgAAZgAAZg4IwMILzPGFxWiE63QkQsiSUMwAAMwAAMwAAMwAAMwMC9MoDwvlfh/fhX2G63Ybt9E779YQD6Afj4McZmG9798y8rd/fKOHbDLgzAAAzAAAzAAAzAwBNhAOF94kSK4MuiOIu//Pdf4fHAvv77500vsG9NeKs92/DhcbAQ8Ofv8C4tFFxCDH8NH0pf27d/h/8OjLsX8+f8/OP9Jmw29d/Dz0EMvR8/Xzd1Xn75vteFOfa5s87vh/By8zr88H3zea9Yn5Md2l4xVuAVXmEABmAABmAABq7MAML7xAmYC+/Ddqez6B7UVaF7KzveRux+/NoN7KkfJ46/iBDJwz3seP/58iJYoR0/RxFuz4lfcsxlXoTPv0V0fAoPUbi//9TFXurIUdqPfcyFd2kvLQYgvCV2HIU3jrAAAzAAAzAAAzAAA/swgPA+sfATwdfstKpI3obtQJQuJWwqWLXNWxHev4L6vvW7+/+Gb2/L7v+d7EAv5eT832XRu0sUd9+nHXArxv3F8Hv4/ErE9kIfqZ0strNIR3ifP+c+V3wm5jAAAzAAAzAAAzDwlBhAeF9CeAcnPFU097ddq3h9+7/C/xGxKrdN22e6tY0ovE37scxQ3JsdaWmvK1fLpJ1i7SOKZi+mBxcCU7693dy1W2Kuvg7tMT59/Bp0AcLY3NVXG9u67YCttujjAKbNVFb9yIsaTT9N2drPaXfWF0RxjF26/Xu0I57rLe2U11js6KPkCOE94PzE14yaE/oiFjAAAzAAAzAAAzDwVBlAeJ94Eq0irdnZrQIt74T7zzLAqij88GjKiDBNx7LDbcThu4FAb4Sgli27zk17VlDX/t+9jc+Vu/KNT2KzPdb6jfjX/mV3fuabXTQwZd6+0efDpV2Nc2Oj+GLqWqGsdji/UhtS91cIWu5NWIyteW69ucPhSKbS896vHsKfWTtFeHc73rPzw3YQ3k/1oo5f9prE3/AAAzAAAzAAAzBwGwwgvIei5PDkqCC0IlWFXBWWuoOru7RW8FURWMuJaC22DdoMYSR8zbmJTVWkm7LGLvVpxRvUa9nqg54r/atP1h4VseKnEc9b/8K2ame13ebM1FXhXes0ItnEUdsy50ToN7FVu2s/WvcgnvIt4PJytU5QD9rML2Ozt5XXNtbUDwHhzY+QHTP8DQ8wAAMwAAMwAAMwcE4GEN4DUXNMwFVkNjuxssNaxWhQoVlFpdZVsfir3mLtRa+KQxGqeaBoGyIOtVztJ/tXRWMVolWToAwFAAAD2UlEQVScNkJS22j7GsapK+vbNP0OYyR2mnLii+aqtqm78k0ZU1diqXZJ+3JhMWWlDS3b+tvFVu2Rtk5zlJef7bplvH8T+joxnfO2riy3mp8mp8OxciZ+6IucwQAMwAAMwAAMwMDtMYDwPvHkV8WZF5UiAE1/WjZ9J2KyFXu6O3y08G7bjYNR+xfBaXbMDxbevg0VsbLoYISuj1H5nJ8PN+UGsau3g8uiRjyKj4O6aoeUqYOxi8OkbFfO5PLUF7edt5uP+p4++119rXYivGssRvHhHPGBARiAARiAARiAARg4HQMI75GAOeLcXuJMBd5f4VH+VhGck3w64b1ip9eLZomD2KbCdhlAG4NvH4swVvE8EMXST3NcV67GJ/eTFwwGddWHFXHQsq1It36d+/8GP2in2byNfPdFEuG9O0bLnFOf+MAADMAADMAADMAADKxlAOHdiL3jwdlPnNVdbnmJV7PTHG1TEegEo57fJQ6lj22ot5S37dY+a9l6zpZt+5pCZmwTv+xbzq1YtufTc9R7C/SYM2/3QHibMjvjYOz/9qcy0ee29tPE6wRM7b/jXZ7xXvH/eOe8Ibyn/J4gf7Rdxw2xIBYwAAMwAAMwAAMw8CsgvE88ye7F2fJAsyJ0+F92mWfB8/PMRfyuFodWONvbssvfzQ67F7DF9klf8wFU28k2y23mEgv/vbFrlfCe1ZeFgSqI68vR9ojDxN8utzY3TRzFzzXHT+HBvcF89Iy3f5nany+vw+fftf38ffv/bY/aqTlDeNdY1DhyjljAAAzAAAzAAAzAAAycgwGE95WFt33JWiMSjV2tOD9AeMe2rEgsz1L3u7RV0DbfTYToEpCNzSqm7SA24lif9RbhHMuZ77v61U59uZp5C/ti3TVxmPjbCW9jYxMvk7ulGOl35dlseav5ZtMK6FjOC+8Q6lvMUz0n3mMdhLfljb+Vt335pHwgdowfGIABGIABGICBYxlAeF97UjkReccmlvpcHGAABmAABmAABmAABmAABmDgNhhAeF9VeJtd3YNvVb4NkBjQ5AEGYAAGYAAGYAAGYAAGYAAGxgwgvK8ivP2t0vYW63GiAJi4wAAMwAAMwAAMwAAMwAAMwMB9MoDwvrrwRnRz8bjPiwd5I28wAAMwAAMwAAMwAAMwsI4BhPdVhPe65AAxcYIBGIABGIABGIABGIABGICB+2cA4Y3w5o29MAADMAADMAADMAADMAADMAADZ2QA4X3G4LIydf8rU+SQHMIADMAADMAADMAADMAADBzLAMIb4c3KFgzAAAzAAAzAAAzAAAzAAAzAwBkZ+P+JmDaHMv30UwAAAABJRU5ErkJggg==;" vertex="1" parent="1">
          <mxGeometry x="190" y="150" width="628.22" height="290" as="geometry" />
        </mxCell>
        <mxCell id="wiwpykqce4NtUT54EgSS-3" value="" style="shape=image;verticalLabelPosition=bottom;labelBackgroundColor=default;verticalAlign=top;aspect=fixed;imageAspect=0;image=data:image/png,iVBORw0KGgoAAAANSUhEUgAAAoAAAACgCAYAAACc/t08AAAgAElEQVR4Ae2dPXLrOniGublT2TvITNbgxoXb1G493kAKd8mMxzs4RSbjIpPT3A3c4q6CCQi8wAcQJCGZIiXxKTwSSRD4fh4AL0BJ7v7zv/+3n/r7j//6n/6vv//hjxjAAAzAAAzAAAzAwB0x0E2JP3ceAYj4ZQEAAzAAAzAAAzBwfwwgAO9IzdNB76+DklNyCgMwAAMwcAkGEIAIQLb0YQAGYAAGYAAGDsYAAvBgCb/EKoI6WZ3CAAzAAAzAwG0xgABEALLqgwEYgAEYgAEYOBgDCMCDJZwV2m2t0MgX+YIBGIABGLgEAwhABCCrPhiAARiAARiAgYMxgAA8WMIvsYqgTlanMAADMAADMHBbDCAAEYCs+mAABmAABmAABg7GAALwYAlnhXZbKzTyRb5gAAZgAAYuwQACEAHIqg8GYAAGYAAGYOBgDCAAD5bwS6wiqJPVKQzAAAzAAAzcFgMIQAQgqz4YgAEYgAEYgIGDMYAAPFjCWaHd1gqNfJEvGIABGICBSzCAAEQAsuqDARiAARiAARg4GAMIwIMl/BKrCOpkdQoDMAADMAADt8UAAhAByKoPBmAABmAABmDgYAwgAA+WcFZot7VCI1/kCwZgAAZg4BIMIAARgKz6YAAGYAAGYAAGDsYAAvBgCb/EKoI6WZ3CAAzAAAzAwG0xgABEALLqgwEYgAEYgAEYOBgDCMCDJZwV2m2t0MgX+YIBGIABGLgEA7sJwI/nru+6h/71OyX299tD33Xu/Pjv6TOVGwfiT//6OK5vXK6sQ/d1/a+3PzOrn1Du+ataxvuyVIfabm3zn1711uIxey6zM7XXPb73v43gVbznYyu7eV3miRgRIxiAARiAgdtgYB8B+PkyEnlRgH2/97+cAAwiRiLIi5Sv/qkQjR40iZxcULZAKBHUdS/9hxFH2b3fX/3HW7C5EFGunGyMPkzV487Lv6of89DIVgk2Hdfa1TUvFOtxURnVl/k85wPXqgsB4jfPL/EhPjAAAzBwPQxsLwAl/jKBlwSKREkuAP11CS3tHMaylR1D7ZBJHLWU1T32VfcP0Abbn96CSJ1pVzYmm8e7mrad0ftsF88DIx8k2HSc2ViIM99+iq/tfLpf9dlrvL+eTkouyAUMwAAMwMDaDGwuAKcF0Uv/od2xx/f+49s9kh3v7KX77Y7duJzETVUcqZ25Xb9CSM0FXjZV2zL1yKbyUex03W7H80ThWOxQlgJQto4EZ2hnyYdpW+mcxAYGYAAGYAAGboWBzQXgX397UeOExiBGnr/6KIwGEeKFnT2XixIn9sodrQsLwGHnr2wzQS5RlduZrnsY2sVc2pHTPT4mpZhTjIbyErVBAMqmXOi99E/ms5fZ/WF3c96H0ieOb6WjYyeswgAMwAAMWAauSADaHb1Tk5QLJeegxE1V0EgsNe4Afny+hJ24ugiU2Kq2FXYAVWZ6908ituvrAjBdVzuqsyYAfZJ1T7Lb3+OPFaPhfgQgn+szu9V2kOD9qeMR5WEGBmDg+hnYTQDmO1PuMacTgEHImV3BJIYUTFcmCRoP2YkCMIidsQ3mcWvxKDU+jh6dX/4SiITW0F7lfu+DxNqEAIyi1dno/E/lB1Gp67Z+nTPxQgCKI14ZoGEABmAABo7LwG4C0O1iDWIkir2X3u20TYmyKARV5vGlfxp++sWItqnPyxVfqIiCzIqlsPsxd60UalO2xvOuXdk7ZVvlfPRVgrh76V/1EznP7+Enb3K/fz2/+G9PG5+iL6GNGPMgCHWdHcDjDgAM/uQeBmAABo7JwBUJwCBogoDJxEl8NJV2vZJISjtw8ztsKcF6dKpvGlv41e74Ua1vW49fh3viDpvdtUvtuDISufHnX4xAs+3GHcbO1qWdzST25Ld8GH0jOdZv733oXz9bvrnc+luGuY+5H1wjHjAAAzAAAzBw7QxsLwCNaIo7ZcMOVf4ZQAkxCZ4hkLo3ihzzu3rum8NhlywTaVE8BhhVh3ksapOkdkficHRfEqNRLIYymc1qP96fxFzufzqf7rcizl0PMYp1+WOJQSuAvR8P/a/iB7J9WT4DaHPOewZqGIABGICBozGwvQAMj0SdyNHumBcr5jFn5bGoE2QSOkngSSAl8agySURZqI1oKx4LK/FTAlD1qm0d6/f+7A6eE2Kj9iXarHiVOBxek23p3uTf8O3dYHNsWz58v/ev+m3CUP9QJsas/Mykj4l8Te3ZWPFeTPAKCzAAAzAAA/fGwOYCUDtT7l/ASaRIANr/xFEXJ04QBTEjQaVjI6ZGAqkQWKPdvXhvEmESekPCY1tOaKYyTujFcpXP+mXCSnVMCkCJPSvWdM59PvL/P/sX/22esyGJ3sxG1R/K+1jYOlMnrsc4Xb832PGH3MIADMAADMCAZ2AfAWh3qbTbp92sIMZmxcmimHLOSTz53TiJwijYJPoqwi0+0lWZ7y//hRPZWLtH1/QTNI/v/eun+d/BVZtzMWkf4XpA5UMh9mTX8Koy/hFyJjr1GcSKSHb1z8Y4a4MBgwEDBmAABmAABu6Jgc0F4D0FD18YDGAABmAABmAABm6RAQQgO138ADIMwAAMwAAMwMDBGEAAHizht7hKwWZW1zAAAzAAAzCwLgMIQAQgqz4YgAEYgAEYgIGDMYAAPFjCWUGtu4IinsQTBmAABmDgFhlAACIAWfXBAAzAAAzAAAwcjAEE4MESfourFGxmdQ0DMAADMAAD6zKAAEQAsuqDARiAARiAARg4GAMIwIMlnBXUuiso4kk8YQAGYAAGbpEBBCACkFUfDMAADMAADMDAwRhAAB4s4be4SsFmVtcwAAMwAAMwsC4DCEAEIKs+GIABGIABGICBgzGAADxYwllBrbuCIp7EEwZgAAZg4BYZQAAiAFn1wQAMwAAMwAAMHIwBBODBEn6LqxRsZnUNAzAAAzAAA+sygABEALLqgwEYgAEYgAEYOBgDCMCDJZwV1LorKOJJPGEABmAABm6RAQQgApBVHwzAAAzAAAzAwMEYQAAeLOG3uErBZlbXMAADMAADMLAuAwhABCCrPhiAARiAARiAgYMxgAA8WMJZQa27giKexBMGYAAGYOAWGUAAIgBZ9cEADMAADMAADByMAQTgwRJ+i6sUbGZ1DQMwAAMwAAPrMoAARACy6oMBGIABGIABGDgYAwjAgyWcFdS6KyjiSTxhAAZgAAZukYErEYB/+tfHru+6rv/19mdmFRLKPX9Vy3w8t9SxB6hf/VPX9d3je//bCc7v9/6XO576U7m/w31ZuYf+9dv5kK49fbb7dHqMUjvR/qsRzca2GKOt45Nir9h2E3wOA8RS7qMfOR8+x97fmO/Pl2mGVE9mi/rZS/9xNTlM8bvFAXRfmw3/ccwgnvvmhPgT/9th4EoE4D/977eHMJnNTE7fX/3HW5j0KgOeJuB5EblHcsJALZslAnQcJ+OinEReKOf9cwJHE3kuEryglACq+9kUo1JYyM7vP/3v8pqERjeTt+hf3abzB4w8XpvFZ8IfxXZWAE7c28b/n/4j9JMR48pLJvjKeIubMlc6X/I0z9L5eSvt4rg5lsqz+t3V9k1y2pzTiTGB+2Ho0gxsLgDTRFdONvPH2YQXBsGnt4WdtGGQvIZJLBcqcQdQg3ccAIpyVQFo42Qmck0MozrzTiSRksUztp+XrdoZ2kn3B5uvRgBuGJ8ibort6QJQMez6lnt9Oyb3f6cFVMpLnstom4SDeX36lABUXymP87ouPShRf0O8a4vIq+qbDT4U/Ye8EzMY2JaBzQVglmANYiuJB01yU5Ng1vZGg49sso97fz2/nPYIOIg6X9dD//T80r9qJ3TY8ZGA0ATuINIkbgXRwvtSPCo/9vxVTTK5YN4sPoqLEVE2v/X3uWCzLNpFUXy8eyKf4mz+fjHhbUn36Lz4KY+3HZRsbHg/EXsxeLV9c8LuE7km/8QRBi7HwG0JwEF8aJIaB0UT2sUEYBA/3amCVfdpsK4N3sPAmAsa+zm/JCqS//LXX0vnfYfRJN71VhTonixGhX0qk9qUcHyIwjPdL/FpBI78iwLJXFt1AlDbss+9pjjkfqTzP41P3BktOIjt2cewMRZTMbA+TJUJrA95Uhl7n/V//H4qV7KXHcDxWHKtk45ydnbfXLX/3U7crjWf2AVDezJwUwLw4/PFf5nCTPI2eBoc04S3MlwSSsXEb20Yv09CbBi0nQiUKJAgjINymNQbzttdIzsZJN9Tu6cKQPkQ27D2hBikdiREJExCzGOsvCCxNqj+9V7HcYu2RxHq7Uh2/yA+yl/BgfjLHuNOlJXv8R7Z6cSji52NeeAj8W9iHeMczs22l8dJbSMAVx4nYn++XL2Rb8tJa9/cwD7xzevlGCC2xPanDOwrAOPkNd61iKLGDnDDwBUm7tH5f3pNaGmST4DEAVMTbeur3c05Y+DM2n1871/DN5WjfzU75NsQH7dzZSbuOMGX35hOgsYLkHRsxVc1RsqD2rVxln261jjJ+HacKDG2u3qN/d3ze/z2dxTHrWVcub3iE30wQuzvxF+zAFTcu4f+V/gWfPf4kH08wObOd3YfT8e4cjkWiyn3VVtCLnX/GgIwce4+nqAvdI0/06g2Lf+xv8Z4TIwHWV80PpaMDvz6vl9rb4hJzKGzcYLDUE+tjmizaSvFQIselyu789xm8/KgXtRzYt9cqn/W35a4tZQxcZuzJ8X0urias5lrad4lFtcdi10FYOzcGsDMoDB3zUNVDIKaBGqv2cSxbUKGwfQ57FzKTw2Q7rgUVO6a7C0FzuBbLjqmO9gJ8VHMZJ/Lg2zUNbVd2iuBZ3fDwr2aJH0u6xOhyqTPLMq/ZP9kmb3iE2MjWwuxofxlcczL2vg6kRcnXcNEFEm2vtBH1D8kEHWcYiWBbESY7A71qc01BKDjcGxDEquTnAab5IcX9eFjC5a1rFyt3sCLYdjbY+MeysR4NjBmxqToQ2aLzb1lXDnVuTabYxu1dnVOeTynb6qOU15H/rbEraVM21h8bVw15eiU+FK2+rNuxLmtf/wkTrsKQE1A2S5F6Azq9FO7G9lEZwbEOJFcSaf6/fY+vQs2TFZ+YvB+hvfaNSgFTpzcVK6yUxLLpAHYxkQxz+IXJlob6yH+2o1ydboyjw/967P/GZ50v2xJE63PnSY+B7Evk+4JtsWJWKDbcg1l9oqP4S2KtGwyruTFCuQomtMurvKS+kLK39CGYjW0nWL7+/Nr+G1J9ZcYY9mo+4xAEw++TVeX2lK95bHyM//qbUgcRFFvbBALZdxkkxeAoY4hv+F98MeVk69lHf5YPhgBbHIT4zOMDw2MDeXEeJ7XaLOxLRuMI58n2Nwwbg3+n9k3M/sm21rwV18wy/Ja9vPW2M4z5ey9Oq4m47bsS1v8qYc4bcPAfgJQE5TETtGp4iBfDjKj+zRZjX9oOQ7QRd3bwxUGVIkz+RCOo6+aqB5f+g/3Y89xAinul4BQfYN/ZZkUFxsHCY1sIhzaMfEb6n/oXz/Dz+zYdkLZdL8mC038Os4nSz85q0zL5NBQZq/4KH+ZqNOOj9lxc3kZlU3xSTGcuFeTn+kDkRV3ztSdPXYNdiWB5weT6WOxIvFUHrcNRosTtew1/siHyKjLqa7b9+FeV863I1tbbEsxHziMPDcw1mKzsW1qbDnd5im/nC/n9s2pOs35Fn+vTQC22GxZsu9N7tbLkYnn7nMPtkz1Sc7/0+8kADXBFJOl6Sy+M46vlwJGx+nbn6buLv8G7I8T7gaOQaRJyLR2rjABaeLRgFUel/8JZWjPTXTF/RcWgEPsnW2lnS4/IQZJvGhyDTGJNhexMQNt3Bkq8pMLlJTHKA7i5+zC5B/b2jY+UxxFFiVgDM+6R2WsT+6azkfxU7k3xc0wEWKo/vLr7ct/rtLZkOWqjJHadHWlWHu+Jd5DnKu2FPmVWM1EcahX8Yj50r2p3RgP90Uv/Wcb+z7jZ+xLiqFsLtoOPgxxVr+TkJnjsMXmWE85Lng7fV9psVlxmX79Ud9syeNJ/ubjq2e4iP9cbFvsuTqupnOjPs4rMboVBnYQgGnQn57sUpkkNMrdlFTGTVqxXJj07EQWJ5TGAWcyebHucqBfAr4Y/CWstOM37ILKHw2gElvuONwfyv96ew/fhtZEbV4rk5uNxez7cK+bZIaYyc5Yp2wy7UUfXvp/K77gEuMe4xbue/73IFLmPnwf4jH3Af04WW0bnyk+2kRcnZWme5UPJ7Lc7uxjN3xe1P17wSQA/5gdMsUwicGYk0y0lOyVx3WbbRzUvufL9Q/VEXJu2EoMmp0sx9G//Gv813aDnYGbjMUoKIr6Y9/Qv5KsX89/wimUmWPMxNbbXdgscWtFfOwT5QK2blMcuxrGp3P75in/+i/PZc3flri1lLlFrpZttv2C98TrmhnYXABqohsNeqVIcIOoFR5ucHRCyH1bUoNu7R5d08Dtvnn7Wf/fwdslphCAxu4yDnHwff5Ku0Kjya2ob5g4ynNpskmT/kRnlD2jeJ/zCHiijWxy0+Qwl5flMmJJgiLFsoyFs6k8t0J8Mp+0o2b4LK7P8RZ9MfyOyitPtkwUhU5omcVD0fZQ/3Bf8tvFzcdM53R/edyS01ssE/y08SziNsrBtVxX3m2fDXyM+kG2K7tGnlri1lJmDVuo42oZvZa+gh2TX7LZXAACKwNWfJQ5O/EygdBXLt1XYOw8xlri1lLm0vml/vPyS9yOEjcEIKuDydXBRTqBdi4mH5PZR/3mUfOsWGTAukiu7rlvtHB4z/6f61tL3FrKnNs+9207XhPvu443AhDA7xpwhBHiGAZgAAZgAAbGDCAAEYAIQBiAARjYlIH4mVf7JKD2np3/TfOCSBqLpHuOCQKQgZ8BBgZgAAZgAAZg4GAMIAAPlvB7Xs3g27FWr+SbfMMADMDA+QwgABGArPpgAAZgAAZgAAYOxgAC8GAJZ7V0/mqJ2BE7GIABGICBe2EAAYgAZNUHAzAAAzAAAzBwMAYQgAdL+L2sXPCDVTgMwAAMwAAMnM8AAhAByKoPBmAABmAABmDgYAwgAA+WcFZL56+WiB2xgwEYgAEYuBcGEIAIQFZ9MAADMAADMAADB2MAAXiwhN/LygU/WIXDAAzAAAzAwPkMIAARgKz6YAAGYAAGYAAGDsYAAvBgCWe1dP5qidgROxiAARiAgXthAAGIAGTVBwMwAAMwAAMwcDAGEIAHS/i9rFzwg1U4DMAADMAADJzPAAIQAciqDwZgAAZgAAZg4GAMIAAPlnBWS+evlogdsYMBGIABGLgXBhCACEBWfTAAAzAAAzAAAwdjAAF4sITfy8oFP1iFwwAMwAAMwMD5DCAAEYCs+mAABmAABmAABg7GAALwYAlntXT+aonYETsYgAEYgIF7YQABiABk1QcDMAADMAADMHAwBq5EAP7pXx+7vuu6/tfbnxkIQ7nnr2qZj+eWOnZYvXy/97+6ru8yu5PPT5+XtCm10z2+978N4L/fHoaYj9v/6p+cvdnfQ//67exM18b3TfvRlBvFKWu3tKM8ll03yobJx72sKvFjuh8QG2IDAzBwLQxciQD8p5cY6bqX/mNqUvz+6j/eXrwwKcSMC+iSyEhtlCKifjwvRk+AWMLGCsDP4MdI7EjQnFB/JV65r/U6VWYs5ILICzH2cXV1GDF5ot1LuRk6hOJUye24w8iW4NsP2RjX/7P4Ux/xgwEYgAEYuGYGNheAEh357lJdgNkymRgL4unpLeysjcSIra8ufrZKioRP9GUQgbnAGmyJgnBGAFeE3pIfSbyNO6Jy0SYAbUyNjbJ7QbQpDlkeS38kAJVPK5jLslPHN8TGUu64PmaWmBATGIABGFiHgc0FYJa4OOEbQTE1sTecbxIZDfVkNq5RXn4+f/W/v7/i4+4kvM57rNpiZykAFaMoSCW2wqsXaLlAVR1Pzy/9q3ZgrZDtrMjWzpwVjAvvC/EoYTplYzpv253vEPJ7VoCukWvqqH48o4VVyswzTHyIDwzAwJoM3JYAHHZ3pif9i0/y2u2ae0xdEwBGAP71+d7/Cp93TEKmFEg/F8SKRd7GS/80fE7Sx1BCaxCiwbdMAGbiMMU9rzud92AmAZgE7sTjecWzEICq396/CP3ebNTyzjnEIAzAAAzAwJUycFMC8OPzJXw5oRQdflUg4XCxXR4Jlp8IwPhZxeBDJrwknn4uAHMxluLlY+SPpwWgVln5TqCrU/fkwtJ+eUc+dL0VcNXcKJ6ZANT9yeZF8ediujcbV9rBW2JHGfHOKyzAAAwch4F9BaAEQLbTVOyGZeLAJSYIhNH5iV2ma5iYtQPo/Hz+Cl9WWRaAU2KrFF+jY312LrabxFSTABzy4u4xAjDWZcWeyUfwLeanO1cApsfhI79qnGQc3CAb18AnNrBDAQMwAAOHY2BXARgFTjaJe/U9d82vULRTVAjGmkiQINoc8NJGL8SsCPvrgjuAMYYhJm5n1Lat66NHwKUAHO5v3ZUsfW7ITyX/i6tQLR6q955gw25sHGeVuZjLzfslsScnMAADMLCrANRjwfz38XxSJE7K367TDlP2mNfsTtnHjlcDuOx7fo9fAFnc3aoKm1OAtTtpD/2r++xhTRwX54a4lgIw2mLrLIRdLJPEl82Fcp3lbVbELfhavde3nbWh2Bc7klfDBuLncKtu2Fvo2/QJ+gQMbMLAfgIwTszp8aQdGKMALHdoRvclwRHFYihjBYite/P3srn0xfyocpd9k/bnA6SP30P4wkmK8Vk7gFHcmUfCsYOW51I+bPxbBKDKNIljCUAbU8U5xjLZcrVsxDj+POebc43tmwzS5JW+AQMwcAkGdhKAZmK2E7iZUKYEoESCdnl0nASUqXvtXR+Jjh9+CUSJlO1Pn6WI+jnsQ93l5w1NfJ0NirEVaoNtg5/FZwCHe2t2ludS/G298lV5S+10fRRnhX2KU/VVuTD8lG3oeBM2TrGdsggnGIABGICBnRnYQQAmgVB79Osn+1QmEwxxh8d9Hi2VcTtGsZyEgXm06YSIxM7i7pK5L6vXJSrW3fp5uCDkZHcUK0E0ZQJV506sewqgz/9/3PytL8akHUArphQTK9SG66UADDH59fZe+Rdx4VFw3CXM89IU73hvu/CVuIt5V4wHcZ7bEMvE/KXH1yPfp+LJeQZrGIABGICBO2JgcwE4mrgVzMrkPNoZct9Kdb+hJyFVu0fXtMP1+N6/ftb/d7AVQ5d6L3+dEHJiQ8dRlMj/8Lp0/VQ7fX2nCUDZIPGWbC13+5xgK88l8bUorpS/BgEosSqbhleT679ukI1Tc0n59gUCsSJWMAADMDDPwOYCkITMJ4T4EB8YgAEYgAEYgIFLM4AALHbgLh1w6qdTwwAMwAAMwAAM7M0AAhAByGc6YAAGYAAGYAAGDsYAAvBgCd97xUH7rHphAAZgAAZgYH8GEIAIQFZ9MAADMAADMAADB2MAAXiwhLPq2n/VRQ7IAQzAAAzAwN4MIAARgKz6YAAGYAAGYAAGDsYAAvBgCd97xUH7rHphAAZgAAZgYH8GEIAIQFZ9MAADMAADMAADB2MAAXiwhLPq2n/VRQ7IAQzAAAzAwN4MIAARgKz6YAAGYAAGYAAGDsYAAvBgCd97xUH7rHphAAZgAAZgYH8GEIAIQFZ9MAADMAADMAADB2MAAXiwhLPq2n/VRQ7IAQzAAAzAwN4MIAARgKz6YAAGYAAGYAAGDsYAAvBgCd97xUH7rHphAAZgAAZgYH8GEIAIQFZ9MAADMAADMAADB2MAAXiwhLPq2n/VRQ7IAQzAAAzAwN4MIAARgKz6YAAGYAAGYAAGDsYAAvBgCd97xUH7rHphAAZgAAZgYH8GEIAIQFZ9MAADMAADMAADB2MAAXiwhLPq2n/VRQ7IAQzAAAzAwN4MIAARgKz6YAAGYAAGYAAGDsYAAvBgCd97xUH7rHphAAZgAAZgYH8GEIAIQFZ9MAADMAADMAADB2MAAXiwhLPq2n/VRQ7IAQzAAAzAwN4MIAARgKz6YAAGYAAGYAAGDsYAAvDCCf947vqnz/mVTkuZvVcKa7f/++2h756/GHAm+CM+831GPB6x78j3ltdri89V2PP93v/qXvqPib7XEtdzylyF7yf6jM1t49A5PFzDPdsLwM+Xvuu6/tfbn/uf/N1A8/je/57rdK1luu62BNMwyE7bjMCZH1iIz3x8hsGzpe+UfW+t8Wetekr71jyejM9X/+TGk/C3tECdnaiGODz0r98Xytea8VBdw9i0sQAsc3HT/DTkWrGefLUMrpiLMs6T7a/hw+3Xsb0AdAn5fGkTgC3lWsrsBEHL6qmlTJzsbm3HzHXGW7N5J1ZmJ9lL2XTFfaclHs19p4zfWn6vVU9p30rH1fgM4scKNjcR2+PGSS0ImO7xvX99bru/ao/z9crj2MLiUpmq761+t5RrKXMiV1WbT6xjKS5//f2nf31cTwBuY3NjH1k9Vuu3iwC8VJJaViItZWTfLYqpW7RZ8T7C6wUmjeUBf6VB7JS+U+ZyLb/Xqqe0b43jE+Ljdpt/sgv40SIA5+y55jheMhetfreUaylzii9z+TqlnsWyKwrAzWxeaQxbjM3l29lVADq1rscQ+efB7PawKZOtVJfLqP6nTweZqafyWHZ45GYfi7y990+Vx9Qqt/QIu2UlMldGtvv4vPQfDu5yN02rcNldXneAuft03b0+v49WXPJJuXia8H1pcl+yOb/u8lHZOSjtLcvo+rDzYHJa8d225/Kl42yym4lhKr/AT6zDrWTzsq1tudiqPeWhGp+ifle2yqLipNxneV/uO0u5zq7PthUGsRijkDPlS/c+vvRPoY9m/VXlisHSxSqLbbxe9y2LUZgss3hPtJP5GdtIPlmuhryV9cg/5eEHPJ/ST6fjU04qLl6Vflj6OnPcIgDr9tRzVeV+ih/TbzJuXLxH47xtb2bXqcxZ1nd8/FbJxSKH1on9gA8AAAdVSURBVF4z1mX5Wi4jzpfjk9io5ivkIPWl1HbWF2OuFsbDgal5AbhKnGfYne3fB7hvNwFYTlxTwCXYEpxZ0hZWPgJoBKgdHFyHzwZuP4nX2lZ9tWvRLlefrb8G0kwZF4usfg1IxsbBjqKN4Zwp4x6tdMWHnb39ZvA7wffoX8WfFpvL+3+/vVQ+O/TVf2RfmnGDjLF3aNsPPDZGJT+lPe64nFhaYujjVYgNF9ci9v5Rhh+kM9ZCrFraaolP6ae7p/S1Ke/OroW+U9pTPW5gbNl3n08fN/t+YnKY6Tt//f3VP5V9oMxVmKCW+ElC3Ey+tq6Gepw9a/A8LOSsX2EhYH2I+ZmNTxhHg+1ln4h1VPr41LVFAbhkzwKHy/z807f3U+f/BFehT6w6Zs753sRPYz9tiWHXMo6FTQPLuWWh0o6L/XjM83Oo60Pja3Yun8mFi92azFs/eD98B2M3AVgOXFWIKrCNBqGFMq7esi1XRyk+vECYGOhPhKU2SZd2T5cpJjC1nXWGP/3rc/3LJXYwtu/L9u3xz31vsdl2ev++zIG3yQuAfPKtCMBigMr5+eqfiut+0Lc7HW0xbOVndlJxE05DvmxO3PtxfGqxCcwaf1vzvoYAXG6rxXebLzsh2PeJn+m+k8r4+D1UhHp9Qs35yesp8xKPK2PPuJ5azk7l2dvT2k9b4+P9cPbZftHou8alYQEyf/+iPZU4xhg39p32fur8q3Pl2lzmecVcVPwe81PnNcUn5KtSly1zSnxm81Vpp2rzTIytXXO58Pkwc3J1VzflY15ohjgZbnM7jnn9EAKwBkYd2gSBu54/lk7XZsGZW/EJvtkyLWKqZVJtH8xKf073vcXmcfzGAscNzOVkUhusrWDw9eb5HF/3g4mtuy2Geb3Jh/H5mp0q39bWOA/lDmndr/K+1knsJgXgbN9RvMPj9Gz3IF2r+T3Opymvflu+Lk6Ga/Fct8XZPBqjGuOTMePumYpV6XPleJa3FnsqcUz2tfWdqfzVz0/31VlfKr7LzrNyUfG7am+lnNqNrwtlqvUOi8xi924pX5V26nVPxzjaPMSztZzvA2fFeSZvuS31fnbPZW5LAA5b5sXquQSyKDMAU3uEaHZMXJnRLmFZb4DI11c8ojWAues1wWkhWiozHoRcJ8l/UqVaRzmQu1gYP70N+Yrf1XOq76NJp7pyHttsY+DejwWgsy3Pr7OvfCQzPOYr/CrjMVrFDlxYAegfG41yVcSwtf2llWxp3xCLoq3l+HibR/kqB+2GvA9tlYwXfUf2+Bjk/OmaE1MtjM3H2QpbOyHY92kCGNVl+p+zy+U+i1EZ59Lv2kRY1Bn9tecX61mPZ5eDzCdnx2L74wltyGUm9nw/HdUdYjLsxGflx3WOx6tUpsq9jWHNj4LDah1FTge/irGjNk74PI65ivlt5HkUrzNy0Zy/su4iPoPtC2Va41ONtc1XbaypPuadibGtb2an0NmySpyz9hKbMecHvr69ABzgDdu6YWDxcPpzecL94BQfBxaTfurMZpu4KDMA/VZ8EaJ45GHbn2/LT8CuTG6noLITmc6Vr41l4ofGvW/uixnDlzmif0VshvK5eNLAEH0ayoxFUH699uFp70OMU3VCcJOdyYMbFEY257EYC0A/qWX2DB/AdvUGu90AFNvx/ka7srwU8an+XEVRphLDZX5qdRh74+BSK1fJVyxfE8g+fk7gZDEaTXyVOCp+pn4vWk1dka0yT06ETwhAV5/t00MMc8ZG7dg4j/KpOLnY6L3qa+g7I1uCf2LWXl8cf/I4ZBNGaz223BBD9yUsw8fI/zTGuJhrnLGMx9yP8tUQHyvshjykNjL/bDnFzrKT2W0Yysq22TPiY+SXODDtFMwv99OwKxx8jjF0x2V7Zc6KvrNKLmwbixwW/pf2DnmZL9MSn2nBnPeDbPx5fO8/hkW6OCrsiPFWH54aw0JujW+rxNkyy/vRby9vLwA3TsIAfvalghzmctD7yXFLWy1lfmLDLd1bFYAX5GNup2Iqbnvma+v4TMXgWs7vmYtricGcHdcWny3t2bKtuRzo2i3ac202K5Zzr7do85w/W1/bXABmK6+4OrAru3XeK5AlIFu1Tzt5HpWP9OpWin5VeIlYpXYk+NPjuJb2dP9W/Ki99HrZ+LTEgDI5w8Tj+uKh/lL2U3eefHVxx+eo8fn9Pwf4j2M/2DTZXACqw27xmm1VF9v4W7RPGxJf9W3/pc9y/TR+P83/T+8/1f68vaWfT8hje2pblCd+98JA3m/yR4334uNP/CA+9PUpfu5aAE45zXk6BAzAAAzAAAzAwJEZQAD+YPv0yODgOwMnDMAADMAADNwuAwhABGD8nAgd+XY7MrkjdzAAAzAAA6cwgABEACIAYQAGYAAGYAAGDsYAAvBgCT9ldUBZVpMwAAMwAAMwcJ8MIAARgKz6YAAGYAAGYAAGDsYAAvBgCWcld58rOfJKXmEABmAABk5hAAGIAGTVBwMwAAMwAAMwcDAG/g/yPq4h6zE8GwAAAABJRU5ErkJggg==;" vertex="1" parent="1">
          <mxGeometry x="187" y="450" width="640" height="160" as="geometry" />
        </mxCell>
        <mxCell id="wiwpykqce4NtUT54EgSS-4" value="" style="shape=image;verticalLabelPosition=bottom;labelBackgroundColor=default;verticalAlign=top;aspect=fixed;imageAspect=0;image=data:image/png,iVBORw0KGgoAAAANSUhEUgAAA08AAADLCAYAAAC296hJAAAgAElEQVR4Ae29zY59W3LcdzVvcUSNSYkkCKI5UQ8oAQI45lPyAfwq5Et4pIkBA4bnfyPb/rmjU5FrrX2+6tSpGBxkZkRk5Np7Z33suvd2//YffvsPv9zn97///a/f/e53+eQeZAeyA9mB7EB2IDuQHcgOZAeyAz9+B379+vXrN/fiVFhenvLimJfn7EB2IDuQHcgOZAeyA9mB7EB24P/dgbw85S8IP/4vCPlmkB8I2YHsQHYgO5AdyA5kB7IDJzuQl6e8POXlKTuQHcgOZAeyA9mB7EB2IDuQHTjYgbw8Hdykk7fQaPLXiuxAdiA7kB3IDmQHsgPZgezAZ+9AXp7y8pS/MmQHsgPZgexAdiA7kB3IDmQHsgMHO5CXp4OblL8gfPZfEPJ883yzA9mB7EB2IDuQHcgOZAdOdiAvT3l5yl8ZsgPZgexAdiA7kB3IDmQHsgPZgYMdyMvTwU06eQuNJn+tyA5kB7ID2YHsQHYgO5AdyA589g7k5SkvT/krQ3YgO5AdyA5kB7ID2YHsQHYgO3CwA3l5OrhJ+QvCZ/8FIc83zzc7kB3IDmQHsgPZgexAduBkBy69PP37v//7L/2cDIgmi/jsHdCdrPzWedqr+a1+6cvuf6cd0J3X/DtdQ86ar7nsQHYgO5AdePYOXH55evaB8P/qH95fPZ/7kHjtm8Ctz037NH/X+//sMz7b/9n3Nee//evmu9+7Z+9W/K/tVu5X7ld2IDvwaTvw0Jen+qE7/eCFI65upPOgT+PKw3HO91SncycfNJMn/NRP345H5+Kql/mub4fRS1zpV2dY9RW3672Xn+arr+boC9PPhKPZ8W4GPbt4T+/Ou/hn+5+c4R7NlfOXlg8zqXeRezXpVjyzXCw/h+M3cSf45K245ieenKv6+Li+FacervcUm87ObOLKr3vQ0+Pk0fsnXfD8QpkdyA5kB77nDjzs5Ul/YGhei9HrCWOJnP6EQ9Nj+fHpnKv7/F5XT8e01txpJwy89xe++1QPH6dVT82dtmNO77DqK3ziuq/W9E29Ox6vqR/eRe3RHG3HdnX1oSEq1nPmnEb1PO25onu2/5Wz3KK9en6nByPWOVzusEmr16J9ivdeuNLzAbsS6XVzFdP81N/1dExrzZmhmObwu1g9fLrW+Tms+pzHpO1zpn6nC7b/mZZ7lHuUHcgOvOsOPOTlyf1wUUxzboTD7uXon+JqpvZ0Xa9Lq5jm+CimuePB8HV61axy1+uwlUfnXL/Dqq/wieu+rt713su7mTusz1zVnVPvFae6Xf4on2nOs/2nuY/Cr57f6U8xPbPrKd7hDsPrVo7+VVx5r/pWnPNUTHN8FNPc8WAn8dTL6cq/8M71enUO17/Sh8svh9mB7EB24PvtwNu9PO1+UO341RKe9DrNDruX58z4EMGvRNfrMOdZuiva7kEv0fETh/bZPHNO4+485aMazfuMFde1U/0Ij8m78Gf7r2Y/grvl/K7nFNMzu57pnl7RnsxQzSqf5q56dpzzVExzvBTT3PFgJ9F5uT6nAyPS12vwHtERO5/6+/2ClGeWZ5YdyA64HXjJy1MN1h8omvdDrbjuQ917qu4Y2j6v166va7qX63GY+nRea8215yR3vWAV+TivFad6/CbM8aU98Z96mXUvj89p3M3T69pd34nX7lzdw81UbMqnOVf98WGORriKiusMxbtu1a8eXaf1Se68TjH1dz3FO9xhk/ZkhmpW+TR31XMLp3M0x0sxzR0PdhKdV+9zGsU0r96q9dP90ID3fvDE/BKWHcgOZAc+Ywde9vJUC8MPoGl5Tn7oOM09mJ7F+ShP3nW9Lp3Dpv6uX/XiMUXXW1jHez35Ke584NVPc/jTuOu9lz89B7rdvNKpRnM8iCsOzSpO/Q5XrPJeuzmqUd7himlOn2KaO76w0qhuyqd+POCvRGb32D30TJ2reuK770rnfBWbelWzyu/tX3nD9Rm9Lp1imk8e4LvovOgpbuIV17x6d3XXdD3zEz/jl6Y8xzzH7EB24GUvT/oDRXNdwgnfaVzfKbbzVr7yU1+nO+2fevtZXO16TzHn57Dut6udx4R1r667l+9+u7rPq5oPvarRHJ644tCs4tTvcMU0x/8UK/1O63jmnPRPGjx2/ld16InO/xTDo6LrWeHae6qbZnSvqb63f/IFd/47bMfjfRKdV+/rml3d+6vWHs0753qD5Rev7EB2IDvwvXfgJS9P/YdLLc0p1hfstO9Up/6u54R3facY96L07qPzT/LTuU534o9G+925wdCfRvV1PffyznOFuXkd6/Xkd6q72u98FdMc71Os9Cfa0uiHOfQrR941WvecHmLnqy7O4TvM9Z1i6u16rpxr6j+ZoZpVfjJj1b/iJm+HK6Y5/g6DW8XTPtVVPn2mWff2T77Bv/cvVHl+eX7ZgZ+xA2/z8qQ/jFbL53T3YMxyHnAVV7zjOtZr9e75Fe1Jr/NzWPeidlqHrfRwu7jyrd57+d18x/eZu3o6Z+9zsyZs1es4xTTHv2O9RlfRcQ6benbaaYb69bx79rrrV7XrPcXU1/UUP+Envao59eo9Wp+cRfWn+crXcYppzjyHwa2i6zvF8O36XpfOYVM/eOLP+KUqzznPOTvw+TvwkJenWhT9YaJ551iqEw1ajb3P+ZfmRLfzhT/xUo3m7nwTtpoHt4t9NvqO97p0hU04PkSn23GTP30VV76P4HXWad7PtKunc/a+0/mTH/3dt2rFXE0vUfVgxM5d9ev95duxXjPbaR226lcvl7veU0z9XI87q/aQT73wRKcrzOH0aDzVac8ud54d01pzvBXTHP40ut5TjBldv6vpI3Y9eOLn/0KVZ5xnnB34GTvwsJenWpj6oTH94IAj6oJNPaohn7T4wlPrucDQ7DyV115yeOIOhyfSRwTXCLeL2kPee8Ardq5q+BV3RdPnPKIXj+7NmScc/tY4zVVc8z5nxXVtr6u3Y73u/tSlo18x7YdXrOf0oqXGn5q46sfj1l7tx6PPO605r3qeYjrD9XA2ONVrrrMV1xwPjfBg1C6i0eh0t2DqqXn3gus49Y5H5yK9GlWneOXKkXeN6pRD36NqyLsm9c/4xSrPOc85O/DZO3D55YkfChUftRwrr871+hFneIbnI84Vj7Mvvnp++vm0+3bvfu76d/y738+c/+zr5N2fY86X55gdyA5kB7ID32EHLr08fcUF1S9G+vmKM2Rmvpi/6w7kaye7+113N+fO7mYHsgPZgezAO+7A2788veNNy5nyxZwdyA5kB7ID2YHsQHYgO5Ad+Hk7kJen3/28h15f6N/9X3V69jcr/okN9+on3y+9F8++7/H/md+P8tzz3L/rDuT743N396vv71fPf/bXxadf37PuX16efuDLU32xPGuhPsHX3R+HfcK1nl7DT7/+0/sU3XN/kcr9zf19xx24+v3xqv7qNT/b/+p5rur7+Xt91e9e/VfPv/f8u/5Pv77d9d/Cb1+e6qbyYQD1K2+4ziTnPI+Ij/Bc3Y9H+D/qOh/h88ke7jk67JPvQb+2V1//q+f1602dX9JfsQO15+7zitnfYYa7N+57g+rcdSlPXjpyF53PhFX/xHX8irb3ntTP9j85wz0ad36HMWPFobk3vmLGvWe8p/9Z11e+3Rus4/ec/yt6ty9PdSh3kQ571gW4WQ67Z3753epJ76ofzT1nfETv6oyP8P8Ej36Pev0J13jlGl59/a+ed+Ve7LR19u98/t31df6nXW+//kfUbl8c9ohZ39HD3QvFNK/r29WqUe2U7+6Z9u20OvtEe4vm6nlumfHMnn7+XrvZJxrXd4Jd8S7tFf3J/Gdrnn1ed0+ePfPZ96z88/L0wH9t790X4qvP9+z5j/J/lM8rvoAfOeMdrvsrz3DvbO3X/JHP6B29ftK1ru7/rffB9TlsNfsduGed2fmCEfv1K645ulMM/SOjm/2d/B95Vud16/25tc+d4RZM52t+i9czer7qTDW3z+71M6732Z7f9uXp2TfmFv93X4ivPt+z50/+hbvP9Iwnn0n/Kfi91809vvV+3Dv/1rn03Tv/3n7O8d3iT73u/pxuvQ+uz2F93rvVuzMXv9O4a3I9YMTep7jmXaf1qU57rubPnvFs/6vXe1V/7/nv7b96XtV/5Ww9x5Tfe77qv8WDHmKdT/PpvO+OP+zlqW5G/+jFT5zi3FSw3q91z+khwlNXLKzXE0Y/0fXBEZlBTdz1Kq85/RUVrxxO8a5DQ9Q+MI3da+LUh57SkivfcTTq7TTK04MvNRpqjXC3ROac9PaZvcZD8ckfTfWgUax7UaNHS++KV432kWvvaX5vr5uDZ8Xie02P4mjheh9aeGqNcCdR+8jpo65YWK8nncO1F79J1/Gq6e+51qrpuKvBKpJ3DzgX0VZc9asObfdDgw+x61WHBxgRnAiu8YRDs4rqSd714MTOV61c5R2jR3Udc5z6wOO/4/BXnWInuc5CD0YEJ3a81+g0nmhUf0veZ1S9wpTXfJq98qLH+YBpRF9R8crhFO86NB2nR3ly9Qa7Gh/hcWUm16Ox9yun51O8ela1curh+nR+7+u9ql3l+Kw0jmMesTSaU+OvHFjX9DnoiJ1/Rv2Qlye9WA6pmOaOL6xf9NQz4fgSu+7Un36Nzkt58q4DJ058x3d1+TmNYprv5k9+qz71r1xr5zdhE77y69zqnHCncfLe9Vef9k45PsoXpnXlvaaP+EjeeYK9Iuq1TPNW98T1K6Y5/qcY+pPoPOkrTvkpL71yvVaOnMgs7emc1uRE1w9WGtWd5PSexFN/vHR+YVqvvFy/9t7Cux6wk6jzNaf3BFNN5b3Gi/hI3nmCPSJyPRrx1esAq+hw+lWnuetR/t588ne4YpX32p1FNco7XDHN6VNMc8cXVhrVTfnUjwf8vVHn3+t12j/NdHjHqlbsSq7aOmuvOf+Ewz8r6lxy4nTezmvdezrX+Wdd19NenvTAJxfnNOqhedf2urQd67X6kZ9qJt2EX/VHT3S+Hes1vRonzYTT63jFND/tQVfxSr/T4jVxhbsPfT1OPl2n9arHcYppjqdimj+Kx0ejm6P8M/Pd7BXvOMU0X13DqW7yWPWvOPUrXddq7XLF8FLM5Q6jt6Lyrnba3qOaXb7qdZximjNHMc0fxeOj0c1Rfsq1T3P0O+wreM6m0Z1D+Vvzle/ETXidYeIm/NZz977J3+GKaY7nKTZdr/Zrjr9Gx3es17t+5clXHmhO4qN8TmapZprr8I71evJVneboC3N48RNO77OiziUnTud6JP+s63rIyxM3oC6Yjx4YrMeu0XqXlxea7ksNX1H1imu+0qjnpJtwZtzKM7tHfCvuvFeaXa/jFdOcM51inKv0/YMXEZ66Rzeza07qW3xWPZy7R87iehXT3PV0X2q0FcGIypEXR/4VcTV/x3FdGvUaFJ+8Jlx9Vvmqf8WVZ/FoiMzS2uWFuU/vR8O8zlN33tVdq97KnebVP2nx7hG961VMc9fTfanRVgQjKkdeHPmV2PtczVyNzOj6whXT3PWop+Zo8Zs4dG4O3D1x5TtxE845HO8w9I+Ik7/DFdOcc5xipT/RlkY/zKFfOfKu0brn9BA7X3VxDr+CPcLjyjzVTrMd3rFeT76q6zk1UT0qn/Cue3Stc8mJ07mu8qXvn0dfR/d72MtTN95d/Ep/wj3Sn3nqCVax471GO+H38jtfd0Zm9ui8HKZ9jldMc/pOsdI7LT4aS7fSrjj12eW3+Kx6VlydxfGKac7ZFdMcfhddj8N2Po/mpzNMeM1fcdP5XI/Dpn6Hr/qvcF2rtcsVW50LHRFtrwvvWK/p7dqVTnt6vupbcX0+vtqj+SmPboo7z6nP4d1rV3ePri9eMc3pVUxz+F10PQ7b+ZzwK9+JU1xz5p1i6O+Nbh6ejlNM86nHaSZt4St953farmfuKnbPXq96J+4RHpP3CT7Nd3jHeq3zlHO5YtXXa7wmHP5Zsc+tWjHNOYNimp/y6J4ZH/LydMvF9Z5e60U7TjHN6etYr9FpnDSKV671ST+aqa/4zmmt+eTlNGg1TrqOa605Xopp7niHaY/mTluYajRHf6pR/ZRP/pO+z+4659cxrSvvtXru+H4e9cJnhzme3in2c026He5mOwwfxymm+T099E7RzUF7ypWua7V2uWLTPNVoXvpeO8xpTmbhtepHg1+PrrdjWlfea/Xc8f086oXPDlO+z8ODqFqH7fjqUU2fpxxaxTS/dT6+rl8xNwt+iruezu/qmtM1Ezad6Sru5uHRuaoVczW9RNWDETt31a/3l2/Hes1sp3XYql+9pnzVX9yKnzyv4tMMh3es1zpbOZd3TOsTH9Ws8vKdvHd9yncf56mY5vgopvnEOw3aW+PRy1OZ13D96EDFyZVf9aPXuOst7U4Dr77kcERwjXBEuKo11xq8In238jsP/HUmOdwUuzc6+h2vnPKKX/FBS1Qf9S8eTvOu6T7Ut8TJ23lxNo0nupWmuH6G7k+NDzURHC9wovKa73jV9vyeXudVGJ4au9bpVKO95MprvuNVS06PxhMOTUV6p7z4iVNcfQrnQz9acCJ9xAlXH7y0h1x1YHhqhNOoPLnylYNrRFNY18CBU9NPTQTHC5yovOaOdxg9cBXBKoKDURPBNSpXuePAVVs6auLU63inVYx814tOIz0VFe/5Sqcc+ZX+rr1a785efpwLLTUcEV7P4DDltRdt96cmrvrx6L6nvdqPR593pe5+rvdE4/pOMK5bY+9TTs/SceXKQ3mtT/PpHB0/qTnLiRYNPe660FRUnWoVR7/DtF97yB8Vj1+eHjUwPn/6heYr74VbsK88z7vN5gv0q86V5/MeXydf9fwz977n/9O/fn769b/T18+9z2LXv+Pf6V64s7zi/K+Y4a4t2H3fxx91/57x/PPyJH+dfdSDis97fMF81+dQX+h8vus1fMq5eQ5T/JTr/KTr0Gf1Sdd1ei0//fpP79N30OVZ3v+7RN3D7/Csc8b7n7W7h896/nl5ystTvrFkB7ID2YHsQHYgO5AdyA5kB7IDBztw9PLEXz/cW907YO9+vne4RznDc/6qkfua+5od+Lk7kJ89P/fZv/PXve6l5u985pztM7+WXrV/zCGyT70GvzcevTzVkDrAvcOe2f/u53vmtcf7M7/p5LnmuWYHvscO5OfP93hOP+Hrye2iw37Cvcg1vsfX5Sv2bzVjxd26Iy97earDP+MCuPBnejNDI/O4LurSOEx7n5XrGZ41Y+X7jPl6LzVfneMZHLOf4V2ez/a/99zvej7OVZFrdBjcV0Y9I+fQs2oOX1FxcnjqiicYmu8aud5Xnl/v7TT3RDP1fiLe7wfPreNffe16LnJ3phXn9F+JuXvssK8849XZr7j/3/0eXb2nr9S/4t6uZqy4ug/F7zT9fh29PF017UNuPZzzcdgjzud8J6zP63X1OWzyexT+jJnleep7qttdb5/pfB22872H72e6x8v1PtvfzbyCvfP53C447Mr1PkM7ncnhp1id80RbGqd7xnVe8bx6rqv6K2dZaXf3bsevvK9yX3UPTs/Z78WuPvV9lu7kfO9+z/XenFyP6l+Z33ofr/TttJ2nrvjKe/EOs7j2Z57lVfd1mjPhes233Iejlycd8tNz9yBOsWffu1sWQM/krqP4CddedKfa3ttr9dEcncPgEt/jH9W/6jm4XXDYq84zzakzuXPdg9Ws0/7pXF+Nu/N/xZl251jxK+4Z13LLvFt6rp69z+g1fhMO/8rozuKwe8/0DE93plfNcbNXmJ5L81XPrdzO3/EOu3X+V/Tdev5b+77iGlczX30dP+rlqW7uPTd46nW4w1YP/l6OecRb/KbeCdcZaIjK3ZKrj+Z4OQwuMS9P77YfnIeoO3oPVj69v9c66x3zdznvyTkmzYQ/637fMu+WHvarevunX5vzdxievf+randGh917vp1n8TvNyRke4XEy56rmlefazXK8w65e41fqbz3/rX2PvtY6xz1nuaf3lmu5++WJC+bgva5DOawfVjV4ae8q715TzYyJX+F6pq5zXMeYrVF9FNdexUvfazzoISq+w9STnH5mEh0Pp7FyaubTS41GdU4z6Vf9cN1vVSunMxXHt0fVkKsGTCO8w+CIqqm841WrBn4Xe0+vT321r3LmgqtPz7VGrx54TdFpO6a+5OoHRoSjrlhYr50ODRx9Gh13C0YP53MzOI9q6COqRnXg+MIpjscqoieq9tSTXvTdY8WXduIVJ1fvnpfmBOuae2rOpVH9Jrw0ypFrb9d07qQuX6fb4e48K6xz1BXddXR+0vSz4+f0XUvtZvV+NPRoXHGq2+V69p1Weea7fuXIq5ecnl53DTxzqV10GrAeV/2l3fFoui917+84/aXrudbwvR9c56Dp/WjhtYccjghOBK9YGDW8YmgcB9Y1+F2J6nWlD20/M/guMvdq/90vT3WwPrTXHP4KjpboPDqH5tFxN8fximnO2RTT3PGFlUZ1msOveuGIvb97oAPv+lXtOIcxo3PMVL40+oHrWvDuSa/jVTvl05wJX/mc9HDOE22/tqlHPTXXs656uw4Ph4MRnRaOiGZ1BtWQ7/rv5TmP+kz5dKaVvrj+wUejeiheuXKaq+4KjpaIj9aaw7vodIpV3mvnA6bawnrtsK7ptethnov39jvPCdvN6nyv8T3FJx0+Pa70E6e45ngrprnjCyuN6qbc9avW8Sts4k496X9UdHNPvHuf1prj1bGqFdN86nG49mle2l67foe5vlNsmks/cTV3pdE+1U256smJ2gNW0eGKTTkeyjus+K7pNX3PjPfOvNr/9i9PdbP1osiJz3wY6r2a5zjFNFdPcsd3rNf0EovXD3hF13uKnfbr7O7d6+55C3/1+twMPJSb8n5melc4GvUEc3HSOVwxzfF1GFyPXdtr9Fdw1brcYcy5GtWLXsU0h9fo+I71etevfOXVrx/lV96nOjyI2kc+cQ5XzOWK4T9Fp1VMczwcNnFOq5jmeLh4j+60183dYc7bYeVT+Io7mdX78exRvXoP3AnuNIppPvk6DdqKymveOXq6ZtKtcLyIzhPukfHqnJ1+x9fZ79Fo75SvZmgP91ExzR2/wqa56ulyxfDHy3EOo89xpxgz8SJqPzkRDdHhimm+6oF7VnTnuDLrav9DXp7qgAwmukNPXOHugwd9aHQemldEztFnObxjnJ2oHmA9do3Wmlfflbq0vWfCJlz7NXf6znfNLXx58Kl+94Hv8xTvnJ5F865zHnqGq/zKv5+ja3d8P4ur8SCuNJ2rHvdBhyeawsFUA985NFN0+o6p945Dq/N6j3KV00NUvvfuau3VvPc57kSjfZVXj/ugwxMNPfC7SL/qFNMcjcMmrrTuM+nBe1zNRDtpJpy+e6Lz7ljVYMQ+c8JLd9Lf/Xrt/B3GPPqdRrHK3Yf+7qc4efcDn3pVj9ZhUz89Gqd+1TwivzrnRF8a/fRznnr0vqq1d8q7Tn20B1wxzR2/woqrfvfpfWjogafmHMTOa605vj2qpnLnO+GqVd/uSb9qyNGq1wqDe1Z057gy62r/27w8rS6Si+px1fMsjjOo/yk29bh+1Va+0jhOMc3xPcWm2dqvufN/Bs+c6XzK7zR6vinfeVyZN3npbPVzuGKa0+cwOBfRE1eazq16SgvfY/fRGq1iU+60DtN+5TVXjeYnmknvehXTXD16vtMVv9JM3IQzH75H+F2kT3WKaY7GYRO30lbPjp98wYkrnxVH/63ReSumec3oNXNP8UmHzyr2XuqK5P2MiuOtmObwPZ5qnO4erF9LP5fWbo7yj8qvzrmqr3P2nl67a5k0ik+5m8kM7XHYjnc9YBVdv+PREdHs6t2M3o9vj5PO4YpNOf7Kg2l0vMO05xn5vTOv9j/s5aluxm74xDu8Y1prfuUhVN+tvTqne/S634t7+e6nZ5k4nak5+o6B46285q/ga57O1Jz5Gh3fsV5P/arTvPS9xsPhiml+2oNumquemtOnWOVao+lxp5l4h3dMa81Pr6/36Nkdp5jm9CmmueOnM07art/5Ox5vjTvdrbzr65jWmuv5ptzpFau815NX4ap1tcOu9pzo9Yxd37kVr1qX996qFeu51uqn+CpXTvtP896vdeVal6erFdOcM3Ss1+g0lsbpOtZrPCa8+M71umsm3uHMP423ePQerTXnDB3rNTqNk0bxKS8f5Va+pVOt5vh0DFx9yU+0qtG8+xbX+a5hLvFUr7opd56qdWfpfNfseGbuYvk4r10f/D295XG1/yUvT9wUjVwwUTl3EYppTv9JZMaJdqfpZ8CbqP1gGpWvXLnK4TuuXO9zPROGLzyx49Q6VzHNu4dyU7/rKaz3aj89GrseruPdR3mdq7lqyPGfdI/k3Qz8OU/FCUMDP0X1UA39GpWvXDnno5jmrnfi+0ytq0c/K677uzPQr57kcERwjY5zmOtBR1QNOZzG4rQmp0cjHFE556OY5vTv4sofPzQnXl1DL7HzVcNVdLxqlF/p0e00Ox6fKVY/n9Jo3uvOqefEKa659l7Jy0P1eHYcTeepHa8e6DTS06P2wWkfORwRXCOcxh1fWjTaR77i0JzE8jnRdQ3ze7/i5PRSa4QjKkfuuMKUJ3eRfqJquo/WpdNa8+5RHB/l8IDDg3riwfGij5qIj0Y4onKaTzw4kR7qioX12unQTvrJA68p0jfxO1zPtdMqz1yNyk/5Q1+epiHB//RFmHuRe5EdyA5kB853oP9Q7PVX3kt+4O7O8E5n3p312fzpPXv0OX7SM/iqe/zoZxa/8++TP/1esfPEZ9+PvDzJXxeefbPjn28E2YHsQHbg2g7ww5D43e5fnfu7nfmTzvtd9+aTnkGu5dr3vNyv979feXnKy1N+sGcHsgPZgexAdiA7kB3IDmQHsgMHO5CXp4OblL8CvP9fAfKM8oyyA9mB7MD1Hdj9kxl44qPv8bN8H4cZuKwAACAASURBVH3OW/1edX3MIXLeXoN/l7g7Pzzx0df1LN9Hn/Or/F51f5hD5Hp7Df7smJenvDzlrwzZgexAdiA78IN3oH4BOfll41R34qWaZ/nqjK/MX3F9qxkr7ivvy+ns0/Of6k7nonuWL/7fPb7i/qxmrLhn3dvjl6c6nH5OD6Q95K4XrqLyipMrfyXv3tqLd9coTq59mu94tH1G4fQS0RLBieAnkR6NJ32l6T1X69M5k07naY7+FONa6Ht1dOfkTHCcibqiw+BdP5z24vGo6LxP5rq+3Zmcr8Mmn67d1eXTNZP3I3GdSf5If70u9WVWRcVflbv5ipHrecAqKn6S09u1OxyeSD91jzu+9KXpfdS7fniNvXfy1x5yzkM9xVPd1D/hz/Kd5r0af8X1rWasuFffi1vmnZ7/VHf1DDvf4neaqzO/k/4V176aseKedR+PXp7cwRw2HbJrH11Pc8FrHh8wjfeep7zUQ3Odg67zvUZHb+d7jW4XXV9hDlcv1WiOpvf3Gl1F17/jnZ9imuOlWOV84F8Z9Sw1d1d3Tdc7Hk1F8mdco/Pv83rNOSYcfoquz2Gn/b231+XjsMn/XtzNcpibU7oTrWo0f/a1npyvn6efyXm4Hnd/Oua8mDd5OlwxzZkHRmRG5zt+C989dGbnTmrO4GL3dpqr2DM8r57hmfpXXd80Z8Kfec2P9L5y/iva0zOeeJbmRHc68zvpXnXd05wJf/Y9/JKXp7ooLpjYL1RxzdE5DG6Krsdh1a+45ngrprnjwfDt+l6jo6/zvUa3i1PfhONXPBrNlSeviFaxjjuNYic5/qq9iqF/VnRnq1mKa845FNN84tFUJEf7yNj9p1kO772n55q8buk/9XK603lXdW6WwybfnfZefpp7iu/ml49qNIdz2On8e3U6W3N8FdMcnjhxDldsyne+K1490Z3EW/tOvKO5/t+r6T3Ls/nz7yN6b5Lft1vvcP/u3e97+/s9OHp56k1VXzmI04IR+wzFNUfnMLgpuh6HVb/imuOtmOaO71jX91rnOw6/q3HymnD8i0ejOXxF5RXXHI1imk+84prT27FeTzrwZ8aTszgNGHF1xtKg03zVcwunM+gHoyZ2nJqI7iT2nl7vPNATu97hDut9j6rvnbXrv5e/9zp388tfNZorp7jm955v16+zNKdPMc3hiRPncMWmfOe74tUT3Um8te/E+6dr6t7ec3/v6f2Ue5978L4vSV+934/ejZtenvohuCk98gXZ9YWDEdESFdfc8fiVTj9oiSc+Trvr2/Gcz3k7TP00R+ti6fQzaVY4/V2juOaqK7xqYufoI97Day+5ztUcvqLDOY9yimmOBxje1BVVQ45OI9pJA0/U3p6XBp3m6MCcZuLQqscuh6849Xecnn4OcKL2aa785DHh2ktO7DPUQznFq7fX6jdx9KF1UXvJ0VWNBzkcOLH3gqu+5/T0iK7j1Mpr3vnOURNLXzlRc7w6B44HPVdweukhghPBieA9Ft+xqh2uGL7E7oEWnhpdr6eZ6FfRea3093Jck/o4THnNVUteUTWVT5ziPVePFae6VY7HSrPiqn/FrzhmE50Wzs1RbserN32Fkbt+7Vnl9/SufFfcyblVQ77y7Bw9GktDrXrFplz16qP6jru6+6zq7r3SOq76Hb7DmKuRno71Gp2Ll16eMO5GhSu2q0uLhqj9yvccnfZp7virWJ+589/xJ35oulevuRaNTnOKubm9t2owzfUM+HRMazwU03ziFdd86j3RTL3g6qF58b3umPKa473So6GPCO5iadBprlr4wjQ/qbtG+zWf5q36O+fqjvWZvZ70Tte1VXfM9XWsasWm3Pkrpn2Kk1fsmqoV0xy9w/DsHDix8/fUvZcZFYtzvGLkRPrUZ8LQaC/Yqkf1mtOrmObwxIkrvH/oqah9mqOhl/q0R/WnuZt/2nurzs102OR/9f50b61drhhncBjcs+KtM11fx1Z15+r6FNO8c9Q7zek96z6nfY/QTbMd7rDpDE6rmOZ4KFZ5r9FVVA68YzsP+p4Z+5muzlr133J9l16eOOzuEOiITg9GREtUXPNTHp3Gnc+k3fVd5a/ou7ZqPpy3awo/xU60ePXIfCI8dY+38tqnufqDE5UjP+W6bler/xWt9pET8SGCu4imx64tHo1yHbtSdy2+Ha9aP+h6ROPwwrrvCaY9mjNjh+346Qyn/uiIfd7Vup+n95/wnKVH56Uax4MRVa958U6jGDmRfq01h9c48Se40yimuc6sfOImnH7lNXe8w0576F1F57XSP4JzMx02zXJah1V/4Z3T2uWKcQaHwT0r3jrT9SmmuTu74x1WvYV3rtfo3Kwd5rx2PY/ip9kTfjp31+94xTRnpmKaO74wp0H7qnjvGVb9K266vptenqabOR3A4WDEfkDFNUfXsar1g05j7ynOYR13GsU0Z55ilU+fPqv3q0/npnrnSR9xNwO+R/qJ8NQ93srv+moOGmKfrZod5zzAiJNH53tNn+Kad95xaIhoeoQnFo8GjAhOBK9I3xRVS64+muOHjoj3il9x9GtUb5efYuqpOf0VC9dac+3RXDU9736rvq4tL8U0Z45imsO7uNNNfOF8nG9h2qv5xJ1oTmappnvCTfgpv9Pd6+/6FdN8dxb4KTqvSfso3M102DTPaTtWNRgRP61dXpj70P+qqGe7MtP1Kaa58y3efVQLX1j367XTqNcqd14r/SO51ezi9HN1rvb2Ob0ub8U0Z65ilbsP2u6n+CtzPfMtc1f9K26adfTy5IxPsRq80sJVJO89inMhDoPr/eCux2G932kU03w1a+J2/Z3f1f3809wVrjPIe6SfCE/d4638ro85pVtpV1x5rPrpJTJTo+uf9Iprjp9imq94dES0xMJXXOkmHo+uQd+9wbsenxWvHHp8HOew3nelZhY9O/+up4+463e8YprjqdHximlOn2Kaw7u400284prrDMU1L42rO4bO4ToHXceu4jpHc3xPsdXclRfc1K/zNafPYXCreGvfynPHuZkOm3ycVjHNy2NVK0dOnOa/Cr/1HK5PMc3dtVzlu77X7hm4uQ5zXk73DOzK7Ctad1bt1xytYpqf8uiIzgPuVfHeM6z6V9x0fQ97eerDtda8DrKqi1vxu34utHu4vknbe3d19+565hA73+udX9f3uvdPcxVXD83VC5xIP3HC7+V3vvf6a/9q1inXdVfrOo/2aN45rdERuS7V9HzSKN7z7q915VpP81TTc6119hVctZq783S+a3Z81+uZJ049Nae3Y1XrBx3+qtccXce01vxEz0y0u7r77+ru5/Qdo8fhek50HbuK6xzN8T3FVnNXXnDEPk9rzU/m4eli98LP4a7/Fqx7V92xla/TKtZzrbk+/JUjJ6LpPYqv8vJxXqse5W7tdX0dW9WdqzMp1nOtu5br6RrwXXR9hTl853WVn2Y43GHTPKdVTPPyqFoxV+ss1YJ3rNforsR+jiu9pb33DNqv+a3eRy9PmHPxbrBy5K6v95am68A6rr5XNPRp1P4+RzntIVde81MeXUX6FVPc8WAaV/2d6/7U6JxvYSc6NM4D/65RnJx+6t4Dr3HSqAe59pFP/TtePcm714Sr90ozceDlUzmRvNfoldczkLuoveToqLuvw1dY+cHjTeze4NrTe6np7TUeiqOFO/XHQ/vI4YjgzrvP7zU9eMA7bzT0dA21i/Q6rrATXnvdGTrfNY5Hw3yingnMxa7TGeT0Ufd4yjsdWEX1VZx8x6ObvLSfXHuu5uXheibcaW/BODtzqHde6Ogr/QpTXnP66VVOc+ULv/K5p5czXJmnWmYTlSOHqwhGVG7Flx6t5toDrxhzdnHqmfCd3wmv5yXXPjCNyu9y7SPvPeAVi6MmJ8Kv+lWDj8bee1rjcarvOj1X507rfgZqjadexy9Pp4aP0HEhj/CKx7Vv4D/5ftXe/eTrf9S15+v3sV9zbi8d9qjn9119pnvS8V5/1+t91bnrfunHzc09fezXvLvHO0yf0U96HifX/ZPuR9+TT7n2k+fcr/2Z9Vu+PD3zguP99d/k3+0Z8EX5bufKebKr7AA7SgRP/PO/srr7wT0jOk2w27/W6r5+1f3jmU7xq86Vubfv06Pv3Vfu5+5apr0F3/XveHze+R7sruFd+bw8XfxH6+/6IHOu9/lmnWeRZ5EdyA5kB7ID2YHsQHbgM3fgJS9PvP1OSwRPVJ3DlD/Jy+NEF81nLnmea55rdiA7kB3IDmQHsgPZgezAI3bgJS9PddDTF5hJN+GnN+He/tM50eULMzuQHcgOZAeyA9mB7EB2IDvwmTvwES9Ppy9Gp7os+2cue55rnmt2IDuQHcgOZAeyA9mB7MA9O/CSl6crLy2TdsK5+B1fuhMNfon5wsoOZAeyA9mB7EB2IDuQHcgOZAd0B17y8qQDd/n0gjPh6vcojXomzxdMdiA7kB3IDmQHsgPZgexAdiA7UDvwUS9PdUG7F6gVX9yKzxdNvmiyA9mB7EB2IDuQHcgOZAeyAz93B7YvT+6FYoU57sqCTS8vE+68V9odt+LdrGA/94snzz7PPjuQHcgOZAeyA9mB7MDP2oHty1MthHuhUExzFshhcKu46ltx3XPSTnjvT/2zvhDyvPO8swPZgexAdiA7kB3IDmQHdjvwbV6errz0rLQrbnezwucLKjuQHcgOZAeyA9mB7EB2IDvwc3fgYS9P9VLSP7cs1vRyM+F9xk6347tf6p/7xZFnn2efHcgOZAeyA9mB7EB2IDugO/Cwlyc1vSefXm4mXGftNDtevZLnCyU7kB3IDmQHsgPZgexAdiA7kB3QHbjp5aleQvRFRHPMHQa3ilPfhOO140u30xS/0zAvMV9I2YHsQHYgO5AdyA5kB7ID2YGftQNHL0+1FLxY8HJBzcJQE8GvRvx734SXbsXhc6o50eGZ+LO+WPK887yzA9mB7EB2IDuQHcgO/OwdOH55euai1AuLfnQWuGJX87wQ/ewlv7ov0WdfsgPZgexAdiA7kB3IDmQH3A68xcuTO1iwLGx2IDuQHcgOZAeyA9mB7EB2IDvwTjuQl6ffZSHfaSFzluxjdiA7kB3IDmQHsgPZgezAu+5AXp7y8vTrXZcz5/rcb5z5V2kf92wf8a8252vtcc/j3e7lbj/ytfi5z/7ddjHnya59yg7k5SkvT3l5yg68dAfyy9rjf4Dmnj7+nn7KD/m6jt1+7PhPuhe5lnytZAeyA/fuwI96efqKHxA1kw8Pi/orzsMZXFydhzO7vq/GOJvGrz5Tn8/ZOn5vjW+P3Re+41fq8riid9pbPR5xfneeT8Fuva+fcv0n1/Gd79HJ/q+ub8Vx7040aBPzy2d2IDvwk3fgR7w88YPnq344uLkO+6pFPLk/aK6e8da+1ZzJs/BVH9zUD/+M+MyZ7ro7ds98ervndJ/QO/7Uo/euPLv2p9W33tPvep+u7gL6R90n/F55/1Yz4abrm/B+/lNd70udX6KzA9mBn7YDP+LliYf6VT8c3FyHcc6vis860zN8nafDpnt5RTt5dPxez1v7tU/zfr576yveTuuwe8+U/p/5Q/uWXbqlZ9qvW7xu6ZnmO/wR/o/wcGcL9jO/TvPc89w/dQfy8nTw37vUDxT3OV0K9wPJYad+z9I960zP8HWeDpvu1RXt5NHxez1v7dc+zfv57q2veDutw+4900/or/vmPj/h2qdrvGWXbul51/nuXI+4vkd4uLMFyy/R2YHswCftwNu/PNU38/4NXTFyNL3Wh4VGsVfkbi6YO69i5HVOzfu54Yjw1BXVgxodnNbk3QOcHrwmHbzqFet45xw/aUrrPqXvH9VNHHg/w6q3eiZecXJmaHTchGlfn109yuPRo2qcBz69j7r3O48Jo5cZWk8Yc4n0EDuuPj1H66L6kVfs2olTvOfqseJUdzXHV/tWGFxF1wMPR41+VSuH3vl0rjS9t2s6j6/G3qPcLu/+3avz6te53lta1WjvjlOt81X+JH+Ex8mcaPzPqdyX3JfswPfYgbd/eapFct/QO1a1YpqzjA6De2bkbD0y051LMfomvWpXGtVpPvWAE11PcYV3TuspX/ne24M359O6YzoLnWKVa937XQ+Yxu6hXOUT73DFpvxR/vjoHLDp3E7rMNd/quMMTg9GdNrOoemxdF2rtebVu6qVIyfqXIcpfyV3Xoppjq9imju+sNKo7kquWud/L+88wfTsNUc/aF4xn1mcR2tydw64VZ9qdvluxq4//Pf4xS/PKc8pO3DfDnzUy9NuGW79wVB97rObB+/mdkxrzcuj1x3b8V3PuXp0PqqZeIcrRk5Uz8odrpjm9J5ij/A/neV0nHc6xymv3pp3386d+LueU6zPZ949/a53mjPh6uFyxTjzFJ3WYZylc1q7XDHOoFjl7oN2F9ULrWKaw2t0fMd6PfWrjpx40oNGezR3/AqDW8Wd/47H2+ngiKWZdBOuveS3xt2MW33Td98varl/uX/Zgffagbw8Df+a1yMX1f1A6pjWmtc5et2x4t1Hr8F5KN89O7finbdierbJVzXkaNXrKjadWz2Z1+PVWepJr8Z7eO3VfLo+nUve+xQvrn/giat+NESndVjXn2joIVaP+yhfORpy+F10Z+rYylu1Lqe3x925TnmdSU/HVrM7R41Xxe43caojJ570oNGeyt0HLVF7wE6i61PMzVaeGQ5TDp4IR5zwUx7dKu5mrHrDvdcvd3keeR7ZgeftQF6e3uTlqZa8fnC5H147zPH9i+YRmsnD4YpNOWdUHkyj40+x8tlpHf/I+XjdModersN5OEz7yCfdhNNHnHQOd1j57PCJP+nlnD3i2WPXTTV9yiumeWlWtXLkRPV/ZO78HaYzlddcNZqvNMq5XDE8FdP8lEen0fkoP+WuTzHNJ4/CJ13He43nhJ/y6Ka485/6gj/vF7Tc29zb7MB77sDm5ekf/+w/Gv6qh9i/qVftsN35es9O/yjezZ2wE7xrel3n7liv3bXtNBPvcMU0Pz2b9mhOf8fAT66rerVfc/oV09zxDjvtobei9miOprAJR7OKrrfPpd9pHeb6S3eqZZ7zUW7Fu1kd01rzPsPVTq9Yz7Xu51aOnKizHab8lbx7Va2Y5vgqprnjC3Map1UdORF99+t81Yppjscphn4Vu1fVimmOzw5Tvuda41dxwtHseHRTvLd/8g3+nr/85bnkuWQHbt+Bb/HyVA+4vrHz6TU4sS8EuMaueVbtZjqMa3LnKD08edepp2o6rhweO82KV27lx1yn12uDx4sI3n1cLxp6u0ZrNOqv/Yo7LRgRPXVFMI3Ka45GMfLiyInoHec06OGI4ETwimAale8arbsO7iqusyvv/Sc8Pa4frkf1hVthpYHXnJmO6zq0zHtEZC7e1G42Gp2LnghHrRGue2s95fioh2qL1xodfURw1cLhoZpd3nup6aMmgvc48YprXv3UGtVXcXLlT/LqO9FFc/svW7l3uXfZgc/ZgW/z8vQTlm76ATbhP+Ge5Br/9M3mk/bgk64lO/qnHc29+H73Il+L3++Z5esszyw78LU7kJenF/w3T7slrx9e0w8wuInfeYf/2i+wR9x/duARXvH4833g3k4x9+vP71fuR+5HdiA7kB3IDvz0HcjL0xu8PP30Jcz15xtxdiA7kB3IDmQHsgPZgezAd9iBvDzl5ekj/133T/ondfxTkWd9Q3m2/7POHd/X/JD9pK+l7Mxrdib3Ofc5O5Ad+OQdyMtTXp4+7uXpE3/Ze/Y1Pdv/k7+J/oRry37kF6GfsOe5xux5diA7cLID3+blqX54v+sPcM6m8eTmfweNXpPm/exwHb9Sl8cVvdOuPFac83o0ds/8VW9x/cPZOz75TDg+ifsfKM+4h+75gb36mTzj+l59DZm33+Pco9yj7EB2IDuw3oGPfHnKLxfrh371i8L90tSxe+45vd1zOid6xzsP9I5zHorRq9jVHI9b5tes075J1/FdffX63k1f19ev8ZlnZN4zZqrnlD/z2tRb5yue/LHfb3M/cz+zA9mB7MB778C3eXm6ukhf8YP+3pn39l+9R6d6PZfmp/2nuiveTuswnb3jVav5rX3qUfmjfLov9eTvcIfh8wnxK67v2TOf7X/y3N/hDCfnjOa9f/HI88nzyQ5kB77zDmxenn5/979G9VU358oP+dK6z9WzX5npvO/td56PwPRcmj/CWz2ueDutw271f0SfelQ+na9w9+n9u3rl33snbdd91/orru/WmdXnPv3e3+rffe6p3+EM95w/vfmFLTuQHcgOZAfu3YFv8fKkv1hMF6wa8kn7LNz9YqFnIe86xcn7GcGJO750qqGPCEeNvtelUwwd/Z1XXPOdBz7ao3nvn86hPT13PWjUH4xIHxpwjXBE5cjxoX50nPwd7rBHn6f8ag4fVzMTDRGcCF4RTKPy5MrvcnqI6LUmrwiv0eGux2HqM+Un/t2bWj1XmON6r9bJ80tIdiA7kB3IDvy0HfgWL088lPrBTq7R4Q7Tnmfk08zCO9frOo/DJly1mjt95yeN6k7y8tGP9uxwp3WYO+sVbHcO59XPUbVimrv+K5ie7968nws/hzsM/TNizdOZU87sFa9c6Xs9YXj3uOsvvmt6vZp5RdvPprXzgS9O+SlXvctXWHHqizbxz78P5n7kfmQHsgPZgc/egbw8tb+O80vILb8kTD0OP8XqC3Cn7fyudp69R7/wldNcNc4T3vWcYpPvlf7VOeCI5du9e93PtOPVm1wjM3tUzUnuzlF9DnfYyYxbNat5jnMY19K5XqM7Peuuf8czx+kc13VVuw+9xN4HXvEqp3rN8XTYbg69iZ/9S0Oeb55vdiA78NN3IC9P7Z+e3LMQV37hcFqH1XkKdx89q/KKX+nvfdTTueCJk07Ppjl9xFU/GqLTOgx9xRVfHDyR3l53L3p7pJ/ofOAeESd/hzvsEWeYPFbzinMf9YIvrHv12mnUq+e7/h2Pn9M5bqVD7+Kq7yqn+srd5+oZnD5YfsnKDmQHsgPZgU/bgbw8fZOXp9Xi6S9CTrfjq2elWXE6b9JNuPauzuD6HbbyWHHda1d3r64v3n1Oda73BJv8He6wkxm3albzVlzN6/yudj2rc3e/3r/j8XY6ODx3GtX3fNV7lVO95n2m1qc67UnuvxfkvuS+ZAeyA9mB77sDH/nyVD/kv+IH/TTT4TtMec35YutY1fpBV7FrHeY0eKw4NM4TzvWfYs63el2/03KGFadezrtjqp98u2bS6fnuzd1MN3fSTfNLf7Wne636HadYz7Werq9r+nm0dlrFNKfvFENfsXpcn2pW+ar3CtfP4XpPsdV5w33fXwzy7PLssgPZgezAvAN/fHn6v3/77df/9dtvv/7P33779X/89tuv//nbb7/+999++/W//f49/qfK+WGvsT/UzlF33TNqZmlkzinW9dRE9akcvGKvHTb1d7x7Ka8zNVcNufKcB66i8oqTK9/7te46OMXx1Kg8PcX3nJqIpmr9qHfXdK7z6nNLvvJfcVdm3Xrm0/ld188GX7jm6MAqThq0Lmo/HuqzwnqvanXWhKtmynWGahQnV54crmJh1I5HA4de6+R//vWf+5H7kR3IDmQHfs4OfIuXpyzkeiHzy87/en/cPcke/a/36fSe5H7efu+4x9/1Hn7Xc3PfE+/f3dzD3MPsQHYgO/CnHcjLU/snCN91OeoXHP181+vIuf/0xfku9+I7//KsXxMuf8U9Zu4rZmXG+3395JnkmWQHsgPZgc/agW/13zxl+T5r+fI88zyzA9mB7EB2IDuQHcgOZAe+0w7k5elD/snTd1q6dzjrd/6nKe9w/3KG/KDrO8A/YSN2PnV2hh3I99/sAruQ+Hm7oF/fmrtnveNdj2LVrx/lKr/Xv/tR5+UpL09/9j98wGJ8cnzWF9Mn37Nc2+f9gHv0M83XVXbkZKeyJ9mTkz2J5nvuifv6dpg+3x2v2lU++Uz4ymvH5eXpQ16eajn6Z/fwH8H3mdTde8K7blWXx4o/4R7hcTLnFs07n+2W69Eenj9RucrBiZ1/h7rONp3jnc89nfnR+Or+9FlouW/UpXNY7+81PR1/ds3ce89f51SPfm7mdPy71atr/G7X8orz8tz1vjnsWWfps3r9rLnOV++B41+Bcf2vmPXqGbv7u+PrvCvNilv17vr0Pq20K049TvO8PH3Ay5NbCrCK5KdLcVXn/Dt2zzno7Z7TOdE7/tTD9T4L47zvfLZ7rt1dl2KaM8dhcK+OdRY+0+wdr31XtNr37nld18kZu67X5eGwlXfpr/as/K5wbq7DJk/OvupBM3kofkWrfa/IV9f4ivnfcYa7Zw571rXpPml+67yrHugr3jpz6sN74jt+Vd/737Hmmqb7u+P1miaP0qy4Hb/r5Qwr3Yqj/0rMy9OHvzztlvLKskxaXUrNJ/2t+BVvp3XYrWd5Rt9Xn2+aP+Gn98D1K6Y5ng6D+6r4yDPd4nVLzyvv1cn5nOYUe+W1XJn1qPM7nyvnUO0tXrf06Mxd/mz/3fyv5m+9ftfnsGddX81inub3zMPvisctPSf+z/I9ma2arz7Hbv69fF3rPR673nv99Vmc5Hl5eoOXp1oK9zl5gI9YqJM5K42eQfNVzy3cFW+nddgt53hWz1efb5o/4dyH4t0H3kX11Bytw+C+Kj7yTLd43dLziHtVc92ne+/ON/EOd1if9y51P2uvT895a5/zv8Xrlh43e8Ke7T/NfRd8uv7C3Ydzuz6HoX905Gzlq/k9c245/y09J2d8lu/JbNV89Tl28+/l61rv9Xh2vz6PXf72L091s/oNc9h0oaol7348VHj1AnNxpVPumbm7lj4PjV6D08ArB7byUA26lYdy5DuP0jnvqd9pJ6zPpsab2Q533KRTP5dXn8P7DNXpLHLl8VOO/IRjNrH34nEluvP1/hNN73E158Wv1/RMOHxFkNWDlwAAGnNJREFUPBQDp79z1PAa4XYe2kOuvb2/NPDowXrtdGjgTiMznP4qh17PQg7HnAmHJ6KrGg/FnK5jTq9+PXf9YD1yJodPc9HCa4SrOOGdQ6e9TgOPvmLXoSGioe4Rr8LRKoZ+hXWOuiK+YK4+wbS/n+mE4yz07qLTd4y5GtVXce1VvPS9VqznJ/5o1JccTn0dh6448qsRX6L24+u4rps04ETtI4erCFZRcXLlTzW9R2t8++yu0brnq97S7vgTzb0eu/4d3695Vb/9y9N0w6/chNJ2vdaau3nKu1wxbrbD4B4ZT+aUpuu01txdP5jqTvJ+ndqjnMNPMc6mflewrtW55ERm9HrlQc9JdL7dGx/VVq5171lx+PWejp96aF/P3Tm7puo+y2muYN3vas2s3gdOnHiHK6Z5efX6Xn881XfKd7PgXVRP5SccjeMVq1zr6uv1hLkZ3W/nteP77K7f1e6MYBq7D5zDFdO8enq98pn03aNqxTTf+fcZV71OZq08d/338ifXj8bFe+fv+rn/qus5dUVyztpr/B7Fr3zgVvHkfKrR3Pl2vtfV07Fd7XqY3XtXWno09v5eo53wR/Hlc++M3Vke5c+cVfwxL0/9Jkw3ufDOae1yxZjjMLgeS+s+XefqkzlO47Dy5xx91qSnB/2pDn3vB3c+Dnt0v87QXM/lcM4xcfSv4tTrcMU0x18xzTknOo1dB+dwxSp3H/p71N4rXNee1n1er9WH61CMfNVXmol3uMPwWHGcRaPTd6zXu/7OV3//qKbyW2e4PsU0Z+YpNp1L+zV3/jteZzgtnugmzYTTP/EOd9it851Xx3rNmTVOGocrpjl+imnu+MKcBm3nu7bX2td74VyPw+gvrn9OvSbf037OgL5H/HtEB05dUTHN0SimueNXGNwq7vx3fPfu+l6XXjHNu5fWk27Ctfc0L6/Jb8Lxvpcvn2d7PMKf693FvDz9f//NU910bjyRm6e1ywtzH/qfGfU80xyn6RjnL4/OTRjznB5O46Rjdo/aW/mq/0R70q+anlMT3cyJ61pXT72Fuw8erq9j2k9fj70H3uEOQ38SXb/DTrxONHgTe0/hcESn6ZjWV/q6tmowonpXfgXv2l4779Lw6fxJfTLD+bg+xTSn/xQr/U57wpemfziLznBe8HBE7UfTMa2v9HVt1WBE9V7Nd/qO9bp73+PvvBWr3H30DKpXnFx5zZXXGeAVFddcNeg6dlJP59Fendv1naPu/Vprjl+PaMCpKyqmORrFKncftETtATuJrk8xzfFz2MSV1n0mPXiPu5k6o/fuanpLN82ZcLzv5VezHzXjEWfkLLuYlyezTP0BaO1yxXY3/Bm8m6+Y5sxXTPPiez1hzgvMRee781afK/23arWPnMhZeq34xKFZxal3wvFyvGKa0+PipHO4w5xnYU7bsV5PXrfi+BPVp2O9RjvhO971KaZ5efX6Xv+VJ949TmfoOq1Pepxmh+14zuB0xTlcMc2dl+PRaSyd03as13hM+I53fYppXl69vtd/5Yk30c3eYbfwzCM6DzhiaU50pVed5ni5eKrrva7PYdqnvOaq0XylgeuRfnDqioppjkYxzeFdPNX1XtenmOb0OmziVtrq2fGTL7iLp55u/tQ74czf8W4WvTvuEfzO4+T8et5d/i1fnuomXLkRTqtYz7XuD0Q5cqLebIcp/8i8z9rVu2vq/V3fz+70XbPycP2nmPOtXtfvtB3TPnIiWq0LA3c52El0vt0bH9Vq7ng8SscHnUb1mXL0yoNN0WkV0xwPxSrXGs3VOHkovpqlOjd74jveZyjfOZ3TdXCKT5jTTNrCV3r6ejzt6bpe9/k7nnM4neNKp1rNma2Y5s5vheGnGufXdeg1nvaVTrU913ryV43m6DvWa3Q9TjrFK++1+uz40mq/q9WPvPsqTk5Uf80d7zDXg65Hp1VMc3oV09zxhTlN16Ihdp66+zm9YprjcYoxy+lPvapX+zXHQ2Pne82Z7ulRT83xVKxyrdEQlVtpVUevxh1f2pVmxd3byzlXM1Yc/Vfit3h54sbWxXMDNF9dMDr6nJdiU04/fisd2tK86sO5+myHr7DddZ3492vWeeQ7jfL0aFS+8s5Rdx1acHQV4a7kUw8ezFlFPQN514MT4akrTphyqiHXiB8YtXo4DP0UtUe9St85avXqPcqd5isPnan5dD6diV6j8t1Da3T0Og7NiqOfSA+1RjiicuRwV2L1nuq7lrlEfKhV3zGtyenXqFzljgNXbemoidpLTi+1Ru3TvDTUGl3vxHcPrfGh13FoVhz9RHqoNcJNsbSOw6O4roEDp8aHmjjh9MNrnDg8NWpf5cpNPqrr/bt65d85N79rmNfx3gvP2YmTTvXM0B76uo6aOPWueO3pOX1E5Qur2nGqI0dPrb0rDzjXjxcaaufd+12P9qtHz7XGZ/KfeDfrBFNNn3nKqa7yyWfCe/+V+tu8PF25qGhf99L2Xe/1M76Y3vVeuGt12Luev8713c77zvfyWWerZ6SfZ815hG/26Wt/Ruzu/45/xA50j6+Y2c+Q+mv30t3/vhe9dj0/HdN7pLm7Lzve9ShW/fpRrvJ7/bsf9bd/edKb5nIuNPH9vin9hGfidlKxV90DnVn5q+Y+Ys53O+8jrjkez/t+pV8Luc/Pu8+33ttXPx/m3Xre9L3fDj3ymbAfxEd6x+v77s748vRv//Zvv/71X//1W/2SlUX8vouYZ5dnlx3IDmQHsgPZgexAdiA78O47kJenF/53Se++DDnf+3zDqr9y5Xm8z/O451nkWX7Gc7xnB9KbHcgOZAeyA5+zA3l5ystTfkl/sx3IL9uf8w2WH5Z5pp/3THm2iXm22YHsQHbgZ+2AfXn67bfffr3bv7ZXv3zkF5DHLyf3VeOzvgl8xfPT69K8XyNcx6/Uj7i+R3hcOfOp9hH353TWFR3n6vGKB9pn3/tn+3MdiY//Ppl7mnuaHcgOZAeyA+xAXp7e7J868GBeGfsvdb2+9yzlx+der1v63fV07J7z0ds9p7Oid/yph+t9JrY686PnXp3l7pnDpnMy70rP5LXCn+2/mh0uP/SzA9mB7EB2IDvwmB34Ni9PeeCPeeDuPvZf6nrtem7BnuW7O4vO1XzXd5W/4u20Drt6hk/RX7kXqtX86r24p/d01itmnJ4luud9T829zb3NDmQHsgOfuwN5efqAf/JUv5C5z+kXbv+FrtenPjvds3yvzH3mGa54O63Ddtf2qbzei8rdh2vvWvCrUX2u9p7qXzHj9CzRfe4P9jzbPNvsQHYgO/C8HfgWL0/6i9O0DKohn7QOp0dj6ai1R7EpV736qL7jru4+z6g5E9HNgCN2DTix81UX53A4ep1u4sC7h85BQ1Ru1ac6eonKkRdH3iN9Gp3GYfQUR15RtYp3Dh0afIhdrzrVdJ3j6O1axTvXfdAWfvJBT3Q9cBUdX9iOU4+uXXE6r/cpl/zseec+5T5lB7ID2YHswFfuwLd4eeIGTb94ONxh+PTotIppTq9ilfcaXUXlwDu286DvGdGdRed0vjjFNKfvFOterr97udphJ15opnNMeJ836Sb8Sj8e2jPlpUVP3uvqvdrfPdQbbvJUnD7FNHc82BS1X3P0Hev1pFvh6qH5qqc4p6UnMb8MZAeyA9mB7EB24P134H95ear/pb13/F/bq2WafvGY8NMF3PU7XjHNmamY5o5fXRv6VSx/91n1KLc73708s5xPcQ53GNrO9Rqdm+u0TgfWvcCdj8Me0T95nJ7FnUsxzU890RGdx4pTveaup3j3mbTgLuIzcVdwtLvzo6votMonf/8fmnlGeUbZgexAduBn78BHvDzVEvNLEfHqYtNH1P7CtGYe2AmPr0b6u5/ir8hPzt/PoT2aozvFSl9a98FLNeSd07pr3Fm6vvco787mPB02+TqtwzjHjiu+f1a96qf5aQ86ovNQrp9N9ZprD/kuuv7ew/zCJ/2E04NH1ymueT8DPg4P9rN/EOf55/lnB7ID2YHvswMf8/LUl67/gtP5Xa39mtOnmOanPDqi84B7dnSzFdOcsyimueNXWHGunx7Hd32ve4/j1Z980k04fcRJ53CHlc9VfNWzOpfO0fy0Bx3ReZxwpXG9DsOvx522873Gb8LhNapWc9X0/FTX+1J/nx+oeVZ5VtmB7EB24PN34I8vT/yrehrf7f8kt5Zx+uXD4Q6bFtppFdOccyhWea91lnLgHes1ulfEPntX15lUoznnPcW6l+tXr8q1vtqPv4vdF43DTzF3vup1/U67OsOK6/5a9/nKcYaOgTOzR6dH4zjFNGdOx/BycadVvnKt1e8KrlrN8TvF0Cd+/g/bPOM84+xAdiA78Bk78C1enuoXkf7RBeyc+8VF9T0/6VdN9VOTE6fZ6ImcgVoj3CuiziV3c+GIXQNOVB5Mo/KVK1f5xKtWc+3pXtTdkxpeIxxRucrBK3au812jtfqQa/+Jt/qhx0ujcjqj92utOf3aqxi5ziSHI4ITwSsWRg0/RXT07XTOWz3I1QdMo/LqicbxHUv9GT9E8xzzHLMD2YHswM/agW/x8vTuS1m/ML37GXO+7/WF/eyderZ/9u1P+5Z7/ad7kb3IvcgOZAeyA9mB774DH//yVL+4rD73PkD1vtcr/fmG8oodyM5mz16xZ5mRPcsOZAeyA9mBT9yB8eWp/vun3//+9/knKof/R52fuBy5pnzTyw5kB7ID2YHsQHYgO5AdyA78aQcuvTzpX6wrz438043Mvfi6e/GovdSd1jzP9uuebe79+9x7/ZrQPM/ofZ5RnkWeRXYgO5AdeP4OXH55etVD+eofzl89/1X3+dPm3PrctE/z73p/nn0Nz/Z/9n3P+a/9cNH7pfmzn1P8rz2n3K/cr+xAdiA78PwdeOjLU/1QnX6wwhFXD9d50Kdx5eE453uq07mTD5rJE37qp2/Ho3Nx1ct817fD6CWu9KszTH34Ele6iSv8ltm9Tz04T4/9DMp3Dn/VVD7h6JzPCYb3ifYWzbP9bznTlZ4r5+dZaI9iq7zOdCu/uh49S9etuK519dSvuObOw2HVo5+VxnFgt8ymt+LUr2dzmh1/ZYZqkz//l5zc49zj7EB24NE78LCXJ/2Bo3kduNcTxsU5/QmHpsfy49M5V/f5va6ejmmtudNOGHjvL3z3qR4+Tquemjttx5zeYdVX+MR1X2qn7xi+HceDuOPRadQezdHssM7v6vJFQ1Ss55zjNKrnac8V3bP9r5zlFu3V8zs9GLHO4XKHTVq9Fu1TvPfClZ4P2JVIr5urmOan/q6nY1przozC+IBdifRO3t1LdZqjc1hxhTtOMc3xS9z/jMs9yj3KDmQH3mUHHvLy5H4YKKY5F+6wezn6p7iaqT1d1+vSKqY5Popp7ngwfJ1eNavc9Tps5dE51++w6it84rovtdM7DH/6XJz6nPYUc55gxO6luOboTjH0V6LzvtK/0z7bfzf/Xv7q+Z3+FNOzup7iHe4wvG7l6F/Flfeqb8U5T8U0x8dhxU04fbvo+nfYjteZpe36Xj/iOnRm8vxCmR3IDmQHXrsDb/fy5H7Q6FLseNX2/KTXaXbYvTznxIcIfiW6Xoc5z9Jd0XYPeomOd9wpVn5Oq3N2vGpPc+cJRuxeimvedVqf6rSn54/w6J5aP9tfZz0jv+X8rucU02twPcU73GGT9mSGalb5NHfVs+Ocp2Ka4+Ww4iacvl087Ved5vivsM71+hHXwTkSX/sLU+537nd2IDtQO/CSl6capD9ANO+LuOK6D3XvqbpjaPu8Xru+rulersdh6tN5rTXXnpPc9YJV5OO8Vpzq8Zswx5f21B+t+pNP3qc8uivRzQQjdr+O97rrqz7RuD7FukfVK0x5zdVT85UXOucDphF9RcUrh1O869B0nB7lydUbbBddzymm3q6neIc7bNKezFDNKp/mrnpu4XSO5ng5rLgJp28XT/qdRjHNmaeY5tOZuwafxPxilh3IDmQH3n8HXvbyVMtQPzBWPzRWHMvkNPdg+HI+rae8z+v1zmund/x0lo673sI63uvu42rng079NIe/Elf9K65m7Pgr50Bbnv2jHLlGdw48VKe561F+l0/9Dles8l67WapR3uGKaU6fYpo7vrDSqG7Kp3484K9EZvfYPfRMnat64rvvSud8FZt6VbPK7+1fecP1Gb0uncNWON67OPnifSuvfZrj28/VNZ1P/f6/POUZ5RllB37uDrzs5Ul/WGiuyzfhO43rO8V23spXfurrdKf9U28/i6td7ynm/BzW/Xa185iw7tV19/Ld76RezZy4Ca95EzfhJ2e86quzNGfWKTbN1X7N8dfo+I71etevPPnKA42Lru8UUz/XU/yEa++p7tSre1Pf24/PFJ3/KVaeTjvNcvhJv9Moprk70453Pe6swX7uL2Z59nn22YH33oGXvDz1Hya1FKdYX6DTvlOd+rueE971nWLci9K7j84/yU/nOt2JPxrtd+cGQ38S1XPS7zQ7fvJd4SvPiZtw5jjeYehP4tTvcMU0Z84pVvoTbWn0wxz6lSPvGq17Tg+x81UX5/Ad5vpOMfV2PVfONfWfzFDNKj+ZsepfcZO3wx1W3hO+mqvcab/qNMdLscqnz3Rm7ccz8b1/WcrzyfPJDmQH2IG3eXk6/WHidPdg3AjnAVdxxTuuY71W755f0Z70Oj+HdS9qp3XYSg83xZWf9ux0O169TvOV58QprjkzTzH0u+j86HGcYppPPU4zaQtf6Tu/03Y9c1exe/Z61ds513uKqZfrKX7CT3pVc+rVe7Q+OYvqT/OVr+McVrMm/J5zOE/FNGeOwybOaR1Gf2J+QcsOZAeyA++9Aw95eaqHrD8MNO8cC3GiQaux9zn/0pzodr7wJ16q0dydb8JW8+B2sc9G3/Fel66wCceH6HQ77hH+q7lcA+d4VLw6s+t7PZ3T6U6vYdXbuaoVc3Wfq/odd9XPeXes13oGx3Ws19q/y13vKaberqf4CT/pVc3kVf4nM6b+PuNq7WZ3TGvN+6wV17Wudv07bMf3OTu947tH6vf+xSnPJ88nO/Czd+BhL0+1SPVDYfrBAEfUxZt6VEM+afGFp9ZzgaHZeSqvveTwxB0OT6SPCK4Rbhe1h7z3gFfsXNXwK+6Kps+ZesF71HN0rmrlyScc/mrUuavelU458u4FXrFzu/qkp/tTlzf9iulMeMV6Ti9aavypiat+PG7t1X48+rzTmvOq5ymmM1wPZ4NTveY6W3HN8dAID0btIhqNTncLpp6ady+4jlcNp9HpJkz7yFULRlSucnBi552mtKpb9aou+c/+pSzPP88/O/D+O3D55YkfAP0Hwz0Pe+XVuV7fM5feZ3jinfj8L4J6fvr5aff83v3d9e/4d7/fOf/zvwbffQdyvuxAdiA7kB3IDjxqBy69PD1q6BWf+sVHP1d6o80XSnZgvQP52lrfn+xP7k92IDuQHcgOZAeyA7oDf3x5+ou/+Itf/fMf/+N//PWHP/zhz/61A21MnkXKDmQHsgPZgexAdiA7kB3IDmQHftIO5OXpd1n4n7Twudbse3YgO5AdyA5kB7ID2YHswK07kJenvDzlny5mB7ID2YHsQHYgO5AdyA5kB7IDBzuQl6eDm3Trm2n68leN7EB2IDuQHcgOZAeyA9mB7MDn7EBenvLylL8yZAeyA9mB7EB2IDuQHcgOZAeyAwc7kJeng5uUvxZ8zl8L8izzLLMD2YHsQHYgO5AdyA5kB27dgbw85eUpf2XIDmQHsgPZgexAdiA7kB3IDmQHDnYgL08HN+nWN9P05a8a2YHsQHYgO5AdyA5kB7ID2YHP2YG8POXlKX9lyA5kB7ID2YHsQHYgO5AdyA5kBw52IC9PBzcpfy34nL8W5FnmWWYHsgPZgexAdiA7kB3IDty6A3l5ystT/sqQHcgOZAeyA9mB7EB2IDuQHcgOHOxAXp4ObtKtb6bpy181sgPZgexAdiA7kB3IDmQHsgOfswN5ecrLU/7KkB3IDmQHsgPZgexAdiA7kB3IDhzsQF6eDm5S/lrwOX8tyLPMs8wOZAeyA9mB7EB2IDuQHbh1B/LylJen/JUhO5AdyA5kB7ID2YHsQHYgO5AdONiBvDwd3KRb30zTl79qZAeyA9mB7EB2IDuQHcgOZAc+Zwfy8pSXp/yVITuQHcgOZAeyA9mB7EB2IDuQHTjYgbw8Hdyk/LXgc/5akGeZZ5kdyA5kB7ID2YHsQHYgO3DrDuTlKS9P+StDdiA7kB3IDmQHsgPZgexAdiA7cLADeXk6uEm3vpmmL3/VyA5kB7ID2YHsQHYgO5AdyA58zg7k5SkvT/krQ3YgO5AdyA5kB7ID2YHsQHYgO3CwA3l5OrhJ+WvB5/y1IM8yzzI7kB3IDmQHsgPZgexAduDWHcjLU16e8leG7EB2IDuQHcgOZAeyA9mB7EB24GAH8vJ0cJNufTNNX/6qkR3IDmQHsgPZgexAdiA7kB34nB1Yvjz90z/9U95A83KVHcgOZAeyA9mB7EB2IDuQHcgOZAd+97t6d/r121/8xV/80s9f/uVf/vqHf/iHX//yL/+Sm5QvlOxAdiA7kB3IDmQHsgPZgexAdiA74F6e/uqv/urXf//v//3Xf/kv/+XXP//zP+cm5QslO5AdyA5kB7ID2YHsQHYgO5AdyA70l6e//du//fVf/+t//fWf//N/zstTvkDyBZIdyA5kB7ID2YHsQHYgO5AdyA7IDvz//9reX//1X//6wx/+8MeXpr/5m7/Jy5PcpPxHfp/zH/nlWeZZZgeyA9mB7EB2IDuQHcgO3LoDf3x5+k//6T/9+h//43/88YWp/ulTXp6yULcuVPqyO9mB7EB2IDuQHcgOZAeyA5+6A398efrHf/zHX3/3d3/3x09enrLsn7rsua7sdnYgO5AdyA5kB7ID2YHswD078MeXp//23/5bXp7yr+nl32fNDmQHsgPZgexAdiA7kB3IDmQHFjvwx5env//7v8/L0+Im3fN2mt78dSM7kB3IDmQHsgPZgexAdiA78Bk7UC9P/w/yLrJrv63y8gAAAABJRU5ErkJggg==;" vertex="1" parent="1">
          <mxGeometry x="190" y="1020" width="847" height="203" as="geometry" />
        </mxCell>
        <mxCell id="wiwpykqce4NtUT54EgSS-5" value="" style="shape=image;verticalLabelPosition=bottom;labelBackgroundColor=default;verticalAlign=top;aspect=fixed;imageAspect=0;image=data:image/png,iVBORw0KGgoAAAANSUhEUgAAAkMAAAF0CAYAAAAgrj0TAAAgAElEQVR4Aey961MbybYv6L8ntxBSS0hClhAPKUC8xRtEgHgZMNi0nxiDDTZvu213Y7dx29DYPGzsxt3Gxrjb7+02e+9z94m4d+J+mPkwcSIm5kzcmDMfzpmZ87jnzMT8JrKklEpCKgkkzEPrQ0VmVWauylzrl5W/WplZdaimMANaXZp0aLRW5Lub4HJYodcZYLJXoK7BBatO788j8u5WqEszorKyEmlpafjDH/6w6eDXebpKpQLTlaDrwgVcvDiIixcu4IIs3uJUbSobTp64NjQ05M8fKS7yilDk42HowfOI9ND8sZ5Hyieui1B+HxEPrU/ouSgrD0VZ+TUej3Q9NN9unYfWT34eLS5PD9dWnh7rIW+/XK5SeXmZ7cSVZMvTwsmW1zFceui10PziXITy/Pxa6MHTRV4RysuIuDwtUlzkFaHIx8PQg+cR6SI/hZufraQT0slBxsChIDKkz0ReqRPpWi/50WizUeRxI9e4d8gQJ2Gc7CgZRaQzlQZppnw093ahzGKCyVSA1nNHUWY2QZ/KFGUI+eLBKc55GPrgDM0T7jxc+UhyRPlwoVyOiIfKEddFGC499FrouSjLQ56mlB5rHrnMLxmX1z00Hu489Jqoq/y60jWRJg9Dy8rPY4lzWTxftEN+T6W4kBMpj0iPFMrLiTziWug5vx7umrguyomQ5xVxeRhORmje0DzhzkNl8vNQOfI8FCcSQBg4+BgIIkObvD3pRahqLIdtD3mGtkKGOICZugAdp92wMgaWWoTO03WwsNiIkLwDiIdquFCeT8TlD1d5nKeLcxGGKyPPFyk92nWldH5vpUOUlYdbzS8v+6XjkeoaSz14WZEvNC7kinQRiuvhQpFHhPI8/Bo/l6eFi4fmE3nkoVyO/HpoXOQTYbj0SGk8r1JaqCylcy5HHCKfkC1CcV0eijLhQnk+EZfLksd5ujgXoShD4cEf/MjGZGM5BiKSIY3OirxqD8pzLdD4PEWbyJJveu1LXxeeHx6GHrxxIp3HmbkGpzqLkcrJkLUWZzqLoN4mGZIrTsQjPUTl13k89ODl5Xm2cy6vQ6j80HORV4TR7i3y7VTILFU46Zu65NOXF/pbkCuzS7T0rdRL3tZQvcjTuMxo5+HyRLoW6/VwdRLXuAxxRKtbaLooJw/leeRxkUdc46HSIfKLUCmvSBN5RSi/Lo+HSxfXeMjzys9FPJbr4j7yUEmmkE1hAIekC9LFQcRAWDKk0ZmRVd6ImtIc6PcYEdqKZ8hWexIXLl7E4MWL0nohf/y0GzbZwBuLYeUPz9B4uPI8j7guj/Nr4lyE8nz8mtIh8srDUDnyNB4Pl650D5EmlyOuKYXy/NHiLEUHo4lPXYpDLxFWUS5ausinFPK68nQRhsZDz0PbJtLl5cU1HsqP0LLyc3k+EQ+VGe06Tw8tE+1cyBThVvKH5hUywtUj3LXQ8pHO5dd5PPSQ31fEQ/PIz0UeecjTxbk8zq+JcxGKfBQG45v0Qfo46BjYRIY0WiMyShpQW5EH4x4kQlshQyk6I+z1p9BTkykNurkNp9BTbYPJqEPKNshQODBEeojKr8vjXIY4F6GQu9XzSOXE9VjD0PuGKxctT7T0cDJ3+pqoEw/lh/y+Io/8mjwu0kNDeR4eF+mh1yOdy/PzeKRDXl5eJtw9Q9NFWSFbnIswUn4hW5QLFwoZIgyVFe08XLntlBFyeBhaXqTJr8vj8jKh10VZCokEEAaSAwOHaops3mkwrR4arQHm/DrUVhchXb+3Fk3Lp+Lk02DhgCrSGVMhr/UsGrIYeDy/rVeKhysT7Rp/WEY6wpUVeXmaiMtDcV1elqdv5TycDHn5cHF5HaLF5eVD6yZP4/Fo6aH5v8S5qJMIRT35ufwIrUukNLkcpTLy8iIeKX+466HXwp2LukSSz8sopYn0cLLjSZOXjXZ/ed7QeLhzfk1cF7JDQ5FHHoo8kcqK6/IyFE+OAZDsTHYWGDjkaTkCflQ5+dogGwrq29DY1IoG2VGctbeIUeg6oXDnvIGMpaP6RDdKtJwMWVBzqhvF2q0vnhbK2krIH8AivzwurvEw9PpWz8PJkMtXisvvFSkuL8/zRDvk+fdCXF7fWOoj8ou8/Dw0Lr8m0ngY6Xq4tND7xCpHyAp3LyWZcvnyeDg5In07aZHqEOm6aI/8niKvCEVaPCGXJcrL4+IaDyNdl+ehOA2chIGDi4FDco/Lfo0LT9BOAFU8lGMJY72/kCXPr/QwFvlD84Sey+VFigtZ8vRQObHkkZfn8VAZoelf+lxeH9GeSGG4uoWWl+eRp4nrkWSL6yJfaCjSI4Uiv0gX55FCni9SmrguZCnljZQmygpZPAx3TZ4u4uFkyq/J40KuKCvOxb2ihfJySnEhRykPpR3cAZBsS7YVGCAyFLIQViiGQuokhAHCAGGAMEAYSA4MEBkiMhTVk0APg+R4GJCdyc6EAcJAsmKAyBCRISJDhAHCAGGAMEAYSGoMEBmiDpDUHSBZ34Ko3eQBIAwQBggDAQwQGSIyRGSIMEAYIAwQBggDSY0BIkPUAZK6A9CbUeDNiHRBuiAMEAaSFQNEhogMERkiDBAGCAOEAcJAUmOAyBB1gKTuAMn6FkTtJg8AYYAwQBgIYIDIEJEhIkOEAcIAYYAwQBhIagwQGaIOkNQdgN6MAm9GpAvSBWGAMJCsGCAyRGSIyBBhgDBAGCAMEAaSGgNEhqgDJHUHSNa3IGo3eQAIA4QBwkAAA0SGEkiGGDOhvNsDB2NEMBKoV+qwgQ5LuiBdEAYIA4SBxGOAyFCCBm3m8KC3txvdHg883b3oLjcRIUqQbqnjJ77jk05Jp4QBwgBhIIABIkMJHLCZqRzdvb3wOMgzRJ0s0MlIF6QLwgBhgDCwtzFwoMkQYw54ertRXu7BuXPnpEPusfGm925Kc3gCnh2RRxAcyQPUXQ5TyFSYNx+fIuP3pKky6vh7u+OTfcg+hAHCAGEggIEkIEO96PU4pCkrr+emG+UmBj9RMnm9ON71Pl6vjqm8O1DG4UF3d7d/2ktOlAhIASCRLkgXhAHCAGGAMLBfMZAEZMhLfriBvITHR4YcAW+R8BrxkHuOvKTJ691xeHh+BzySN4gvkA7I269Gp3rTA4swQBggDBAGCAMBDCQ1GeoNM93FwREgTSEkyFGO7ghlCFQBUJEuSBeEAcIAYYAwsJ8wkLxkSFrbE7zY2eEJrPXhU2V8ekxMsYlz+Zqj/WRoqis9mAgDhAHCAGGAMBAeA0lLhjggxO4vMU0mFknL08Q1+XojAlN4MJFeSC+EAcIAYYAwsB8xcKDJ0H40CNWZHiSEAcIAYYAwQBj4shggMpTA7wwReL8seEnfpG/CAGGAMEAYSAQGiAwRGaIvZRMGCAOEAcIAYSCpMUBkiDpAUneARLxRkAx6MyUMEAYIA/sbA0SGiAwRGSIMEAYIA4QBwkBSY4DIEHWApO4A9Da3v9/myH5kP8IAYSARGCAyRGSIyBBhgDBAGCAMEAaSGgNEhqgDJHUHSMQbBcmgN1PCAGGAMLC/MUBkiMgQkSHCAGGAMEAYIAwkNQaIDFEHSOoOQG9z+/ttjuxH9iMMEAYSgQEiQ0SGiAwRBggDhAHCAGEgqTFAZIg6wL7vAIypkf/1LK6OtcPM2I61R53hRtfYffRUbO0eX6p+iXg7SkYZO2mfzKNTGOk/Crt+a5hJRjtQm8nDs5sYSGoy1ODW4m/PfSUdf+1NxdGUvfXAYsyB4w82MOxR+wd458Aa5sca/Oe7CR5xb5baguEXG1ie60eGjIwwloWjsxt4/OpP0vHw2SvcujEIlyXFX/+qyU/+dJHv2jGblM6KRjHz7Du4ZHZheYOYXruHOl3AVozpUDmyhrl7fciR3V/ULxGhtvA8bqysY+JcJxxG2b3dN/Fw6TLsCveNt36s4irmVyZREOYeTFeA5tEl/LDyAfM//YKJ842wqAL1S0Tbo8lQql+0sjz9IOMnNbMOnZNP8WDpO1SZVX7cx6IXykPkgDDw5TBwqKYwA1pdmnRotOnIrWlFQ5M42tDoLoJJq/fnEXl3M6ysrES0IxYQabUMWWkqZNnUWCMytO0HNXNN4sf5Fdxcm0NjWmAgFmRo8pgDlows2PLq0HXzNRanT/g9OBpjJiwZDnTc3sD0xTopn0nnJUssxYOh1TX05AdkGjofYPnuWX/5WOwcbx6mqUDvo3cYb8+CKoSQsBjIUNz3j0CGGFMhf2ANi3OTqClyIsd1HJcffcSVTi+ZjPe+sZaPmwwddPwwA1wja5if6oIpBD+x6pjyfblBkXSdnLoOIkNygqPR2+CsbkR5rhXaPUiGlADLiZJIZ2oVjtel4tUJDT6f0GC+OgVZIW/OzKjGagQyxFJVOFOvwbqsfKbsgca0Klxu0eDDaS3+02kNXrap0SBziUdLF/UMF8biGWLGavRM/YIfVz/j0fM3mL41Apc5QB6YtgDNYw9x99knLK78grFeN0yy9hcN/Ya58T50Tj3H/Opbb/l0Wfko8nm9s0+t4MehTnTc+4ALtQEvliBDI82agD1y+vH9+gN4gkiTBg3fbeD7M05/Pi6XMSOav/+Ma90Z0nXGUlA58R53zpf488k9S8tz52GT2UaSodD+zJM/YbqvGIylo216A/cGXOBTJnXX3uCcbCpM23Abi0vDcMj0JuwVjQxFrZ+CflnVdcyvBzxrwnO2fOe0NKgyloPuuQ2MNmv9+sjomMa3/XVI8ekhqn0V9CPpL60YbWNLmF55j/mVZ5gY8Pg9T9HqF03/QocHHT+SHkw9uLr2BB2Zgb4l2s90bvQ9fI+5708EeVZFOoXJOTiT3b+s3cOSIY3OAntlIyoKbHuOCHHCJic74QAj0hljKKvS4M9H1eiwqpBvS8Gd41osFwW7qyORIV6+uV6Lj21qtGWokG9NwfRxDe47A+VLKjXYaFejzqSCw5yCwVYN1qsC00DR0sPVX1yLhQzl9q1i4c4QShw5sDnrcGzqFab7K/zkoeDCGu7fvoAyZy5yXMcwtPQB421m/+DJB8uFx7M4VlOI7PwmnLr3AXMTHmh9g6mSfF5PTlhabv8Rlxq1yOt7jrsDpX7ZYclQxll8t76AFlNgUGAsPBni8vlAufTNEaQyBsaKcPLhe/RXB/Tr9SxlIfPYHELJECdPSu1PabyNxSstULEynJ1+hunrnVBLBGMZ7dZA/Xi7Fic8/nYJ+0jtj+IZUqofL6+kX6a1IDPHgcy27zG/chN1PM4Pq1EiO4wV4MTSZwy6A3WV143HlewbTT+MpaJi4i3mbg+huqQA2cVHMbj0HmOt6V58Ra2fsv4l/SUBfrztdKJn/jOG6gPPDmErZuzA2OoGHi4MKk63ivwUftlBkvSdHPoOS4YMebVoaGqEqzAP5rS9NUW2NTKkwuBRLWZzA4OFza7GraIU/5szB3okMhSuE1RUa/CxNjAY17u1eFuXIg3W4fJHSw9XRlyLhQy5Rt5iZrgW6hCPCJfBGH8Af0B/VaD9WZxcTDb5B3Y+WC5dafHrI8V9E0vLo8jzyVOSL91D3YRLq15yk1J1A/Mz52DxlQ0lQ6rUTFSOruLh/MWgtT1KZEiagluZRCEnQ+kncG1tFg2y9UJCV6nNP4QhQ8rtZ84h3OFTbtpOjF67gr7vLyKL1aL/p5sol3mBSi69xo9DAW+juKfU/ihkSOQNVz+eFk2/0j0iTpPFRoYi2TcWfIj6i7DgwkvMXa7x40e5fsr6l8omAX6kdjIbOu5uYLwtLUh3Qq9qQwYM2s1ESaRTmBwDMtl59+wclgxpjVZYbDnIKa2Huyofhj06TRZu3RAHU8AzpMKVHg2msgNkIBzYlMiQJVONB10afD6txV/OaPGXs1ps1AfIkM6WipdntHh7NBV3atU4laWCTkZMoqWHq4+4FgsZ0rpGMf3iI2Zm5zB0aQgtVQ5o/GSkFGceb+Dh2icsvfAda5+xfL3DT36kaRTZ4MbMlfB01vgJjZJ8Xk9WMo7Z+UFkc7Ki68SEjKwIMvTId/+HLzewuHQHLc7AtI4kQ8EzxFJbMfxiBV3ZDOr6W1iSkS2hJx6GIxuMKbef6boxwYlW3iDGz3tw5NYtVBh7cPX+AORToSWX3+wYGYqmX0k/cZIhOXmR2zeafvi9TRWDGLv/CvPPBX42Ni3gj7RmKBb5yYAfyYY+MjRxxBCWDPE8dJAOCAO7h4HwZEgsqNbZUdpcg5w95h0SZCcScEQ6X2AaDxliKSm4eVKLJVcKikwq5BlV6HBrgsgQr4NOr0JboRqTbg1en9HicXHwG1609EjtiIUM8bIaqwvVnedxauwB7r74iGvddunB6h2M3mKwxTe9IqZZLHr/gzeUDIWrSyT5PG/myRUsr33C/OoHzK9+xMOXgWksQYYmewqk6R2bJc1PwuT3UfQMMTPa7nzGeJsR+QMvg6bh5DIik6HI7WesHL0/zaCh6RZGjxhRMf4A7XWXceebI0H1LB56jR8vVft1Jr9vtDVDIm+4+ok0Jf3yPJHJRmyeITkZEveU5EpkUUE/6jr0P32HyZN1sPuwUzv6aotkKLJ8XodkwI9X15nonOGeoUDfk9uC4rs3CJLuSfccA0FkSJOWhdyiXP/uMY02ByVNtXAY9s5U2Vd6g+T5+eqrr8IOTjqdTkpXqVTgZGiwK3iaLCsvFTMlqqDBjhnUeBZmATXTq7HSm4rjqV7PEl9DVF8XIEP8PFXNoJNNqThcGvy1JQV6aY2Lcnq0TsiYFe13NzDRbvS31TX8FrOD3ikb3j61zgCtbOu57cQTLE8dk9b8eKdBfselhsCiZo05F3ZrwFWvRIaiyzeg6dZnXOkpgC3LLh21Y7/6FzgLMiRfQB2uzUpkiOe39z7Dg9EutN8NXqAtlxWObERrP2MWHLnzM/pHZ3DWxZB1ah59l27j9rkiv775PXLOPMXDG51hp0LjIUPR9Cvax8qv4EGYrfXhFlDbjt7BzYGQBdQyz5+QycOo+rGewbfrc2j0TUvy+nL8hX7aIXL9+DRZZPwxlhz48eq6DGeffER/dfCLkrCHKlUPjVrZgy3yUkiDN2Eg8Rg4VFNkg4ZPg2n10OiyUNTgQUmOBTqdESZHFdzuUph1e4cM8TVDZWVlKC0thVodGOQ5OPg5v+5yuaTBTFpAXa3BX3wLqAtsKbjbo8WjwuCHDlOnYO6sFtNOFbL5Vvs0FdJUDEyVglunNPip0usZqnKmYr5HToZUONasxdsmNerSVcgxpeB8iwYf61KkLdh88FBKjwXQeX2rWJqbRHVBHuyV53Hl5/e41OB1tTOmR8O3v2Pm+mmU5NmRYa9E59RbzA3X+u7vXcC6MDuB6sJcZBd3YGDhj7jalekf7JXJUBT56kYMrj7DMUdAn9rmH/DQt/U9FjKktLVe6EdVeQ0P7i/j29XQrfupSLNmSdvxpQXU86MoyuDnNuhT+YLr6O0vH3uJ6YUf0GZmUHvu4Pv5nzHWGvz2nuKaxOyzH1Ar2wEn6iaRoeVrqBJeNynMgkHN7x+tfsr69d8j5zy+f/kTTlZ6PWyZZp0P37Kt9YV5ga31RwNb65Xtq6wfluLGwM8fcL3PA0eOE0XNk5h49GYzGYpYvyjykwQ/3I4pRaO4+2IG7nAYMrRi+OfPWJo7H7SWTtifwsQPfKRT0mkoBg55Wo6AH1VOi/QtIX1GAUprPahvakFtbQXsVsOe+saQ2P5vt9uRn5/vH9R5w/h5dnZ20DW+Nb7HrcGvJ7SRt9YzhsLCVLw4ocVfe/mhwUXfh/Vs2WosHdNg47QGz5vUOF4VIEP8nmpjCq4f0eDTGd/W+tbUoK310dJDDRJ6znSFaJl4iHs/f8T8yi8YP+dGumxNUkpWG85NP8eDF5/xcPX15q31ugK0TCxj5tknqfxEvwdmmSdLabDkdVGS7/0o4g24ZPJY1jncXJuBW8fJgPeji0qeIfnWc7F1XHx0UeiC6doxthbuo47eNUGinAiX19dxqsjnzYvSfr69fnn1O5RxT17hCO6u/4pTxQFyx+vAmA3Nt95h9vpxZGpC0vgC6pDt78vrT9GVw9sfvX5K+vW3n6WjbGARM6ufpQ9Uyj0z0kcXx5Zw9ynHh2/ru8xTGM2+vLwSPtKrhzG5+AYLq69x6/ppNA4820yGotQvkvxkwU9Kuhu9D97jZm9J+I0Ounr0P/qAuemTmz4NITBAIQ3ehIGdxcC+/gJ1fkGBn/xwEhRKjgg8OwueZNIv/15T+9QrzC8vokP2Echk0gG1dev9Kb3xBqZ/fodvB+pglL00kC63rkvSGelsJzGwr8mQPs2I0lIXcnJywk6b7aTiSHbydUy+tslc0g5XTrB3iLCQfFiI1ebGkma4stM2fbk81vKUj7BFGPgyGNjXZIhPmZnMh6UF03zhNIHmy4CG9Ex6JgwQBggDhIGDhIF9T4Zi+QjjQTIYtYUeQIQBwgBhgDBAGEgsBogM0cfOyKNGGCAMEAYIA4SBpMYAkSHqAEndAejtKrFvV6RP0idhgDCwHzFAZIjIEJEhwgBhgDBAGCAMJDUGiAxRB0jqDrAf32CozvTmTRggDBAGEosBIkNEhogMEQYIA4QBwgBhIKkxQGSIOkBSdwB6u0rs2xXpk/RJGCAM7EcM7BoZGrTnwGPNSMivPsRf6vejAajO9OAgDBAGCAOEAcLA7mJgV8hQh82GP1eU4mNZMQrT0+MmRMlOhhhTI//rWVwda4dZ9t+yRHWunZafqHqSnN19mOyU/ncafzstf6f0QnIPJt7Jrrtj1x0jQ19lO2Hw9MDUMwxj62no8kol0lNuPozfy0skMsQJ0cvSQmQYjHERIiJDOlSOrGHuXt+W/npdNvpO+vEn/8Hp8voM3KnhfzPB2Pbk73anjrV9u13P7d6fMQeOP9jAsEftn+p0Dqxt+pHqduXHUo7/s80zuog7Kx8wv7KKyaE22GQ/io1FRrQ828VfrPbfrvxo9ab03RnUSO+k9+1g4FBNYYSpKpsLtfUuWPX6LROVNHcHDl97AsuNp4Hj+gqMHX2ot2ag02bDk+J83MrLleKlZvOW7yH+Xk9foN4+8FONNlgysmBxDeO2AhnaDrD2QpmD3r69QIac559jce4KaoucyC7pxuDCJ3z7tcNPznYTBwfd/rupW7r39p+7pLu9qbuwZEijzUB+XRNKs7fusdHnl8NyfUUiQelj80g7OQnTpRk/KUqrOSIRnzv5eTibnRUXCRKEaC97hpixGj1Tv+DH1c949PwNpm+NwGUOeGD4m3Xz2EPcffYJiyu/YKzXDZPs79ZFQ79hbrwPnVPPMb/61ls+PVC+avJTwLszdx62kGkyllaMtrElTK+8x/zKM0wMeGCRyecdk2Wdw80IZEhJPmN6eKY2/PfnHiZ+3DwZGAzjbV+0BwfTOtE4PO/zTPD2NcES4plQal80/US1XxT7Rqt/POmxkKGo9Y8Df4ylo3V6A+NtaX7yY6odxMXjZUjx4TBe+yvhT8LuAcd3PPigsntz0CW77E27hCVDxrw6uKucMGi37hUynbkqER/jxTtQ2YuRWu6BKqcIhlPe6+aRuaQiQ7l9q1i4M4QSRw5szjocm3qF6f4KafBgLAUFF9Zw//YFlDlzkeM6hqGlDxhvM/sHF06GFh7P4lhNIbLzm3Dq3gfMTXig9Q02GmOm5N3JPDaH5RAyxFgqKibeYu72EKpLCpBdfBSDS+8x1pruly8NKApkSFm+ClpTlte7lJGFjIph3Fr7DQM13sExEe1TenBw+c7+VSzOXfV6Jkq7MbT0EVe7smJqXyz6UbIfr1u0dOX6l+Lk0icsvQg5rrb7yYRy+ejTZEr1i9c+vLxr+DV+vNaNjDBTrPHK521Xxt/BxreS7Sltbw6oZJf9a5dNZEhjcMDVWI88c9q2vDbmiUWJDGkbevBVy1kpbjgxhlRXg9879NXhTCSLZ8g18hYzw7VQh3hseKdhzIme+Q/orwp4erJOrWBpssk/mHMytHSlxT84prhvYml5FHkh8lKbf9hEhsJ1zIILLzF3ucYvX6qHAhkSMqLJZ2onuu99xA+X66ATXoEEtk/UQx4yZkf33GeMeDT+9pjdlzHQ5YJKph8lz5BcHo+H6kfJfjx/tPRQ+fJzxjQwZDqQmRNyWPT+9sjzh8Zj8Qwp1S8R+GNmD84/+IDFx48wfPE0yrMDdU+EfNHmaPgT+ULtx6/HYv9o8ncD36JNFO7fAZZst39sF0SGNFoDbC4PaouyoNXqobGWoNZdAvMWPETmkVmJ9HzVfAaptR0wX/sJutZepFa2esnQ9RVojeakIUNa1yimX3zEzOwchi4NoaXKAY2fLJTizOMNPFyTeQbWPmP5eoef/EjTZDLywsyV8HTWwCIb7HmHi/QwN1UMYuz+K8w/991jbWPTAtt4BwvuYcnrXcHCg2E4NQFix1ji2hfuoeKVH0wmw+ZTIHvR9KNkP36vaOnh6pOoa7GQIaX6Jco+LMUEe+3X6Jl8hLlnK+gp0kpkLlHyub6SEd+JwgnJ2T8DMtlq92wVTIaM+aj0VCE7zTs9th0yZDp+WSI9h8cWoC52g2XlQ+WsQPrgD9J188XbSTVNxsGtsbpQ3Xkep8Ye4O6Lj7jWbZcNFm8x2BLZMxBKhiJ1lnCDBVPXof/pO0yerIPd532oHX2VcDKkLR3D9OojdOYGdjXxenoHw8S0L1y74yVDseonkv1EnaKli3yhIa//Tk+T8XtGql+i7cOnxbJPreDhd92SdzCR8pMR36F4ofPdGyhJ9wdf98FkKL0I1c0tqG9shls6WtCwRc+QzmbH4SuPvF6gG0/BF1Ef9i2o5gur+QJrvvA5GabJGFNBrTNAK1vQazvxBMtTx6Q1P95phN9xqSFAIjTmXNitgQWpcZEh6xl8uz6HRp3XW8Pr4xp+u5kMZUZeQC0eAuEGI57G9HXof/QOk53ZQVNTUnrCtmwAACAASURBVJo0TZaY9ol6yEPuGTl2n0+TeT0RPM3imcRwT1lQXViE9rEo+oluP2X7yusaLh7/NJkV7Xc3MNFu9E+rcfvODlb6yLZy/eLFH1NV4vj3N9GYGfAGpjTexsO5fmQw5psGToz9w+Evmv2EziPZX6TzMJx8fn038S2vH8UP/mBMNt5dGx+qKbJBw6fB+LSYzgC90YQ0cWSWbnmajBMd/k0h8+XADjK+xZ6vJUpz1fvXISUHGdKj4dvfMXP9NEry7MiwV6Jz6i3mhmulwVosMF2YnUB1YS6yizswsPBHXO3K9A9uSmSIT0+lWb0LmKUF1POjKOJb5TNs0KcysBQ3Bn7+gOt9HjhynChqnsTEozebyZD2CEbXfsNgsxNWqbwVuhQ+mEWRz/QoH/8V89Pn4JTKeetiNoppEu8C8e22L9rDgevPOfAcS74F1Dmu47j06COuHg3oj8tgkdoXRT98t5yy/ZTTo9U/Eel5fatYmptEdUEe7JXnceXn97jUYPCRIeX6xY+/DDR//wGzU+dRns/xewTn5j7i7oVywrfvNz9K/TcR9icZuzuAkv4Pjv4PeVqOgB9VToufqIgt69uZJhNltYZ06J0upNW0QV9UDa3pcJD8ZCBDvKOkZLXh3PRzPHjxGQ9XX2/eWq8rQMvEMmaefcL8yi+Y6PfALNv6rvQw9U5DbN7avry+jlNF3rf19OphTC6+wcLqa9y6fhqNA882kyGmhr1zGt+vfMKj9Q0srz9FVw4nQ941P2LLvAiFfLFmRVwX4fxYg5/MsTjaF8uDhsv3fvTvo+/TAWG21kdoH5cfTT/R7BctPZY2xJOH6QrRMvEQ937m7f8F4+fcSJetJ4tWv3jtozJX49g3j3FXuv9zXB05Brs24CmKR340/MViP56Hf2F6v+I7HmxQ2YMzUJMtd96WO/YFaj8p0oXflZYsZIhAvH0Qs8LLuBO67Vw6v40a2dQj6Xj7Oibdke4IA4QBwsAfsGtk6KI9B622CF+/jkCgIhGsvfzRRQLZ9h80LDUdGaHbzqXzDP93lki/29cv6Y50RxggDBAGvBjYNTIUidhs5zqRIerQ1KEJA4QBwgBhgDCwXQwQGfItdNyuAqkcdT7CAGGAMEAYIAzsbwwQGSIy5F/sTJ15f3dmsh/ZjzBAGCAMbA8DRIaIDBEZIgwQBggDhAHCQFJjgMgQdYCk7gD0FrW9tyjSG+mNMEAYOEgYIDJEZIjIEGGAMEAYIAwQBpIaA0SGqAMkdQc4SG821BZ6UycMEAYIA9vDAJEhIkNEhggDhAHCAGGAMJDUGNg1MjRoz4HHSh9dJBa/PRZPeiO9EQYIA4QBwkCiMLArZKjDZsOfK0rxsawYhenpQf8so48uErgTBW6S8+WwxP//lf/1LK6OtcMs+zca2SBgA3WGG11j99FTEfh3W+bRKYz0H4VdH7hGOgvojHRBuvhSGNgxMvRVthMGTw9MPcMwtp6W/mTPiU65+TB+Ly+RyBAnRC9LC5FhMMZFiOgL1LvbYVjFVcyvTKLgCw+C4kexwx61373rHFjb9CPanepMTH0EI2ufMf9NGzSM/9i2GCcXP+Ph3HnYtqmLgovrmB91+9ujVPey0XcQP8ddXp+BOzWxAypjWTg6u4GRZk3U+jCmQ+XIGubu9SFnm22P1Nbdwlc0/UZLl7dHW3geN1bWMXGuEw5jwE6pmXXonHyKB0vfocqsiqpnuUyK7+5zj/R/sPR/qKYwMFWl0RqRU9mGxqZWNIjDXQKzVr8lspLm7sDha09gufE0cFxfgbGjD/XWDHTabHhSnI9beblSvNRs3pL8UO8RkaHdBeVuDVZ7ggwtr+DW8veoSmVguRfw/f0V3P5CZCjVaIMlIwsW1zBu7zIZ2smBYbfwFU2/0dKFTpimAr2P3mG8PQuqMESRMQNcI2uYn+qCKUy6kEPh7j7nSP8HW/8hZMgEe1ULirK2Rn7k5ESfXw7L9RWJBKWPzSPt5CRMl2b8pCit5ohEfJLlr/XMVIWem6t4sPoe01Nn0T4cePOPZTBn2gI0jz3E3WefsLjyC8Z63TCpAm+WRUO/YW68D51TzzG/+hbTt0bgSvem88F5+uUCWsyB/KrSCcyu3kalxpfHWI2eqV/w4+pnPHr+xltell/p/qzqOubXN/zeCb+X4s7pL/JQj0l/cbSPP/wU9St5hqbRP/kSAzVq2E48xtXRG7gjI0NMV4AWbr+nHzD/ZAXDp6thlA14zFSDE7c4Pt5h+rszaLv8MsgzpKR/8XBmWedwc5tkSKl+fs/QyU70z77G/LNXuDHaDluKDzvMgeMPgu3/8EpLkHcjWv2Z1onG4XncWfmA+ZVnmBhogkXIjwFfLIp9hY4ihSytGG1jS5heee+7vwcWWf/i5aLpN1q6tuE2FpeG4QiRK68TM/Xg6toTdGQG+qo8neIHeyAm++6+fTeRIQcnQ5nbJ0OmM1cl4mO8eAcqezFSyz1Q5RTBcMp73TwylzRkiK+jKL70Cktzk6gudMJRO4jx5ff+wS7aYM5YCgourOH+7Qsoc+Yix3UMQ0sfMN5m9g84fLBeeDyLYzWFyM5vwql7HzA34ZH+6s7lH7v/GVe7Mvz58/k00pVWpPoG5Ny+VSzcGUKJIwc2Zx2OTb3CdH+FlD/a/ZnWgkz+F/m27zG/chN14g/zViNSZAN+pI7OWClOLn3C0ouQ42p7jOW9g7HSNFk87eP1VtQvJ0Prs2huuYV7w504Mv0IR1qv4IGPDEnraAbWsDjrtb+94iwmVt5h2GPy6TcVZaOvsTg7gaoCLz7GHr2V4SO6/Xkdow3GkfWvBsdD5Pp5p8l+vDuGhmInvPX/hMl2q6/+aujNWV7vVEYWyoZeQE6GouKHpcDZv4rFuauoLXIiu7QbQ0sfcbUryys/Bnwp2TdSu8V1xlJRMfEWc7eHUF1SgOzioxhceo+x1nTp/v58UchmNP3n9T3H4oQnSKaQLULGnOiZ/4yhepoqEzqhcPcJQjLZIIQMpcNR04JyVzmqGprhrq9FYbYZmi1Mk5knFiUypG3owVctZ6W44cQYUl0Nfu/QV4czkQyeIcZy0D23gbFWvW/wUKFifCtkiD8gP6C/KvC2mHVqBUuTTf4HKx+sl660+MlDivsmlpZHkecjI5knf8KjO6eRLq1pKcSJpY+41KDzl3eNvMXMcC3UYciL9wGtfH/eWbY7jcGYBoZMh5dQCSLFQ4tXX9E6YjQyycvH2z4l/UprhtYX0GJrw/DCc0zf7YO19jss+cmQl4wON6X69e3sX5ORnTxpABTpjIXiI7r9Jf1HGawj6VGQZXF/ni+4fl4ydLXL4q9/3vkXWIgwsNt7n4WQIeX6M2ZH99xnjHgCa5LM7ssY6HIFTScp4UvJvpHarXS94MJLzF2u8beX541GdqKll1x6jR+HKoNkhtaBMRs67m5gvC1NMV9oOTonwkAYSAwGNpEhe4UHlcV2GPQGGLLLUOOpgE0fu6fIPDIrkZ6vms8gtbYD5ms/Qdfai9TKVi8Zur4CrdGcJGSoACeWPmPQHSAz8gWy0QZz7jk583gDD9dknpO1z1i+3uEnP3ywlj+8mbkSns4aWHzkhtnOYurlQ7RZGVjeIKaf30GNNlAfrWsU0y8+YmZ2DkOXhtBS5ZAWA/MOFsv9pXx7eAF1vO1T0q+XDD1Ge4YeJV/fwKnGHLD6W1j2kyFuv2Ayafv6sd9+Xv0GpwfjI7r9Jf1vmwxFq9/mBdTy+oc+hDeTIeX6h2t/qMxo+FKybzhZoddMFYMYu/8K8899fWxtY9MC/GhkJ1p6yeU3MZOhiSMGIkP0vR/CwC5gIIgMydf+8LhGm4mixno402MnQ6bjlyXSc3hsAepiN1hWPlTOCqQP/iBdN1+8nUTTZIkgQ28x2BLiPZF5TkIH69CHvfeN8zOuH7ch+9QKFq+1S1No8nwaqwvVnedxauwB7r74iGvddqkzegcr5ftzOUpv7vL7hMa5/J2eJuP3jKd9SvoVZKgjI0AuWf33CSZDMeh/T5OhyPVPBBlSsm8o3kLPmboO/U/fYfJkHew+z2Tt6KuEk6Hiodf48VK14gDHWCY6Z7hnKDavaGhb6Dwx3gHSY/LqMYgMabRp0BuM0Om85EeQobwtkCGdzY7DVx55vUA3noIvoj7sW1DNF1bzBdacaNE0Gfe8pKNtegNXjnrXKPBpkvKx97g7UOojI3ya4XdcaghsHdeYc2G3BlzpSoO16Njm7kU8mh7BqXt/xHBT4GHL76fWGaD1LVjl+W0nnmB56phvzVH0+/MyrPwKHmxja33802RWtN/dwES70T/QuIbfYnbQOyWRiPYp6Tc6GYo2Tcb1+xlimir8NJmy/SX9Z0ZfQK02ZMCgDV6P8mWmySLXX9x/xKP128/imcRwT1nwNFkEfEWzr8A/D8O233oG367PoVHnJbNcHsfP/FiDvz6x6JdF0X/Omad4eKPTv05PXi8RZ6wMZ598RH91sI1EOoXJO0iT7b+M7Q/VFNm8a4K0emi0ZuTWNMOVa4VOa4Ahqwy1jeXI8JGjUM9RpHNdXinMlwM7yPgWe76WKM1VLxGh5CFDapRc+tW7gNq/QPadf80IB3n2yRUszd9AXZETjppBXH/2K85XegcHsQB1YXYC1YW5yC7uwMDCH3G1K9P/sFYarEUnYuav8c3zj1hc/QF1vgc/T2NMj4Zvf8fM9dMoybMjw16Jzqm3mBuulQajWO4vyck5j+9f/oSTlQXe9T/mwJokUYedCvP6Vn36zYO98jyu/Pwelxq8Uw2JaJ+SfqOToRTkD7yQFihXFYoFyO9wuTHSAuohTAQtsPcuoFayv6R/7RGMrv2GwWYnrHyrfYYVOhnBZcZOjK9u4OHCIOyytWHcvsr1806Tzd2blC2g/h2THd4F1KE23TxNplx/fn/nwHMs+RZQ57iO49Kjj7h6NIBvqX0R8BXNvqJ+Eduf4sbAzx9wvc8DR44TRc2TmHj0ZjMZiqbfKOkprknMPvsBtWkBD6KomwhTikZx98UM3Ap5RF4Kv8zgSHpOLj0f8rQcAT+qnBYvUUnPRVG1B25PC+rqqpBn2+YXog3p0DtdSKtpg76oGlrTYT8RShYyxDuTd+v0c9/W+l4cGQ7ZOp3qQP3wAn7gW68f/4Sh42XQywcsvjV7Yhkzzz5hfuUXTPR7YJZt0VUarEVn5h6olunPWLrRuWmKLCWrDeemn+PBi894uPp689b6KPeX2sjSUTawiJnVz9I2+9A3a1GPnQiZrhAtEw9x7+ePkn7Gz7mlxeLiXvG2T0m/0ciQpBuxtf5nvrX+KUbCbq334uPOzT60jwQ+veAvr2B/KQ9Tw945je9XPuHR+gaW15+iKycw8DJ9A/qXP2Bu+uSmj0H6t9aHqZ/YWj92+hguzr3GwrNfcWO0E5kyoiX0zEOJDE02+4l6LPXn9/eMLuLOCrdf8NZ6IZvjNxK+otlXqoNC+9OrhzG5+AYLq69x6/ppNA4820yGouk3aroNzbfeYfb6cWT6Pmkh2sbDlHQ3eh+8x83ekrAbGeR5KZ5cAzTZ+8vZe8e+QB3JaySuJ8M0WTggyxfIhkvfiWuM5aNn4XeMNgem13biPiTzy3XcvaZrPsVUNvoWdwfKgsjQXqvnbtWHf2+pfeoV5pcX0ZEfIKrpjTcw/fM7fDtQB6PsJWe36kn3Td4+nOy23zUydNGeg1Zb4OvXgiRtJ9xPX6DeFTLEd5GtzaCe/n9EA3UCd2mwFD1MfFrO5kCeewQ3nr3EGVdgm3yyP1xD28/XyJlL2uGSee2MJc1wZacFrZEKLUfnRFAIAzuPgV0jQ9shPZHKEBlSBor97C9Y+q4bOtn0G3UuZZ2RfqLrh6WfwDU+Lffyd9x/+BD97QWbpmFJj9H1SDoiHREGdh8DRIYS+KZMgN59QJMNyAaEAcIAYYAwsFUMEBkiMkRTR4QBwgBhgDBAGEhqDBAZog6Q1B1gq28PlJ/eOAkDhAHCwMHDAJEhIkNEhggDhAHCAGGAMJDUGCAyRB0gqTsAveEdvDc8sinZlDBAGNgqBogMERkiMkQYIAwQBggDhIGkxgCRIeoASd0Btvr2QPnpjZMwQBggDBw8DBAZIjJEZIgwQBggDBAGCANJjQEiQ9QBkroD0BvewXvDI5uSTQkDhIGtYoDIEJEhIkOEAcIAYYAwQBhIagwcqinc/H8wjdaITFcTKvMt0Gr1QX+bj/RLjN28vp9+x7FVtkr56Q2HMEAYIAwQBggDO4uBsGRIaylBdW0x0nV7nwhxEkZkaGdBQp2Q9EsYIAwQBggDBxkDm8iQRmuGo6oeBVbDnvcICW8UkSHqpAe5k1LbCN+EAcIAYWBnMbCJDOmzK1BXV4uy6gbUumtRmLP3p8qIDO0sSKgTkn4JA4QBwgBh4CBjIIgMabQW5NU2weWwQqdNgz6jBFUeNxymvT1dRmSIOulB7qTUNsI3YYAwQBjYWQwEkyFTASobXLD4Fk1rtAZkV7ShzGHc01NmRIZ2FiTUCUm/hAHCAGGAMHCQMRBMhizFqG10weonQ0bkVLbBZd/b64eIDFEnPcidlNpG+CYMEAYIAzuLgUM1RTZoOPnR6qHRZaGwoRnlzkzo9QYYs1yo9tQg20DTZATEnQUi6Zf0SxggDBAGCAO7hYFDnpYj4EeV0yJNheksThTXNKK+qQVudw3yM9O9ZEmXtmenysgzRB1otzoQ3ZewRxggDBAG9j8G6AvU9NXRpP7qKD3E9v9DjGxINiQMEAbixQCRISJDRIYIA4QBwgBhgDCQ1BggMkQdIKk7QLxvE1Se3kgJA4QBwsD+xwCRISJDRIYIA4QBwgBhgDCQ1BggMkQdIKk7AL3R7f83OrIh2ZAwQBiIFwNEhogMERkiDBAGCAOEAcJAUmOAyBB1gKTuAPG+TVB5eiMlDBAGCAP7HwNEhogMERkiDBAGCAOEAcJAUmOAyBB1gKTuAPRGt//f6MiGZEPCAGEgXgwQGSIyRGSIMEAYIAwQBggDSY0BIkPUAZK6A8T7NkHl6Y2UMEAYIAzsfwwQGSIyRGSIMEAYIAwQBggDSY0BIkPUAZK6A9Ab3f5/oyMbkg0JA4SBeDFAZOgAkSHGTCjv9sDBGBGcA2TXeDs5laeBgjBAGCAMKGOAyNABGTSZw4Pe3m50ezzwdPeiu9xEhOiA2JYeYsoPMdIP6YcwQBiIFwNEhg7QgMlM5eju7YXHQZ6heDsGlaeHK2GAMEAYSB4MEBnaQTLEmAOe3m6Ul3tw7tw56ZB7bLzpvZvSHJ6AZ0fkEQRH8gB1l8MUMhXmzcenyPg9aaqMHmLJ8xAjW5OtCQOEgXgxQGRox8lQL3o9DmnKyuu56Ua5icFPlExeL453vY/Xq2Mq7w6UcXjQ3d3tn/aSE6V4jU/l6QFCGCAMEAYIA4SBP4DI0I6TIS/54WDzEh4fGXIEvEXCa8RD7jnykiavd8fh4fkd8EjeIL5AOiCPAEwPMcIAYYAwQBggDMSPASJDu0iGesNMd3FQB0hTCAlylKM7QhnqDPF3BtIh6ZAwQBggDCQnBogM7RYZktb2BC92dngCa334VBmfHhNTbOJcvuaIOm1ydlqyO9mdMEAYIAwkFgNEhnaJDHEgi91fYppMLJKWp4lr8vVG1AkS2wlIn6RPwgBhgDCQ3BggMrSDZIg6V3J3LrI/2Z8wQBggDOwPDBAZIjJEH2ckDBAGCAOEAcJAUmOAyBB1gKTuAPTWtj/e2shOZCfCAGFgJzFAZIjIEJEhwgBhgDBAGCAMJDUGiAxRB0jqDrCTbxokm95kCQOEAcLA/sAAkSEiQ0SGCAOEAcIAYYAwkNQYIDJEHSCpOwC9te2PtzayE9mJMEAY2EkMEBkiMkRkiDBAGCAMEAYIA0mNASJD1AGSugPs5JsGyaY3WcIAYYAwsD8wQGSIyBCRIcIAYYAwQBggDCQ1BnaNDA3ac+CxZkCrS4v7qKysTGoj0pvH/njzIDuRnQgDhAHCwN7EwK6QoQ6bDX+uKMXHsmIUpqcTGaI3EiKzMWBAneFG19h99FQw0lcM+hKDDmNq5H89i6tj7TCzxOtup+WLdoQLM49OYaT/KOz6xLcr3P3o2t4cyMku8dtlx8jQV9lOGDw9MPUMw9h6Grq8Uon0lJsP4/fyEokMcUL0srQQGQZjXIRoP3mGKqs1+OxO2dJgxhhDTYUGr09r8bfnvsJfT6eiYQce6tvtUIylonOoHv/tfRfwp2PAhwr07KH6bbddiSrHasrwz7+VoTUOnWgLz+PGyjomznXCYUzMwFfgmMCtymvScbPiBMpV4eUypkVe1hmMl1/15i07ioI42pIovcYqhzEdKkfWMHevDzlbqHfZ6Ds8fvUn6Vhen4E7NZJ+tic/1vor5UvNrEPn5FM8WPoOVWbVlp4rSnIpLf7BlXS4v3R4qKYwMFWl0eehrLkNDU2tgaO5DbWFti2RlTR3Bw5fewLLjaeB4/oKjB19qLdmoNNmw5PifNzKy5XipWbzluRz8hPt2KtA3BYZ0qrxqFeDazkqZKepkKVXQbuFh/pO64Kl5+I/bzTjaaMBBVk65Ns00O+h+u10+6PJj5cMMU0Feh+9w3h7FlQJ1Guq2oh0jQnphmaMKJGh1Eqcr7iIoyarN3+qHqkJrEc0/e1WeqrRBktGFiyuYdxWIEO7VT9xX8YMcI2sYX6qC6YksItoN4X7i2zsdXuFIUM1yNbrJXKi0ZrhqGmBKyd2z40+vxyW6ysSCUofm0fayUmYLs34SVFazRFJ9p38PJzNztoSCRLri6J5gqKlf0mjMG0Kxlo1+HRai5ctKThTG+wZYmoVTrpT8ea0Fn86ocGDChWsIQ80ZlRjtTcVR1PCv5lGag9/I55+3I0/X7Bj7Uk7/vX9EfxP3zlQJnvDZTojJm804H9/34X//roZfxrKQI7MQ9A+2Y5/+q4At39sxb986MDf3y/BMUtwPZi9AP/zRi0GNcHXeb2Y3ogrNxrx39524p9fNeHTBSuyZO1Tks9KS/EPK+VYmGnH/7VShPZ6F/7+XTv+h770mAdj3r6Ra/X4+zed+JfXLfib0Sw4ZXpUur9U/yj6YYZ0XP+2Af/rayE/E3k+/TF3Bf51o9vrLeMeM3EsOZHt00E0/fM6aBtuY3FpGA6ZXYTNmdqBFudFXCm7iqnyMYzmt6BAbt+UDNTYz2Gi/ApuuC7ibKYTBpn+pTZq3bisRIaipIu6bCdkxmr0TP2CH1c/49HzN5i+NQKXOYAjpi1A89hD3H32CYsrv2Cs1w2TTA9FQ79hbrwPnVPPMb/61ls+PVC+avJTwLszdx620LanFaNtbAnTK+8xv/IMEwMeWGTyJf1kncPNCGRIST5jenimNvz3F16mmycdfg9OvO0TOmemHlxde4KOzEDb/Wk6N/oevsfc9yeQEdJ+kYdCIhbJjoFgMqSzwpaXA5POR4bMRahurIDNR44EGVEKTWeuSsTHePEOVPZipJZ7oMopguGU97p5ZC5pyBCf3mpwa/Hno2q0WlQoylHjfo/WP03G0yuqtfjjETUazSoU2FJw57gGD/K9DzRmVePVGS3+claDv/Zq8Tc8zo8TqXDH8FATZOgfl10YKTeiutqJP//Whf9yQic9jBlToWWsDf/nfBF6Cg2orHTg7YtO/Llb439Yc7Lwb+u1mGkwoqI4E4+WO/FPU5nSgMpKi/H3n7rw77934f/b6ML/w+P8eFOObsbA5TePteK/P3HhXIkB1bVO/M3rTnw8Eqv8UvzDu1p8U2rGg8ed+LvxTNR2VOEf31VI8qN1Xn5/z0gL/n2lDAOlBlRU2PH2xVF/+3l5xfZF0Q+Xf+q7DvzTg2KcKzeiosyO1887sXHU2z6m06LUkQZXdxX+5XUVLvA4P2ypUPv0E03/vI55fc+xOOHx20Te7qysQdwo8MCpTYdFl4em/GGMZtv99nVkX8Y3BY0o0FlgM5TjRMkkei36IFksAtlh+iaMlV/Bt+VXMFVxFd/54t+6OpEfA/7k9YwUz+1bxcKdIZQ4cmBz1uHY1CtM91f46p+CggtruH/7AsqcuchxHcPQ0geMt5n99edkaOHxLI7VFCI7vwmn7n3A3ITH7znVGDMl707msTksh5AhPr1bMfEWc7eHUF1SgOzioxhceo+x1nS/fF5vpkCGlOWroDVleb1LGVnIqBjGrbXfMFCTlrD2Cb0y5kTP/GcM1W+eKmPGDoytbuDhwiDsCbKbuC+FRKIOCgaCyJCc5Gi0abAUNaKuJAsarZccydMjxc0TixIZ0jb04KuWs1LccGIMqa4Gv3foq8OZSAbPEB8sL3drMZPnIzeMoak+4Bni6cPHNLiZFXiby3Np8JcG75oilqKC3ahCXpYaa70a9JlVyOPnRhV0MTzUBBn6r6e95IeDtmG4Ff9xKwsp0mBswP1nnVhzB+5f1t+E/7iZ6R8MOFn4j++zpMGbl09tqsK/vyyR1iwxjQZFfHCvK8H/slGPWwW+wd6h9ZIlZsC9lS78sT3wgG4cacU/38iITT73DD0vQQ1jaB1vw5+61GAGB/52oxr9Mu9OpM7IWBrurnTh05HAGq3cphKsnzBL7eflFNvHousn9N6c3PzTVau/fTw90jQZn96Ipn9evuTSa/w4FH7HZIF9HJP2PL995PVhzIrW4kkcNwTsa7X14ztHYXD9IpEhlR5mrQVWYwtGKs6iQWeBlZ9r06CJAX/yukSKu0beYma4NkL9+QD/Af1VgfpnnVrB0mSTv/6cDC1dafHbM8V9E0vLo8gLqV9q8w+byFC4OhVceIm5yzV++TyPEhkSMqLJZ2onuu99xA+X6/x910tgEtM+xmzouLuB8TYv0RL1EqHakAGDNtAPxXUKicwQBrwYiEyGdFkobmxEvjV2IsQJknlkViI9XzWfQWptB8zXfoKutRepla1ez91Q3gAAIABJREFUMnR9BVqjOSFkKNy6IW7YvTJNxsnOlR4NprIDD3P5miFvuhb/6azP4+Pz/Py1KSVocIh3moyTCAH44nMeYMYuPZAZS8eT9W78v7/7PDqfuvAfv3cDP+T4p6E4WZAP7sxqwXiPNWiwiTRN5pUfTLak+8coX5omC0uGajCgDuhUtC00DHf/0DxK7YtFP9k1RfjT0yP4549eHf7H527867c2v775/SKToej65+VLLr+JSIY0aa0YKZ/EZNEpnMjxoNZg8duOsSx0ln6D7yq83h3u4fmu/BvczCv1kwepfhHIkNBVJM+RSI8n1LpGMf3iI2Zm5zB0aQgtVQ4/0WKsFGceb+Dh2icsvfAda5+xfL3DX39pmkxGXpi5Ep7OGlhiJEOmikGM3X+F+edC/gbmxxqC7afgGRJtVyJD3AOV17uChQfDcMqmkhPZPkGGJo4Yguou6kchkR7CgDIGIpIhXU4lGmqLYNqCV4iTIdPxyxLpOTy2AHWxGywrHypnBdIHf5Cumy/eTqJpstjI0LQz4PGRPD8h22R3lgx14HWn8Oj4wowAeQolC+E6VCLJkFz+bpChoPtLZDGyfpg6A2tvO/G35zNQk+vVXf/1I1skQ5Hli7oUD73Gj5eqIw5yqanZKLHWo93Od3xNYiDDO43kJUPj+NosPDq+MDUwTcnvEY3sREsX9dxuqLG6UN15HqfGHuDui4+41i2m+TgZeovBFgcyc2SHbJovlAxFqkM4ssLUdeh/+g6TJ+tg98mvHX2VcDKkLR3D9OojdOYG+pWkd4nsJaZ9jGWic4Z7hoKnQCPpg64rD4ykn+TTT1gypNGaYK9sQUXe1r8BpLPZcfjKI68X6MZT8EXUh30LqvnCar7AmpOm7U6TfaXna1sq8dVXX4UdHHQ6nZSuUu2+S9g7DRZ9muwHR8DLodOpUJhgMhQ6TfbvNzOlXUneaZouvGsN6CrNYkC1LfDQjo8MxTZNJvc8yR9C8ZMh7/3l02TOIy58PBs8TRbx/tI0VmT9MFs+/seNOoz47MXXgB271rGZDFWX4f8Os7U+Fv1zfeSceYqHNzr9Hh+hI44vtUrr96Tw6xbbedx0lkvXvNNkV3AiPTBNmJpqQWYoGdLU4dIuLKCW6q8zQCub8rSdeILlqWPSmh/vNNLvuNQQwKPGnAu7NTAVFBcZsp7Bt+tzaNR5+x+vj2v47WYylBl5AbWwRTiyxdOYvg79j95hsjN7007ARLaPsTKcffIR/dWBvizqxkNVqh6aGLyp8jIUTz5CkMw2P1RTZPOuCZJ5gDTGAlQ21SDbsLUpMrGOiH9TyHw5sIOMb7Hna4nSXPX+3WPbJUP8HmVlZSgtLYVaHXhIciPyc37d5XKFJUpf2tDhFlDPh1lAvXFUjTaLCk5rCm4d02K5KECOeJ3j9Qz940MXRsqMqOILqH/dvID633wLnMvLcvDy2eYFxpHIgtBnZM+QCs2j3gXUvbIF1B/aAp4JJbIVPxlSwTPa6l9AzReIv187iv/8dWANleL9fQuoI+mHqW1Yf9uJ/3o5E7W5RhzpdOFv1to3kyFHAf7ucxMe1hmlBdSlFi9u+eDL1xhFki/0m+KaxOyzH1CbFoILpkGF8yom82rg1Jlh1trR4BzDVXuej+yqwBdQ3yhqQ4neggx9KY6XTKLfagzqHyylBGcqRvG1OcO7dV5j8C9AlvAXbRqNqeAuVuNSvmpLn1Tgu60avv0dM9dPoyTPjgx7JTqn3mJuuNZXf+8C6oXZCVQX5iK7uAMDC3/E1a7AmjYlMsSnp9Ks3gXM0gLq+VEU8a3yGTboUxlYihsDP3/A9T4PHDlOFDVPYuLRm81kSHsEo2u/YbDZCatU3gpdCt8gEEU+06N8/FfMT5+DUyrnrYvZqJX0z1h87RP44GFK0SjuvpiBOwQjkv0MrRj++TOW5s5v6TtLcvkUJ2J00DFwyNNyBPyoclr8RCW9oB4N5Q7oZARJEJ2YQ0M69E4X0mraoC+qhtZ02C+fy4iHDPHydrsd+fn5QQ91fp6dnR10bbcNKN9a/2urGufcgQXUvG4sVYVT9Rq8PaXFxgkN5qtSkBm6tTfOrfUb5+148di3tX7KgXL51mu9EVe/a8Q/vO/Cv75uxl9GAlvDef2UyILQbSQyJLWPb63/1ru1/l9+bcLv4bbWhyw49suNuIA6tjVD4v7j1xvwvyltrY9wf1FeST+O+hL87Wo7/u1jO/7ujhMjYy2byRDToGe0Af/HR+9HKeVrivinB5TkS3VgNjTfeofZ68eRKVtzwtNStCXoyh/CN+VX8V3ZaJit9TbUOvowWXYF10svoje7MGhrule+CpnWHgy7+K6xb3Cz4gI82gDxijZNxlLVmD+rxfOy8F4Jfo9IR0pWG85NP8eDF5/xcPX15q31ugK0TCxj5tknzK/8gol+D8yy/qFMhrxrjsSWdhEur6/jlO+FI716GJOLb7Cw+hq3rp9G48CzzWSIqWHvnMb3K5/waH0Dy+tP0ZXDyZCyfMYcOP5g89Z6+ZokFkf7hE5T0t3offAeN3tLgtYainSmq0f/ow+Ymz656dMCIg+FkTFKukkO3ezYF6ijkaZ4yRCXn19Q4Cc/nASFkqNkB7HYTcY9TwdRF/6t/WJLvz+sRp9s6uUgtJ1/j6Z96hXmlxfR4fv0wl5pV0p2Kj73anAujFdir9TxoNYjvfEGpn9+h28H6mCUkcSD2l5qV3IQk92w866RoYv2HLTaAl+/jkaewqXr04woLXUhJycn7LTZbih0L91TkCH5brK9VL946+Lf2i++3+MPdTCG7CaK9157oTxjGphL2uHKCXht9kK9Cis0+JsjKZt2cO2Fuh30OhhLmuHKTtu0Humgt5vaR6Qo0RjYNTIUjtxs55rJfFhaMM0XTidaOftd3kEnQ/vdPgeh/nzd06kjWtx3bn2K7CC0n9pAgzJh4GBgYN+TIU6g9sp3hahTHIxOQXYkOxIGCAOEgeTCAJEhhcWd1BmSqzOQvcnehAHCAGEgOTFAZIjIEE0vEgYIA4QBwgBhIKkxQGRoBzqA0Rj8HRd600jONw2yO9mdMEAYIAzsDwwQGSIylNRvA/Sg2h8PKrIT2YkwQBjYSQwQGSIyRGRoBzCwk52WZNOgQBggDBAGEosBIkM7MBDSNFliQUqdnvRJGCAMEAYIAzuJASJDRIbIM7QDGNjJTkuyaVAgDBAGCAOJxQCRoR0YCA+aZ4gxNbJqZnHiSDsMO/hlZ3WGG11j99FT8WW/sMzbl//1LK6OtcO8A+3baflKD8XMo1MY6T8Ku/7L6lSpTpSW2Ic46ZP0SRiIHwNEhogMRfUM8S9Z57etYeh0H6zbIAvMcRWXByeRrVBWW3geN1bWMXGuEw7jlx24efsqR9Ywd69vS3/1Lht9h8DPP2fglv0AV/5w2q58uYztxlMz69A5+RQPlr5DlZm+Er1dPVK5+Acb0iHpcC9j4FBNYcj/wUwOFFY3or6pBe66auRnmaGN5+/1urSgv9Vv55cb0crstS9QHzTPULwAjkaGmKYCvY/eYbw9a1/9YynVaIMlIwsW1zBur0cmQ/HqL97yjBngGlnD/FQXTAqENN77UHka7AgDhIH9ioEgMqTRWuGsa0ZZXgb0OgMMtlJUe6qRnabfcUITjfAopRMZCt8BGctCzZkNHK/rwpGzv2F4+Fec6TgGs+yP7jktv2GovQ81Pc8xPPwW53tGkCubUsnv/ISJiT9Jx3jveaTLBlMh/1htFzp6X2P48jpOHzkCk+/v2SzvOobHN/zl/XJOnoZeJkfbcBuLS8NwhPnrNjNWo2fqF/y4+hmPnr/B9K0RuMwBzxH/m3vz2EPcffYJiyu/YKzX7b8/75RFQ79hbrwPnVPPMb/61ls+PVC+avJTwLszdx42Wb14eZZWjLaxJUyvvMf8yjNMDHhgCaknyzqHmxHIkJJ8xvTwTG347y+8TDdPOvzeunjbJx5MzNSDq2tP0JEZaLtIozB8/yG9kF4IA8mDgRAylIMSTy0cBi/50WgzUVhfD2c6kaGtdIq94hkSZGXo9CRKs52w2k/j+ODvOFFh8w+2nAwNX5hFXV4hLLYmeE5/wFCHB6k+UpCqy4TRmIX0yjlEIkNDp8ZQmuWENfc8Tlz6I46XpkvyWaoFZrMD5tLvMTx0E0U8zg+DMcgDlNf3HIsTHn+d5LrO7VvFwp0hlDhyYHPW4djUK0z3V3jlsxQUXFjD/dsXUObMRY7rGIaWPmC8zeyXxcnQwuNZHKspRHZ+E07d+4C5CQ+0vvZpjJmSdyfz2ByWQ8gQY6momHiLudtDqC4pQHbxUQwuvcdYq7d9op5KZEhZvgpaU5bXu5SRhYyKYdxa+w0DNWkJa5+/jsyJnvnPGKqnqTKhEwqTZ6AjW5Oto2EghAwZYClsQE1FIazpVmQVu1FT6YSBpsn8g2s0hfL0vUaGTlUFyE9m4wuMdjb7yQgnQ6OdLf7zlPybGL0wiswQD4m6+IeIZOhkhdWvH0frWwy2VPvPuT6iTZOVXHqNH4cqg8oIPbtG3mJmuBbqkPpIcqUB/gP6qwLejqxTK1iabPLL4mRo6UoLUnzlU9w3sbQ8irwQeanNP2wiQ6IO8rDgwkvMXa7xy5fqoeAZEmWjyWdqJ7rvfcQPl+ug89WNJbB9jNnQcXcD421eoiXqRSENEoQBwgBh4A8IIkN8KkqTlomC2ha43R40NNYgJ33n1/woTYHFkkbTZOE7s/AMHS/V+wfv9JrHGD/e5ScX0jRZa2BwZ2mVcJXXwBhCFpTIUHexxi8/07OG4fYG/znvZFHJ0OU3EcmQ1jWK6RcfMTM7h6FLQ2ipckDjJwulOPN4Aw/XPmHphe9Y+4zl6x1+8iNNk8nICzNXwtNZA0tI+yKRFVPFIMbuv8L8cyF/A/NjIe2LkwxxD1Re7woWHgzDqQkQO8YS1z5BhiaOGIJsQw/B8H2H9EJ6IQwkFwaCyJBGa4GjugElORZotWlIsxShvK4CNloztKUBZK95hrZChiI9AHaSDBUPvcaPl4K9SfJ6aKwuVHeex6mxB7j74iOuddsle3jJAvdEOZCZIzssAfIXSobkcuXxcGSIqevQ//QdJk/Wwe6TXzv6KuFkSFs6hunVR+jMVQfhLJHtYywTnTPcMxTQjbz9FE+uBz/Zm+xNGAjGQDAZMhWhur4UZt+0mEabhqzyVrhyDLSAegtb8PcaGdo0TdbRBObzjIR6hiJ1kLjIkP2K4tb6nDNP8fBGp3+dkqgDYyqodQZoZQu+bSeeYHnqmLTmxzuN9DsuNQRIhMacC7s1MBUUFxmynsG363No1Hm9Nbw+ruG3m8lQZuQF1KIt4cgWT2P6OvQ/eofJzmz/VKUok8j2MVaGs08+or+a1gwJ/VIYPBiQPkgfyYyBQzVFNmg4+dHqoUnLhaupAUXZFuh03DNUgLJGDwqstIB6KyDZa2Ro6JTyAuoh2TSZvJ18+kZryAosoO4bRY6Rn9skgiKm4aJOk5nP49zYT/DkFngXUKfpgjwgKa5JzD77AbVpgSkiXg++26rh298xc/00SvLsyLBXonPqLeaGayXiwHwLqBdmJ1BdmIvs4g4MLPwRV7sy/fKVyBBvX5rVu4BZWkA9P4oivlU+wwZ9KgNLcWPg5w+43ueBI8eJouZJTDx6s5kMaY9gdO03DDY7YZXKW6FLYYgqn+lRPv4r5qfPwSmV89bFbNT6PF/eBeLbbZ/clilFo7j7YgbuEB3L81CcBkPCAGEgWTFwyNNyBPyoclokUpSWWQRXbRPqm1pR765DSW4GdLSA2j+4xgKUvUaGjtd2ou1MYGu9ReZpUfIM8WmapgthtsaPr8OTyQd779b9qGSIpSPPs4iLw5+lbfab1hQxG5pvvcPs9ePIlK2Z4bpOyWrDuennePDiMx6uvt68tV5XgJaJZcw8+4T5lV8w0e+BWbb1XZkMedfkiC3tIlxeX8epIi8xS68exuTiGyysvsat66fROPBsMxliatg7p/H9yic8Wt/A8vpTdOVw/SjLZ8yB4w82b62Xr0licbRPYDUl3Y3eB+9xs7fEv1ZMpFFIgx9hgDBAGPgD6AvUW5j+ihUwe44MlQR7YmJtx5fMx7+n0z71CvPLi+jID/YQfcl6HLR7pTfewPTP7/DtQB2MMpJ40NpJ7aEBnTBAGIgHA0SGkoEMyXaTxQOWnS7LmAbmkna4cogMJUrXxpJmuLLTNq1HSpR8kkMDEGGAMHAQMEBkiMjQlqYADwLoqQ308CYMEAYIA4QBOQaIDB1gMiQ3NMWp4xMGCAOEAcIAYSA8BogMERkiz9AOYIAeOOEfOKQX0gthgDCwFzFAZGgHBsK9soB6LwKO6kQPQsIAYYAwQBjYaxggMkRkiDxDO4CBvdbRqT40+BAGCAOEgcgYIDK0AwMheYYiA446I+mGMEAYIAwQBvYaBogMERkiz9AOYGCvdXSqDw0+hAHCAGEgMgaIDO3AQEieociAo85IuiEMEAYIA4SBvYaBfU+GDlszUFFRAYPBsGc8HESGqKPvtY5O9SFMEgYIA4SByBjY12TIfNiKsrIyWK3eMC0t8Lfy3TR6spEhxtTI/3oWV8faYWaJ/3r0TsvfTawk8t7qDDe6xu6jpyJgg8yjUxjpPwq7PnAtkfckWZEfrqQb0g1hYP9gYN+SoXSzRSJCggDxkBMjcb6bIEw+MqRD5cga5u71IWcLZKhs9B0CP0edgTs1/IDN2Pbk7yYGvvS9tYXncWNlHRPnOuEwBvSYmlmHzsmneLD0HarMqj3jPf3S+qH77Z9BiWxFttoNDByqKcyAVpfmP3TpuSiqakS9pwVudzXys9Kh3WN/rTeZzWGJz14hRMlGhrYL3FSjDZaMLFhcw7i9HpkMbVd+spRjmgr0PnqH8fassP8gY8wA18ga5qe6YNoCWU0W/VE7afAlDBAGgsiQRpuB/LpmlOXZoNcbYMh0odpTB4dJ7ydLcuK0G3FdmhGVlZURPUCcEPF0lWr33oL3Ehlixmr0TP2CH1c/49HzN5i+NQKXOeA54H+Lbx57iLvPPmFx5ReM9bphkv3dvGjoN8yN96Fz6jnmV996y6cHyldNfgp4d+bOwxYy2LK0YrSNLWF65T3mV55hYsADi0w+fwixrHO4GYEMKclnTA/P1Ib//sLLdPOkw+8Bibd90R6SUfWr0H7mHMKdF3dQow3oU1Uyhpnn06jSeK9Fqz+vn7bhNhaXhuEI0au87szUg6trT9CRGbiXPJ3iNBgQBggDyYyBYDJkLkJ1owtWnydIozUgp6IN5Q7jniFDnIBxsqNktGjpSmUTkbaXyFBu3yoW7gyhxJEDm7MOx6Ze/f/tvflXE0nbx83fUzdLYgKBCIQlHPYl7BAPRBAFRR1XVFBQFkFvccYNF5jIKjODjiji3I7b7cD7POd93v/p+57qpJNOSDpRtkC+P+R0ku6urrquT3V966qqbkz01ir2EyIJpVdX8PzRVVQXFyLfcRID819ws8Pqs68UQ7O/TeFkYxnySg7j3LMvcI+6YPSKHoMlR4nu5Jx0YzFIDAmRgtrRj3A/GkBDZSnyKo6jf/4zRo5k+NKX9tYTQ/rpJ8KYnuuJLmXnIrt2EA9W/oO+Rs/csa0oXyQe9O2rX34hKnHuxRf0Nxt89pDpzY93KvaNJv8yf0WX32Bu1OVLI1SehSjG6Zk1DBzavU5CqHzxPzbAZIAMxAIDgWIoswJNAWLIgvy6dlTkxk5kiGLo+yqOY+gjJgebkBwUsZHweRrIL+it90cLcs8tYX7ssK9hlWJo/lY7krznJznvY35xGEVB6aW0PdkghkIBXnr1Hdw3Gn3pK/nQiQypaURKXyQXo/vZVzy50QyTN29bWT41H8FbPfsGHyt/a8svRCLK+1cxPdKi2FeIApx8/g9GjlgU+0STf5lm5fUP+HVAv4MghA2dT9dxsyM2FhmEsg3/+766TXvRXmRg6xgIFEOmPJS3tqGm2IZUswWWPAcaWuuQkxqbYkhGgII/Eg5GhvyAGB3DmHj7FZNTbgxcH0B7fQEMPrFQhQu/rWNh5Rvm33o/K2tYHO/0iR9lmEwjXoS1Dq6uRmRGKYbSa/sx8vw9Zt6o6a9jZqRlS8WQjEAV9SxhdnoQxd7hJcmBEFtXvnA3HT37ynMilT+p+hbcS3dQkSQgsi/il5VpuLwToKPJv7xG5Y2/oxZDo0dj5xEU4WzK//31l7agLcjAzjAQIIZk1MVsq0B1cxuchw6htukwGkqzY24CdSSxE2n/dsMVS8NksqyGLAcauq7g3Mg0nr79ijvddm/kQYqFj+hvL0BOvuaTafaJlWAxFM52oSI3IrkZvS8/YexsM+ze9JuG32+5GDJWjWBi+QW6CpN9+Zb59IiJrSlfuHLr2jeK8ksb9b36CxeqEpF+fAYLE2dgCRCr+vmX168Y+IBfrzcElD04v0LkoGtSRob8vg0+hr935qZLO9POZCD2GNgghtRJ0Ya0IlQ7a2Ezx1ZUiMNk0UMkh2GSTWkwJvmHwWxnfsfivZPeOSlyHsk/uN7iFxEGayHsWf6hlE2JoawL+HnVjVaTdzKwSIRj8ONGMZQTfgK1etMIJbbkPmFuRu+LTxjrytuwksozzLQ15UtOy0aaMXC+TUT7RlF++QylutHPeNLbhNZ7/2D8VI5P1ESTf2mD/AsvsXC3CylB0TrVdoqdRDUu/v4VvQ2BZdAew+/R1y3airYiA/uLgYTGchsMcsK0Zvm8wWhBbrULNYUZMTVxWhVqkSI/kfZvN8SxEhmSq61afv4Hk+PnUVlkR7a9Dl33PsI92KQIB3WC7uzUKBrKCpFX0Ym+2f/i9gl/g6wnhuTwVGqWZwKzMoF6Zhjlcql8tg3mFAGR5ETfqy8Yv+xCQX4xytvGMPri741iyHgUwyv/QX9bMbKU87NgksNGkdIXZtTc/AszE5dQrJznyYvVYlQExWbLp3IiLF24ubyOhdl+2DWCI6J9oyx/yqGHmHXP4c7rP9ClWe0VTf5lHpMcY5h6/QRNqX7Rq+Zd3SaVD+Pp20k4dY5Rj+V2f93k6U/6kwxEZiDB1X4U8lNfnOkTPqacGjQ3V8CqEUiqEImFrRQ7kT676fxYEUPSBkm5Hbg08QbTb9ewsPxh49J6UynaRxcx+fobZpb+xGivC1bNEm19MeSZk6MuaVe3i6urOFfuaZgzGgYxNvc3Zpc/4MH4ebT2vd4ohkQy7F0TeLj0DS9W17G4+hIn8qUY0k9fTjg+Nb1xab12TpLYRPlUhoS5Bb2LX+CeOLvh0QGR7BtV+U1HMfR2HYvPryJHI7bk9SPlXzlG2ND24BOmxk8hRzNnSs1/UoYTPdOfcb+nMuREevU4biPfMGkj2ogM7E8G9uwTqLWibLcjQcGVI5bEUHDe+Ht/VmT5PKJj995jZnEOnSX+CFFG611MvPqEn/uaYdGIXHKwPzmgX+lXMvBjDFAM8a31vjkqrEQ/VolixW5CGGCtPAZHvl8MWSrb4MhL3TCfKlbyzHzsbeboP/pvvzBAMUQxRDG0DQzslxsEy8HGjgyQgXhggGJoGxpCDpPx5hEPNw+WkZyTATKwXxigGKIYYmRoGxjYLzcIloONHRkgA/HAAMXQNjSEjAzx5hEPNw+WkZyTATKwXxhIOHDgAPb6R64m2+tlYP73Pof0IX1IBsgAGdibDFAM7QMxyMq3Nysf/Ua/kQEyQAZigwGKIYohRtXIABkgA2SADMQ1AxRDrABxXQHYK4uNXhn9QD+QATKwmwxQDFEMUQyRATJABsgAGYhrBiiGWAHiugLsZk+E12ZPmAyQATIQGwxQDFEMUQyRATJABsgAGYhrBhKejA+gq8LqM0Kq/RAujz3EpHsKT34ZwqnqbN++WFWwXFofG8o6VvlgvsgHGSADZIAM6DGQYG+5hidPLsFhNsJozMfxO5MYO1GGzDQLcht68ODZNTRYjDEtiCiGCLke5NxHPsgAGSADZECPgQSjsQa9U+PoyjXCmOrE4MwQWlI94sdotOPUL49wppRiSM+I3MdKRgbIABkgA2Rg7zKQYLJ34+dnfahPNcJoacXIzHU0GVUxlIsTd57gQiXFECHfu5DTd/QdGSADZIAM6DGQ0H37CUaP5MFk1Iih1Gpc/GUMR+0UQ3rG4z5WLjJABsgAGSADe5+BhIdX6pCpRoIYGYrpuVGscHu/wtGH9CEZIANkIPYYSMg3+YfAQs8ZmsDZMv8xsehETqCOPbBikRPmiZyQATJABshAKAYCnjMUsJos1buabPI6mtMphkIZj/+xUpEBMkAGyAAZ2PsMJMxMT2Nm+jn6GjyCJ7WgBZfHHmHS7cbk/Zs4U8fnDBH0vQ86fUgfkgEyQAbIQDgGAiJD4Q6K9f85TEbAY51R5o+MkgEyQAZilwGKIT6CnZPGyQAZIANkgAzENQMUQ6wAcV0B2FOL3Z4afUPfkAEysFMMUAxRDFEMkQEyQAbIABmIawYohlgB4roC7FSvg9dhD5cMkAEyELsMUAxRDFEMkQEyQAbIABmIawYSjKZU7PWPXE32r3/9ix/agAyQATJABsgAGfhuBiiGCM13Q0PhSeFNBsgAGSAD+4kBiiGKIYohMkAGyAAZIANxzQDFECtAXFeA/dSzYVnYUycDZIAM/BgDFEMUQxRDZIAMkAEyQAbimgGKIVaAuK4A7EX9WC+KdqPdyAAZ2E8MUAxRDFEMkQEyQAbIABmIawYSmhvrUJBl8S2vN5issFU44WzrQGNZtu//WF5+z6X17KHspx4Ky0KeyQAZIAM7y0BCur0WzS0OZJnMMBgzYa9zocFRjPxKF8UQewpx3VPgzWhnb0a0N+1NBsjAbjGQYDDmodzlRKFFiqEs2OzZMBnNsJZRDO2WU3hd3hDIABkgA2SADOwcAwnGjHLUt9bAZjIHDIlRDO2cEwhSQtFqAAAgAElEQVQ8bU0GyAAZIANkYPcYSChqcKGmMBMGI8UQQdw9EGl72p4MkAEyQAZ2i4GExqp8mIOEkJwszcgQodwtKHldskcGyAAZIAM7yUCCJYQQohgihDsJIa9F3sgAGSADZGA3GQh4zpBnqExOpDYjs9yFxnKbZ/gsjGCKleX2XFrPSrSblYjXJn9kgAyQgb3NQELL4SOQn4pcKYJyUNbaAVf70YBPfXFmwOTqWBFBaj4ohvY2hLyJ0H9kgAyQATKwmwwERIZUcbHXthRDrES7WYl4bfJHBsgAGdjbDFAM8cGKfLAiGSADZIAMkIG4ZoBiiBUgrisAe3N7uzdH/9F/ZIAMbAUDFEMUQxRDZIAMkAEyQAbimgGKIVaAuK4AW9GjYBrsmZIBMkAG9jYDFEMUQxRDZIAMkAEyQAbimgGKIVaAuK4A7M3t7d4c/Uf/kQEysBUMUAxRDFEMkQEyQAbIABmIawYohlgB4roCbEWPgmmwZ0oGyAAZ2NsMUAxRDFEMkQEyQAbIABmIawYohlgB4roCsDe3t3tz9B/9RwbIwFYwQDFEMUQxRAbIABkgA2QgrhmgGGIFiOsKsBU9CqbBnikZIANkYG8zQDG0hWJIiHTUdLtQIAQFxhbalTeZvX2Tof/oPzJABmKdAYqhLWq0RYELPT3d6Ha54OruQXdNOgXRFtk21isR88cbPRkgA2RgbzNAMbSFDbZIr0F3Tw9cBYwM8cawt28M9B/9RwbIQDwxsK/FkBAFcPV0o6bGhUuXLikfbcTGs79nw74Clz+yox6jChwlAtRdg/SgoTDPcXKITF6TQ2XxVIlYVjYaZIAMkIG9zUAciKEe9LgKlCErT+SmGzXpAj6hlO6J4njm+3iiOuk13f5zClzo7u72DXtphRLh39vw03/0HxkgA2SADEgG4kAMecSPLKxH8HjFUIE/WqRGjeRWRo48oskT3SlwyeML4FKiQXKCtD89ViJWIjJABsgAGSADe5+BuBZDPSGGuyTUftEUJIIKatAd5hxWhr1fGehD+pAMkAEyEJ8MxK8YUub2BE52LnD55/rIoTI5PKYOsam/tXOOWGnis9LQ7/Q7GSADZGB/MRC3YkiCrK7+UofJ1EnS2n3qf9r5RqwE+6sS0J/0JxkgA2QgvhnY12KIcMc33PQ//U8GyAAZIAPRMEAxtIXPGYrG4DyGFZMMkAEyQAbIQGwxQDFEMcQnZZMBMkAGyAAZiGsGKIZYAeK6ArB3Flu9M/qD/iADZGA3GKAYohiiGCIDZIAMkAEyENcMUAyxAsR1BdiNHgivyZ4vGSADZCC2GKAYohiiGCIDZIAMkAEyENcMUAyxAsR1BWDvLLZ6Z/QH/UEGyMBuMEAxRDFEMUQGyAAZIANkIK4ZoBhiBYjrCrAbPRBekz1fMkAGyEBsMUAxRDFEMUQGyAAZIANkIK4ZoBhiBYj5CiBEMkp+msLtkWOwCrFt+U3OduLEyHOcrv2+a+xU/tiT/LGe5Hb6J+f4PQz1Hofd/H3M0Jc/5kvajXbbLgbiWgy1OI34/y4dUD7/15OC40mxdUMTogCnptcx6Er2CYDivhXMjLT4fm8XGNp0RUo7Bt+uY9Hdi2yNGBEiF8en1vHb+/9H+Sy8fo8Hd/vhyEzy5a9+7Jtvv3rcnZM2Zb8oH8bk61/g0NhdFPVjYuUZmk1+XwhhQt3QCtzPLiNfc31tHjf73Vh2BXeXVjF6qQsFFs21nfexMH8Ddp3rbjZ/ovY2ZpbGUBriGsJUirbheTxZ+oKZP/7E6JVWZCb687fZckdzvl7+ojp/H/OTktOMrrGXmJ7/BfXWRB/30diFx7BhJwOxw0BCc2MdCrIsMJpSlY/JWoiKBhech9sQvE89Zre3dXV1iPSJBjKjUSA3NRG5tmSsUAyFvZELxxh+nVnC/RU3WlP9DbEqhsZOFiAzOxe2omacuP8BcxNnfBEcgyUHmdkF6Hy0jolrzcpx6SaPWBJJLgwsr+B0iT/NtK5pLD696Ds/Gj9u9hhhqEXPi0+4eSwXiUGCREQhhjZ9/TBiSIhElPStYM49hsbyYuQ7TuHGi6+41eURk5u9brTnb1oM7Xd+RBocQyuYuXcC6UH8RGtjHhc7jSJ9EZ++SEi316K5xYEskxkGYxZKnIfhKMiC2ZQG7b7dFkDa60shpAesdr9ITsSp5hS8P2PA2hkDZhqSkBvUsxaWZCyHEUMiJREXDhmwqjk/R3PDE8ZE3Gg34Mt5I/7f8wa860hGiyZkHmm/XjmiiQwJSwNO3/sTvy6v4cWbvzHxYAgOq19cCGMp2kYW8PT1N8wt/YmRHifSNeUvH/gP3Dcvo+veG8wsf/Scn+E/X+Yv79wSfh3oQuezL7ja5I9SqWJoqM3g84fI78XD1Wm4AkSTAS2/rOPhhWLfcTJdISxoe7iGO93Zyv9CJKFu9DMeX6n0HaeNLC26r8Cmsb2Shk75cs7+gYnLFRAiAx0T63jW54AcMmm+8zcuaYbCjC2PMDc/iAKNXVS/RBJDEfOn4x9RP46ZVX9kTY2cLT4+rzSqQuSj272O4Tajzx7ZnRP4ubcZSV47RPJfJP+L1Ap0jMxjYukzZpZeY7TP5Ys8RcpfJPurNtzv/Ch2SD+N2yu/ozMnsO4o+0xOXF74DPfDMwGRVdU+3MZn40u/x5bfEwzGPJS7nCi0mGEw56CoqhgZRrMSJdLu04qR3f6uFTuhgFL3CyFQXW/A/xxPRmdWIkpsSXh8yojF8sBwdjgxJM9vO2TE145kdGQnoiQrCROnDHhe7D+/ss6A9WPJaE5PRIE1Cf1HDFit9w8TRdofKv/qf9GIocLLy5h9PIDKgnzYiptx8t57TPTW+sRF6dUVPH90FdXFhch3nMTA/Bfc7LD6GlfZmM7+NoWTjWXIKzmMc8++wD3qgtHb2ErB0v7ov7jeakTR5Td42lflOzekGMq+iF9WZ9Ge7m8UhAgthmQ5ZUM5/++jSBECQpTj7MJn9Db47eeJLOUi56QbwWJIiie98iW1PsLcrXYkimpcnHiNifEuJCsCYxHHsvz5k+WaG3X5yqXaX24jiSG9/Mnzdf1jzEROfgFyOh5iZuk+muV3+cmyKGJHiFKcmV9Dv9OfV23e5Hc9/0WyjxApqB39CPejATRUliKv4jj65z9j5EiGh5+I+dO3v2K/OODHU85inJ5Zw8Ah/71B9ZWwdGJkeR0Ls/26w63q8dzGViNJf8SHPxKMGeWob62BzeQRQAFCR2+fd1gt4Pgd+k8VO+EgVffLYYb+40ZMFfobE5s9GQ/Kk3w9a5lGODEUKv3aBgO+Nvkb60NOIz42JymNeajjI+0PdY76XzRiyDH0EZODTUgOipjINISQN+gv6K33lz9Xio+xw76GXzam87faffZIct7H/OIwilQxlHwY15c94iap/i5mJi8hU93nnTOkRoYSU3JQN7yMhZlrAXN79MSQMgS3NIYyKYYyzuDOyhRaNPOFVFuktD0JIYb0yyeKB/BYDrkZuzB85xYuP7yGXNGE3j/uo0YTBaq8/gG/DoSONkYSQ3r5k/v0/KOeG24YKloxFM5/0fhfzYO6Lb36Du4bjT4+5P/h86dvf+XcOOBHKaewofPpOm52pAbYTrVrclo20owbhZK6n9v4aHDp59j1c0JRgws1hZkweKNBqrgxmLIQbp96zG5tVbEjt8EfCZu6X4qhW6cNuJfnFwOhYNQTQ5k5yZg+YcDaeSP+94IR/3vRiPVDfjFksqXg3QUjPh5PweOmZJzLTYRJI0wi7Q+VH/W/aMSQ0TGMibdfMTnlxsD1AbTXF8DgEytVuPDbOhZWvmH+rfezsobF8U6f+FGGWTSNn7DWwdXV6Bc8lTcxNdOPPClWTF0Y1YgVNTL0wpv+wrt1zM0/Rnuxf1hHlkVXDKUcweDbJZzIE0g+9ADzGrGl2kFuQ4sh/fIJUzdGpdAq6sfNKy4cffAAtZbTuP28D9qhzsobf2+bGNLzj1q+8GIjusiQVrxo/SeEvn3k9dNr+zHy/D1m3qh8rG+YoB8+f5HTF3HAj7Sj8Iqh0aNpIcWQ6mtuY7cxpG/i2zcJjVX5MG8QQlbk1rQi1L7dEkDa66piJxy86v7NiiGRlIT7Z42YdyShPD0RRZZEdDoNAWJI5sFkTkRHWTLGnAZ8uGDEbxWBPcBI+8OVIxoxJM81ZDnQ0HUF50am8fTtV9zptis3ZE9j+BH97d7hF3UYJtPsu2EHi6HgvOScXcLiyjfMLH/BzPJXLLzzD2OpYmjsdKkyvGPLTPWJLG06umJIWNHxeA03Oywo6XsXMAynTSO8GApfPiFq0PPHJFoOP8DwUQtqb07jWPMNPP730YB8Vgx8wK/XG3w20V53s5EhmVY4/6jXCS82vl8MqWnKbST/i+Rm9L78hLGzzbB72Wgafv+dYii8/WUe4oEfj61z0DUpI0P+uqX1Bb/Hd0NL/8e+/xMswULIaEF2ZQuaaosQvE8rSHbr+wFzmhL5OXDgQMjGy2QyKfsTExOhDJOdCBwmyy1KwWRlYkBjKNKS8TrEBGphTsZSTwpOpXgiS3IO0aFmvxiSv1OSBUyaIZcChwH/154EszIHRn9/pAoiRBaOPV3H6DGLr6yOwY+Y6vcM6cjyJZvSYNQsTbed+R2L904qc348wyT/4HqLf9KzwVoIe5Y/lK8nhoRIw+EHa7h1uhS2XLvyaRr5yzfBWRVD6jBZuPLoiSF5jr3nNaaHT+DY08AJ2tr0QoshOUwTvnxCZOLo41foHZ7ERYdA7rkZXL7+CI8ulfvsKa+Rf+ElFu52hRzq3IwYiuQftXyi5hamQyytDzWB2nb8Me73BU2g1kT21DTlNpL/RdYF/LzqRqt3WFLmV/IV/OiG8PmLZP/44Mdj62pc/P0rehsCO0KqPxJTzDAk60eo1WO5jf2Gkz7afz4KeM6QwZgGa0kzmhrKkWEOMYdoh+YERRJa1dXVqKqqQnKyv5GXcMrf8n+Hw6E0dsoE6gYD/tc7gbrUloSnp414URZ4UxLJSXBfNGKiOBF5cql9aiJSEwVEYhIenDPgjzpPZKi+OAUzp7ViKBEn24z4eDgZzRmJyE9PwpV2A742JylLtGXjorc/mgpVdHkZ8+4xNJQWwV53Bbdefcb1Fk8oXggzWn7+B5Pj51FZZEe2vQ5d9z7CPdjkvb5nguvs1CgaygqRV9GJvtn/4vaJHJ8Y0BVDya3oX36NkwV+exnbnmDBu/Q9GjGkt7ReLX9i3R1MP1/Ez8vBS/dTkJqVqyzHVyZQzwyjPFv+tsGcIidcRy5fzcg7TMw+QYdVINn1GA9nXmHkSGDvPckxhqnXT9CkWQGn5k0RQ4t3UK9G1ZRtLtKS5fUj5U/fP75r5F/Bw3d/4GydJ8KWYzV5+dUsrS8r8i+tP+5fWq/rvwj2EUlO9L36gvHLLhTkF6O8bQyjL/7eKIbC5k/f/iJO+JF+TCofxtO3k3CGYijtCAZfrWHefSVgLp3qf273X8NKn+49nya0HD4C+anIlUvrbSg91IFW73/afZEEyk7vt9vtKCkp8TXqEj75Oy8vL+A/uTT+tNOAv84Ywy+tFwJlZSl4e8aI/+uRHwOueR+8Z8tLxvxJA9bPG/DmcDJO1fvFkLxmsiUJ40cN+HbBu7T+SErA0vpI+yNVGmEqQ/voAp69+oqZpT9x85ITGZo5SUm5Hbg08QbTb9ewsPxh49J6UynaRxcx+fqbcv5orwtWTSRLtzFVHop4Fw7N8SL3Eu6vTMJpkmLA89BFvciQdum5unRcfeiiWnZhOoaRlVAPdfTMSVHPU7eLq6s4V+6N1kUon1xev7j8C6plpK5sCE9X/8K5Cr+4k3mQ8z3aHnzC1Pgp5BiC9snnDAUtf19cfYkT+bL8kfMXyT+e62egum8Ok8trygMqtZEZ5aGLI/N4+lL637v0XRMJ1POfknYE+2Q0DGJs7m/MLn/Ag/HzaO17vVEMCf38hePL81DN/c9PUoYTPdOfcb+nMvRCBtMh9L74AvfE2Q2PhlDrALd7r/Gkz/aXzwIiQzstaDZ7vZLSUp/4kSIoWBwR1v0F63b6Uz6P59i995hZnEOn5iGQ23lNpr33+cxovYuJV5/wc18zLJpOA327931LH8aXD/e0GDKnWlBV5UB+fn7IYTPCHF8wb9bfcm6TtfIYHPmB0aHNpsvz9y+Hlso2OPJSNzy5nD7fvz6nb/enb/e0GJKRpXTrQWXCtJw4TUj3J6T0K/1KBsgAGSAD28nAnhdDUhCpS+m301BMmxWRDJABMkAGyMD+ZIBi6F/707GssPQrGSADZIAMkIHoGKAYohji8CIZIANkgAyQgbhmgGKIFSCuKwB7TdH1mmgn2okMkIH9zADFEMUQxRAZIANkgAyQgbhmgGKIFSCuK8B+7umwbOzJkwEyQAaiY4BiiGKIYogMkAEyQAbIQFwzsGtiqN+eD1dWNjb7FGourY9O9bJ3QDuRATJABsgAGQjNwK6IoU6bDf9TW4Wv1RUoy8jYtCCK9+cMCZGMkp+mcHvkGKya95ZtFfTbnf5W5ZPphK7ke90u283fdqe/1+3P/O/PekW/Bvp128TQgbxipLlOI/30ICxHzsNUVKWInhrrQfxTU6mIISmI3lWVITvNsilBRDFkQt3QCtzPLn/XW7Grhz8pLwaVL0BdXJ2EMyX0ayiE+LH0d7uyRVu+3c7nj15fiAKcml7HoCvZF94u7lvZ8KLVH00/mvPkO91cw3N4vPQFM0vLGBvogE3zItlo0oh0zI/yF63/fzT9SPnm/sDGhvagPWKZgYTmxjoUZHnEiMGYgcJGz1vsPW+s70CrsxzpRvN3iZVUZycO3vkdmXdf+j/jS7B0XsahrGx02Wz4vaIED4oKle9VVut3pR88tBbvYuhHAUux2JCZnYtMxyAe6YihH01/t8/b7+WLBTFUfOUN5ty30FRejLzKbvTPfsPPPxX4xNluMrDf/b+btuW1KWz2GwMJ6fZaNLc4kGUKFDwGsw3FDa2oKcyC8TvEkLmkBpnjS4oIyhiZQerZMaRfn/SJotTGo4rweVxShIt5uZsSQaooimUxJCwNOH3vT/y6vIYXb/7GxIMhOKz+CIzsWbeNLODp62+YW/oTIz1OpGvefl0+8B+4b15G1703mFn+6Dk/w39+/dg3f3THfQW2oGEykVqBjpF5TCx9xszSa4z2uZCpSV8CLXIv4X4YMaSXvhBmuO6t+64vI0zyc/+svzHcbPkiVThhLEbr4Iw3MiHLdxiZQZEJvfJFsk9E/0Xwb6T8b2Z/NGIoYv43wZ8QGTgysY6bHak+8ZPe1I9rp6qR5OVws/7X409hd5/zvRk+eC4FCxmInoEEgzEP5S4nCi1+MWQwZcJe14raUtt3CSEpTtIv3FaEj+XaYyTaK5BS40JifjnSznn+tw6540oMFV5exuzjAVQW5MNW3IyT995jordWaTyESELp1RU8f3QV1cWFyHecxMD8F9zssPoaFymGZn+bwsnGMuSVHMa5Z1/gHnXB6G1sDJYcJbqTc9KNxSAxJEQKakc/wv1oAA2VpcirOI7++c8YOZLhS19pUHTEkH76iTCm53qiS9m5yK4dxIOV/6Cv0dM4bkX59CqzTL+4dxlz7tueyERVNwbmv+L2idyoyheNffT8J/MWab9+/qtwdv4b5t8GfW4f84kJ/fMjD5Pp5W+z/pHnOwY/4Nc73cgOMcS62fRl2fX529986/me+6Jv5Ggr2ioaBhKMGeWob62BTRMZSitqQsvhVjjKimBN9YskNRKjt7WOziliyNhyGgfaLyrf086MIMXR4osOHTiYg3iJDDmGPmJysAnJQREb6RwhinF65gt66/2RntxzS5gfO+xrzKUYmr/V7msck5z3Mb84jKKg9FLanmwQQ6EAKL36Du4bjb70lXzoiCE1jUjpi+RidD/7iic3mmFSowJbWD41H9qtEHZ0u9cw5DL4ymN13kDfCQcSNfbRiwxp05Pfg+2j5z95fKT9welrfwthQFpOAXLygz6ZZl95tMcHf48mMqSXv63gT1hduDL9BXO/vcDgtfOoyfPnfSvSV8sciT/1uGD/yf+j8X+k9HeDb7VM3LIxJwPbz0BCUYMLNYWZMGiHwixZyLTlI7/qEJz1JUjT7jOl6g5tWYemFNFzoO0CUpo6Yb3zB0xHepBSd8QjhsaXYLRY40YMGR3DmHj7FZNTbgxcH0B7fQEMPrFQhQu/rWNhRRMZWFnD4ninT/wow2Qa8SKsdXB1NSJT09jLihLuZp5e24+R5+8x88Z7jZX1DRNsN9tYyAhLUc8SZqcHUWzwCzshtq58oW4GnvQDxWTI43TEXiT76PlPXivS/lD52ar/ohFDevnbKv+IpHTYm37C6bEXcL9ewulyoyLmtip9aa945HurOGE629+Q0sZ738YJjVX5MIcROwaTHVVtjcj/juhQ+qkbiug5ODKL5AonRG4JEotrkdH/RPnfeu1RXA2TyUpiyHKgoesKzo1M4+nbr7jTbdc0Fh/R3x4+MhAshsJVulCNhUhuRu/LTxg72wy7N/rQNPx+y8WQsWoEE8sv0FXoX9Uk8+lpDLemfKHKvVkxFK19wvlPzVOk/epxwVuZ/+0eJpPXDJe/rfaPHBbLO7eEhV+6lejgVqYfj3wH88Lfe7/BpQ9j14cJFo0QMqTmorC80Ld6zGDMR+XhJhSkRT9UZrLZcfDWC08U6O5LyEnUB70TquXEajnBWg6zxcMwmRCJSDalwaiZ0Gs78zsW751U5vx4hhH+wfUWv4gwWAthz/JPSN2UGMq6gJ9X3Wg1eaI1Mj+OwY8bxVBO+AnUauUN1RjJfcLcjN4XnzDWlRcwNKXsU4bJtqZ8aj60WxkZOflcDpN5IhFyX6ZrDIOnqwPyIsKUT0SwT2T/6ftXm9dQ3zc/TJaFY0/XMXrM4htWk/6d6q/zim39/G2WP5FYh1MP76M1xx8NTGp9hAV3L7KF8A4Db43/Q/EXyX+qzcP5X90vt6HSl//vJt/a/PF77Dai9M3+8E3Ac4YMplyUt7hQmZ8Jk8mC9IJ6OJ1VsGrmE+nNF1L3yWcKWW/4V5DJJfZyLlGq45BviC0+xJAZLT//g8nx86gssiPbXoeuex/hHmxSGmt1guns1CgaygqRV9GJvtn/4vaJHF/jpieG5PBUapZnArMygXpmGOVyqXy2DeYUAZHkRN+rLxi/7EJBfjHK28Yw+uLvjWLIeBTDK/9Bf1sxspTzs2BKko1ZhPSFGTU3/8LMxCUUK+d58mK1qMMkngniP1q+SDcZab/ivjeY906gznecwvUXX3H7uN9+Mg0RrnwR7CNXy+n7T39/pPxvxf6iy8uYd4+hobQI9roruPXqM663pHnFkH7+Ns9fNtoefsHUvSuoKZH8HsUl91c8vVpDvr2vdtCrv1vhf6axPxpi+nH3/ZjgeZ7QEVTkeqI/5uxSVDW5cOhwO5qaamHPSvMJGFXsRLVNy4C52IHUxg6YyxtgTD8YkE48iCEJeFJuBy5NvMH02zUsLH/YuLTeVIr20UVMvv6GmaU/MdrrglWz9F3vZuoZhti4tH1xdRXnyj299YyGQYzN/Y3Z5Q94MH4erX2vN4ohkQx71wQeLn3Di9V1LK6+xIl8KYY8c37UJfPqVk1fnbOi/q9uZ0ZafGJObKJ80dwgZPqeh/599T46IMTS+jDlk+lHsk8k/0XaH00ZNnOMMJWhfXQBz17J8v+Jm5ecyNDMJ4uUv836J9HagJP//g1Pleu/we2hk7Ab/ZGizaQfib9o/CePkU+Y3qt8b4YNnrv7DSx9sHd8EBAZikrkRJhAHW0a8SKGWBl+vDKIsht4HLzsXPn9CI2aoUfa+MdtTNvRdmSADJCBf2HXxNA1ez6O2PiiVkIY/kYkUjKQHbzsXPmd7XvOEu0X3n60DW1DBsgAGYiOgV0TQ9FGkKI5LpafQE0QowORdqKdyAAZIANkYLcYoBjyTnTcLQfwuqz8ZIAMkAEyQAZ2lwGKIYoh32RnVsbdrYy0P+1PBsgAGdgdBiiGKIYohsgAGSADZIAMxDUDFEOsAHFdAdgL251eGO1Ou5MBMhBLDFAMUQxRDJEBMkAGyAAZiGsGKIZYAeK6AsRSz4R5YU+ZDJABMrA7DFAMUQxRDJEBMkAGyAAZiGsGdk0M9dvz4cra/EMXD2Zlo7a2FmlpnvcxUVXvjqqm3Wl3MkAGyAAZ2KsM7IoY6rTZ8D+1VfhaXYGyjIyAd5ZF85BF9RjrwSxUV1cjK8uzTU31v+19rzqE+ebNZC8yIN//VfLTFG6PHINV8260vViW7cpzcrYTJ0ae43St/91tOcfvYaj3OOxm/3/bdX2my3sLGQjPwLaJoQN5xUhznUb66UFYjpyHfJO9FDE11oP4p6ZSEUNSEL2rKkN2muW7BVGGNVMRQqoAklspjNTfdHp4p2+1bUTtbcwsjaF0hxtB9UWxg65kX3i3uG9lw4tot7q8anoi+SiGVtYw8+8OGIR8sW0Fzs6tYcF9BbYftEXptVXMDDt95VGvFWpbPfwJ6stxF1cn4UzZ2gZViFwcn1rHUJshYn6EMKFuaAXuZ5eR/4NlD1VG+d9u8RXJvpH2a8tjLLuCu0urGL3UhQKL308pOc3oGnuJ6flfUG9NjGhnbZr8vnP3ONp6/9s6obmxDgVZIcSIzYGmQw5kmT1vs1ejMdFsU52dOHjnd2Tefen/jC/B0nkZh7Ky0WWz4feKEjwoKlS+V1mt3yWG0q3WkMKHgmh3gN2txiomxNDiEh4sPkR9ioAovIqHz5fwaIfEUIrFhszsXGQ6BvFol8XQdjYWu8VXJPtG2q/aRBhq0fPiE24ey0ViCKEoRBocQyuYuXcC6SH2q+lwuzv3N9o9PuyekG6vRXOLA1kmv+gxGLNR0nwYVXkhRFKEt9abS2qQOb6kiNLgph4AAA88SURBVKCMkRmknh1D+vVJnyhKbTyqCJ8ffWu9KdUC+S6ycBEg+b/cn5gYG70skV6P0/eXMb38GRP3LuLYoL/nH01jLoylaBtZwNPX3zC39CdGepxIT/T3LMsH/gP3zcvouvcGM8sfMfFgCI4Mz37ZOE+8m0W71X98YtUoppYfoc7gPcbSgNP3/sSvy2t48eZvz/ma4/WuL+rHMbO67otO+KIUj8/vyE09KvttonzyJqhrXyUyNIHesXfoa0yG7cxvuD18F481YkiYStEu/ffyC2Z+X8Lg+QZYNA2eSG/EmQeSj0+Y+OUCOm68C4gM6dlfvUmL3Eu4/4NiSC9/vsjQ2S70Tn3AzOv3uDt8DLYkLzuiAKemA/2/cKs9ILoRKf/CWIzWwRk8XvqCmaXXGO07jEw1/Sj4EhH8q9oo3FakVqBjZB4TS5+913chU1O/5HmR7Btpv7HlEebmB1EQlK42TyL9NG6v/I7OHH9d1e7n9/hokOnn3fNzgsGYh3KXE4UWvxiyFDXDWV+MNKP/v2giQvKY9Au3FeFjufYYifYKpNS4kJhfjrRznv+tQ+5NiSF5jUgvZo20f6eAk/MoKq6/x7x7DA1lxSho6sfNxc++xi5SYy5EEkqvruD5o6uoLi5EvuMkBua/4GaH1dfgyMZ69rcpnGwsQ17JYZx79gXuUZfyVneZ/snna7h9Itt3fIkcRrp1BCneBrnw8jJmHw+gsiAftuJmnLz3HhO9tcrxka4vjJnIkW+R73iImaX7aFbfMJ9lQZKmwQ9nbyGqcHb+G+bfBn1uH4vyfE9jrDdMtpnyyXzr2leKodUptLU/wLPBLhydeIGjR25h2iuGlHk0fSuYm/L43157EaNLnzDoSvfaNwXVwx8wNzWK+lIPHyMvPmr4iOx/mcdIjXF4+ydD8hA+f55hsl+fjqClohie/H/D2LEsb/6TYbbmeqJT2bmoHngLrRiKyI9IQnHvMubct9FUXoy8qm4MzH/F7RO5nvSj4EvPv+HKrf4vRApqRz/C/WgADZWlyKs4jv75zxg5kqFc33dcBLEZyf5Fl99gbtQVkKaatroVohinZ9YwcCg2OnFqvrjdvcaZtt9Z2ycYM8pR31oDmzcyZEgrgKP1EIqsqd81dKWKJevonCKGjC2ncaD9ovI97cwIUhwtvujQgYM5+NHI0N4SQ/nodq9j5IjZ23gkovbm94gheYP8gt56f28x99wS5scO+26ssrGev9XuEw9JzvuYXxxGkVeM5Jz9Ay8en0eGMqelDGfmv+J6i8l3vmPoIyYHm5AcQrx4btD615cV9keHMYQwIC2nwCOoVCElt5kee0W6GUQSk/L8zZZPz77KnKHVWbTbOjA4+wYTTy8jq+kXzPvEkEeMDh5O8dm7uHdFI3aKlAZQ3S9EMB+R/a/YP0JjHc6OqlhWry+PC8yfRwzdPpHpy3/RlbeYDdOw23teB4kh/fwLYUe3ew1DLv+cJKvzBvpOOAKGk/T40vNvuHLr/V969R3cNxp95ZXHRhI7kfZXXv+AXwfqAtIMzoMQNnQ+XcfNDi4CCbYNf++sKIhXeycUNbhQU5gJg9EMgzENNocLTeW5MMrfWZVoclbC+h0RIuvQlCJ6DrRdQEpTJ6x3/oDpSA9S6o54xND4EowW65aIIRkBCv5IR8ZOZKgUZ+bX0O/0ixntBNlIjbmMnFz4bR0LK5rIycoaFsc7feJHNtbam7ew1sHV1YhMr7gRtou4924BHVkCoqgfE28eo9Hoz4/RMYyJt18xOeXGwPUBtNcXKJOBpR2jub5yXAxPoN5s+fTs6xFDv+FYthmVP93FudZ8iEMPsOgTQ9J/gWLS9tNvPv957Bu4P5CPyP5X7P/DYihS/jZOoNbmX15b+9kohvTzH6r82vTU73piSM+/6vl62/Tafow8f4+ZN946trK+YQJ+JLETaX/ljb+jFkOjR/mIED1/cV9gnaM9ts4eCY1V+TB7xY7BUoI6Vz3yUj3DYz8ihtJP3VBEz8GRWSRXOCFyS5BYXIuM/ifK/9Zrj+JomGwrxNBH9LcHRU80kZPgxjq4cnh6nGsYP2VD3rklzN05pgyhaY8zZDnQ0HUF50am8fTtV9zptiuNnKex0r++TEevsdJeJ/i7TH+7h8nkNTdTPj37qmKoM9svLsWhh1sshqKwf0yLofD53woxpOffYN6Cf4vkZvS+/ISxs82weyOTTcPvt1wMVQx8wK/XGwKE44a8iBx0TcrIUHRR0eDz+XvrGkXaMj5tmWDRRH0MGeVoaGvHodY2OJVPO1q+MzJkstlx8NYLTxTo7kvISdQHvROq5cRqOcFaDnVxmExGXjLQMbGOW8c9cxTkMEnNyGc87avyihE5zPAPrrf4l44brIWwZ/lD6XqNtVqprd1zeDExhHPP/ovBw/6brbxesikNRu+EVXm87czvWLx30jvnKPL15Tmi5hamf2Bp/eaHybJw7Ok6Ro9ZfA2NY/Ajpvo9QxJbUT49+0YWQ5GGyaR916AOU4UeJtP3v2L/nMgTqJPTspFmDJyPsjPDZOHzr15/yGX0+S/TNYbB09WBw2Rh+IrkX5V/uQ1Z/qwL+HnVjVaTR8zK9CQ/MyMtvvxEY18Rwf75F15i4W6Xb56eNl/qdyGqcfH3r+htCPSRup/b+Gyg6fed83vAc4YMpjSYLelIVT85Vd89TCaFjnymkPWGfwWZXGIv5xKlOg755iHFhxhKRuX1vzwTqH0TZD/55oxI0PPOLmF+5i6ay4tR0NiP8dd/4Uqdp3FQJ6DOTo2ioawQeRWd6Jv9L26fyPHdrPUaa7UiCetP+Pebr5hbfoJm741f7hPCjJaf/8Hk+HlUFtmRba9D172PcA82KY1RNNdX0sm/gofv/sDZulLP/B+rf06Smoft2hZdXvbatwj2uiu49eozrrd4hhq2onx69o0shpJQ0vdWmaBcX6ZOQP6EG63hJlAPYDRggr1nArWe/xX7G49ieOU/6G8rRpZcap+dBZNG4ApLF24ur2Nhth92zdww6V/9/HmGydzPxjQTqP/BWKdnAnWwTzcOk+nnX16/uO8N5r0TqPMdp3D9xVfcPu7nWylfGL4i+VfNX9jyJznR9+oLxi+7UJBfjPK2MYy++HujGIpk3wj7kxxjmHr9BE2p/giimjd1m1Q+jKdvJ+HUOUY9ltudayBp6/ixdULL4SOQn4rcjSvHfmSYTJ1IbUzLgLnYgdTGDpjLG2BMP+gTQlsRGQqeKxT8O1Yg9iydfuNdWt+Do4NBS6dTCnBocBZP5NLr3/7AwKlqmLUNllyaPbqIydffMLP0J0Z7XbBqlujqNdaqDWQEqn1iDfN3uzYMkSXlduDSxBtMv13DwvKHjUvrI1xfXkOmX903h8nlNWWZfXDPWs3HdmyFqQztowt49uqrYp+bl5zKZHH1Wpstn559I4khxTbq0vpXcmn9SwyFXFrv4ePx/cs4NuR/9ILvfB3/K8eIZNi7JvBw6RterK5jcfUlTuT7G15hbkHv4he4J85ueBikb2l9iPypS+tHzp/ENfcHzL7+C3eHu5CjEVqqneVWEUNjbT6hHk3+5fVdw3N4vCT9F7i0Xk1bj69I/lXyoFP+jIZBjM39jdnlD3gwfh6tfa83iqFI9o2434a2B58wNX4KOd5HWqhlk9ukDCd6pj/jfk9lyIUM2mP5PX4aZ/p6Z30dEBnyCZkIzxLaiuM2ExkKvn6sTJiOBl7tBNlojt+KY4QowenZfzDc5h9e24p0mcbOVtZYtrccYqoe/oinfdUBYiiW87yTeZPPWzp27z1mFufQWeIXqhmtdzHx6hN+7muGRdPJ2cm88Vqsx2TgX9g1MXTNno8jts2/qFUKI4oh/cqsrCJbmcQhvv+IDXXQCrDN3ARFkhnpcljOVoAi5xDuvn6HCw7/MvnNpL0fz5Vz5KyVx+DQRO0slW1w5KUGzJHaj2VnmfTv0bTP7ttn18RQcHRnM78phvRBsl/8E/O/dMOkGX5j5dO3Ge0T2T4i4wzuyGG5d//g+cICeo+VbhiGpR0j25E2oo3IwO4zQDG0hT1lAr37QNMH9AEZIANkgAx8LwMUQxRDHDoiA2SADJABMhDXDFAMsQLEdQX43t4Dj2ePkwyQATKw/xigGKIYohgiA2SADJABMhDXDFAMsQLEdQVgD2//9fDoU/qUDJCB72WAYohiiGKIDJABMkAGyEBcM0AxxAoQ1xXge3sPPJ49TjJABsjA/mOAYohiiGKIDJABMkAGyEBcM0AxxAoQ1xWAPbz918OjT+lTMkAGvpcBiiGKIYohMkAGyAAZIANxzUBCc2MdCrIsyhvlDUYL8us60Op9k73yRntnJazGjW+038zrM7b63L30Oo7vVas8nj0cMkAGyAAZIAPby0BCur0WzS0OZJnMMBjTYa9vR3lubIufYDFFMbS9kLAS0r5kgAyQATKwnxlIMBjzUO5yotDiEUMFUgzlUAztZ6ezbLypkQEyQAbIABnwM5BgzChHfWsNbEpkKAMFje2ocdSgvqUNzkNNKMuzwsBhsrgeS2WF8VcY2oK2IANkgAzsPwYSihpcqCnMVASPwZgBe60LdRV2pJnTkJZXjUZXLWzm2I4UcZhs/4HJmw19SgbIABkgAzvFQEJjVT7MYSI/BmMOylsPoTiDYminHMLrsPKTATJABsgAGdhZBhIsGiFkMKbCnGaByeQRP6oYKqIY4jAZl52SATJABsgAGdinDAQ8Z8hgtKKwsQ2OwiyYjGlIy61GU2sNsr3iKHgVV6z85jDZzipo9lhobzJABsgAGdhPDCQozxI6fAQV6nL6jEKUN7jgdLWjubkeRbYM5RlEsSJ8QuWDYoiVcj9VSpaFPJMBMkAGdpaBgMhQKKGxF/6jGNpZaFhJaW8yQAbIABnYTwxQDO3T8c/9BCnLwpsuGSADZIAMbCcDFEMUQ5wQSAbIABkgA2QgrhmgGGIFiOsKsJ09DabNniwZIANkYG8wQDFEMUQxRAbIABkgA2QgrhmgGGIFiOsKwF7b3ui10U/0ExkgA9vJAMUQxRDFEBkgA2SADJCBuGaAYogVIK4rwHb2NJg2e7JkgAyQgb3BAMUQxRDFEBkgA2SADJCBuGaAYogVIK4rAHtte6PXRj/RT2SADGwnAxRDFEMUQ2SADJABMkAG4poBiiFWgLiuANvZ02Da7MmSATJABvYGA/8/mzuRpbv+iikAAAAASUVORK5CYII=;" vertex="1" parent="1">
          <mxGeometry x="190" y="630" width="579" height="372" as="geometry" />
        </mxCell>
      </root>
    </mxGraphModel>
  </diagram>
</mxfile>
